<?xml version="1.0" encoding="utf-8"?>
<!-- Generator: Adobe Illustrator 22.1.0, SVG Export Plug-In . SVG Version: 6.00 Build 0)  -->
<svg version="1.1" id="Layer_1" xmlns="http://www.w3.org/2000/svg" xmlns:xlink="http://www.w3.org/1999/xlink" x="0px" y="0px"
	 width="148px" height="148px" viewBox="0 0 148 148" style="enable-background:new 0 0 148 148;" xml:space="preserve">
<style type="text/css">
	.st0{fill:#BDB8FF;}
</style>
<g>
	<path class="st0" d="M43.5,118.5h-12c-1.1,0-2-0.9-2-2v-12c0-1.1,0.9-2,2-2h12c1.1,0,2,0.9,2,2v12
		C45.5,117.6,44.6,118.5,43.5,118.5z"/>
</g>
<g>
	<path d="M27.2,101c-0.3,0-0.5-0.1-0.7-0.3l-3.4-3.4c-0.4-0.4-0.4-1,0-1.4l3.4-3.4c0.4-0.4,1-0.4,1.4,0s0.4,1,0,1.4l-2.7,2.7
		l2.7,2.7c0.4,0.4,0.4,1,0,1.4C27.7,100.9,27.5,101,27.2,101z"/>
</g>
<g>
	<path class="st0" d="M69.4,22.6c-2,0.3-4,0.7-5.6,1.9s-2.6,3.5-1.7,5.2c0.7,1.4,2.2,2.1,3.7,2.5c2,0.6,4.2,1,6.2,0.6
		c2-0.4,4.1-1.7,4.9-3.6c1.2-2.7-0.6-6.3-3.5-7"/>
</g>
<g>
	<path class="st0" d="M71.1,74.9c7.8-9.8,20-14.9,29.5-23.1c3.6-3.1,6.8-6.7,10.9-9.2c1.9-1.2,4.2-2.2,5.3-4.1
		c1.1-1.9,0-5.2-2.2-5.1c-9.3,6.8-18.5,13.6-27.7,20.4c-4.6,3.4-9.1,6.7-13.7,10.1C67.5,68.1,67.6,68.8,71.1,74.9z"/>
</g>
<g>
	<path d="M73.4,133.3c-1.8,0-3.4-1.2-3.9-3c-1.8-7-3.9-14.1-5.8-20.9c-1.3-4.7-2.7-9.5-4-14.3c-0.2-0.9-0.6-2.1-0.9-3.3
		c-0.2-0.7-0.3-1.4-0.3-2.2c0-0.5,0.5-1,1-1l0,0c0.6,0,1,0.5,1,1s0.1,1.1,0.2,1.6c0.3,1.3,0.7,2.4,0.9,3.3c1.3,4.8,2.7,9.6,4,14.2
		c2,6.8,4,13.9,5.8,20.9c0.3,1,1.2,1.6,2.2,1.5c9.7-1.3,54.2-12.2,56.3-13.4c1.3-0.9,1.2-1.7,0.6-4c-0.1-0.5-0.2-1.1-0.4-1.7
		c-1.4-7.6-2.9-12.8-4.6-18.9c-0.9-3.1-1.8-6.4-2.8-10.2c-0.3-1.1-1.4-1.7-2.4-1.5L72,93.6c-1.3,0.9-3.2,0.5-4.2-0.5
		c-1.2-1-1.5-2.8-0.8-4.3c0.7-1.3,2.2-2.2,3.7-2.1c0.6,0,1,0.5,0.9,1.1c0,0.6-0.5,1-1.1,0.9c-0.7,0-1.5,0.4-1.8,1s-0.2,1.5,0.3,1.9
		s1.4,0.6,1.8,0.3c0.1-0.1,0.2-0.2,0.4-0.2l48.6-12c2.1-0.5,4.3,0.8,4.8,2.9c1,3.8,1.9,7,2.8,10.2c1.7,6.1,3.2,11.4,4.7,19
		c0.1,0.6,0.2,1.1,0.3,1.6c0.5,2.2,1,4.2-1.4,6c-2.4,1.8-49,12.7-57.3,13.8C73.8,133.3,73.6,133.3,73.4,133.3z"/>
</g>
<g>
	<path d="M67.5,83.3c-0.4,0-0.8-0.3-1-0.7c-0.1-0.5,0.2-1.1,0.7-1.2l7.6-2c0.5-0.1,1.1,0.2,1.2,0.7s-0.2,1.1-0.7,1.2l-7.6,2
		C67.6,83.2,67.5,83.3,67.5,83.3z"/>
</g>
<g>
	<path d="M118.1,81.6c-0.4,0-0.8-0.3-1-0.7c-0.2-0.6-0.3-1.3-0.4-2.1c-0.5-2.5-1.3-6.7-3.2-7.2c-0.5-0.1-0.9-0.7-0.7-1.2
		c0.1-0.5,0.7-0.9,1.2-0.7c3.1,0.7,4,5.4,4.7,8.7c0.1,0.8,0.3,1.4,0.4,1.9s-0.2,1.1-0.7,1.2C118.2,81.6,118.1,81.6,118.1,81.6z"/>
</g>
<g>
	<path d="M83,90.8c-0.3,0-0.6-0.1-0.8-0.4c-0.3-0.3-0.6-0.7-0.9-1.2c-0.2-0.3-0.4-0.5-0.6-0.8L63,65.6c-0.5-0.6-0.6-1.4-0.5-2.1
		c0.2-0.7,0.6-1.4,1.2-1.8c4.6-3.6,9.2-7.1,13.7-10.7c9.5-7.4,19.2-15,28.9-22.5l0.1-0.1c1.2-0.9,3.6-2.8,5.2-0.7l20.2,26
		c0.5,0.6,1.1,2-0.6,3.9c-0.4,0.4-0.8,0.8-1.4,1.3c-0.4,0.4-1.1,0.3-1.4-0.1c-0.4-0.4-0.3-1.1,0.1-1.4c0.5-0.4,0.8-0.7,1.1-1.1
		c0.5-0.6,0.7-1.1,0.5-1.3l-20.2-26c-0.3-0.4-0.9-0.1-2.4,1h0.1c-9.7,7.4-19.5,15.1-28.9,22.5c-4.6,3.6-9.1,7.1-13.7,10.7
		c-0.2,0.2-0.4,0.4-0.5,0.7c0,0.1,0,0.3,0.1,0.5l17.7,22.7c0.2,0.3,0.5,0.6,0.7,0.9c0.3,0.4,0.6,0.8,0.9,1.1
		c0.4,0.4,0.3,1.1-0.1,1.4C83.5,90.7,83.2,90.8,83,90.8z"/>
</g>
<g>
	<path d="M90.2,89.2c-0.3,0-0.6-0.1-0.8-0.4c-0.3-0.4-0.2-1.1,0.2-1.4c2.1-1.5,4.2-3.2,6.2-4.8c1.3-1.1,2.6-2.1,4-3.2
		c8.9-6.9,16.9-13.1,25.1-19.1c0.4-0.3,1.1-0.2,1.4,0.2s0.2,1.1-0.2,1.4c-8.2,5.9-16.2,12.1-25.1,19c-1.3,1-2.6,2.1-3.9,3.2
		c-2,1.6-4.1,3.3-6.2,4.9C90.6,89.2,90.4,89.2,90.2,89.2z"/>
</g>
<g>
	<circle class="st0" cx="119.9" cy="55" r="3.8"/>
</g>
<g>
	<path d="M116.2,62.1c-0.2,0-0.4,0-0.6,0c-1.1-0.2-2.2-0.7-2.9-1.7c-1.4-1.9-1.1-4.6,0.8-6.1s4.6-1.1,6.1,0.8c0.7,0.9,1,2.1,0.9,3.2
		s-0.7,2.2-1.7,2.9C118.1,61.8,117.2,62.1,116.2,62.1z M116.2,55.5c-0.5,0-1,0.2-1.4,0.5c-1,0.8-1.2,2.2-0.4,3.3
		c0.4,0.5,0.9,0.8,1.5,0.9c0.6,0.1,1.2-0.1,1.7-0.5s0.8-0.9,0.9-1.5s-0.1-1.2-0.5-1.7C117.6,55.8,116.9,55.5,116.2,55.5z"/>
</g>
<g>
	<path d="M83.7,80.9c-0.3,0-0.5-0.1-0.7-0.3c-0.4-0.4-0.3-1,0.1-1.4c3.1-2.8,6.7-5.6,10.2-8.2c0.4-0.3,1.1-0.2,1.4,0.2
		s0.2,1.1-0.2,1.4c-3.5,2.6-7,5.4-10.1,8.1C84.2,80.8,83.9,80.9,83.7,80.9z"/>
</g>
<g>
	<path d="M86.3,84.2c-0.3,0-0.6-0.1-0.8-0.4c-0.3-0.4-0.2-1.1,0.2-1.4c2.6-1.9,5.2-4,7.7-6c2.6-2.1,5.4-4.3,8.2-6.3
		c0.4-0.3,1.1-0.2,1.4,0.2s0.2,1.1-0.2,1.4c-2.8,2-5.5,4.2-8.1,6.3c-2.5,2-5.1,4.1-7.8,6C86.7,84.2,86.5,84.2,86.3,84.2z"/>
</g>
<g>
	<path d="M67,70.1c-0.3,0-0.6-0.1-0.8-0.4c-0.3-0.4-0.3-1.1,0.2-1.4l47.1-36.1c0.4-0.3,1.1-0.3,1.4,0.2c0.3,0.4,0.3,1.1-0.2,1.4
		L67.6,69.9C67.5,70,67.3,70.1,67,70.1z"/>
</g>
<g>
	<path d="M71.4,75.3c-0.3,0-0.6-0.1-0.8-0.4c-0.3-0.4-0.3-1.1,0.2-1.4l45.7-35.2c0.4-0.3,1.1-0.3,1.4,0.2s0.3,1.1-0.2,1.4L72,75.1
		C71.8,75.3,71.6,75.3,71.4,75.3z"/>
</g>
<g>
	<path d="M99.5,82.2c-0.4,0-0.8-0.3-1-0.7c-0.2-0.5,0.1-1.1,0.7-1.2c4.1-1.2,8.3-2.4,12.4-3.6c0.5-0.1,1.1,0.2,1.2,0.7
		s-0.2,1.1-0.7,1.2c-4.1,1.1-8.3,2.3-12.4,3.6C99.7,82.2,99.6,82.2,99.5,82.2z"/>
</g>
<g>
	<path d="M67.4,82.9c-0.2,0-0.3,0-0.5-0.1c-0.5-0.3-0.7-0.9-0.4-1.4l4-7.4c0.3-0.5,0.9-0.7,1.4-0.4c0.5,0.3,0.7,0.9,0.4,1.4l-4,7.4
		C68.1,82.7,67.7,82.9,67.4,82.9z"/>
</g>
<g>
	<path d="M61.7,91.2c-0.8,0-1.5-0.3-1.9-0.4c-2.4-0.9-4.9-1.7-7.3-2.4c-2.8-0.8-5.8-1.7-8.7-2.9c-3.4-1.4-6.9-3.2-10.3-4.8
		c-2.7-1.3-5.4-2.7-8.1-3.9c-0.3-0.1-0.4-0.3-0.5-0.6c-0.1-0.3-0.1-0.5,0.1-0.8C35.7,54.6,47.4,33.9,59.8,14
		c0.3-0.5,0.9-0.6,1.4-0.3s0.6,0.9,0.3,1.4C49.3,34.6,37.8,54.9,27.2,75.4c2.4,1.1,4.8,2.3,7.2,3.5c3.3,1.7,6.7,3.4,10.1,4.8
		c2.8,1.1,5.7,2,8.5,2.8c2.4,0.7,5,1.5,7.5,2.4c0.6,0.2,1.2,0.4,1.6,0.3c0.4-0.1,0.6-0.6,0.9-1.2l3.6-6.6c0.3-0.5,0.9-0.7,1.4-0.4
		c0.5,0.3,0.7,0.9,0.4,1.4L64.7,89c-0.4,0.7-0.9,1.7-1.9,2.1C62.4,91.2,62,91.2,61.7,91.2z"/>
</g>
<g>
	<path d="M87.6,44.8c-0.2,0-0.3,0-0.5-0.1c-0.5-0.3-0.7-0.9-0.4-1.4c4.3-7.9,8.2-16,11.6-24.3c-0.7,0-1.4,0-2.1,0
		c-11.7,0.1-23.8,0.1-35.1-3.9c-0.5-0.2-0.8-0.8-0.6-1.3c0.2-0.5,0.8-0.8,1.3-0.6c10.9,3.9,22.8,3.8,34.4,3.7c1.2,0,2.4,0,3.6,0l0,0
		c0.3,0,0.6,0.2,0.8,0.4c0.2,0.3,0.2,0.6,0.1,0.9C97.1,27.3,93,36,88.5,44.3C88.3,44.7,87.9,44.8,87.6,44.8z"/>
</g>
<g>
	<path d="M72.3,32.4c-0.4,0-0.7-0.2-0.9-0.6c-0.2-0.5,0-1.1,0.4-1.3c1.8-0.9,1.6-2.5,1.6-3c-0.1-0.7-0.5-1.2-0.7-1.2
		c-0.2,0-0.7,0.3-1.1,1.4C71,28.8,70,31,67.9,30.9c-0.7-0.1-1.3-0.4-1.8-1c-0.6-0.7-0.9-1.6-0.8-2.5c0.1-1.4,1-2.5,1.6-3.4
		c0.3-0.4,1-0.5,1.4-0.2c0.4,0.3,0.5,1,0.2,1.4c-0.5,0.7-1.1,1.5-1.2,2.4c0,0.4,0.1,0.8,0.3,1c0.1,0.2,0.3,0.2,0.4,0.2
		c0.6,0,1.2-1,1.7-2.1c1.1-2.4,2.5-2.6,3.2-2.5c1.2,0.2,2.2,1.3,2.4,2.9c0.3,1.6-0.3,3.9-2.6,5.1C72.6,32.3,72.5,32.4,72.3,32.4z"/>
</g>
<g>
	<path d="M77.9,29.6c-0.1,0-0.1,0-0.2,0l-3.3-0.7c-0.5-0.1-0.9-0.6-0.8-1.2s0.6-0.9,1.2-0.8l3.3,0.7c0.5,0.1,0.9,0.6,0.8,1.2
		C78.8,29.2,78.4,29.6,77.9,29.6z"/>
</g>
<g>
	<path d="M65.9,28.2c-0.1,0-0.3,0-0.4-0.1c-1-0.4-2.1-0.6-3.2-0.5c-0.6,0.1-1-0.3-1.1-0.9c-0.1-0.5,0.3-1,0.9-1.1
		c1.4-0.2,2.9,0.1,4.2,0.6c0.5,0.2,0.7,0.8,0.5,1.3C66.6,27.9,66.3,28.2,65.9,28.2z"/>
</g>
<g>
	<path d="M39,74.2c-0.1,0-0.3,0-0.4-0.1c-0.5-0.2-0.7-0.8-0.5-1.3c2.4-5.2,5-10.4,7.8-15.5c0.3-0.5,0.9-0.7,1.4-0.4s0.7,0.9,0.4,1.4
		c-2.8,5-5.4,10.2-7.8,15.4C39.7,74,39.4,74.2,39,74.2z"/>
</g>
<g>
	<path d="M43.2,76.8c-0.1,0-0.3,0-0.4-0.1c-0.5-0.2-0.7-0.8-0.5-1.3c4.8-9.9,10-19.8,15.3-29.4c0.3-0.5,0.9-0.7,1.4-0.4
		s0.7,0.9,0.4,1.4C54,56.5,48.9,66.4,44.1,76.2C43.9,76.6,43.6,76.8,43.2,76.8z"/>
</g>
<g>
	<path d="M57.7,81.8c-0.1,0-0.2,0-0.3,0c-0.5-0.1-0.9-0.7-0.7-1.2c0.8-3.1,2.1-6.1,3.9-8.7c0.3-0.5,0.9-0.6,1.4-0.3s0.6,0.9,0.3,1.4
		c-1.7,2.5-2.9,5.2-3.7,8.1C58.6,81.5,58.2,81.8,57.7,81.8z"/>
</g>
<g>
	<path d="M74,49.9c-0.1,0-0.2,0-0.4-0.1c-0.5-0.2-0.8-0.8-0.6-1.3c2.9-7.6,6.3-15,10.1-22.2c0.3-0.5,0.9-0.7,1.3-0.4
		c0.5,0.3,0.7,0.9,0.4,1.3c-3.7,7.1-7.1,14.6-10,22.1C74.7,49.6,74.4,49.9,74,49.9z"/>
</g>
<g>
	<path d="M116.2,110.3c-3.4,0-6.5-2.2-7.5-5.6c-0.6-2.1-0.4-4.3,0.7-6.2c1.1-1.9,2.8-3.2,5-3.8l11.7-2.9c0.5-0.1,1.1,0.2,1.2,0.7
		s-0.2,1.1-0.7,1.2l-11.7,2.9c-1.6,0.4-2.9,1.4-3.7,2.8s-1,3.1-0.5,4.6c0.9,2.9,3.9,4.7,6.9,4l12.2-2.7c0.5-0.1,1.1,0.2,1.2,0.8
		c0.1,0.5-0.2,1.1-0.8,1.2L118,110C117.3,110.3,116.8,110.3,116.2,110.3z"/>
</g>
<g>
	<path d="M117.2,105.8c-0.7,0-1.5-0.2-2.1-0.6c-0.8-0.6-1.4-1.4-1.6-2.4l0,0c-0.4-1.7,0.4-3.4,2-4c1.1-0.5,2.3-0.4,3.4,0.2
		s1.9,1.7,2,2.9c0.2,1.4-0.4,2.7-1.6,3.4C118.6,105.6,117.9,105.8,117.2,105.8z M115.4,102.3c0.1,0.5,0.4,0.9,0.8,1.2
		c0.7,0.5,1.5,0.3,2,0c0.3-0.2,0.8-0.6,0.7-1.4c-0.1-0.6-0.5-1.1-1-1.4s-1.2-0.4-1.6-0.1C115.4,100.9,115.2,101.7,115.4,102.3
		L115.4,102.3z"/>
</g>
<g>
	<path d="M51.2,115.2c-0.6,0-1-0.4-1-1V98.4c0-0.6-0.5-1.1-1.1-1.1H24.5c-0.6,0-1-0.4-1-1s0.4-1,1-1h24.6c1.7,0,3.1,1.4,3.1,3.1
		v15.9C52.2,114.8,51.7,115.2,51.2,115.2z"/>
</g>
<g>
	<path d="M47.8,128.5c-0.3,0-0.5-0.1-0.7-0.3c-0.4-0.4-0.4-1,0-1.4l2.7-2.7l-2.7-2.7c-0.4-0.4-0.4-1,0-1.4s1-0.4,1.4,0l3.4,3.4
		c0.4,0.4,0.4,1,0,1.4l-3.4,3.4C48.3,128.4,48,128.5,47.8,128.5z"/>
</g>
<g>
	<path d="M50.5,125.4H25.9c-1.7,0-3-1.4-3-3v-15.9c0-0.6,0.4-1,1-1s1,0.4,1,1v15.9c0,0.6,0.5,1,1,1h24.6c0.6,0,1,0.4,1,1
		S51,125.4,50.5,125.4z"/>
</g>
<g>
	<g>
		<path d="M32.6,112.4h-2.2l-0.4,1h-1.5l2.1-5.9h1.7l2.1,5.9H33L32.6,112.4z M31.5,109.2l-0.7,2.1h1.4L31.5,109.2z"/>
	</g>
	<g>
		<path d="M37.8,107.5c1.4,0,2.4,0.8,2.8,2.1H39c-0.2-0.5-0.7-0.8-1.2-0.8c-0.9,0-1.5,0.7-1.5,1.7s0.6,1.7,1.5,1.7
			c0.5,0,1-0.3,1.2-0.8h1.6c-0.3,1.3-1.4,2-2.8,2c-1.7,0-2.9-1.2-2.9-3C34.9,108.7,36.1,107.5,37.8,107.5z"/>
	</g>
	<g>
		<path d="M45.1,111h-2.2v2.4h-1.4v-5.9h1.4v2.3h2.2v-2.3h1.4v5.9h-1.4V111z"/>
	</g>
</g>
</svg>
