<?xml version="1.0" encoding="UTF-8"?>
<svg width="148px" height="148px" viewBox="0 0 148 148" version="1.1" xmlns="http://www.w3.org/2000/svg" xmlns:xlink="http://www.w3.org/1999/xlink">
    <!-- Generator: Sketch 52.3 (67297) - http://www.bohemiancoding.com/sketch -->
    <title>Icon3</title>
    <desc>Created with Sketch.</desc>
    <defs>
        <polygon id="path-1" points="0 123.042735 118 123.042735 118 0.982324786 0 0.982324786"></polygon>
    </defs>
    <g id="Marketing-Website-Ver1" stroke="none" stroke-width="1" fill="none" fill-rule="evenodd">
        <g id="Desktop-Accounting-Software-Wizard-000-Copy-2" transform="translate(-1059.000000, -1167.000000)">
            <g id="Group-11" transform="translate(109.000000, 1068.000000)">
                <g id="Icon3" transform="translate(950.000000, 99.000000)">
                    <rect id="Rectangle-Copy-7" fill="#FFFFFF" fill-rule="nonzero" x="0" y="0" width="148" height="148"></rect>
                    <g id="Group-60" transform="translate(15.000000, 12.000000)">
                        <polygon id="Fill-1" fill="#BDB8FF" points="36.6778291 94.4080684 80.3136239 94.4080684 80.3136239 40.9550769 36.6778291 40.9550769"></polygon>
                        <polygon id="Fill-2" fill="#FFFFFF" points="43.2243077 87.8625983 73.7681538 87.8625983 73.7681538 47.500547 43.2243077 47.500547"></polygon>
                        <g id="Group-59" transform="translate(0.000000, 0.026222)">
                            <path d="M102.871795,91.4428393 L102.871795,104.467215 C102.871795,106.138378 101.517316,107.492856 99.8461538,107.492856 L18.1538462,107.492856 C16.4826838,107.492856 15.1282051,106.138378 15.1282051,104.467215 L15.1282051,91.4428393" id="Stroke-3" stroke="#000000" stroke-width="2" stroke-linecap="round" stroke-linejoin="round"></path>
                            <path d="M15.1282051,45.9714889 L15.1282051,21.7663607 C15.1282051,20.0951983 16.4826838,18.7407197 18.1538462,18.7407197 L99.8461538,18.7407197 C101.517316,18.7407197 102.871795,20.0951983 102.871795,21.7663607 L102.871795,45.9714889" id="Stroke-5" stroke="#000000" stroke-width="2" stroke-linecap="round" stroke-linejoin="round"></path>
                            <path d="M15.1282051,29.4762991 L102.871795,29.4762991" id="Stroke-7" stroke="#000000" stroke-width="2" stroke-linecap="round" stroke-linejoin="round"></path>
                            <polyline id="Stroke-9" stroke="#000000" stroke-width="2" stroke-linecap="round" stroke-linejoin="round" points="43.2237026 40.9287538 36.6782325 40.9287538 36.6782325 47.4742239"></polyline>
                            <polyline id="Stroke-11" stroke="#000000" stroke-width="2" stroke-linecap="round" stroke-linejoin="round" points="73.7677504 40.9287538 80.3132205 40.9287538 80.3132205 47.4742239"></polyline>
                            <polyline id="Stroke-13" stroke="#000000" stroke-width="2" stroke-linecap="round" stroke-linejoin="round" points="73.7677504 94.3818462 80.3132205 94.3818462 80.3132205 87.8363761"></polyline>
                            <polyline id="Stroke-15" stroke="#000000" stroke-width="2" stroke-linecap="round" stroke-linejoin="round" points="43.2237026 94.3818462 36.6782325 94.3818462 36.6782325 87.8363761"></polyline>
                            <polyline id="Stroke-17" stroke="#000000" stroke-width="2" stroke-linecap="round" stroke-linejoin="round" points="43.0474085 47.9029573 43.0474085 87.941265 73.7677504 87.941265 73.7677504 51.8372991"></polyline>
                            <polyline id="Stroke-19" stroke="#000000" stroke-width="2" stroke-linecap="round" stroke-linejoin="round" points="73.7677504 52.0966974 73.7677504 47.4745265 43.5536991 47.4745265"></polyline>
                            <path d="M47.5031692,53.3819897 L58.128212,53.3819897" id="Stroke-21" stroke="#000000" stroke-width="2" stroke-linecap="round" stroke-linejoin="round"></path>
                            <path d="M47.6745214,58.6148359 L51.9880769,58.6148359" id="Stroke-23" stroke="#000000" stroke-width="2" stroke-linecap="round" stroke-linejoin="round"></path>
                            <path d="M47.8458735,65.9898359 L68.4434291,65.9898359" id="Stroke-25" stroke="#000000" stroke-width="2" stroke-linecap="round" stroke-linejoin="round"></path>
                            <path d="M47.6745214,71.312241 L60.9792735,71.312241" id="Stroke-27" stroke="#000000" stroke-width="2" stroke-linecap="round" stroke-linejoin="round"></path>
                            <path d="M47.8458735,76.6878974 L57.4048821,76.6878974" id="Stroke-29" stroke="#000000" stroke-width="2" stroke-linecap="round" stroke-linejoin="round"></path>
                            <path d="M96.9012974,74.0621453 L112.227178,74.0621453" id="Stroke-31" stroke="#000000" stroke-width="2" stroke-linecap="round" stroke-linejoin="round"></path>
                            <path d="M96.9012974,78.0234154 L104.88899,78.0234154" id="Stroke-33" stroke="#000000" stroke-width="2" stroke-linecap="round" stroke-linejoin="round"></path>
                            <path d="M6.13206667,74.0621453 L21.457947,74.0621453" id="Stroke-35" stroke="#000000" stroke-width="2" stroke-linecap="round" stroke-linejoin="round"></path>
                            <path d="M6.13206667,78.0234154 L14.119759,78.0234154" id="Stroke-37" stroke="#000000" stroke-width="2" stroke-linecap="round" stroke-linejoin="round"></path>
                            <path d="M47.6745214,82.5550188 L54.1261966,82.5550188" id="Stroke-39" stroke="#000000" stroke-width="2" stroke-linecap="round" stroke-linejoin="round"></path>
                            <path d="M21.1154444,23.380641 C20.5476325,23.9383675 20.9520598,25.1012222 21.7437692,25.1869487 C22.5344701,25.2716667 23.1779231,24.2207607 22.7412222,23.5551197 C22.3277179,23.1789316 21.6429145,23.1456496 21.1951197,23.4794786" id="Stroke-41" stroke="#000000" stroke-width="2" stroke-linecap="round" stroke-linejoin="round"></path>
                            <path d="M27.1667265,23.380641 C26.5989145,23.9383675 27.0033419,25.1012222 27.7950513,25.1869487 C28.5857521,25.2716667 29.2292051,24.2207607 28.7925043,23.5551197 C28.379,23.1789316 27.6941966,23.1456496 27.2464017,23.4794786" id="Stroke-43" stroke="#000000" stroke-width="2" stroke-linecap="round" stroke-linejoin="round"></path>
                            <path d="M33.2180085,23.380641 C32.6501966,23.9383675 33.0546239,25.1012222 33.8463333,25.1869487 C34.6370342,25.2716667 35.2804872,24.2207607 34.8437863,23.5551197 C34.4302821,23.1789316 33.7454786,23.1456496 33.2976838,23.4794786" id="Stroke-45" stroke="#000000" stroke-width="2" stroke-linecap="round" stroke-linejoin="round"></path>
                            <mask id="mask-2" fill="white">
                                <use xlink:href="#path-1"></use>
                            </mask>
                            <g id="Clip-48"></g>
                            <polygon id="Stroke-47" stroke="#000000" stroke-width="2" stroke-linecap="round" stroke-linejoin="round" mask="url(#mask-2)" points="91.7777778 84.2963761 116.991453 84.2963761 116.991453 51.4106838 91.7777778 51.4106838"></polygon>
                            <polygon id="Stroke-49" stroke="#000000" stroke-width="2" stroke-linecap="round" stroke-linejoin="round" mask="url(#mask-2)" points="1.00854701 84.2963761 26.2222222 84.2963761 26.2222222 51.4106838 1.00854701 51.4106838"></polygon>
                            <path d="M106.690255,59.4431556 C106.690255,60.7562838 105.625229,61.8192923 104.313109,61.8192923 C102.999981,61.8192923 101.934956,60.7562838 101.934956,59.4431556 C101.934956,58.1300274 102.999981,57.0660103 104.313109,57.0660103 C105.625229,57.0660103 106.690255,58.1300274 106.690255,59.4431556 Z" id="Stroke-50" stroke="#000000" stroke-width="2" stroke-linecap="round" stroke-linejoin="round" mask="url(#mask-2)"></path>
                            <path d="M99.5576085,68.1595231 C99.5576085,65.5332667 101.686651,63.4052325 104.312908,63.4052325 C106.938156,63.4052325 109.067198,65.5332667 109.067198,68.1595231" id="Stroke-51" stroke="#000000" stroke-width="2" stroke-linecap="round" stroke-linejoin="round" mask="url(#mask-2)"></path>
                            <path d="M7.2193812,34.3396906 C6.68585983,29.8778786 6.28445812,25.3999299 6.01719316,20.9129043 C5.91633846,19.2205624 5.83868034,17.4909043 6.29555214,15.8570581 C7.30611624,12.2515026 10.8057744,9.78157094 14.4486462,8.91522906 C18.0915179,8.04888718 21.9038256,8.49668205 25.6203214,8.94851111" id="Stroke-52" stroke="#000000" stroke-width="2" stroke-linecap="round" stroke-linejoin="round" mask="url(#mask-2)"></path>
                            <path d="M22.7445504,4.99137607 C24.7293709,5.93840171 26.4701231,7.38869231 27.7620718,9.16978632 L24.3874735,13.808094" id="Stroke-53" stroke="#000000" stroke-width="2" stroke-linecap="round" stroke-linejoin="round" mask="url(#mask-2)"></path>
                            <path d="M109.687354,95.3519675 C109.892089,97.9923436 110.096824,100.633728 110.301559,103.274104 C110.634379,107.575557 110.704978,112.560805 107.448379,115.389779 C104.952226,117.560173 101.329525,117.672121 98.0224991,117.67313 C94.7618667,117.67313 91.5022427,117.674138 88.2416103,117.674138" id="Stroke-54" stroke="#000000" stroke-width="2" stroke-linecap="round" stroke-linejoin="round" mask="url(#mask-2)"></path>
                            <path d="M90.2127145,114.000203 C88.7140137,115.500921 87.2143043,117.002648 85.7145949,118.502357 C87.7508513,119.68034 89.7850906,120.857315 91.8203385,122.034289" id="Stroke-55" stroke="#000000" stroke-width="2" stroke-linecap="round" stroke-linejoin="round" mask="url(#mask-2)"></path>
                            <path d="M15.7250632,59.7366427 C15.3882085,59.0104889 14.7921573,58.346865 13.9792684,58.0856513 C12.8900376,57.7377026 11.4679863,58.3408137 11.5839692,59.6055316 C11.8078667,62.0653778 14.8899863,62.3457538 15.2460034,64.6240615 C15.3791316,65.4742667 14.9504991,66.4394462 14.0861744,66.7752923 C12.7327043,67.3047795 11.2158496,65.9936684 11.1119692,64.6512923" id="Stroke-56" stroke="#000000" stroke-width="2" stroke-linecap="round" stroke-linejoin="round" mask="url(#mask-2)"></path>
                            <path d="M13.1968376,57.5137043 C13.1968376,56.7855333 13.1534701,56.8278923 13.1968376,56.0573624" id="Stroke-57" stroke="#000000" stroke-width="2" stroke-linecap="round" stroke-linejoin="round" mask="url(#mask-2)"></path>
                            <path d="M13.3789812,67.4937812 L13.3789812,69.1679692" id="Stroke-58" stroke="#000000" stroke-width="2" stroke-linecap="round" stroke-linejoin="round" mask="url(#mask-2)"></path>
                        </g>
                    </g>
                </g>
            </g>
        </g>
    </g>
</svg>