<svg xmlns="http://www.w3.org/2000/svg" viewBox="0 0 290.79 332"><defs><style>.cls-1{fill:#bdb8ff;}.cls-2{fill:#fff;}.cls-3{fill:#9898e2;}</style></defs><g id="Layer_2" data-name="Layer 2"><g id="Layer_2-2" data-name="Layer 2"><path class="cls-1" d="M33.66,19.64C25.18,22.33,19,27.71,17.52,38.27c-4.55,35.18-2.48,71.6-.21,107C20.62,197.62,18.14,257,2,306.88c-1.66,5.38-3.52,11.59,0,15.94a11.55,11.55,0,0,0,8.07,4.55c47.18,3.73,94.57,5,141.76,4.55,24.21-.2,48.63-1,72.84-2.27,12-.62,24-1.24,36-2.28,13.87-1,13.87.41,18.63-10.55,7-16.35,3.52-44.29,3.31-61.88-.21-23-1.86-45.74-4.14-68.5-4.14-43.46-10.55-86.5-14.69-130-3.73-39.74-52.57-40.36-82.57-38.91-33.94,1.66-67.88-.21-101.82.83C66.77,18.4,47.32,15.3,33.66,19.64Z"/><path class="cls-2" d="M49.39,32.06c-4.35.21-8.9.41-12,3.52C34.7,38.06,33.87,42,33.25,45.72c-5.8,34.14-2.07,69.12-1.66,103.88C32.21,200.51,26,251.42,16.9,301.5c-.41,2.07-.62,4.56.83,6.21,1.24,1.45,3.31,1.66,5.17,1.86,67.05,5.59,135.34,10.56,202.19,3.11,1.24-.21,7.65-12.21,12.41-12.42,11-.62,22.77,3.73,24.84,2.07,4.55-3.31,3.1-11,4.14-16.56,6.41-36-2.69-79.46-6.21-115.89-1.24-12.41-3.93-24.83-4.14-37.25-.41-36.83,8.69-94.16-45.94-102-20.9-3.1-44.5.21-65.4,0C112.51,30.4,80.85,30.82,49.39,32.06Z"/><path d="M224.26,315.58H82.5a3.11,3.11,0,0,1,0-6.21H224.26a7.73,7.73,0,0,0,7.45-6c4.35-20.91,14.69-75.75,14.69-132.45,0-23.59-.2-48.84-.62-75.33a3,3,0,0,1,3.11-3.1h0a3.18,3.18,0,0,1,3.1,3.1c.41,26.49.62,51.94.62,75.54,0,57.32-10.35,112.58-14.69,133.68A14.17,14.17,0,0,1,224.26,315.58Z"/><path d="M22.49,315.78a9.23,9.23,0,0,1-6.83-3.1,9.21,9.21,0,0,1-1.86-7.25C21.25,265.49,29.11,219.14,29.11,173c0-42.84-1.24-102.85-1.86-126.65A15.61,15.61,0,0,1,31.8,35,15.78,15.78,0,0,1,43.18,30.2H188.46a3.1,3.1,0,0,1,0,6.2H43.18a9.07,9.07,0,0,0-6.83,2.9,8.94,8.94,0,0,0-2.69,7c.42,23.59,1.45,83.6,1.45,126.44,0,46.56-7.86,93.33-15.31,133.48a1.93,1.93,0,0,0,.62,2.07c.41.21,1,1,2.07,1H46.7a3.11,3.11,0,0,1,0,6.21Z"/><path d="M135.07,244H49.6a3.11,3.11,0,1,1,0-6.21h85.47a3.18,3.18,0,0,1,3.1,3.11A3,3,0,0,1,135.07,244Z"/><path d="M99.26,269h0l-54.63-.41a3.18,3.18,0,0,1-3.1-3.11,3,3,0,0,1,3.1-3.1l54.63.41a3.19,3.19,0,0,1,3.11,3.11A2.93,2.93,0,0,1,99.26,269Z"/><path d="M215.15,244.18h-31a3.11,3.11,0,0,1,0-6.21h31a3.18,3.18,0,0,1,3.11,3.1A3.05,3.05,0,0,1,215.15,244.18Z"/><path d="M211,270.67H180a3.11,3.11,0,0,1,0-6.21H211a3.18,3.18,0,0,1,3.1,3.1A3,3,0,0,1,211,270.67Z"/><path class="cls-3" d="M210.19,43.85c2.48,25.67,34.14,44.91,61.05,30.43C292.55,62.89,296.69,35,282.41,15.71,270.62,0,245.78-4.57,229.23,5,215.57,13,208.74,27.92,210.19,43.85Z"/><path class="cls-2" d="M244.33,57.51a2.39,2.39,0,0,1-2.07-.83,54.91,54.91,0,0,1-9.1-11.58,3.16,3.16,0,1,1,5.38-3.32,51.78,51.78,0,0,0,5.79,7.87l19.25-24a3.09,3.09,0,0,1,4.76,3.93L246.82,56.48a3.43,3.43,0,0,1-2.49,1Z"/><path d="M236.26,306.47a3.18,3.18,0,0,1-3.1-3.1,3,3,0,0,1,3.1-3.11c3.73,0,6.83-.21,10.14-.21,3.11,0,6.42-.2,10.14-.2a9.46,9.46,0,0,0,4.56-.83c1.45-1,1.86-3.73,2.07-6.21,3.93-51.74-2.69-99.13-9.73-149.21l-6.83-49a3.13,3.13,0,1,1,6.21-.83l6.83,49c7,50.5,13.66,98.1,9.72,150.66-.2,2.69-.62,8.07-4.55,11-2.69,1.86-5.59,1.86-7.86,1.86-3.73,0-6.83.21-10.14.21a88.56,88.56,0,0,0-10.56,0Z"/><path class="cls-1" d="M121.13,191.43a12.44,12.44,0,0,1-3.72-.71,8,8,0,0,1-3.17-1.68,5.72,5.72,0,0,1-1.26-1.41,4.94,4.94,0,0,1-.42-2.39,32.45,32.45,0,0,1,1-6.6c.47-2.25,1.12-4.85,2-7.81s1.4-4.84,1.68-5.69q1.13-.55,5.07-13.77,2.1-7.59,4.77-15.61,1.13-3.36,2.18-5.69c.71-1.54,1.15-2.5,1.34-2.88q-1,.57-4.5,2.67a78.1,78.1,0,0,0-7.17,4.92c-1,.66-2.76,1.92-5.2,3.8a47,47,0,0,1-5.76,4.07l-2.39,1.83c-.28.19-.78.56-1.48,1.12a8.39,8.39,0,0,1-1.68,1.13,2.74,2.74,0,0,1-1.06.28,1.86,1.86,0,0,1-1.12-.42A15.38,15.38,0,0,1,96.67,142q-1.55-3-.7-4.36c.19-.09,2-1.4,5.48-3.93q4.92-3.53,6.47-4.5a4.79,4.79,0,0,0,1.54-1.06,23.08,23.08,0,0,1,2.39-1.75,69,69,0,0,1,6.61-4.92l7.45-5.49q4.77-2.94,9.07-5.06c2.85-1.4,4.47-2.06,4.85-2a14.49,14.49,0,0,1,3.79,2.18q3,2,3.09,3.16a2.2,2.2,0,0,1,.28,1,10.71,10.71,0,0,1-1.12,3.52q-1.26,2.67-4.57,12.37t-5,15.32c-.65,2.43-1.64,5.43-2.95,9-.28.85-.68,2-1.2,3.59s-1,3.11-1.33,4.71a84.71,84.71,0,0,0-2.81,8.57q-1.55,5.49-2.39,9.28-1,2.67-1.69,5.34c-.65,2.44-1.17,3.84-1.54,4.22A2.92,2.92,0,0,1,121.13,191.43Z"/><path class="cls-1" d="M156.76,184.75a2.64,2.64,0,0,1-.77-1.48,1.57,1.57,0,0,0-.56-.7,1.62,1.62,0,0,0-.7-.14c-.38.19-.76-.77-1.13-2.88a12.43,12.43,0,0,1-.28-4.29,3.56,3.56,0,0,1,1.9-1.47,7.3,7.3,0,0,1,2.88-.64c1.5,0,2.29.38,2.39,1.13s.86,1.33,2,1.76a13.22,13.22,0,0,0,4.42.63q11.67,0,19-9.56a32.7,32.7,0,0,0,2-6.25,28,28,0,0,0,.91-6q0-1.26-.42-1.26a5.9,5.9,0,0,0-.21-1.13,18.78,18.78,0,0,0-.63-2,11,11,0,0,0-3.24-4.21,17.64,17.64,0,0,0-4.92-3.24l-1.4-.14a67.15,67.15,0,0,0-7.87.71l-1.41.14a3.5,3.5,0,0,1-1.26-.14c-.19-.1-.28-.19-.28-.29-.76-.18-2-1.1-3.87-2.74s-2.74-2.78-2.74-3.44q.42-2.11,4.78-8.71a63.93,63.93,0,0,1,7.45-9.7,28,28,0,0,1,9.35-6.61,27.07,27.07,0,0,1,11-2.39,22.2,22.2,0,0,1,7.17.84,9.14,9.14,0,0,1,4.08,3.38,7.5,7.5,0,0,1,.84,3.37,5.8,5.8,0,0,1-.84,3.16,2.48,2.48,0,0,1-2.11,1.34,2.28,2.28,0,0,1-1.27-.28,8.07,8.07,0,0,0-4.36-1A30.81,30.81,0,0,0,188.6,122c-.65.28-1.64.66-2.95,1.12a12.34,12.34,0,0,0-3,1.41,4,4,0,0,0-1.41,1.69,10.37,10.37,0,0,0-.7.77c-.28.33-.56.44-.84.35a6.08,6.08,0,0,0-.5.63,1.66,1.66,0,0,0-.35.92,5.77,5.77,0,0,0-.7.84c-.19.28-.35.45-.49.49s-.31-.07-.49-.35l-.14,1.41a1.13,1.13,0,0,0,.56,1.33,12.76,12.76,0,0,0,3.51.63,35.73,35.73,0,0,1,5.62,1.13,26.78,26.78,0,0,1,4.92,2.53,14.73,14.73,0,0,1,6.19,7.87,34.39,34.39,0,0,1,2,12,49.33,49.33,0,0,1-.43,6.6,30.48,30.48,0,0,1-.91,5.07,20.2,20.2,0,0,1-2.32,4.35,35.61,35.61,0,0,1-13.56,11.11q-8.79,4.35-16.52,4.35a13.75,13.75,0,0,1-7.59-1.82A9.68,9.68,0,0,1,156.76,184.75Z"/><path d="M115.51,184.4a12.82,12.82,0,0,1-3.73-.7,8,8,0,0,1-3.16-1.69,5.72,5.72,0,0,1-1.26-1.41,4.77,4.77,0,0,1-.43-2.39,32.62,32.62,0,0,1,1-6.6c.47-2.25,1.12-4.85,2-7.8s1.4-4.85,1.68-5.7q1.13-.56,5.06-13.77,2.12-7.59,4.78-15.6a60.67,60.67,0,0,1,2.18-5.7c.7-1.54,1.15-2.5,1.34-2.88q-1,.57-4.5,2.67a76.76,76.76,0,0,0-7.17,4.92c-1,.66-2.77,1.92-5.2,3.8a47.8,47.8,0,0,1-5.76,4.07l-2.39,1.83c-.29.19-.78.56-1.48,1.13a8.71,8.71,0,0,1-1.69,1.12,2.65,2.65,0,0,1-1,.28,1.89,1.89,0,0,1-1.13-.42,15.53,15.53,0,0,1-3.51-4.64q-1.55-3-.7-4.36.27-.13,5.48-3.93c3.28-2.34,5.43-3.84,6.47-4.5a4.86,4.86,0,0,0,1.54-1,21,21,0,0,1,2.39-1.76,69.4,69.4,0,0,1,6.61-4.92l7.45-5.48q4.77-3,9.06-5.06c2.86-1.41,4.48-2.06,4.85-2a14.31,14.31,0,0,1,3.8,2.18q3,2,3.09,3.16a2.23,2.23,0,0,1,.28,1,10.71,10.71,0,0,1-1.12,3.52q-1.27,2.67-4.57,12.37t-5,15.32c-.66,2.44-1.64,5.43-3,9-.28.85-.68,2-1.2,3.59s-1,3.12-1.33,4.71a82.24,82.24,0,0,0-2.81,8.57c-1,3.66-1.83,6.75-2.39,9.28q-1,2.67-1.69,5.34c-.66,2.44-1.17,3.84-1.55,4.22A2.85,2.85,0,0,1,115.51,184.4Z"/><path d="M151.14,177.72a2.65,2.65,0,0,1-.77-1.47,1.62,1.62,0,0,0-.56-.71,1.66,1.66,0,0,0-.71-.14c-.37.19-.75-.77-1.12-2.88a12.17,12.17,0,0,1-.28-4.29,3.56,3.56,0,0,1,1.9-1.47,7.28,7.28,0,0,1,2.88-.63c1.49,0,2.29.37,2.39,1.12s.86,1.34,2,1.76a13.22,13.22,0,0,0,4.42.63q11.67,0,19-9.56a32.7,32.7,0,0,0,2-6.25,28.62,28.62,0,0,0,.91-6q0-1.26-.42-1.26a6,6,0,0,0-.21-1.13,18.69,18.69,0,0,0-.63-2,11,11,0,0,0-3.24-4.22,17.64,17.64,0,0,0-4.92-3.24l-1.4-.14a67.15,67.15,0,0,0-7.87.71l-1.41.14a3.61,3.61,0,0,1-1.27-.14c-.18-.09-.28-.19-.28-.28-.75-.19-2-1.1-3.86-2.74S155,130.8,155,130.14q.42-2.1,4.78-8.71a63.28,63.28,0,0,1,7.45-9.7,28.23,28.23,0,0,1,9.34-6.61,27.15,27.15,0,0,1,11-2.39,22.2,22.2,0,0,1,7.17.84,9.12,9.12,0,0,1,4.07,3.38,7.38,7.38,0,0,1,.85,3.37,5.7,5.7,0,0,1-.85,3.16,2.44,2.44,0,0,1-2.11,1.34,2.26,2.26,0,0,1-1.26-.28,8.07,8.07,0,0,0-4.36-1A31.23,31.23,0,0,0,183,115c-.66.28-1.64.66-2.95,1.12a12.15,12.15,0,0,0-2.95,1.41,4,4,0,0,0-1.41,1.69c-.19.19-.42.44-.7.77s-.56.45-.85.35c-.09.1-.25.31-.49.63a1.66,1.66,0,0,0-.35.92,5.19,5.19,0,0,0-.7.84c-.19.28-.35.45-.49.49s-.31-.07-.5-.35l-.14,1.41a1.15,1.15,0,0,0,.57,1.33,12.84,12.84,0,0,0,3.51.64,36,36,0,0,1,5.62,1.12,27.78,27.78,0,0,1,4.92,2.53,14.77,14.77,0,0,1,6.19,7.87,34.43,34.43,0,0,1,2,12,51.33,51.33,0,0,1-.42,6.61,30.31,30.31,0,0,1-.91,5.06,20.2,20.2,0,0,1-2.32,4.35A35.52,35.52,0,0,1,177,176.81q-8.79,4.35-16.52,4.36a13.75,13.75,0,0,1-7.59-1.83A9.68,9.68,0,0,1,151.14,177.72Z"/></g></g></svg>