<svg id="Layer_1" data-name="Layer 1" xmlns="http://www.w3.org/2000/svg" viewBox="0 0 50.71 67.61"><defs><style>.cls-1{fill:#7749ff;}</style></defs><title>5e78c4c0e58e25193b3f7ab</title><path class="cls-1" d="M49.3,25.35H45.07V19.72a19.72,19.72,0,1,0-39.44,0v5.63H1.41A1.41,1.41,0,0,0,0,26.76V62a5.64,5.64,0,0,0,5.63,5.63H45.07A5.64,5.64,0,0,0,50.71,62V26.76A1.41,1.41,0,0,0,49.3,25.35ZM29.57,54.78a1.41,1.41,0,0,1-1.4,1.56H22.54a1.41,1.41,0,0,1-1.4-1.56l.89-8a5.57,5.57,0,0,1-2.31-4.53,5.63,5.63,0,1,1,11.27,0,5.57,5.57,0,0,1-2.31,4.53Zm7.05-29.42H14.08V19.72a11.27,11.27,0,1,1,22.54,0Z"/></svg>