<?xml version="1.0" encoding="utf-8"?>
<!-- Generator: Adobe Illustrator 22.1.0, SVG Export Plug-In . SVG Version: 6.00 Build 0)  -->
<svg version="1.1" id="Layer_1" xmlns="http://www.w3.org/2000/svg" xmlns:xlink="http://www.w3.org/1999/xlink" x="0px" y="0px"
	 width="264.9px" height="180px" viewBox="0 0 264.9 180" style="enable-background:new 0 0 264.9 180;" xml:space="preserve">
<style type="text/css">
	.st0{fill:#BDB8FF;}
	.st1{fill:none;stroke:#000000;stroke-width:3;stroke-linecap:round;stroke-linejoin:round;stroke-miterlimit:10;}
	.st2{fill:#FFFFFF;}
	.st3{fill:#7849FF;}
	.st4{fill:none;stroke:#FFFFFF;stroke-width:2;stroke-linecap:round;stroke-linejoin:round;stroke-miterlimit:10;}
	.st5{fill:#85E8C7;}
	.st6{fill:#00D28F;}
	.st7{fill:none;stroke:#FFFFFF;stroke-width:3;stroke-linecap:round;stroke-linejoin:round;stroke-miterlimit:10;}
	.st8{fill:none;stroke:#000000;stroke-width:2;stroke-linecap:round;stroke-linejoin:round;stroke-miterlimit:10;}
</style>
<path class="st2" d="M19.2,141.1c-0.8-0.5-2-0.2-2.7,0.5c-0.7,0.7-0.9,1.7-0.9,2.7c0,1.8,1.1,3.7,2.7,4.5c1.7,0.8,3.9,0.3,4.9-1.2
	c1.1-1.5,0.6-3.9-1-4.8"/>
<g>
	<path class="st5" d="M7.2,143.3c0,7.2,4.6,14.4,13.9,14.4c7.9,0,14.4-6.4,14.4-14.4c0-7.9-6.4-14.4-14.4-14.4
		C13.7,128.9,7.2,135.8,7.2,143.3z"/>
	<path class="st2" d="M20.3,139.5c-0.8-0.5-2-0.2-2.7,0.5s-0.9,1.7-0.9,2.7c0,1.8,1.1,3.7,2.7,4.5c1.7,0.8,3.9,0.3,4.9-1.2
		c1.1-1.5,0.6-3.9-1-4.8"/>
	<path class="st5" d="M53.7,143.3c0,17.4,28.7,17.9,28.7,0c0-7.9-6.4-14.4-14.4-14.4C60.1,128.9,53.7,135.4,53.7,143.3z"/>
	<path class="st5" d="M223.7,81.6c0.8-5.6,6.2-35,14.5-33.6c4.5,0.7,9.6,12.9,10.6,16c3.6,11.7,9.2,33.9,3.8,45.9
		c-4.4,9.7-15.7,12.8-22.4,3.9C223.5,104.7,222.1,92.3,223.7,81.6z"/>
	<path class="st5" d="M98.7,19c2-1.9,5-1.3,7.4-1.3c13.2-0.1,26.3-0.4,39.5-0.3c7.9,0.1,15.8,0.3,23.8,0.4c1.9,0,4,0.4,4.4,2.6
		c0.6,3,0.6,6.2,0.8,9.3c0.2,2.2-0.6,5.7,0.6,7.7c1.2,2,6.2,1.3,8.4,1.3c3.1,0,6.2,0,9.3-0.2c4.2-0.2,4.2,2.3,5.5,5.6
		c3.9,9.9,8.9,18.5,12.8,28.4c0.8,2,0.6,5.4,0.3,7.6c-0.5,5.2-8.7,6.7-9.8,11.8c-1.7,8-0.5,18.6-0.1,26.3c0.3,5.8,0.9,11.7,1.1,17.5
		c0.1,3,0.2,6.1-0.1,9.1c-0.1,1.8-2,4.1,0.2,5.4c1,0.6,2.1,0.6,3.2,0.6c3.8-0.1,7.6-0.1,11.3-0.2c1.7,0,3.8,0.2,4.4,1.8
		c0.4,1.1-0.3,2.3-1.2,3c-0.9,0.6-2.1,0.9-3.3,1c-12.1,1.7-24.2-0.5-36.3-0.4c-12.9,0.1-25.8,0.2-38.7,0.3
		c-25.8,0.2-51.7,0.5-77.5,0.7c-1.3,0-2.6,0-3.9,0c-2.8,0-6.1-0.1-8.8-1.6c-6.4-3.4,2-5.7,5-6.5c2.4-0.7,5-0.6,7.5-0.4
		c1.6,0.1,4.1,0.9,5.1-0.9c0.8-1.4,0.4-3.4,0.5-5c0.3-6.4-0.4-12.8-0.5-19.3c-0.1-10.1,4.3-21.3-1.6-29.5c-1.9-2.7-4.9-4.4-7.1-6.9
		c-4.4-4.8-5.6-11.8-4.8-18.2c0.8-6.4,5.3-12.4,7.9-18.4c1.2-2.6,2.5-5.2,3.8-7.8c1.2-2.2,1.7-4.6,4.5-4.9c3.5-0.4,7.7,0.2,11.3,0.3
		c3.1,0,6.1,0.6,9.2,0.4c4.1-0.3,5-3.8,4.4-7.5c-0.6-3.3-1.3-8.4,0.9-11.3C98.4,19.3,98.5,19.1,98.7,19z"/>
	<path class="st2" d="M70.2,139.6c-1.9-0.8-4.3-0.2-5.7,1.3c-0.5,0.6-0.9,1.3-0.9,2.1c0,1.1,0.9,2,1.9,2.7c1.7,1.1,3.9,1.7,5.7,0.8
		c1.8-0.9,2.4-3.8,0.7-4.9"/>
	<path class="st2" d="M111.2,103.6c0.9,0.1,1.9,0.2,2.6,0.7c1.9,1.1,2.2,3.8,2.3,6c0.3,13,0.6,29.1-1.5,41.9
		c-6.1,0.6-17.1-0.7-23.1-0.1c-1.2-11.4,0.8-22.9,0-34.3c-0.2-2.9-1.7-13.4,1.3-15.1c1.5-0.9,7.2-0.5,8.9-0.3
		C104.8,102.8,108,103.2,111.2,103.6z"/>
	<path class="st2" d="M181.6,129.7c-2.2,2.3-6.4,0.6-9.1,0.6c-4.7,0-9.5-0.2-14.2-0.2c-4.3,0-8.6,0-12.9,0c-2.5,0-11.4,1.3-12.6-0.7
		c-1.2-2,0.2-5.8,0.2-8c0-3.6,0-7.2,0-10.7c0-2.5-0.7-5.3-0.1-7.8c1-4,3.9-2.5,7.2-2.5c2,0,4.1,0,6.1,0c4.2,0,8.5,0,12.7,0
		c4.2,0,8.5,0,12.7-0.1c2.9,0,7.4-1.7,9.6,0.7c0.9,1,1.3,2.4,1.2,3.7c-0.1,1.7-0.6,3.2-0.7,4.9c0,2.2-0.1,4.5,0,6.7
		c0,2.4,0.1,4.7,0.2,7.1c0.1,1.8,1.3,4.4,0,6.1C181.7,129.6,181.7,129.6,181.6,129.7z"/>
	<path class="st2" d="M61.7,68.7c-1.4,3.8-2.8,8-1.4,11.8c1.9,5,8,7.1,13.4,7.1c1.6,0,3.2-0.1,4.6-0.8c3.6-1.7,4.7-6.3,5.3-10.2
		c1.6-11.2,2.3-22.4,2.3-33.7c0,0.3-9.3-0.6-10.2-0.4c-2.6,0.7-3.3,1.9-4.7,4.2C66.9,53.5,64.4,61.4,61.7,68.7z"/>
	<path class="st2" d="M107.7,68.1c-4.2,20.6,28,27.5,24.5,5.7c-0.6-3.9-0.5-31.7-3.1-31.5c-3.9,0.2-11,0.4-14.9,0.6
		c-0.4,0-0.9,0.1-1.2,0.4c-0.2,0.2-0.2,0.5-0.3,0.7C111.1,52,109.4,60,107.7,68.1C107.7,68.1,107.7,68.1,107.7,68.1z"/>
	<path class="st2" d="M158.2,70c-0.3,8.4,1.6,17.8,11,18.9c5.6,0.7,10.8-4,12.6-9.4c1.8-5.4-0.2-11.2-1.2-16.8
		c-1-6.3-1.1-12.7-4.4-18.2c-2-3.2-11.3-1.4-14.7-1.3c-1.2,6.3-1.3,12.7-2.5,19C158.6,64.6,158.3,67.2,158.2,70z"/>
	<path class="st1" d="M73.7,133.7c0-15.4,0.1-29.8,0.1-45.1"/>
	<path class="st1" d="M186.3,153.3c-7.4,0-14.7,0-22.1,0c-17.7,0-35.4,0-53.2,0c-12.4,0-24.9,0-37.3,0"/>
	<path class="st1" d="M197,88.6c0,13.4,0.2,26.7,0.2,40.1c0,6.5,0,10-0.2,16.5"/>
	<line class="st1" x1="73.8" y1="42.6" x2="179.1" y2="42.6"/>
	<path class="st1" d="M83.8,76.2c0,5.9-4.5,11.2-10.2,12.2c-4.1,0.7-8.4-0.8-11.2-3.8c-8.1-8.6,4.4-26,8.1-34.4
		c1.1-2.4,2.2-4.9,2.8-7.5"/>
	<path class="st1" d="M108.7,76.2c0,6.7-5.6,12.4-12.4,12.4c-6.8,0-12.5-5.7-12.5-12.4"/>
	<path class="st1" d="M133.5,76.2c0,5.3-3.6,10.2-8.7,11.8c-7.8,2.5-16.2-3.6-16.2-11.8"/>
	<path class="st1" d="M158.4,76.2c0,15.6-24.9,16.2-24.9,0"/>
	<path class="st1" d="M183.3,76.2c0,15.7-24.9,16.1-24.9,0"/>
	<path class="st1" d="M202.1,59.4c2.8,5.3,5.6,10.8,6.2,15.6c0.7,5.8-4.4,12.1-10.1,13.3c-7.5,1.6-15-4.4-15-12.1"/>
	<path class="st1" d="M90.6,152.7c0-7.7,0-15.4,0-23.1c0-5.7,0-13.8,0-19.5c0-2,0-4.7,0-6.7c0-3,0.1-2.8,2.8-3.3
		c3.9-0.7,8.7,0,12.7,0c2.3,0,4.5,0,6.8,0c2.8,0,3.5-0.5,4.5,1.6V153"/>
	<path class="st1" d="M182.3,138.8c0.9-0.9,0.7-2.4,0.6-4.6c0-5.3-0.2-10.6-0.2-15.9c0-3.6,0.1-9.6,0.3-13.2c0.3-5-1.8-5.3-6.2-5.4
		c-7.9-0.1-15.7,0.1-23.5,0.1c-5.7,0-11.7-0.2-17.3,0.3c-5.1,0.5-3.6,3.7-3.8,8c-0.2,7.4-0.6,17.3-0.3,24.7c0.1,4-0.6,7,3.6,7.6
		c7.7,1,16.2,0.3,23.9,0.2c4.6,0,9.3-0.1,13.9-0.4c2.1-0.1,4.3-0.2,6.4-0.5C181.1,139.6,181.8,139.3,182.3,138.8z"/>
	<path class="st1" d="M91,122.9c1.1-0.5,2.5-0.1,3.3,0.8s1.2,2.2,1.1,3.4c-0.1,1.1-0.4,2.3-1.3,3.1c-0.8,0.8-2.1,1.1-3.2,0.6"/>
	<path class="st1" d="M98.3,113.1c1.3-1.2,2.5-2.4,3.8-3.6"/>
	<path class="st1" d="M98.8,119.5c3.4-3,6.5-6.1,9.6-9.4"/>
	<path class="st1" d="M101.8,141.1c1.1-1.1,2.1-2.2,3.2-3.4"/>
	<path class="st1" d="M100.9,148.6c3-2.9,6-5.8,9-8.7"/>
	<path class="st1" d="M149.7,114.7c1.7-1.3,3.3-2.7,5-4"/>
	<path class="st1" d="M147.5,122.9c5.6-4.4,11.2-8.9,16.8-13.3"/>
	<path class="st1" d="M161.9,124.7c1.3-1,2.7-1.9,4-2.9"/>
	<rect x="100" y="21.5" class="st1" width="71.5" height="21.1"/>
	<line class="st1" x1="184.7" y1="153.3" x2="217.9" y2="153.3"/>
	<path class="st1" d="M67.4,153.5c0.1,0,0.3,0,0.4,0H55"/>
	<path class="st1" d="M31.4,153.5c0.1,0,0.3,0,0.4,0H19"/>
	<path class="st1" d="M131.9,134.7c17-0.2,34-0.7,51-1.4"/>
	<path class="st8" d="M108.1,34.9c-0.3-0.5-0.2-6.5-0.2-6.5s3.6-0.5,4.8-0.2c0.4,0.1,0.8,0.5,0.9,1c0.2,1.6-3.4,2.4-4.3,2.2
		c1.2,0.2,2.5,0,3.7,0.4c0.9,0.3,1.3,1,0.9,2c-0.7,1.7-3.8,2.1-5.2,1.5C108.3,35.2,108.2,35,108.1,34.9z"/>
	<path class="st8" d="M117.7,28.7c0,1.5-0.1,3.1,0.3,4.6c0.2,0.8,0.9,1.7,1.7,2c3.4,1.3,3.6-5.2,2.9-7"/>
	<path class="st8" d="M131.4,29.3c-0.4-1-1.6-1.6-2.7-1.3c-2.4,0.6-1.7,4.3,0.6,4.6c0.5,0.1,1.1,0,1.5,0.3c1,0.6,0.6,2.2-0.5,2.7
		c-1,0.5-2.2,0.2-3.3-0.1"/>
	<path class="st8" d="M135,28.7c0.3,2.4,0.1,4.7,0.4,7.1"/>
	<path class="st8" d="M140,35.7c-0.1-2.2-0.2-4.4-0.3-6.7c2.2,1.8,3.7,4.3,4.3,7c0.6-2.3,0.7-5.6,0.3-7.9"/>
	<path class="st8" d="M152.3,28.1c-2.2,0-4,2.2-3.7,4.3s2.9,3.6,4.9,2.9"/>
	<path class="st8" d="M148.6,32c1.9,0.2,2.5,0.7,4.3,0"/>
	<path class="st8" d="M160.2,28.3c-0.4-0.5-1-0.9-1.7-0.8c-1.6,0.1-2.5,2.3-1.5,3.5c0.4,0.5,1,0.8,1.6,1.1c1,0.7,1.8,2.1,1.2,3.3
		c-0.6,1.1-2.8,0.9-2.7-0.4"/>
	<path class="st8" d="M165,28.7c-1.3,0.1-2.1,1.9-1.2,2.9c0.3,0.4,0.9,0.6,1.3,0.9c0.9,0.6,1.5,1.8,1,2.7c-0.5,0.9-2.3,0.7-2.2-0.3"
		/>
	<path class="st1" d="M84.3,69.9c0.4-6.6,0.9-13.3,1.3-19.9"/>
	<path class="st1" d="M111.2,45.7c-0.7,8.5-1.4,17-2.1,25.5"/>
	<path class="st1" d="M132.6,50.7c0.1,5.8,0.6,11.7,1.6,17.4"/>
	<path class="st1" d="M158.4,68.7c0-3.7,0-7.5,0-11.2"/>
	<path class="st1" d="M175,42.6c2.3,9.2,5,18.4,8.2,27.4"/>
	<line class="st1" x1="232.2" y1="152.7" x2="244.7" y2="152.7"/>
	<path class="st1" d="M238.4,152.7c0-0.2,0-0.4,0-0.6v-38.6"/>
	<path class="st1" d="M230.3,100.5c1.9,5,4.6,9.6,8.2,13.6c-0.6-8.1,0.9-13,0.3-21.1"/>
	<path class="st1" d="M244.8,107.7c1.2-3.4,2.5-6.8,3.7-10.2"/>
	<path class="st1" d="M13.6,150.7c4.1,4.1,10.7,4.1,14.8,0c4.1-4.1,4.1-10.7,0-14.8C19.1,126.6,4.2,141.2,13.6,150.7z"/>
	<path class="st1" d="M60.7,150.7c6.3,6.3,17.4,2,17.8-6.9c0.2-5.2-3.6-9.7-8.7-10.7C60.4,131.4,53.9,143.9,60.7,150.7z"/>
	<path class="st1" d="M20,143.7c4.4-8.9,8.2-18,11.6-27.3"/>
	<path class="st1" d="M27.7,126.7c5.8,5.2,16.8,17.8,18.5,18.3c1.3,0.4,2.6,0.3,3.9,0.2c6.2-0.4,12.4-1.1,18.6-2
		c-0.3-0.4-0.6-0.8-0.9-1.1"/>
	<path class="st1" d="M30.6,122.6c4.7,0.7,6.8,1.8,9.9,5.4c0.9,1.1,1.6,2.4,2.6,3.5c2.8,3.1,4.4,1.8,8.5,2.1
		c-2.2,2.9-3.5,7.9-5.8,10.9"/>
	<path class="st1" d="M46.6,144.2c2.3-5.5,4.5-11.1,6.8-16.6"/>
	<path class="st1" d="M47.8,125.7c3.2,0.5,6.5,1.1,9.7,1.6"/>
	<path class="st1" d="M52.7,134.5c5.1,2.4,10.3,5.4,15.5,7.6"/>
	<path class="st1" d="M31.5,115.4c2.9,0,5.8,0,8.7,0"/>
	<path class="st1" d="M99.8,162.4c0.9,0,1.8,0,2.7,0h6.7"/>
	<path class="st1" d="M102.5,167.7c1.6,0,3.1,0,4.7,0"/>
	<g>
		<path class="st6" d="M183.2,38.3c1.2,12.4,16.5,21.7,29.5,14.7c10.3-5.5,12.3-19,5.4-28.3c-5.7-7.6-17.7-9.8-25.7-5.2
			C185.8,23.3,182.5,30.5,183.2,38.3z"/>
		<path class="st7" d="M195.5,38.1c1.1,1.9,2.5,3.7,4.2,5.3c3.5-4.3,6.9-8.6,10.4-13"/>
	</g>
</g>
</svg>
