<?xml version="1.0" encoding="utf-8"?>
<!-- Generator: Adobe Illustrator 22.1.0, SVG Export Plug-In . SVG Version: 6.00 Build 0)  -->
<svg version="1.1" id="Layer_1" xmlns="http://www.w3.org/2000/svg" xmlns:xlink="http://www.w3.org/1999/xlink" x="0px" y="0px"
	 width="180px" height="180px" viewBox="0 0 180 180" style="enable-background:new 0 0 180 180;" xml:space="preserve">
<style type="text/css">
	.st0{fill:#BDB8FF;}
	.st1{fill:none;stroke:#000000;stroke-width:3;stroke-linecap:round;stroke-linejoin:round;stroke-miterlimit:10;}
	.st2{fill:#FFFFFF;}
	.st3{fill:#7849FF;}
	.st4{fill:none;stroke:#FFFFFF;stroke-width:2;stroke-linecap:round;stroke-linejoin:round;stroke-miterlimit:10;}
	.st5{fill:#85E8C7;}
	.st6{fill:#00D28F;}
	.st7{fill:none;stroke:#FFFFFF;stroke-width:3;stroke-linecap:round;stroke-linejoin:round;stroke-miterlimit:10;}
	.st8{fill:none;stroke:#000000;stroke-width:2;stroke-linecap:round;stroke-linejoin:round;stroke-miterlimit:10;}
</style>
<path class="st0" d="M87.9,147.2c-6.7,0-12.8-0.8-16.8-1.4c-4.7-0.8-10.5-2.2-14.1-6.6c-4.5-5.6-4.3-13.8,0.7-23.9
	c2.8-5.7,6.2-11.2,9.9-16.4l0.2-0.3c1.2-1.7,2.4-3.3,2.6-4.9c0.4-3-2.3-6.1-5-9l-0.1-0.1c-4.9-5.5-8-10.4-9.8-15.4
	c-2.4-6.6-2.3-13.5,0.3-19C60.2,40.9,70.7,36,86.5,36c2.4,0,4.8,0.1,7.3,0.3c6.3,0.6,15.2,2.6,21.8,9.2c6.5,6.3,8.9,15.7,6.2,23.4
	c-1.5,4.1-4.3,7.4-6.8,10.4c-0.6,0.7-1.4,1.5-2.3,2.5c-2.7,2.8-8.9,9.3-8.6,12.3c0,0.2,0.1,0.4,0.4,0.6c2.4,1.8,5.3,3.9,7.7,6.4
	c5,5.1,8.1,11.3,9.1,17.8c1.2,7.7-0.3,13.9-4.4,18.7C111.5,143.9,101.7,147.2,87.9,147.2C87.9,147.2,87.9,147.2,87.9,147.2z"/>
<path class="st1" d="M63.8,124.8c-0.4,0.9-0.6,1.8-0.4,2.8c1.5,8.3,13.2,9,18.5,9.4c5.3,0.4,29.9-1.5,28.5-12.3
	c-1.1-8.7-18.7-8.7-23.8-8.3c-5,0.4-10.1,0.4-14.9,2C69.7,119.1,65.3,121.6,63.8,124.8z"/>
<path class="st2" d="M76,68.8c-2,0.7-3.8,1.7-4.9,2.9c-2.1,2.2-1.3,6,0.7,8.4c2,2.3,4.9,3.7,7.2,5.7c4.4,3.7,7.1,9.6,7.4,15.3
	c0.2,2.9-0.2,5.9-1.5,8.5c-0.5,1.1-1.3,2.5-2.1,3.5c-1.3,1.4-3.5,2.3-5.1,3.3c-2.1,1.3-4.2,2.7-6.3,4c-1.4,0.9-2.8,1.8-3.9,3
	c-1.1,1.2-1.9,2.8-1.8,4.4c0.1,1.8,1.2,3.3,2.7,4.4c1.4,1,3.1,1.6,4.8,2.1c10.8,3,22.9,2.2,32.3-3.7c1.8-1.1,3.7-2.7,3.9-4.9
	c0.2-2-1.2-3.9-2.9-5c-1.7-1-3.8-1.4-5.8-1.7c-2-0.3-4-0.7-5.8-1.8c-2.4-1.5-3.8-4.2-4.4-7c-0.8-3.7-0.3-7.7-0.4-11.4
	c-0.1-2.9,0.5-6.2,3-8.1c2.1-1.6,4.2-3,6.3-4.7c3.1-2.6,8.9-7.2,7.6-11.9c-0.3-1.1-1.1-2.1-1.9-2.8C99.7,66.7,84.8,65.6,76,68.8z"/>
<path class="st1" d="M65.6,52.3c0.2,1.9,1.7,3.7,4.1,4.8c4.1,1.9,9.7,2.3,14.4,2.6c5.2,0.4,27.6,0.4,27.3-6
	c-0.4-8.5-24.1-8.4-31.6-8.1C74.6,45.8,65,46.9,65.6,52.3z"/>
<path class="st1" d="M65.6,50.7c-2.2,8.3-0.9,17.3,2.8,24.9c1.7,3.4,4.3,6.8,7.2,9.6c2.3,2.2,9.7,5.9,8.3,9.9
	c-1.4,3.9-7.1,7.7-9.7,11c-4.9,6.2-10.7,13.8-10.8,22.1"/>
<path class="st1" d="M111.2,51.4c1.3,8.3-0.5,17-4.5,24.4c-2.1,3.8-4.7,7.3-7.9,10.3c-2.3,2.1-8.9,4.7-6.9,8.5
	c1.3,2.4,5.4,3.5,7.5,5.1c8.8,6.9,13.1,18.9,10.8,29.6"/>
<path class="st1" d="M59.9,47.5c2.7-2.4,5.9-4.3,9.4-5.3"/>
<path class="st1" d="M62.5,39.2c1.9-1,3.9-1.7,5.9-2.1"/>
<path class="st1" d="M119.8,130.2c-2.5,4.5-6.8,8.1-11.8,9.7"/>
<path class="st1" d="M121.3,138.5c-1.7,1.1-3.3,2.3-5,3.4"/>
<path class="st1" d="M74.1,75.1c1.8,2.5,3.8,4.9,6,7"/>
<path class="st1" d="M91.3,100.8c3.9,1.7,7.1,4.9,8.8,8.8"/>
<path class="st1" d="M163.1,71.3C150,19,108.9,7.1,74.5,13.2c-24.7,4.4-47.2,21.1-57.2,44.1"/>
<path class="st1" d="M12.7,46.8c1.2,4.6,2.4,9.3,3.6,13.9c5.1-3.3,10.7-5.9,16.5-7.7"/>
<path class="st1" d="M18.1,107.9c3.3,56.9,68.5,71.9,107.5,54.8c6.9-3,13.1-7.4,18.6-12.5c8.7-8,15.6-18,19.5-29.2"/>
<path class="st1" d="M168.9,131.3c-1.5-4.5-3-9.1-4.5-13.6c-4.9,3.6-10.3,6.6-15.9,8.8"/>
</svg>
