<?xml version="1.0" encoding="utf-8"?>
<!-- Generator: Adobe Illustrator 22.1.0, SVG Export Plug-In . SVG Version: 6.00 Build 0)  -->
<svg version="1.1" id="Layer_1" xmlns="http://www.w3.org/2000/svg" xmlns:xlink="http://www.w3.org/1999/xlink" x="0px" y="0px"
	 width="180px" height="180px" viewBox="0 0 180 180" style="enable-background:new 0 0 180 180;" xml:space="preserve">
<style type="text/css">
	.st0{fill:#BDB8FF;}
	.st1{fill:#FFFFFF;}
	.st2{fill:#7849FF;}
	.st3{fill:#85E8C7;}
	.st4{fill:#00D28F;}
	.st5{fill:none;stroke:#000000;stroke-width:3;stroke-linecap:round;stroke-linejoin:round;stroke-miterlimit:10;}
</style>
<g>
	<g>
		<path class="st0" d="M33,151.7c-0.9-0.3-1.9-0.6-2.8-1.2C20.7,145,24,133,24,123.9c0-10.9,0-21.8,0-32.8c0-4.1,0-8.2,0-12.3
			c0-1.5,0.7-2.9,1.9-3.9l57.6-46.2c1.7-1.3,3.7-2,5.8-2c7.3,0,14.8,8.9,20,13.1c13.3,10.5,26.1,21.8,39.5,32c3.8,2.9,4.3,7,4,9.5
			c0,17.2,0,34.5,0,51.7c0,6.6,1.2,11.4-4.4,15.3c-6,4.1-15.9,3.5-22.8,3.5c-15.8,0-31.7,0-47.5,0C64.6,151.8,46,155.3,33,151.7z"/>
	</g>
	<g>
		<path d="M148,78.8c-0.3,0-0.6-0.1-0.9-0.3l-5.7-4.5c-0.7-0.5-0.8-1.5-0.3-2.1c0.5-0.7,1.5-0.8,2.1-0.3l5.7,4.5
			c0.7,0.5,0.8,1.5,0.3,2.1C148.9,78.6,148.5,78.8,148,78.8z"/>
	</g>
	<g>
		<path d="M52.3,60.9c-0.5,0-0.9-0.2-1.2-0.6c-0.5-0.7-0.4-1.6,0.3-2.1c2.5-1.9,5-3.9,7.6-5.9c3.4-2.6,6.8-5.3,10.3-7.9
			c1-0.8,2.3-1.8,3.7-3.1c4.8-4.1,10.9-9.2,15.5-9.6c5-0.4,9.8,4,14,7.8c1.2,1.2,2.4,2.2,3.5,3l1,0.8c3.2,2.5,10.3,8,12.3,9.6
			c0.7,0.5,0.8,1.4,0.3,2.1c-0.5,0.7-1.4,0.8-2.1,0.3c-2-1.6-9.1-7.1-12.3-9.6l-1-0.8c-1.1-0.9-2.4-2-3.7-3.2
			c-3.6-3.3-8-7.4-11.7-7.1C85,35,79.2,40,74.9,43.6c-1.5,1.3-2.8,2.4-3.9,3.2c-3.5,2.6-6.9,5.3-10.3,7.9c-2.5,2-5,3.9-7.6,5.9
			C52.9,60.8,52.6,60.9,52.3,60.9z"/>
	</g>
	<g>
		<path d="M28.9,78.6c-0.5,0-0.9-0.2-1.2-0.6c-0.5-0.7-0.4-1.6,0.3-2.1l12.7-9.5c0.7-0.5,1.6-0.4,2.1,0.3c0.5,0.7,0.4,1.6-0.3,2.1
			l-12.7,9.5C29.6,78.5,29.3,78.6,28.9,78.6z"/>
	</g>
	<g>
		<path class="st1" d="M103.2,108c3.9-3.1,8.8-5.8,12.8-8.5c3.8-2.6,8.5-5.5,12.1-8.5c3.9-3.4,8.5-5.7,8.5-7.8c0-6.2-0.2-9-0.2-15.2
			c0-3.3,0.4-6.8,0-10.1c-0.3-2.6-0.9-2.2-3.6-2.2c-4.3,0-8.6,0-12.9,0c-4.8,0-9.7,0-14.5,0l-2.1,0c-6.7,0-13,0-19.7-0.1
			c-12.9,0-25.8,0-38.7-0.1c-4.3,0-2.6,6-2.6,9.1c0,6.2-0.1,12.3-0.1,18.5c0,2.3,1.4,2.8,1.9,5.1c0.9,4,7.8,4.8,10.7,7.1
			c5,3.9,15.2,10.4,19.9,13.5c7.2,4.8,7.3-2.9,15.6-2.8C95.6,105.9,99.7,110.8,103.2,108z"/>
	</g>
	<g>
		<path d="M41.8,87.2c-0.8,0-1.5-0.7-1.5-1.5v-22c0-7.8,2-9.7,10.1-9.8c7.4-0.1,14.9,0,22.2,0c3.8,0,7.6,0,11.5,0
			c5.1,0,11.1-0.1,16.9-0.1c5.9-0.1,12.1-0.1,17.5-0.1c0.8,0,1.5,0.7,1.5,1.5s-0.7,1.5-1.5,1.5c-5.4,0-11.5,0.1-17.4,0.1
			c-5.8,0.1-11.8,0.1-16.9,0.1c-3.8,0-7.7,0-11.5,0c-7.3,0-14.8,0-22.1,0c-6.5,0.1-7.1,0.6-7.1,6.8v22
			C43.3,86.5,42.6,87.2,41.8,87.2z"/>
	</g>
	<g>
		<path d="M136.5,86.7C136.5,86.7,136.5,86.7,136.5,86.7c-0.8,0-1.5-0.7-1.5-1.5c0-2.7,0-4.8,0-7.1l0-2.7c0-0.8,0.7-1.5,1.5-1.5
			c0,0,0,0,0,0c0.8,0,1.5,0.7,1.5,1.5l0,2.7c0,2.4,0,4.5,0,7.1C138,86.1,137.3,86.7,136.5,86.7z"/>
	</g>
	<g>
		<path d="M140.8,137.5c-0.3,0-0.5-0.1-0.8-0.2l-0.6-0.3c-3.4-2.1-6.9-4.2-10.3-6.2c-9.1-5.5-18.5-11.1-27.6-16.9
			c-0.9-0.6-1.8-1.2-2.7-1.8c-2.8-2-5.7-4-8.6-4.2c-3.1-0.3-6.1,1.5-9,3.2c-0.8,0.5-1.7,1-2.6,1.5c-4.3,2.3-8.3,4.9-13.1,8
			c-6,4-12.3,7.7-18.5,11.3c-3,1.8-6,3.5-8.9,5.3c-0.7,0.4-1.6,0.2-2.1-0.5c-0.4-0.7-0.2-1.6,0.5-2.1c3-1.8,6-3.6,9-5.3
			c6.1-3.6,12.4-7.3,18.3-11.2c4.8-3.2,9-5.8,13.4-8.2c0.8-0.4,1.6-0.9,2.4-1.4c3.1-1.9,6.7-4,10.8-3.6c3.7,0.3,7.1,2.7,10.1,4.8
			c0.9,0.6,1.7,1.2,2.6,1.7c9.1,5.7,18.5,11.4,27.5,16.8c3.4,2.1,6.9,4.2,10.3,6.2l0.6,0.3c0.7,0.4,0.9,1.4,0.5,2.1
			C141.8,137.2,141.3,137.5,140.8,137.5z"/>
	</g>
	<g>
		<path d="M99.3,112.3c-0.5,0-0.9-0.2-1.2-0.6c-0.5-0.7-0.3-1.6,0.4-2.1l48.7-33.5c0.7-0.5,1.6-0.3,2.1,0.4c0.5,0.7,0.3,1.6-0.4,2.1
			l-48.7,33.5C99.9,112.3,99.6,112.3,99.3,112.3z"/>
	</g>
	<g>
		<path d="M78.3,112.3c-0.3,0-0.6-0.1-0.8-0.3c-4.6-3.1-9.3-6.2-13.9-9.3c-11.8-7.9-24-16-35.9-24.1c-0.7-0.5-0.9-1.4-0.4-2.1
			c0.5-0.7,1.4-0.9,2.1-0.4c11.8,8.2,24,16.3,35.8,24.1c4.6,3.1,9.3,6.2,13.9,9.3c0.7,0.5,0.9,1.4,0.4,2.1
			C79.3,112.1,78.8,112.3,78.3,112.3z"/>
	</g>
	<g>
		<path d="M86,95c-0.4,0-0.8-0.1-1-0.4c-2.8-2.7-5.3-5.8-7.3-9.2c-0.4-0.7-0.2-1.6,0.5-2.1c0.7-0.4,1.6-0.2,2.1,0.5
			c1.6,2.7,3.5,5.2,5.6,7.4l16.4-20.5c0.5-0.6,1.5-0.8,2.1-0.2c0.6,0.5,0.8,1.5,0.2,2.1L87.2,94.5C86.9,94.8,86.6,95,86,95
			C86.1,95,86.1,95,86,95z"/>
	</g>
	<g>
		<path class="st2" d="M138.8,38.7c-12.5,0.3-20.8,13.6-14.6,24.1c12.3,20.8,41.8-3.8,26.2-19.5C147.1,40,142.9,38.6,138.8,38.7z"/>
	</g>
	<g>
		<path class="st1" d="M139.4,59.8c0,0-0.1,0-0.1,0l-1.9-0.2c-0.2,0-0.3,0-0.5-0.1c-0.5-0.1-0.9-0.6-0.9-1.1
			c0.1-0.5,0.6-0.9,1.1-0.9l0.4,0.1c0.3,0,0.6,0.1,0.9,0.1c0.2-2.1,0.2-4.1,0.2-6.2c-0.4,0.6-0.8,1.1-1.1,1.7
			c-0.3,0.5-0.9,0.6-1.4,0.3c-0.5-0.3-0.6-0.9-0.3-1.4c0.9-1.5,1.9-2.9,3-4.3c0.3-0.3,0.7-0.5,1.1-0.3c0.4,0.1,0.7,0.5,0.7,0.9
			c0.1,3,0,6.1-0.2,9.1c0.4,0,0.7-0.1,1.1-0.2c0.5-0.1,1.1,0.3,1.2,0.8c0.1,0.5-0.3,1.1-0.8,1.2c-0.7,0.1-1.3,0.2-2,0.3
			C139.8,59.8,139.6,59.8,139.4,59.8z"/>
	</g>
	<g>
		<path d="M155.9,38.3c-0.3,0-0.6-0.1-0.9-0.3c-0.7-0.5-0.8-1.4-0.3-2.1l3.9-5.4c0.5-0.7,1.4-0.8,2.1-0.3c0.7,0.5,0.8,1.4,0.3,2.1
			l-3.9,5.4C156.8,38.1,156.3,38.3,155.9,38.3z"/>
	</g>
	<g>
		<path d="M161.4,44.7c-0.5,0-1-0.3-1.3-0.8c-0.4-0.7-0.2-1.6,0.6-2l12.4-7.1c0.7-0.4,1.6-0.2,2,0.6c0.4,0.7,0.2,1.6-0.6,2
			l-12.4,7.1C161.9,44.6,161.7,44.7,161.4,44.7z"/>
	</g>
</g>
</svg>
