<?xml version="1.0" encoding="utf-8"?>
<!-- Generator: Adobe Illustrator 22.1.0, SVG Export Plug-In . SVG Version: 6.00 Build 0)  -->
<svg version="1.1" id="Layer_1" xmlns="http://www.w3.org/2000/svg" xmlns:xlink="http://www.w3.org/1999/xlink" x="0px" y="0px"
	 width="180px" height="180px" viewBox="0 0 180 180" style="enable-background:new 0 0 180 180;" xml:space="preserve">
<style type="text/css">
	.st0{fill:#BDB8FF;}
	.st1{fill:#FFFFFF;}
	.st2{fill:#7849FF;}
	.st3{fill:#85E8C7;}
	.st4{fill:#00D28F;}
	.st5{fill:none;stroke:#000000;stroke-width:3;stroke-linecap:round;stroke-linejoin:round;stroke-miterlimit:10;}
</style>
<g>
	<path class="st0" d="M47.7,76c-2.2,1.9-3.2,4.3-4.1,7.8c-3.4,12.1,1.1,25.2,6.9,35.8c4.1,7.6,9.5,14.6,15.8,20.4
		c6.9,6.3,14.3,9.3,17.1,19.1c1.1,4.1,0.6,17.6,8.5,15.1c4.4-1.4,6.7-5.9,9.8-9.1c3.5-3.6,7-6,11.5-8.2c5.7-2.7,11-6.8,17.2-8
		c5.3-1,8.8-3.8,7.1-14.4c-1.3-7.9-0.7-30.7-1.5-38.6c-0.8-7.6-1.6-16.2-6.6-22.2c-7.6-9-20.6-13.4-31.8-15.7
		c-4.6-0.9-8.7,0.5-12.8-2c-5-3.1-4.2-9.9-6.2-14.4c-1.5-3.5-5-5.7-8.6-6.1c-4.2-0.5-8.5,1.7-11,5.2c-3.1,4.4-1.8,10.3-0.9,15.3
		c0.7,3.7,1.7,7.7,1,11.5c-0.8,4.5-4.9,5-8.4,6.6C49.5,74.6,48.5,75.3,47.7,76z"/>
</g>
<g>
	<path class="st0" d="M82.8,15.5c-13.2-5.4-28.8-4-38.8,7C33.3,34.2,30.2,56.6,42.8,68C54.1,78.3,72,79.7,85.7,73.4
		C106.9,63.8,103.7,24.1,82.8,15.5z"/>
</g>
<g>
	<path class="st1" d="M43.8,43.9c-0.4,8.8,5.1,17.7,13.4,20.7c3.5,1.3,7.4,1.5,11.1,1.3c6.5-0.3,13.2-2.1,17.7-6.8
		c2.7-2.9,4.4-6.7,5-10.6c1.4-9-2.8-18.7-10.4-23.7C65.1,14.5,44.6,25.5,43.8,43.9z"/>
</g>
<g>
	<path class="st0" d="M62.2,49.3c0.1-0.7,0.1-1.4,0.5-2c0.4-0.9,1.3-1.5,2.2-2.1c1.3-0.9,2.6-1.8,4.1-1.9c2.6-0.3,4.9,1.7,6,4.1
		c1.1,2.3,1.2,5,1.5,7.6c0.5,5,1.4,10,2.8,14.8c0.4,1.5,0.9,3.1,0.9,4.7c-0.2,10.2-13.3,7.8-16.6,0.8c-1.3-2.7-1-6-1.3-8.9
		C61.8,60.5,61.6,55.1,62.2,49.3z"/>
</g>
<g>
	<path class="st1" d="M54.2,98.2c1.4,4.5,3.8,8.7,6.9,12.1c3.4,3.8,10.4,10.1,15.6,6.2c6.3-4.7,0.8-21.1,0.1-27.5
		c-1-8.2-2.3-16.3-4.7-24.2c-0.7-2.1-7.4-21.5-9.7-12.7c-0.5,1.9-0.1,3.8,0.3,5.7c2.9,14.8,5.3,29.8,7.1,44.8
		c-2.2,0.6-3.9-2-4.6-4.1c-1.6-4.6-2.9-9.2-3.9-14c-0.3-1.6-0.7-3.2-1.7-4.5c-3.9-5-6.1,1.6-6.6,4.7C52.4,89.2,52.9,93.8,54.2,98.2z
		"/>
</g>
<g>
	<path class="st1" d="M81.3,83.1c0.7,4.6,3.3,8.7,6.5,12.1c0.4,0.4,0.8,0.8,1.4,0.9c1.4,0.3,2.2-1.5,2.4-2.9
		c0.7-5,0.7-14.6-3.3-18.5C82.6,69,80.7,78.7,81.3,83.1z"/>
</g>
<g>
	<path class="st1" d="M98.6,80.4c0.4,3.8,1.3,11.8,4.8,12.1c6.5,0.6,2.7-17.1,0.2-20.6C99.5,66.2,98.1,76,98.6,80.4z"/>
</g>
<g>
	<path d="M71.9,110.5c-0.7,0-1.3-0.5-1.5-1.2c-0.7-3.8-1.3-7.5-2-11.3c-1.2-7-2.5-14.2-3.8-21.3c-0.5-2.5-1.1-5.1-1.6-7.5
		c-1.1-4.6-2.1-9.4-2.6-14.1c-0.3-3.3,0-9.7,3.5-12.6c1.2-1,3.2-2,6.4-1.1c6.2,1.7,7.6,10.9,8.6,17.6c0.2,1.5,0.4,2.8,0.6,3.7
		c0.4,2,0.9,4,1.3,6c1.6,7.3,3.3,14.8,4.6,22.3c0.1,0.8-0.4,1.6-1.2,1.7c-0.8,0.1-1.6-0.4-1.7-1.2c-1.3-7.4-3-14.9-4.6-22.2
		c-0.4-2-0.9-4-1.3-6c-0.2-1.1-0.4-2.4-0.7-4c-0.8-5.6-2.1-14-6.4-15.1c-1.5-0.4-2.7-0.2-3.7,0.5c-2.1,1.7-2.8,6.4-2.4,10
		c0.5,4.6,1.5,9.2,2.6,13.7c0.6,2.5,1.2,5.1,1.6,7.7c1.3,7.1,2.6,14.3,3.8,21.3c0.7,3.8,1.3,7.5,2,11.3c0.1,0.8-0.4,1.6-1.2,1.7
		C72.1,110.5,72,110.5,71.9,110.5z"/>
</g>
<g>
	<path d="M92.4,160.7c-0.6,0-1.2-0.4-1.4-1.1c-2.2-7.1-7.7-12.1-13.5-17.3c-2.4-2.2-4.9-4.4-7.1-6.8c-8.3-9-18.3-21-20.9-34.2
		c-0.5-2.6-3-16.1,1-21.9c1.1-1.5,2.5-2.4,4.2-2.7c6.5-1,8.5,9.7,9.3,14.2l0,0.1c1.3,6.9,3,9.7,5.8,9.4c0.8-0.1,1.6,0.5,1.7,1.3
		s-0.5,1.6-1.3,1.7c-6.8,0.9-8.5-8-9.2-11.8l0-0.2c-1.5-8.2-3.5-12.2-5.9-11.8c-0.9,0.1-1.6,0.6-2.2,1.4c-2.8,4-1.6,14.6-0.5,19.6
		c2.5,12.5,12.1,24.1,20.2,32.8c2.1,2.3,4.5,4.5,6.9,6.6c5.9,5.3,12,10.8,14.4,18.7c0.2,0.8-0.2,1.6-1,1.9
		C92.7,160.7,92.5,160.7,92.4,160.7z"/>
</g>
<g>
	<path d="M100.5,89.7c-0.7,0-1.3-0.4-1.4-1.1c-0.2-0.9-0.5-2.1-0.8-3.5c-1-5.1-2.6-12.9-6.3-15.3c-1-0.7-2.1-0.9-3.4-0.6
		c-4.5,0.9-5.9,6.6-4.3,16.7c0.1,0.8-0.4,1.6-1.2,1.7c-0.8,0.1-1.6-0.4-1.7-1.2c-1.9-12,0.3-18.8,6.6-20.1c2.1-0.4,4-0.1,5.7,1
		c4.7,3.1,6.4,11.6,7.5,17.2c0.3,1.3,0.5,2.5,0.7,3.3c0.2,0.8-0.3,1.6-1.1,1.8C100.8,89.6,100.6,89.7,100.5,89.7z"/>
</g>
<g>
	<path d="M116.1,88.1c-0.7,0-1.3-0.5-1.5-1.2c-0.2-0.7-0.3-1.6-0.5-2.5c-1.1-5.6-3-15-8.2-16.3c-1.7-0.5-3-0.2-3.9,0.7
		c-2.2,2.3-2.2,8.4-1.3,11.8c0.2,0.8-0.2,1.6-1,1.9c-0.8,0.2-1.6-0.2-1.9-1c-1.2-3.9-1.3-11.3,2-14.7c1.2-1.2,3.3-2.5,6.8-1.5
		c7,1.9,9,12,10.3,18.7c0.2,0.9,0.3,1.7,0.5,2.4c0.2,0.8-0.3,1.6-1.1,1.8C116.3,88,116.2,88.1,116.1,88.1z"/>
</g>
<g>
	<path d="M133,146.6c-0.6,0-1.2-0.4-1.4-1c-3.1-9.9-2.8-20-2.6-29.8c0.3-9.1,0.5-18.4-2-27.3c-0.1-0.5-0.3-1.2-0.5-1.9
		c-1-4-3-12.2-6.9-11.5c-0.8,0.1-1.5,0.6-2,1.4c-1,1.7-1.1,4.3-0.6,5.9c0.2,0.8-0.2,1.6-1,1.9c-0.8,0.2-1.6-0.2-1.9-1
		c-0.6-2.2-0.6-5.8,1-8.4c0.9-1.5,2.3-2.5,4-2.7c6.7-1.2,9.1,8.5,10.4,13.7c0.2,0.7,0.3,1.3,0.5,1.8c2.6,9.3,2.4,18.9,2.1,28.2
		c-0.3,9.6-0.6,19.5,2.4,28.8c0.3,0.8-0.2,1.6-1,1.9C133.3,146.6,133.2,146.6,133,146.6z"/>
</g>
<g>
	<path d="M97.1,175.1c-0.2,0-0.5-0.1-0.7-0.2c-0.7-0.4-1-1.3-0.6-2c6.3-11.9,19-20,32.4-20.8c0.8-0.1,1.5,0.6,1.6,1.4
		c0,0.8-0.6,1.5-1.4,1.6c-12.4,0.7-24.1,8.3-30,19.2C98.2,174.8,97.6,175.1,97.1,175.1z"/>
</g>
<g>
	<path d="M54.4,65.2c-0.3,0-0.5-0.1-0.7-0.2c-4.4-2.5-7.7-6.3-9.6-11c-1.2-3-1.8-6.2-1.8-9.5C42.5,30.9,54,19.4,67.4,19.4
		c8.1,0,15.8,4.3,20.6,11.4c4.6,6.9,5.6,15.3,2.6,22.5c-0.7,1.8-1.7,3.5-2.9,5c-0.5,0.7-1.4,0.8-2.1,0.3c-0.7-0.5-0.8-1.4-0.3-2.1
		c1-1.3,1.9-2.8,2.5-4.4c2.6-6.4,1.8-13.6-2.3-19.7c-4.2-6.3-11-10.1-18.1-10.1c-11.8,0-21.9,10.2-22.1,22.2c0,2.9,0.5,5.7,1.6,8.3
		c1.6,4,4.5,7.3,8.3,9.5c0.7,0.4,1,1.3,0.6,2C55.5,65,55,65.2,54.4,65.2z"/>
</g>
<g>
	<path d="M37.5,69.3c-0.4,0-0.9-0.2-1.2-0.6c-1.9-2.5-3.5-5.2-4.7-8.2c-1.9-4.7-2.8-9.6-2.7-14.6c0.2-10.4,4.7-20.6,12.4-28
		c0.6-0.6,1.5-0.6,2.1,0c0.6,0.6,0.6,1.5,0,2.1C36.2,26.8,32,36.3,31.8,45.9c-0.1,4.6,0.8,9.1,2.5,13.4c1.1,2.7,2.6,5.3,4.3,7.5
		c0.5,0.7,0.4,1.6-0.3,2.1C38.1,69.2,37.8,69.3,37.5,69.3z"/>
</g>
<g>
	<path d="M103.5,39.8c-0.7,0-1.3-0.5-1.5-1.2c-3.7-16.3-18.6-28.5-34.6-28.5c-3.2,0-6.3,0.4-9.3,1.3c-0.8,0.2-1.6-0.2-1.9-1
		c-0.2-0.8,0.2-1.6,1-1.9c3.3-0.9,6.7-1.4,10.1-1.4c17.4,0,33.5,13.3,37.5,30.9c0.2,0.8-0.3,1.6-1.1,1.8
		C103.7,39.8,103.6,39.8,103.5,39.8z"/>
</g>
<g>
	<path d="M101.8,60.3c-0.2,0-0.4,0-0.6-0.1c-0.8-0.3-1.1-1.2-0.8-2c1.2-2.8,1.9-5.8,2.2-8.9c0.1-0.8,0.8-1.4,1.6-1.3
		c0.8,0.1,1.4,0.8,1.3,1.6c-0.3,3.3-1.2,6.6-2.4,9.7C103,60,102.4,60.3,101.8,60.3z"/>
</g>
</svg>
