<?xml version="1.0" encoding="UTF-8"?>
<svg width="133px" height="146px" viewBox="0 0 133 146" version="1.1" xmlns="http://www.w3.org/2000/svg" xmlns:xlink="http://www.w3.org/1999/xlink">
    <!-- Generator: Sketch 56.2 (81672) - https://sketch.com -->
    <title>Efficiency pro</title>
    <desc>Created with Sketch.</desc>
    <defs>
        <path d="M51.2767324,63.9437065 C51.8767854,56.5355384 51.8767854,56.5355384 50.5766705,55.634545 C49.8766086,55.1339931 48.8765201,55.0338827 48.0764494,55.4343242 C46.1762814,56.3353176 44.7761576,57.8369733 43.4760427,59.1384083 L43.276025,59.4387394 L43.276025,59.4387394 C33.2751408,69.4497773 31.0749463,86.2683211 38.0755652,98.5818978 C43.7760692,108.492825 55.0770684,115 66.4780763,115 C66.8781117,115 67.3781559,115 67.7781913,115 C79.5792346,114.499448 90.9802426,106.891059 95.9806847,96.1792487 C98.7809323,90.1726259 99.6810119,83.4652305 98.4809058,77.2583869 C97.080782,69.9503292 92.8804106,62.7423819 85.5797652,55.2341035 C83.179553,52.731344 80.5793231,50.3286949 78.079102,48.0261561 C74.9788279,45.2230655 71.778545,42.2197541 68.9782974,39.1163324 C68.2782355,38.3154493 67.1781382,37.9150078 66.078041,38.0151182 C64.9779437,38.1152286 63.9778553,38.7158909 63.3778022,39.6168843 C59.077422,46.3242797 58.9774132,55.7346554 63.0777757,64.2440376 C63.4778111,65.0449207 63.8778464,65.7456933 64.2778818,66.5465763 C64.777926,67.5476801 65.2779702,68.5487839 65.7780144,69.4497773 C66.9781206,72.252868 66.8781117,75.3562897 65.4779879,77.8590492 C63.8778464,80.5620295 60.8775812,81.8634644 57.4772806,81.3629125 C53.9769711,80.8623606 51.3767412,78.4597115 50.6766793,75.3562897 C50.4766616,74.6555171 50.4766616,74.0548548 50.4766616,73.1538614 C50.6766793,70.0504396 50.9767058,66.6466867 51.2767324,63.9437065 Z M56.6772098,86.2683211 C62.0776873,87.1693145 67.0781294,84.8667758 69.7783681,80.3618087 C72.0785715,76.5576143 72.2785892,71.7523161 70.3784212,67.4475698 C69.878377,66.3463556 69.2783239,65.2451414 68.7782797,64.1439272 C68.3782443,63.4431546 68.0782178,62.7423819 67.6781824,62.0416093 C64.6779172,55.9348761 64.3778907,49.0272599 66.7781029,44.021741 C69.3783328,46.7247212 72.0785715,49.2274807 74.7788102,51.7302402 C77.1790224,54.0327789 79.7792523,56.3353176 82.0794557,58.7379667 C88.6800393,65.5454725 92.4803753,71.8524265 93.6804814,78.2594907 C94.6805698,83.4652305 93.8804991,89.1715221 91.5802957,94.1770411 C87.1799066,103.086865 77.5790578,109.493929 67.5781736,109.994481 C57.4772806,110.394923 47.3763875,104.788741 42.4759543,96.0791383 C36.6754414,85.8678796 38.3755917,72.0526472 46.2762903,63.4431546 C46.2762903,63.4431546 46.2762903,63.4431546 46.2762903,63.4431546 C46.0762726,66.1461348 45.776246,69.5498877 45.4762195,72.7534199 C45.3762107,74.0548548 45.4762195,75.2561794 45.6762372,76.3573935 C46.8763433,81.4630229 51.1767235,85.3673277 56.6772098,86.2683211 Z" id="path-1"></path>
        <filter x="-10.8%" y="-6.5%" width="121.5%" height="118.2%" filterUnits="objectBoundingBox" id="filter-2">
            <feOffset dx="0" dy="2" in="SourceAlpha" result="shadowOffsetOuter1"></feOffset>
            <feGaussianBlur stdDeviation="2" in="shadowOffsetOuter1" result="shadowBlurOuter1"></feGaussianBlur>
            <feColorMatrix values="0 0 0 0 0   0 0 0 0 0   0 0 0 0 0  0 0 0 0.258413462 0" type="matrix" in="shadowBlurOuter1"></feColorMatrix>
        </filter>
    </defs>
    <g id="Page-1" stroke="none" stroke-width="1" fill="none" fill-rule="evenodd">
        <g id="Achievement-badges" transform="translate(-100.000000, -201.000000)">
            <g id="Efficiency-pro" transform="translate(100.000000, 198.000000)">
                <path d="M9.87572191,33.1240786 L56.2123288,5.92554153 C62.4476094,2.26557329 70.1727778,2.25581633 76.4172836,5.90002247 L123.080677,33.1321251 C129.223193,36.7168113 133,43.293808 133,50.4058033 L133,102.329267 C133,109.465828 129.197275,116.061667 123.021207,119.637514 L77.0534938,146.252108 C70.9049339,149.812029 63.3293198,149.842805 57.1520388,146.332958 L10.1197518,119.609853 C3.86433837,116.055612 5.14910739e-15,109.415394 0,102.220756 L0,50.3722377 C1.33420951e-14,43.2782773 3.75783405,36.7151399 9.87572191,33.1240786 Z" id="Rectangle-Copy-2" fill="#FF4949"></path>
                <g id="Shape" fill-rule="nonzero">
                    <use fill="black" fill-opacity="1" filter="url(#filter-2)" xlink:href="#path-1"></use>
                    <use fill="#FFFFFF" xlink:href="#path-1"></use>
                </g>
            </g>
        </g>
    </g>
</svg>