<svg version="1" id="Layer_1" xmlns="http://www.w3.org/2000/svg" viewBox="0 0 676.3 428.1"><style>.st0{fill:#e3f3fc}.st1{fill:url(#SVGID_1_)}.st2{fill:url(#SVGID_2_)}.st3{opacity:.5;fill:url(#SVGID_3_)}.st4{fill:url(#SVGID_4_)}.st5{fill:url(#SVGID_5_)}.st6{fill:url(#SVGID_6_)}.st7{fill:url(#SVGID_7_)}.st8{fill:url(#SVGID_8_)}.st9{fill:#222e50}.st10{fill:url(#SVGID_9_)}.st11{fill:#fff}.st12{fill:url(#SVGID_10_)}.st13{opacity:.17;fill:#fff}.st14{fill:#f0f0f0}.st15{fill:url(#SVGID_11_)}.st16{fill:#e0e0e0}.st17{fill:url(#SVGID_12_)}.st18{fill:url(#SVGID_13_)}.st19{fill:#ff1774}.st20{fill:#ffc506}.st21{fill:#00d0a0}.st22{fill:#e6e6e6}.st23{fill:#5fbbff}.st24{fill:none;stroke:#d1d1d1;stroke-miterlimit:10}.st25{fill:url(#SVGID_14_)}.st26{fill:url(#SVGID_15_)}.st27{opacity:.35;fill:url(#SVGID_16_)}.st28{fill:#e7bb86}.st29{fill:#e3af71}.st30{fill:#424242}.st31{fill:#595959}.st32{fill:#6b4cff}.st33{fill:#29c2e9}.st34{fill:#53d6ed}.st35{fill:#dea25a}.st36{fill:#8b73ff}.st37{fill:#303030}.st38{fill:none;stroke:#fff}.st39{fill:url(#SVGID_17_)}.st40{fill:url(#SVGID_18_)}.st41{fill:#333}.st42{fill:#858585}.st43{fill:url(#SVGID_19_)}.st44{fill:none}.st45{fill:url(#SVGID_20_)}.st46{fill:#4a4a4a}.st47{fill:url(#SVGID_21_)}.st48{fill:#dd9f54}.st49{fill:#b0a0ff}.st50{fill:#866eff}.st51{fill:url(#SVGID_22_)}.st52{fill:#ffbf96}.st53{fill:#ffbd00}.st54{fill:#1778ff}.st55{fill:#ffc600}.st56{fill:#ffb62c}.st57{fill:#9f3a00}.st58{fill:#ffb11e}.st59{fill:#0052ff}.st60{fill:#0054ff}.st61{fill:#ffa972}.st62{fill:#863a00}.st63{fill:#ffb220}.st64{fill:#b86d42}.st65{fill:#ff813d}.st66{fill:#ff955c}.st67{fill:#ff6b1b}.st68{fill:#c89773}.st69{fill:#177fff}.st70{fill:#bb7f53}.st71{fill:none;stroke:#000}.st72{fill:url(#SVGID_23_)}.st73{fill:url(#SVGID_24_)}.st74{fill:url(#SVGID_25_)}.st75{fill:url(#SVGID_26_)}.st76{fill:url(#SVGID_27_)}.st77{fill:url(#SVGID_28_)}.st78{fill:#ff823f}.st79{fill:#ebebeb}.st80{fill:#e0a864}.st81{fill:#d9d9d9}.st82{fill:#565656}.st83{fill:url(#SVGID_29_)}.st84{fill:url(#SVGID_30_)}.st85{opacity:.54;fill:url(#SVGID_31_)}.st86{fill:url(#SVGID_32_)}.st87{fill:url(#SVGID_33_)}.st88{fill:url(#SVGID_34_)}.st89{fill:url(#SVGID_35_)}.st90{fill:#0092e4}.st91{opacity:.43;fill:url(#SVGID_36_)}.st92{fill:url(#SVGID_37_)}.st93{fill:url(#SVGID_38_)}.st94{opacity:.78;fill:url(#SVGID_39_)}.st95{fill:url(#SVGID_40_)}.st96{fill:url(#SVGID_41_)}.st97{fill:none;stroke:#d1ebf9;stroke-miterlimit:10}.st98{fill:#404040}.st99{fill:url(#SVGID_42_)}.st100{fill:url(#SVGID_43_)}.st101{fill:url(#SVGID_44_)}.st102{fill:url(#SVGID_45_)}.st103{fill:url(#SVGID_46_)}.st104,.st105{opacity:.78;fill:url(#SVGID_47_)}.st105{fill:url(#SVGID_48_)}.st106{fill:url(#SVGID_49_)}.st107{fill:url(#SVGID_50_)}.st108{fill:url(#SVGID_51_)}.st109{fill:url(#SVGID_52_)}.st110{fill:url(#SVGID_53_)}.st111{fill:url(#SVGID_54_)}.st112{fill:url(#SVGID_55_)}.st113{fill:none;stroke:#c4e5f7;stroke-miterlimit:10}.st114{fill:url(#SVGID_56_)}.st115{fill:url(#SVGID_57_)}.st116{fill:url(#SVGID_58_)}.st117{fill:url(#SVGID_59_)}.st118{fill:url(#SVGID_60_)}.st119{fill:url(#SVGID_61_)}.st120{fill:url(#SVGID_62_)}.st121{fill:url(#SVGID_63_)}.st122{fill:url(#SVGID_64_)}.st123{fill:#76aceb}.st124{fill:#222e4f}.st125{fill:#0079bf}.st126{fill:url(#SVGID_65_)}.st127{fill:url(#SVGID_66_)}.st128{fill:url(#SVGID_67_)}.st129{fill:url(#SVGID_68_)}.st130{fill:url(#SVGID_69_)}.st131{fill:#253b80}.st131,.st132,.st133{clip-path:url(#SVGID_71_)}.st132{fill:#179bd7}.st133{fill:#222d65}.st134{fill:url(#SVGID_72_)}.st135{fill:none;stroke:#dbe4f0;stroke-miterlimit:10}.st136{fill:#07c4e5}.st137{fill:#dbe4f0}.st138{fill:#dfa35c}.st139{opacity:.43;fill:url(#SVGID_73_)}.st140{fill:url(#SVGID_74_)}.st141{fill:url(#SVGID_75_)}.st142{fill:none;stroke:#8873ff;stroke-width:2;stroke-miterlimit:10}.st143{fill:url(#SVGID_76_)}.st144{fill:url(#SVGID_77_)}.st145{fill:url(#SVGID_78_)}.st146{opacity:.35;fill:url(#SVGID_79_)}.st147{fill:#8873ff;stroke:#8873ff;stroke-width:2;stroke-miterlimit:10}.st148{opacity:.43;fill:url(#SVGID_80_)}.st149{fill:url(#SVGID_81_)}.st150,.st151{fill:none;stroke-miterlimit:10}.st150{opacity:.43;stroke-width:6;stroke:#1f95ff}.st151{stroke:#fff}.st152{fill:url(#SVGID_82_)}.st153{fill:url(#SVGID_83_)}.st154{fill:#c4c4c4}.st155{opacity:.35;fill:url(#SVGID_84_)}.st156,.st157{opacity:.35;fill:url(#SVGID_85_)}.st157{fill:url(#SVGID_86_)}.st158,.st159{opacity:.35;fill:url(#SVGID_87_)}.st159{fill:url(#SVGID_88_)}.st160,.st161{opacity:.35;fill:url(#SVGID_89_)}.st161{fill:url(#SVGID_90_)}.st162{fill:url(#SVGID_91_)}.st163{opacity:.35;fill:url(#SVGID_92_)}.st164{fill:url(#SVGID_93_)}.st165{fill:url(#SVGID_94_)}.st166{fill:url(#SVGID_95_)}.st167{fill:url(#SVGID_96_)}.st168{fill:url(#SVGID_97_)}.st169{fill:url(#SVGID_98_)}.st170{fill:url(#SVGID_99_)}.st171{fill:url(#SVGID_100_)}.st172{fill:url(#SVGID_101_)}.st173{fill:url(#SVGID_102_)}.st174{fill:url(#SVGID_103_)}.st175{opacity:.35;fill:url(#SVGID_104_)}.st176,.st177{opacity:.35;fill:url(#SVGID_105_)}.st177{fill:url(#SVGID_106_)}.st178{fill:url(#SVGID_107_)}.st179{fill:url(#SVGID_108_)}.st180{fill:url(#SVGID_109_)}.st181{fill:url(#SVGID_110_)}.st182{opacity:.35;fill:url(#SVGID_111_)}.st183{fill:url(#SVGID_112_)}.st184{fill:url(#SVGID_113_)}.st185{fill:url(#SVGID_114_)}.st186{fill:url(#SVGID_115_)}.st187{fill:url(#SVGID_116_)}.st188{fill:url(#SVGID_117_)}.st189{fill:url(#SVGID_118_)}.st190{fill:url(#SVGID_119_)}.st191{fill:url(#SVGID_120_)}.st192{fill:none;stroke:#8873ff;stroke-width:3;stroke-miterlimit:10}.st193{fill:url(#SVGID_121_)}.st194{fill:none;stroke:#ffc600;stroke-width:3;stroke-miterlimit:10}.st195{fill:url(#SVGID_122_)}.st196{fill:url(#SVGID_123_)}.st197{opacity:.43;fill:url(#SVGID_124_)}.st198{fill:url(#SVGID_125_)}.st199{fill:#cfe7ed}.st200{fill:#734200}.st201{fill:#7e3314}.st202{fill:#26aae2}.st203{fill:url(#SVGID_126_)}.st204{fill:#8ec63f}.st205{fill:#adffa2}.st206{fill:#94ff86}.st207{fill:#ffc517}.st208{fill:#0098dd}.st209{fill:#fb9213}.st210{fill:url(#SVGID_127_)}.st211{fill:url(#SVGID_128_)}.st212{fill:url(#SVGID_129_)}.st213{fill:url(#SVGID_130_)}.st214{fill:url(#SVGID_131_)}.st215{fill:url(#SVGID_132_)}.st216{fill:url(#SVGID_133_)}.st217{fill:#0adfa3}.st218{fill:url(#SVGID_134_)}.st219{fill:url(#SVGID_135_)}.st220{fill:url(#SVGID_136_)}.st221{fill:url(#SVGID_137_)}.st222,.st223{opacity:.43;fill:url(#SVGID_138_)}.st223{fill:url(#SVGID_139_)}.st224{fill:url(#SVGID_140_)}.st225{fill:url(#SVGID_141_)}.st226{fill:url(#SVGID_142_)}.st227{opacity:.35;fill:url(#SVGID_143_)}.st228,.st229{opacity:.35;fill:url(#SVGID_144_)}.st229{fill:url(#SVGID_145_)}.st230,.st231{opacity:.35;fill:url(#SVGID_146_)}.st231{fill:url(#SVGID_147_)}.st232,.st233{opacity:.35;fill:url(#SVGID_148_)}.st233{fill:url(#SVGID_149_)}.st234{fill:url(#SVGID_150_)}.st235{opacity:.35;fill:url(#SVGID_151_)}.st236{fill:url(#SVGID_152_)}.st237{fill:url(#SVGID_153_)}.st238{fill:url(#SVGID_154_)}.st239{fill:url(#SVGID_155_)}.st240{fill:url(#SVGID_156_)}.st241{fill:url(#SVGID_157_)}.st242{fill:url(#SVGID_158_)}.st243{fill:url(#SVGID_159_)}.st244{fill:url(#SVGID_160_)}.st245{fill:url(#SVGID_161_)}.st246{fill:url(#SVGID_162_)}.st247{opacity:.35;fill:url(#SVGID_163_)}.st248,.st249{opacity:.35;fill:url(#SVGID_164_)}.st249{fill:url(#SVGID_165_)}.st250{fill:url(#SVGID_166_)}.st251{fill:url(#SVGID_167_)}.st252{fill:url(#SVGID_168_)}.st253{fill:url(#SVGID_169_)}.st254{opacity:.35;fill:url(#SVGID_170_)}.st255{fill:url(#SVGID_171_)}.st256{fill:url(#SVGID_172_)}.st257{fill:url(#SVGID_173_)}.st258{fill:url(#SVGID_174_)}.st259{fill:url(#SVGID_175_)}.st260{fill:url(#SVGID_176_)}.st261{fill:url(#SVGID_177_)}.st262{fill:url(#SVGID_178_)}.st263{fill:url(#SVGID_179_)}.st264{fill:url(#SVGID_180_)}.st265{fill:url(#SVGID_181_)}.st266{fill:url(#SVGID_182_)}.st267{fill:url(#SVGID_183_)}.st268{fill:url(#SVGID_184_)}.st269{fill:url(#SVGID_185_)}.st270{fill:url(#SVGID_186_)}.st271{fill:url(#SVGID_187_)}.st272{fill:url(#SVGID_188_)}.st273{fill:url(#SVGID_189_)}.st274{fill:url(#SVGID_190_)}.st275{opacity:.26;fill:url(#SVGID_191_)}.st276{fill:url(#SVGID_192_)}.st277{fill:url(#SVGID_193_)}.st278{fill:url(#SVGID_194_)}.st279{fill:url(#SVGID_195_)}.st280{fill:url(#SVGID_196_)}.st281{fill:url(#SVGID_197_)}.st282{fill:url(#SVGID_198_)}.st283{fill:url(#SVGID_199_)}.st284{fill:url(#SVGID_200_)}.st285{opacity:.35;fill:url(#SVGID_201_)}.st286{opacity:.54;fill:url(#SVGID_202_)}.st287{fill:url(#SVGID_203_)}.st288{opacity:.54;fill:url(#SVGID_204_)}.st289{fill:url(#SVGID_205_)}.st290{fill:url(#SVGID_206_)}.st291{fill:url(#SVGID_207_)}.st292{fill:url(#SVGID_208_)}.st293{fill:url(#SVGID_209_)}.st294{fill:url(#SVGID_210_)}.st295{fill:url(#SVGID_211_)}.st296{fill:url(#SVGID_212_)}.st297{fill:#004cff}.st298{opacity:.6;fill:url(#SVGID_213_)}.st299,.st300{opacity:.6;fill:url(#SVGID_214_)}.st300{fill:url(#SVGID_215_)}.st301{fill:url(#SVGID_216_)}.st302{fill:url(#SVGID_217_)}.st303{fill:url(#SVGID_218_)}.st304{fill:url(#SVGID_219_)}.st305{fill:url(#SVGID_220_)}.st306{fill:url(#SVGID_221_)}.st307{fill:url(#SVGID_222_)}.st308{fill:url(#SVGID_223_)}.st309{fill:url(#SVGID_224_)}.st310{fill:url(#SVGID_225_)}.st311{fill:url(#SVGID_226_)}.st312{fill:url(#SVGID_227_)}.st313{opacity:.5;fill:url(#SVGID_228_)}.st314,.st315{opacity:.5;fill:url(#SVGID_229_)}.st315{fill:url(#SVGID_230_)}.st316{fill:url(#SVGID_231_)}.st317{fill:url(#SVGID_232_)}.st318{fill:url(#SVGID_233_)}.st319{fill:url(#SVGID_234_)}.st320{fill:url(#SVGID_235_)}.st321{fill:url(#SVGID_236_)}.st322{fill:url(#SVGID_237_)}.st323{fill:url(#SVGID_238_)}.st324{fill:url(#SVGID_239_)}.st325{opacity:.35;fill:url(#SVGID_240_)}.st326{opacity:.54;fill:url(#SVGID_241_)}.st327{fill:url(#SVGID_242_)}.st328{opacity:.54;fill:url(#SVGID_243_)}.st329{fill:url(#SVGID_244_)}.st330{fill:url(#SVGID_245_)}.st331{fill:url(#SVGID_246_)}.st332,.st333{opacity:.5;fill:url(#SVGID_247_)}.st333{fill:url(#SVGID_248_)}.st334{fill:url(#SVGID_249_)}.st335{fill:url(#SVGID_250_)}.st336{fill:url(#SVGID_251_)}.st337{fill:url(#SVGID_252_)}.st338{fill:url(#SVGID_253_)}.st339{opacity:.6;fill:url(#SVGID_254_)}.st340,.st341{opacity:.6;fill:url(#SVGID_255_)}.st341{fill:url(#SVGID_256_)}.st342{fill:url(#SVGID_257_)}.st343{fill:url(#SVGID_258_)}.st344{fill:url(#SVGID_259_)}.st345{fill:url(#SVGID_260_)}.st346{fill:url(#SVGID_261_)}.st347{fill:url(#SVGID_262_)}.st348{fill:url(#SVGID_263_)}.st349{fill:url(#SVGID_264_)}.st350{fill:url(#SVGID_265_)}.st351{fill:url(#SVGID_266_)}.st352{fill:url(#SVGID_267_)}.st353{fill:url(#SVGID_268_)}.st354{fill:url(#SVGID_269_)}.st355{opacity:.43;fill:url(#SVGID_270_)}.st356{fill:url(#SVGID_271_)}.st357{fill:url(#SVGID_272_)}.st358{fill:url(#SVGID_273_)}.st359{fill:url(#SVGID_274_)}.st360{fill:url(#SVGID_275_)}.st361{fill:url(#SVGID_276_)}.st362{fill:url(#SVGID_277_)}</style><linearGradient id="SVGID_1_" gradientUnits="userSpaceOnUse" x1="-3985.453" y1="3263.629" x2="-3791.945" y2="3413.744" gradientTransform="matrix(-.0508 -.7711 .9407 -.06197 -2997.959 -2615.311)"><stop offset="0" stop-color="#fff"/><stop offset=".273" stop-color="#fcfeff"/><stop offset=".446" stop-color="#f4fafd"/><stop offset=".591" stop-color="#e5f4fb"/><stop offset=".72" stop-color="#d0eaf9"/><stop offset=".839" stop-color="#b6def5"/><stop offset=".949" stop-color="#95d0f0"/><stop offset="1" stop-color="#83c8ee"/></linearGradient><path d="M442.5 119.6c-16.7-5.6-34-6-50.5-11.7-13.5-4.7-25.3-13.2-35.8-22.8-10.5-9.6-19-20.8-31.3-28.3-33.9-20.6-76-6.2-100.9 21.4-7.2 8-13.4 16.9-20.7 24.9-11.5 12.6-26.6 17.7-40.4 27-20.7 13.9-30.8 40.6-25.7 64.9 3.2 15.3 12.4 29.2 25 38.4 13 9.5 31.5 11.7 41.2 25.6 2.7 3.9 4.4 8.5 7.4 12.2 3.3 4.1 8 7 12.6 9.5 36.9 20.2 228.8 34.5 240.4 10.8 5.5-11.4 9.6-23.4 20.4-30.7 11.5-7.8 19.5-17.7 24.9-30.6 5.1-12.3 7.7-25.9 5.3-38.9-2.4-13.1-9.8-24.9-18.5-35-12.6-14.5-28.5-26-46-33.8-2.6-1.1-5-2.1-7.4-2.9z" opacity=".43" fill="url(#SVGID_1_)"/><linearGradient id="SVGID_2_" gradientUnits="userSpaceOnUse" x1="335.976" y1="413.45" x2="339.004" y2="245.134"><stop offset="0" stop-color="#fff" stop-opacity="0"/><stop offset=".089" stop-color="#f8f8f8" stop-opacity=".089"/><stop offset=".216" stop-color="#e5e5e5" stop-opacity=".216"/><stop offset=".367" stop-color="#c7c7c7" stop-opacity=".367"/><stop offset=".534" stop-color="#9c9c9c" stop-opacity=".534"/><stop offset=".717" stop-color="#656565" stop-opacity=".717"/><stop offset=".908" stop-color="#222" stop-opacity=".908"/><stop offset="1"/></linearGradient><path class="st2" d="M55.7 342.7L6.2 426.3l659-.2-65.1-102.9-355.4-7.6z"/><path class="st199" d="M134.8 226.1L52.5 345.2l193.6-28.3 161.5 26 209.1-15.1-69.4-109.5-156.6 10.9L268 203.7z"/><path class="st200" d="M393.7 247.5l20.8-7.2-1.3-8-21.2 2.1z"/><path class="st201" d="M379.5 232.9l12.5 1.5 1.7 13.1-16.9 2.2z"/><path class="st202" d="M543.3 298l20.9 16.9 31.4-19.6-11.2-17.4-9.5-1.3z"/><path class="st11" d="M275.6 280.7l-1.6-.5-1.6-.3c.4-1.1 4.7-25.8 8.3-42l3.4.4c-.1-.1-8.2 41.9-8.5 42.4zm173.9 7.6c-1-.2-24.3-5.8-29.3-14.3-5.6-9.6 1.7-19.5 18.6-25.2 11.2-3.8 22.4-6.1 34.3-7.3 15.8-1.5 33.1-.8 51.4 2.1 20.8 3.3 34 8.6 39.3 15.9 3.3 4.5 3.5 9.6.7 15.1l-3.2-.9c2.5-4.8 2.3-9.2-.5-13-4.8-6.6-17.2-11.5-37-14.6-41.8-6.6-67.8-.3-83.6 5-15.3 5.1-21.8 13.5-16.9 21.9 4.4 7.5 27 12.9 27.2 12.9l-1 2.4z"/><linearGradient id="SVGID_3_" gradientUnits="userSpaceOnUse" x1="515.921" y1="259.752" x2="995.12" y2="218.725"><stop offset=".003" stop-color="#fff"/><stop offset=".092" stop-color="#f8f8f8"/><stop offset=".219" stop-color="#e5e5e5"/><stop offset=".368" stop-color="#c7c7c7"/><stop offset=".536" stop-color="#9c9c9c"/><stop offset=".717" stop-color="#656565"/><stop offset=".908" stop-color="#222"/><stop offset="1"/></linearGradient><path d="M525.8 336.4l.4-.2 93.6-6.6L549 217.4l-.5-.9-157.9 11.1-120.1-24.9-2-.4-1.5.2-134 22.2-84.5 122.5 197.6-28.4 160.3 25.7 3.4-.2 115.7-8.2.3.3zM269.8 206L389 230.7l3.1 19.9-41.3 6.1 37.5 46.2 2.9-1.3-35-43.1 36.3-5.3 11.3 73.5-152.3-27.2 18.3-93.5zm-36.9 90.5c5.6 3.6 11.5 4.7 14.6 5l-2.8 14.1-58.6 8.4 10.9-38-3.3-.5-11.2 39-126.8 18.2 14.9-21.6 77.6-10.1-.5-2.5-75.2 9.9 27.3-39.5 60.7-8.4 12.1 16.4 3-1.2-11.6-15.6 32.9-4.5-.6-2.5-94.6 13 33.3-48.2 64.1-10.6-29 14.9 1.9 2.1 35.9-18.5 58.5-9.7L248 299c-2.6-.3-7.9-1.2-12.9-4.4-6.8-4.4-8.4-13.4-8.4-13.5l-3.4.3c.1.4 1.8 10.1 9.6 15.1zm15.2 19.2l2.7-13.8L404 329.3l1.8 11.7-157.7-25.3zm161.3 25.6l-1.9-12.1 47.3-13.7 23.8 20.8-69.2 5zm73.3-5.3l-49-42.9-2.6 1.6 21.4 18.7-45.4 13-11.4-74.1 52.1-19.9-1.6-2.2-50.9 19.5-2.9-18.9L546.7 220l67.2 106.5-87.7 6.3-61.4-51.6-2.6 1.7 59.7 50.2-39.2 2.9z" fill="url(#SVGID_3_)"/><path class="st204" d="M192.8 318.5l7.7-28.7s1.9-.3 2.2-.3c1.7 0 3.4-.1 4.9.8 1.4.8 1.6 2.2 2.2 3.4 1 2.1 3.3 3.4 6.1 4 6.6 1.4 14.1 1.8 14.1 8.3.1 6.5-.4 7.3-.4 7.3l-36.8 5.2z"/><path class="st205" d="M197.8 255.6l13-3.1 18.4 23-14.1 1.9z"/><path class="st204" d="M230.6 212.1c-.9 9.1 11 9.2 11 9.2 1.6 2.9 3.7 4.5 8.3 4.7 6.8.3 14.5-2.2 14.5-2.2l3.5-18.2-37.3 6.5z"/><path class="st206" d="M290.9 210.4s1.8 4.9-1.7 10.2c-2.6 3.9-8 5.1-12.3 5.4-4.1.2-8.1-.9-12.1-2l-.4-.1 3.5-18.2 23 4.7z"/><path class="st204" d="M546.7 220l-47.4 3.4s4.8 8.5 15.3 10.2c3.5.6 7 .4 10.4 1.5 1.4.5 2.6 1.2 3.8 2.1 3.3 2.4 7.6 3.5 11.6 3.7 3 .1 6-.6 8.8-1.6 1.4-.5 2.8-1.1 4.2-1.7.7-.3 3.3-1.6 3.3-1.6s-1.5-2.4-1.9-3l-2.7-4.2c-1.3-2-2.5-4-3.8-6 0-.3-1.3-2.8-1.6-2.8zm-27.5 107l7 5.9 42.6-3.1-22.2-18.4zm-407 2.9l4.8-10.5-26.7 3.5-5.8 10.9z"/><path class="st207" d="M435.4 294.6l28.2-10.5 43.9 36.9-27 13zm-99.1 2.9l11.5 15.1-43.6-7.7 1.5-13.2z"/><path class="st202" d="M87.4 296.7L99.7 279l35.4-5-8.9 17.5z"/><path class="st208" d="M262.6 240.6l-1.8 10.1 16.1 3.9 1.8-10.1z"/><path class="st202" d="M241.9 243.2c-.1 0 19.1-2.8 19.1-2.8l-1.8 10.1-19.5 2.4 2.2-9.7zm101.3 33.7l13.6 11.9 10.6-5.9-12.3-15.1z"/><path class="st200" d="M496.8 305.3l23.8-11.7-17.1-13s-14 2.9-23-.2l-9.3 3.5 25.6 21.4zm-68.3 17.9l26.4-7.7 23.8 20.8-24.2 1.8zM304 324.6l1-12.9-42.5-7.7-2.6 13.8z"/><path class="st209" d="M522.3 271.7l62.4 8.7-3.1-4.9-56.8-7.9c.1-.5.1-1 .1-1.5v-.2c-.6-2.5-3.7-4.7-8-6.4l42.5-19.3-2.5-4.1-46.7 21.3c-4.9-1.2-10.3-1.9-14.9-2-1.1-.1-8.1-.5-16.1.6l-33.3-28.7-7.3.5 34.2 29.5c-3.1.8-6.2 1.9-9 3.3-3 1.6-4.6 3.2-5.4 4.6l-61.6-5.1-133.7-29.6-58.8 8.8c-1.2-1.4-3.4-2.5-6.3-3.1-4.5-1-9.5-1-15.4-.3-1.6.2-3.1.5-4.5.7l-10.5-14.1-6.1 1 10.9 14.7c-.3.1-.7.2-1 .4-4.2 1.6-9.3 4.8-10.2 8.4v.2l-43.9 6.6-3.5 5 48.7-7.3c.3.3.6.6 1 .9 1.9 1.6 4.8 2.6 8.4 2.9 1.2.1 2.4.2 3.7.2 1.3 0 2.7-.1 4.2-.2s3.1-.3 5-.6c.8-.1 1.6-.3 2.4-.4l20.1 26.6-119.9 15.8-3.5 5 69.7-9.4-14.9 38.3 6.7-.9 14.7-38.3 94.1-12.5 148.2 27.7 76.5-28.3c1.7.2 3.4.4 5 .6 2.4.2 4.8.3 7.2.3 4.9 0 9.7-.4 14.1-1.1l63.3 51.7 7.4-.5-64.4-52.5c3.7-1 6.8-2.3 9-3.9.9-.4 1.3-.8 1.8-1.2zm-338.9-21.4c-1.7.3-3.1.5-4.5.6-2.4.2-4.4.2-6.3 0-1.5-.2-3.6-.6-4.9-1.5-.9-.7-.9-1.3-.8-1.7.4-1.8 4-4 7.1-5.3 2.6-1 5.7-1.7 9.4-2.2 2.3-.3 4.4-.4 6.3-.4 2.3 0 4.5.2 6.4.6 1.7.4 2.9.9 3.1 1.5.1.2.1.6-.4 1.5-1.1 1.8-3.2 3.4-6.1 4.6-3 1.2-6.6 1.9-9.3 2.3zm218.5 51.8l-146.7-27.4-.6-.1-41.1 5.5-20.6-27.2c.9-.3 1.9-.6 2.8-1 2.8-1.2 6.6-3.3 8.6-6.7.3-.5.5-1 .7-1.5l57.7-8.7 132.5 29.3.3.1 62.8 5.2c1.6 3.2 6.4 5.6 12.2 7.1l-68.6 25.4zm114.8-32.5c-5.6 3.9-19.3 6-32 4.9-12-1-20.1-4.3-21-6.9-.5-1.3 1.5-2.7 3.3-3.6 7.6-3.9 17.7-4.6 23.3-4.6 2.5 0 4.2.1 4.2.1h.2c11.6.3 23.3 4.3 24.1 6.7.2 1.3-.6 2.4-2.1 3.4z"/><linearGradient id="SVGID_4_" gradientUnits="userSpaceOnUse" x1="213.245" y1="275.126" x2="28.14" y2="271.684"><stop offset="0" stop-color="#fff" stop-opacity="0"/><stop offset="1" stop-color="#83c8ee"/></linearGradient><path class="st4" d="M55.7 342.7l191-27.3 21.2-109.8L135 227.8z"/><linearGradient id="SVGID_5_" gradientUnits="userSpaceOnUse" x1="349.359" y1="281.447" x2="241.035" y2="252.318"><stop offset="0" stop-color="#fff" stop-opacity="0"/><stop offset="1" stop-color="#83c8ee"/></linearGradient><path class="st5" d="M248.1 315.7l159.4 25.7-17-110.4-121.2-25.1z"/><linearGradient id="SVGID_6_" gradientUnits="userSpaceOnUse" x1="481.391" y1="283.316" x2="377.563" y2="305.158"><stop offset="0" stop-color="#fff" stop-opacity="0"/><stop offset="1" stop-color="#83c8ee"/></linearGradient><path class="st6" d="M409.4 341.3l204.5-14.7L546.7 220l-154.2 10.9z"/><linearGradient id="SVGID_7_" gradientUnits="userSpaceOnUse" x1="254.971" y1="220.159" x2="325.024" y2="307.104"><stop offset="0" stop-color="#fff" stop-opacity="0"/><stop offset=".089" stop-color="#f8f8f8" stop-opacity=".089"/><stop offset=".216" stop-color="#e5e5e5" stop-opacity=".216"/><stop offset=".367" stop-color="#c7c7c7" stop-opacity=".367"/><stop offset=".534" stop-color="#9c9c9c" stop-opacity=".534"/><stop offset=".717" stop-color="#656565" stop-opacity=".717"/><stop offset=".908" stop-color="#222" stop-opacity=".908"/><stop offset="1"/></linearGradient><path class="st7" d="M351.5 311.6L259.7 257l9.3-50.3z"/><linearGradient id="SVGID_8_" gradientUnits="userSpaceOnUse" x1="239.926" y1="81.946" x2="450.053" y2="204.309"><stop offset="0" stop-color="#1778ff"/><stop offset=".181" stop-color="#1571ff"/><stop offset=".435" stop-color="#115ffe"/><stop offset=".731" stop-color="#0941fd"/><stop offset="1" stop-color="#0020fb"/></linearGradient><path class="st8" d="M351.6 2.2C285.3 2.2 231 54.4 231 118.7c0 25.4 8.7 49.6 24.1 69.6l91.1 119.2c2 2.7 6.7 3.3 9.4 1.3l1.3-1.3L448 188.4c15.4-20.1 24.1-44.2 24.1-69.6 0-64.4-54.2-116.6-120.5-116.6zm-9.4 162.1c-25.4-5.4-42.2-29.5-36.8-54.9 5.4-25.4 29.5-42.2 54.9-36.8 18.8 4 33.5 18.1 36.8 36.8 4.7 25.4-12.1 50.2-36.8 54.9-6 1.3-12.1 1.3-18.1 0z"/></svg>