<svg id="Layer_1" xmlns="http://www.w3.org/2000/svg" viewBox="0 0 113.8 114.1"><style>.st0{fill:#294dff}.st1{fill:#1f95ff}.st2{fill:#5fbbff}</style><path class="st0" d="M13.7 98.9l25.4 14.7c1.4.8 3.2.5 4.3-.8 3.2-3.9 8-6.3 13.4-6.3s10.3 2.5 13.5 6.4c1.1 1.3 2.9 1.7 4.3.8l25.5-14.8c1.7-1 2.2-3.2 1.1-4.8-1.2-1.8-2.6-3.6-4-5.3-3.8-4.4-8.5-8.1-13.6-11l-3.4-2-.2-.1-.6-.3c-1.1-.5-2.3-.2-3.1.6-4.8 5.3-11.7 8.6-19.5 8.6-7.7 0-14.6-3.3-19.4-8.6-.8-.9-2-1.1-3.1-.6l-4 2.3c-6.4 3.7-12.1 8.6-16.5 14.5-.5.6-.9 1.3-1.3 1.9-1 1.7-.4 3.9 1.2 4.8"/><path class="st1" d="M17.9 15.1c-1.4.8-2 2.5-1.5 4.1 1.8 4.7 1.5 10.2-1.2 14.9-2.7 4.7-7.3 7.6-12.3 8.4-1.7.2-2.9 1.6-2.9 3.3v29.3c0 1.9 1.6 3.5 3.5 3.3 7.7-.5 15-2.6 21.5-6.1l3.1-1.8c.8-.5 1.7-1.1 2.5-1.6 1-.7 1.4-1.9 1-3-2-6.7-1.4-14.3 2.4-20.9 3.9-6.6 10.1-10.9 17.1-12.5 1.1-.2 2-1.2 2.1-2.3.1-1.3.2-2.7.2-4.1V24c-.1-8-2-15.5-5.3-22.3-.8-1.7-3-2.4-4.7-1.4L17.9 15.1z"/><path class="st2" d="M98.7 34c-2.7-4.7-3-10.1-1.2-14.9.6-1.5 0-3.3-1.5-4.1L70.3.4c-1.7-1-3.8-.3-4.7 1.4-3.3 6.8-5.2 14.3-5.3 22.3v2.1c0 1.4.1 2.7.2 4.1.1 1.1 1 2.1 2.1 2.3 6.9 1.5 13.2 5.8 17.1 12.5 3.8 6.6 4.5 14.2 2.4 20.9-.3 1.1.1 2.3 1 3 .8.6 1.6 1.1 2.5 1.6l3.1 1.8c6.5 3.4 13.7 5.6 21.5 6.1 1.9.1 3.5-1.4 3.5-3.3V45.9c0-1.6-1.2-3-2.8-3.3-4.9-.9-9.5-3.9-12.2-8.6"/></svg>