<?xml version="1.0" encoding="utf-8"?>
<!-- Generator: Adobe Illustrator 22.0.1, SVG Export Plug-In . SVG Version: 6.00 Build 0)  -->
<svg version="1.1" id="Capa_1" xmlns="http://www.w3.org/2000/svg" xmlns:xlink="http://www.w3.org/1999/xlink" x="0px" y="0px"
	 viewBox="0 0 512 512" style="enable-background:new 0 0 512 512;" xml:space="preserve">
<g>
	<g>
		<path d="M256,60c-8.3,0-15,6.7-15,15s6.7,15,15,15c49.6,0,90,40.4,90,90c0,8.3,6.7,15,15,15s15-6.7,15-15
			C376,113.8,322.2,60,256,60z"/>
	</g>
</g>
<g>
	<g>
		<path d="M217.3,4C149.6,18.2,94.6,72.6,80.2,140.8c-12.2,57.6,2.8,115.4,41.3,158.6c18.8,21.1,29.6,49,29.6,76.6v30
			c0,20,13.1,36.9,31.1,42.8c5.9,35,36.3,63.2,73.9,63.2c37.6,0,68-28.2,73.9-63.2c18-5.9,31.1-22.8,31.1-42.8v-30
			c0-27.6,10.8-55.2,30.4-77.6C420.2,265.6,436,223.6,436,180C436,66.4,332.1-19.9,217.3,4z M256,482c-19.3,0-36.2-13.3-42.4-31.1
			h84.9C292.2,468.7,275.3,482,256,482z M331,406c0,8.3-6.7,15-15,15H196c-8.3,0-15-6.7-15-15v-15h150V406z M368.9,278.6
			c-20.9,23.9-33.8,52.6-37.1,82.3H180.2c-3.3-29.7-16.1-58.8-36.3-81.5c-32-36-44.6-84.3-34.3-132.4
			c11.9-56.2,57.7-101.9,114-113.6C319.5,13.3,406,85.4,406,180C406,216.3,392.8,251.3,368.9,278.6z"/>
	</g>
</g>
</svg>
