<svg viewBox="0 0 657.18 563.37" xmlns="http://www.w3.org/2000/svg" xmlns:xlink="http://www.w3.org/1999/xlink"><linearGradient id="a" gradientUnits="userSpaceOnUse" x1="-144.39" x2="4271.77" y1="-113.44" y2="3221.42"><stop offset="0" stop-color="#fff"/><stop offset=".09" stop-color="#f8f8f8"/><stop offset=".22" stop-color="#e5e5e5"/><stop offset=".37" stop-color="#c7c7c7"/><stop offset=".53" stop-color="#9c9c9c"/><stop offset=".72" stop-color="#656565"/><stop offset=".91" stop-color="#222"/><stop offset="1"/></linearGradient><linearGradient id="b" x1="293.47" x2="458.51" xlink:href="#a" y1="-174.58" y2="754"/><linearGradient id="c" gradientUnits="userSpaceOnUse" x1="132.57" x2="175.56" y1="470.55" y2="470.55"><stop offset="0"/><stop offset="1" stop-color="#fff"/></linearGradient><linearGradient id="d" x1="161.36" x2="182.12" xlink:href="#c" y1="442.44" y2="442.44"/><linearGradient id="e" x1="205.21" x2="210.78" xlink:href="#c" y1="424.99" y2="443.13"/><linearGradient id="f" x1="221.8" x2="191.52" xlink:href="#c" y1="375.88" y2="459.67"/><linearGradient id="g" x1="140.17" x2="142.53" xlink:href="#c" y1="437.64" y2="493.06"/><linearGradient id="h" gradientTransform="matrix(1.08 -.14 .15 1.14 -424.22 -101.37)" x1="548.73" x2="491.33" xlink:href="#c" y1="432.51" y2="591.32"/><linearGradient id="i" gradientTransform="matrix(.99 -.13 .13 .99 -264.2 191.61)" x1="430.26" x2="454.98" xlink:href="#c" y1="170" y2="231"/><linearGradient id="j" gradientTransform="matrix(1 .01 -.01 1 13.38 -18.51)" x1="263.48" x2="242.16" xlink:href="#c" y1="360.81" y2="395.82"/><linearGradient id="k" gradientTransform="matrix(1 .01 -.01 1 13.38 -18.51)" x1="218.36" x2="245.8" xlink:href="#c" y1="346.71" y2="372.06"/><linearGradient id="l" x1="152.33" x2="207.65" xlink:href="#c" y1="385.56" y2="385.56"/><linearGradient id="m" x1="246.37" x2="248.47" xlink:href="#c" y1="392.63" y2="379.7"/><linearGradient id="n" gradientTransform="matrix(-1 0 0 1 2804.3 0)" x1="2179.3" x2="2500.54" xlink:href="#c" y1="41.08" y2="746.46"/><linearGradient id="o" x1="496.54" x2="506.03" xlink:href="#c" y1="303.47" y2="305.02"/><linearGradient id="p" gradientTransform="matrix(-1 0 0 1 2804.3 0)" gradientUnits="userSpaceOnUse" x1="2276.55" x2="2345.61" y1="451.26" y2="451.26"><stop offset="0" stop-color="#ff813d"/><stop offset="1" stop-color="#ff6c1d"/></linearGradient><linearGradient id="q" gradientTransform="matrix(-1 0 0 1 2804.3 0)" x1="2272.23" x2="2326.04" xlink:href="#c" y1="411" y2="411"/><linearGradient id="r" x1="431.05" x2="472.22" xlink:href="#c" y1="337.7" y2="297.86"/><linearGradient id="s" x1="457.29" x2="428.25" xlink:href="#c" y1="433.9" y2="559.93"/><path d="m0 25.17h657.04v437.03h-657.04z" fill="url(#a)"/><path d="m13.53 0h630.26a13.39 13.39 0 0 1 13.39 13.39v21.24a0 0 0 0 1 0 0h-657.04a0 0 0 0 1 0 0v-21.24a13.39 13.39 0 0 1 13.39-13.39z" fill="url(#b)"/><rect height="259.84" rx="21.35" style="fill:none;stroke:#bababa;stroke-miterlimit:10;stroke-width:8;stroke-dasharray:19.29 19.29 19.29 19.29 19.29 19.29;opacity:.26" width="510.69" x="73.17" y="113.76"/><circle cx="22.39" cy="18.24" fill="#ff454a" r="5.11"/><circle cx="43.02" cy="18.24" fill="#ffbf2f" r="5.11"/><circle cx="63.65" cy="18.24" fill="#28c941" r="5.11"/><path d="m125.05 458.07 4.8 7-1.08 5.42 6.43 5.51-13.31-.34-5.26-15.46 6.21-2.73a1.82 1.82 0 0 1 2.21.6z"/><path d="m203.31 468.74-.71 7.48h29.4c-.36 0-17.24-9.49-17.6-9.49s-11.09 2.01-11.09 2.01z"/><path d="m132.57 471.1a27 27 0 0 0 9.54-3c5-2.91 10.52-.64 14.38 2.07s16.93 4.43 19.07 3.68a8.25 8.25 0 0 1 -3.23.52c-1.68-.12-39.76-3.27-39.76-3.27z" fill="url(#c)" opacity=".36"/><path d="m208.14 442-3.49 26.49a1.56 1.56 0 0 0 1.53 1.78l6 .05 8.39-27.41z" fill="#ffd9c8"/><path d="m161.29 461.64c-.3.07-29.54-2.68-37-3.39a1.59 1.59 0 0 0 -1.74 1.58v1a5.53 5.53 0 0 0 4.38 5.41l31 6.6z" fill="#ffd9c8"/><path d="m197.07 413.31-2-3.12-38.82-3.94s-9 7.12-4.52 22.93l11.16 30.53-29.75-2.66-.58 14.05s33.85 2.72 39.2 3.2 9.43-2.23 9.43-9.14 1.17-40.07 1.17-40.07l-.1-2z" fill="#0137d0"/><path d="m182.12 431.94-1.12 33.33a8.61 8.61 0 0 0 -2.77-7.87c-4.6-3.84-4.83-11.59-4.83-11.59s.77-5.73-5.87-7.88c-8.9-2.89-5.6-18.32-5.6-18.32z" fill="url(#d)" opacity=".36"/><path d="m156.77 411.82a27 27 0 0 0 1.86 10.18c3.78 10.54 18.68 10.06 18.68 10.06l32.41-1.16-5.72 30.24 13 1 10.28-36.2s5.24-13-6.37-13.73c-4.78-.31-16.36-1-28-2.16z" fill="#0137d0"/><path d="m209.72 430.93 4.82-.21s.05 6.45-3.6 10c-3.44 3.38-5.13 10.78-5.13 10.78.11 1.17 3.91-20.57 3.91-20.57z" fill="url(#e)" opacity=".36"/><path d="m191.61 410.12s2.54 3.84 8.61 3.74 8.32-2.3 13.32-1 6 .76 7.76.4 3.68-.2 4.54.72c0 0-1-1.53-4.23-1.79l-28.71-2.19z" fill="url(#f)" opacity=".36"/><path d="m120.89 475.63-68.69 23.24h119.16s66.75-23.09 60.64-22.65-29.4 0-29.4 0l-66.7 10.95 38.64-12.91z" fill="url(#g)" opacity=".36"/><path d="m252.29 368c-.87-.07-1.29 2.55-1.29 2.55-.47.39-1.17-.32-1.81 0l-2.45 1.45c-.2.08-.47 7.51-1.42 8.68a49.94 49.94 0 0 1 -5.14 4.31l3.8 4.67s6.25-5.2 8.11-6.58c2.88-2.13 7.24-3.86 7.28-4.53.06-.86-1-5.23-1.41-7.63a1.83 1.83 0 0 0 -1.5-1.5 19.65 19.65 0 0 1 -4.17-1.42z" fill="#ffd9c8"/><path d="m250.82 364.35-.62 3.92-.46 3.8a2.49 2.49 0 0 0 2.53.17l.43-3.84.62-4s8.27.18 9.57-11.38c1.36-12.12-12-12.64-15.56-3.23-2.61 6.99-.96 13.01 3.49 14.56z"/><path d="m255 362c1.84-.8 5-3 5.64-8.76 1.13-9.6-8.83-10-11.61-2.54-1.62 4.36-1 9 1.06 10.8a4.93 4.93 0 0 0 4.91.5z" fill="#fff"/><path d="m195.75 364.3a43.39 43.39 0 0 0 8.08-10.64c2.42-4.52-2.29-11.61 4.32-18.76 3.76-4.06 17.61-4 19.56 4.46.55 2.4 1 6.24-.39 9.48-.52 1.17-.65 6.7-.64 7 0 .5-1.63-.07-2.21.21s-2.9 5.68-4 6.54-5.31-.82-6-.53-3.52 4.07-4.94 6.92z" fill="#ffd9c8"/><path d="m203.83 353.66a14.23 14.23 0 0 0 5.27 2.26c2.57.4 3.7.67 4.82.52s3.42-2.71 4.2-3.91c0 0-.73-2.86.83-3.86s2.42.37 2.13 1.95l.94.31a16.65 16.65 0 0 1 1-2.52c.65-1.26 2.12-.63 3.27-1.22s.61-2.72 1.29-3.6 3.43-1 4.25-5.27a9.27 9.27 0 0 0 0-2 3.32 3.32 0 0 0 -2.49-2.31 22.5 22.5 0 0 1 -6.22-2c-2.7-1.14-10.71-4.49-15.21.33-.43.47-3.23-.17-4.56 3.09-1.19 2.93-.73 4.77.73 11a16.9 16.9 0 0 1 -.25 7.23z" fill="#ab5605"/><path d="m192.9 410c5.61-8.25 9.57-14 19.57-26.84 5-6.42 7.93-11.7 5.53-13.66-1.69-1.38-4.59-3.41-4.59-3.41s-8.67-5.89-16.7-7c-3.32-.44-12.9 3.2-17.93 7.4-1.86 1.55-5 3.89-12.6 18.29-8.58 16.27-13.86 27.09-13.86 27.09z" fill="#ffc300"/><path d="m224 379.49c-2.14-5.8-4.49-10.5-9.12-11.32-6.22-1.09-14.54 9.72-6.43 20 0 0 12.92 17.77 13.52 18.39s6.05 6.11 11.77.4c4.95-4.94 16.37-20.24 16.37-20.24l-6.38-7.45-14.7 13.51z" fill="#ffc300"/><path d="m203.84 381.72a15.81 15.81 0 0 0 7.25 4.22c5.56 1.57 7 8.11 7.55 12.93.32 2.75 5.63 10.14 8.41 10.4-.73.12-3.73-.75-6.7-4.93-1.78-2.49-16.51-22.62-16.51-22.62z" fill="url(#h)" opacity=".36"/><path d="m203.84 334.36s-1.86 2.58-.9 7.16 1.58 6.29 1.34 8.56a10.09 10.09 0 0 1 -.45 3.58 37.08 37.08 0 0 1 -4 6.08l4.21 1.4c-.61-5.5 4.81-4.38 2.82-14.71-.86-4.45 4.81-4.56 4.83-8.68a10.8 10.8 0 0 0 -.93-3.82c-1-3.21 4-4.09 4-4.09a9.14 9.14 0 0 0 -4.49.78 13.85 13.85 0 0 0 -2.52 1.76c-.62.3-2.83.37-3.91 1.98z" fill="url(#i)" opacity=".36"/><path d="m255.2 369.1-2-.76 1.17 3.52 5 6.67-1.37-7.63s-.09-1.43-2.8-1.8z" fill="url(#j)" opacity=".36"/><path d="m253.52 362.43a10.25 10.25 0 0 1 -3-9.84 8.61 8.61 0 0 1 6.71-6.52s2.15.3 3.17 3.53-.3 6.11-.83 7.55a8.41 8.41 0 0 1 -6.05 5.28z" fill="url(#k)"/><path d="m229.89 333.8a4.18 4.18 0 0 1 1.52.94 4.29 4.29 0 0 1 1 1.36 5.16 5.16 0 0 1 .31 3.1 7 7 0 0 1 -1.16 2.67 12 12 0 0 1 -1.84 2.1 8.6 8.6 0 0 0 2-4.87 4 4 0 0 0 -.62-2.26 2.71 2.71 0 0 0 -.77-.74 2.42 2.42 0 0 0 -.9-.36z" fill="#ab5605"/><path d="m226 334.71a5.43 5.43 0 0 1 -.63 4.52 4.83 4.83 0 0 1 -4 2.11 16.38 16.38 0 0 0 1.82-1.19 6.24 6.24 0 0 0 1.38-1.48 7.65 7.65 0 0 0 .89-1.84c.18-.66.33-1.37.54-2.12z" fill="#b9722e"/><path d="m226.59 334.51a3 3 0 0 1 1 1.55 4.41 4.41 0 0 1 .14 1.91 5 5 0 0 1 -.64 1.77 4.48 4.48 0 0 1 -1.22 1.38c.07-.31.17-.59.26-.87l.25-.82a13.73 13.73 0 0 0 .36-1.61 8 8 0 0 0 -.15-3.31z" fill="#b9722e"/><path d="m209.29 332.92a9.53 9.53 0 0 0 -2.89.16 5.38 5.38 0 0 0 -2.43 1.15 2.62 2.62 0 0 0 -.48.46 3.06 3.06 0 0 0 -.42.53c-.13.19-.26.37-.38.57s-.2.42-.31.63c-.22.42-.32.9-.51 1.35s-.25 1-.42 1.43c0-.5-.07-1-.07-1.52a9.88 9.88 0 0 1 .27-1.52 5.37 5.37 0 0 1 1.68-2.7 5.06 5.06 0 0 1 3-1.15 5.49 5.49 0 0 1 2.96.61z" fill="#994300"/><path d="m172.94 410.09c12.76-4.52 15.87-14.32 13.69-24s1.09-15.88 7.16-17.91 13.86-5 13.86-5-2.94-2.77-10.89-4.11c-3.17.05-9.66 1.5-17 6.71s-14.84 21.22-14.84 21.22l-11.13 21.74a8.14 8.14 0 0 0 -1.46 3.16c-.08.34 18.36-.89 18.36-.89a18.55 18.55 0 0 1 2.25-.92z" fill="url(#l)" opacity=".36"/><path d="m249 385.47 2-1.46s-6-3.38-5.93-3.2 3.93 4.66 3.93 4.66z" fill="url(#m)" opacity=".36"/><path d="m166.91 229.5a20 20 0 0 1 23.35-.41l1.55-1.55a2.86 2.86 0 0 1 4 4l-1.41 1.4a20 20 0 1 1 -31.56.56l-2-2a2.85 2.85 0 0 1 4-4z" fill="#8e9eb3"/><path d="m498.4 285.44h-325.23a42.8 42.8 0 1 1 0-85.59h325.23a42.8 42.8 0 1 1 0 85.59zm-325.23-82.74a39.94 39.94 0 0 0 0 79.88h325.23a39.94 39.94 0 1 0 0-79.88z" fill="#d6dbe6"/><path d="m497 234.21h-8.7a3.42 3.42 0 1 1 0-6.83h17.1a3.41 3.41 0 0 1 3.41 3.41v17.07a3.41 3.41 0 1 1 -6.82 0v-8.58l-21.26 21.25a3.55 3.55 0 0 1 -5-5z" fill="#2aa7ff"/><g fill="#3c495a" opacity=".54"><path d="m268.84 247.8q0 6.31-2.84 9.62a10.74 10.74 0 0 1 -15.51 0q-2.87-3.31-2.87-9.62v-7.4q0-6.3 2.84-9.62a10.68 10.68 0 0 1 15.52 0q2.86 3.33 2.86 9.62zm-5.4-8.23q0-4-1.33-5.88a4.91 4.91 0 0 0 -7.77 0q-1.34 1.91-1.34 5.88v9c0 2.66.45 4.64 1.35 5.92a4.44 4.44 0 0 0 3.89 1.92 4.39 4.39 0 0 0 3.87-1.91c.87-1.28 1.31-3.25 1.31-5.93z"/><path d="m295.52 247.8q0 6.31-2.84 9.62a10.74 10.74 0 0 1 -15.51 0q-2.87-3.31-2.87-9.62v-7.4q0-6.3 2.85-9.62a10.67 10.67 0 0 1 15.51 0q2.86 3.33 2.86 9.62zm-5.4-8.23q0-4-1.33-5.88a4.9 4.9 0 0 0 -7.76 0q-1.33 1.91-1.33 5.88v9c0 2.66.45 4.64 1.35 5.92a4.45 4.45 0 0 0 3.9 1.92 4.38 4.38 0 0 0 3.86-1.91c.88-1.28 1.31-3.25 1.31-5.93z"/><path d="m307.46 240.8h-5.38v-5.18h5.38zm0 19.46h-5.38v-5.17h5.38z"/><path d="m335.23 247.8q0 6.31-2.85 9.62a9.64 9.64 0 0 1 -7.73 3.31 9.76 9.76 0 0 1 -7.78-3.31q-2.87-3.31-2.87-9.62v-7.4q0-6.3 2.84-9.62a10.67 10.67 0 0 1 15.51 0q2.86 3.33 2.87 9.62zm-5.4-8.23c0-2.65-.45-4.61-1.33-5.88a4.91 4.91 0 0 0 -7.77 0q-1.32 1.91-1.32 5.88v9c0 2.66.45 4.64 1.34 5.92a4.47 4.47 0 0 0 3.9 1.92 4.4 4.4 0 0 0 3.87-1.91c.87-1.28 1.31-3.25 1.31-5.93z"/><path d="m361.91 247.8q0 6.31-2.84 9.62a10.74 10.74 0 0 1 -15.51 0q-2.87-3.31-2.87-9.62v-7.4q0-6.3 2.84-9.62a10.68 10.68 0 0 1 15.52 0q2.86 3.33 2.86 9.62zm-5.4-8.23q0-4-1.33-5.88a4.91 4.91 0 0 0 -7.77 0q-1.32 1.91-1.32 5.88v9c0 2.66.45 4.64 1.35 5.92a4.45 4.45 0 0 0 3.9 1.92 4.38 4.38 0 0 0 3.86-1.91c.88-1.28 1.31-3.25 1.31-5.93z"/><path d="m373.84 240.8h-5.38v-5.18h5.38zm0 19.46h-5.38v-5.17h5.38z"/><path d="m401.62 247.8q0 6.31-2.85 9.62a10.74 10.74 0 0 1 -15.51 0q-2.86-3.31-2.87-9.62v-7.4q0-6.3 2.85-9.62a10.67 10.67 0 0 1 15.51 0q2.87 3.33 2.87 9.62zm-5.4-8.23q0-4-1.34-5.88a4.9 4.9 0 0 0 -7.76 0q-1.32 1.91-1.32 5.88v9c0 2.66.44 4.64 1.34 5.92a4.46 4.46 0 0 0 3.9 1.92 4.41 4.41 0 0 0 3.87-1.91c.87-1.28 1.31-3.25 1.31-5.93z"/><path d="m428.3 247.8q0 6.31-2.85 9.62a10.73 10.73 0 0 1 -15.5 0q-2.88-3.31-2.87-9.62v-7.4q0-6.3 2.84-9.62a10.67 10.67 0 0 1 15.51 0q2.88 3.33 2.87 9.62zm-5.4-8.23c0-2.65-.45-4.61-1.33-5.88a4.91 4.91 0 0 0 -7.77 0q-1.32 1.91-1.32 5.88v9c0 2.66.45 4.64 1.34 5.92a4.47 4.47 0 0 0 3.9 1.92 4.4 4.4 0 0 0 3.87-1.91c.87-1.28 1.31-3.25 1.31-5.93z"/></g><path d="m178.87 259.76a14.27 14.27 0 1 1 14.27-14.26 14.28 14.28 0 0 1 -14.27 14.26" fill="#fff"/><path d="m187.43 219.82a2.86 2.86 0 0 1 -2.85 2.85h-11.41a2.85 2.85 0 1 1 0-5.7h11.41a2.85 2.85 0 0 1 2.85 2.85z" fill="#8e9eb3"/><path d="m178.87 236.94a2.85 2.85 0 0 1 2.86 2.85v5.71a2.86 2.86 0 0 1 -2.86 2.85 2.86 2.86 0 0 1 -2.87-2.85v-5.71a2.85 2.85 0 0 1 2.87-2.85z" fill="#8e9eb3"/><g fill="#c89773"><path d="m436.83 280.37c-.27-.74-.94-5.75-1.78-7.54a10.53 10.53 0 0 0 -3.14-3.13 3.6 3.6 0 0 1 -1.46-2.44c0-.6-.7-3.78-.72-4.27 0-1.1 2.37-2.55 3-2.85s-.73-7.14-.73-7.87c0-.09.75-1.17 1.31-.2.92 1.59 2.09 6 3.22 7.39a14.57 14.57 0 0 0 1.62 1.51 10.3 10.3 0 0 1 2.4 2.55c.66 1.13-.43 1.94.72 5.08s1.1 10.69 1.1 10.69z"/><path d="m511.05 300s0 11.09 1.82 14.13c1.55 2.59-5.2 3.61-10.92 2.81s-8 3.12-7-1.92c.91-4.84-.45-12.86-.45-12.86s4.89-5.24 16.55-2.16z"/><path d="m510.76 300.77a8.58 8.58 0 0 1 -2.63 2c-2.34 1.12-5.28 1.13-7.85.85-1.91-.2-3.67-1.67-4.27-1.24a5 5 0 0 1 -2.73.51 7.71 7.71 0 0 1 -2.46-.65c-1.2-.66-2.89-1.81-1.16-6.85 1.09-3.18 1.25-3.67 1-4.3s-.81-1.42-.47-1.93a73.86 73.86 0 0 0 3.89-9.21 8.47 8.47 0 0 1 4.37-5.75c4.74-2.49 10.8-.21 14.48 3.18a11.89 11.89 0 0 1 3.82 6.81c.5 3.11-.48 6.19-1.72 9a27.64 27.64 0 0 1 -4.27 7.58z"/></g><path d="m499.48 290.3s-8-4-7.69-10.83 2.55-8.55 2.65-9c.14-.63 5 .9 5.52 1.06a38.44 38.44 0 0 0 5.91 1.29c3.89.54 7.73-.09 11.31 1.93a9.3 9.3 0 0 1 4.77 9.36c-.53 4.19-3.23 7.82-5.92 10.91a11.09 11.09 0 0 0 -1.82 2.64c-1.72 3.69-1.75 4.54-2.24 5.22s-2.15.52-3.94.32c-3.22-.35-7.21-4.26-7.07-7.09 0-.34 0-.75.06-1.17 0-.19 0-.95.15-1.09 0 0 3-2.42 1.37-4.22s-3.06.67-3.06.67z"/><path d="m497.72 289.12s-.83 3.05-3.61 3.71a3.29 3.29 0 0 1 -3.38-.87 42.36 42.36 0 0 0 -1.7 5.35c-.22 1.53-.58 3.79 1.39 4.83a7.22 7.22 0 0 0 4.5.8 4.65 4.65 0 0 0 1.31-.67c.68-.51 1.59-1.92 1.93-4.29.48-3.37 1.31-7.69 1.31-7.69z"/><path d="m496.27 270.61a5.15 5.15 0 0 0 -2.88.72 3.89 3.89 0 0 0 -1.61 2.24 11.25 11.25 0 0 0 -.52 2.94c-.08 1-.05 2.06-.13 3.14a12.8 12.8 0 0 1 -.65-3.14 11.09 11.09 0 0 1 0-1.63 5.6 5.6 0 0 1 .13-.82 4.7 4.7 0 0 1 .21-.82 4.2 4.2 0 0 1 2.19-2.59 4 4 0 0 1 3.26-.04z"/><path d="m516.32 276.57a.11.11 0 0 1 0-.17.65.65 0 0 1 .2 0 2 2 0 0 1 .42 0 4.88 4.88 0 0 1 .85.15 8.24 8.24 0 0 1 1.6.57 6.55 6.55 0 0 1 2.58 2.06 5.68 5.68 0 0 1 1 3.09 13.14 13.14 0 0 1 -.37 3.44 8.46 8.46 0 0 0 1-3.44 6 6 0 0 0 -.2-1.84 5.61 5.61 0 0 0 -.81-1.69 6.21 6.21 0 0 0 -3-2.16 6.85 6.85 0 0 0 -1.77-.39 4 4 0 0 0 -.91 0 2.39 2.39 0 0 0 -.45.09.63.63 0 0 0 -.21.12.14.14 0 0 0 .07.17z"/><path d="m497 273.08a10.26 10.26 0 0 0 -1.48 3 10.08 10.08 0 0 0 -.5 3.33 7.67 7.67 0 0 0 .79 3.3 6.86 6.86 0 0 0 2.17 2.54 10.34 10.34 0 0 1 -1.63-2.78 8.66 8.66 0 0 1 -.42-1.51 8.28 8.28 0 0 1 -.16-1.57 13.57 13.57 0 0 1 .32-3.16 22.67 22.67 0 0 1 .91-3.15z" fill="#565656"/><path d="m499.32 274.71a4.35 4.35 0 0 0 -.65 1.89 5 5 0 0 0 .15 2 4.84 4.84 0 0 0 .93 1.82 4.34 4.34 0 0 0 .7.72 5.84 5.84 0 0 0 .84.56c-.18-.29-.39-.53-.57-.81s-.35-.52-.49-.8a7.7 7.7 0 0 1 -.69-1.69 8.43 8.43 0 0 1 -.29-1.82 13.78 13.78 0 0 1 .07-1.87z" fill="#565656"/><path d="m517.55 277.37a10.47 10.47 0 0 1 1.13 2.68 11 11 0 0 1 .26 1.39c0 .24.06.47.07.71v.71.71s0 .23 0 .35 0 .23-.06.35-.07.47-.13.7-.13.46-.18.7-.06.23-.1.35l-.12.34-.24.69c-.18.45-.39.89-.56 1.37.31-.39.62-.79.89-1.21l.36-.66a3.6 3.6 0 0 0 .32-.69 8.65 8.65 0 0 0 .65-3 8 8 0 0 0 -.53-3 6.39 6.39 0 0 0 -1.76-2.49z" fill="#565656"/><path d="m504.77 310.19s-1.66-1.23-1-4.49 2.49-1.17 1.66-7.82-1.43-9.54.38-15 11.52-2.35 11.85 3-3 10.84-4.55 12.41-.59 3.79-1.15 4.51a2.16 2.16 0 0 1 -.84.56c0 1.29.57 6.54.57 6.54z" fill="url(#n)" opacity=".09"/><path d="m497.33 300.41s-1.16 4.34-2.35 6c0-.16-.48-4.33-.48-4.33z" fill="url(#o)" opacity=".09"/><path d="m525.72 510.13-.05 12s-8-.48-8-.63-1.07-11.84-1.07-11.84z" fill="#c89773"/><path d="m472.07 511.75c0 .19-3.82 9.74-3.82 9.74s-7.93-.94-7.81-1 4.1-13.61 4.1-13.61z" fill="#c89773"/><path d="m517.46 385.7h4.19s1.79 10.3 2.35 16.39c.75 8.49 1 32.2 1 32.2l.36 18.21a140 140 0 0 1 2.1 18.05c.45 9.56.07 30.46.26 35.7a100.61 100.61 0 0 1 -.08 10.57l-13.13-1.14s-4.93-34.78-6.45-43.9c-.79-4.74-2.13-13.44-2.73-16.14s-3.95-32.86-3.95-32.86-9.76 28.11-10.36 32.15-.16 6.09-1.82 15.41c-1.82 10.22-8 24.26-11.15 31.83s-5.22 14.11-5.22 14.11-14.07-.92-14.08-.89 6.31-27.89 8.54-40.73c1.95-11.24 4.08-26.18 4.75-29.81.26-1.45 6-58.85 6-58.85z" fill="url(#p)"/><path d="m526.38 519.97v8.24h-26.32l17.31-8.78z"/><path d="m469.37 519.97v8.24h-26.31l17.45-9.4z"/><path d="m517.52 313.85a12.28 12.28 0 0 1 2.53 1.69 14.68 14.68 0 0 1 5.16 9.29c.88 7.17-2.68 21.23-3.58 27.75-1 6.9-1.14 27-.44 30.64s1 5.91 1 5.91-15.19-.85-24.89-.13a155.2 155.2 0 0 1 -19.23-.59c-1.23-.13-.29-2.83 0-8.7.73-13.64 1.63-24.43 1.15-34.84-.34-7.59-1.73-21.57-.88-25 .7-2.78 6.83-7.27 15.29-7.79 1.11-.06.53-2.09 1.23-2.13 1.37-.07 4 .1 5.5.21 5.62.41 9.12-.56 12-.23.22 0 1.82 3.13 2 3.15a7.69 7.69 0 0 1 3.16.77z" fill="#177fff"/><path d="m523.44 319.65a31.8 31.8 0 0 1 2.8 5.92c.61 1.69 1.14 3.92 1.63 5.33 1.35 3.89 3.6 17.64 3.6 17.64s1.73 5.86-.49 8.58a124.43 124.43 0 0 1 -10.6 11.13c-2.2.59.89-16.28.89-16.28z" fill="#177fff"/><path d="m523.33 319.41a12.62 12.62 0 0 0 -5.85-5.54s-.43-.49-3.08-.78c-.39 0-1.65-3-2.08-3.1a27 27 0 0 0 -5.63.18c3.34 1.12 1.5 2.62.56 2.56-.14 0-2.51 0-2.76 0-21.45 2.68-10.24 25.51-4.28 39.62 3.75 8.87 7.69 21-1.88 35.3-6.41 9.57-6.88 20.22-6.08 34.11s-4 14.59-8.21 24-.18 11.48.95 19.82c1.59 11.7-5.45 30.51-6.73 35.69a258.14 258.14 0 0 0 9.39-24.78c2.28-7.6 2.74-14.92 3.35-21.77.46-1.35 2.39-8.25 4.43-14.58 2.82-8.73 5.89-17.32 5.89-17.32s4.51-11.72 4.79-11.53c15.55 10.8 2.95 12.75 6.72 32.2 1.75 9.06 16.08 16.51 10.77 30.37-2.71 7.05-1.92 14.64 1.28 22 2.34 5.35 2.9 16.32 2.9 16.32s-.18-14.61-.25-26.41c-.08-12.86.3-18.31-2.23-33.2 0-2.19-.25-24.46-.92-43.28-.44-12.19-2.89-22.7-3.33-26.93a137.94 137.94 0 0 1 -.24-14.52c.08-9.47 1.07-17.79 1.07-17.79a29.75 29.75 0 0 1 3.49-11.74c.47-.84-2.79 6.72-.88 13.15 1.66 5.63-3.54 10.54-3.54 11.34 0 1-.17 5.23-.15 5.25s6.7-6.68 9.81-10.41a6.86 6.86 0 0 0 .88-1.25 5.49 5.49 0 0 0 .52-2.16c.43-4.7-1.81-12.8-3.48-20.53a53.19 53.19 0 0 0 -5.2-14.29z" fill="url(#q)" opacity=".36"/><path d="m480.07 310.24-19.93-11.05-17.39-28.1-9 3.33 14.49 31.79 30.64 27.45c3.57.24 6.15-1.7 7.8-4.47 2.65-4.43 9.43-16.47 4.55-16.52a24 24 0 0 1 -7.21-1.14c-.89-.31-2.77-.77-3.95-1.29z" fill="#177fff"/><path d="m478.89 333.66-30.64-27.45-8.65-19a18.4 18.4 0 0 1 7.72 11.41c1.29 6.76 7.23 6.2 9.81 9.71 3.51 4.76 4.7 8.59 7.88 10.28 4.19 2.22 12.36 1.48 13.62 10.89z" fill="url(#r)" opacity=".36"/><path d="m492.06 286.51h-.17c-.92-.25-.85-2.4-.31-4.39a9.85 9.85 0 0 1 1.1-2.64c.49-.76 1-1.1 1.39-1s.66.65.69 1.54a9.55 9.55 0 0 1 -.38 2.84c-.51 1.88-1.45 3.65-2.32 3.65zm1.85-7.62c-.17 0-.48.21-.86.8a9.49 9.49 0 0 0 -1.05 2.53c-.6 2.19-.4 3.74 0 3.85s1.36-1.13 2-3.32a9.41 9.41 0 0 0 .37-2.71c0-.78-.22-1.1-.38-1.14z"/><path d="m526.45 527.92-92.29 35.45h-97.53l106.56-35.22 25.19-.23-41.87 18.02 73.03-18.02z" fill="url(#s)" opacity=".36"/></svg>