<?xml version="1.0" encoding="UTF-8"?>
<svg width="133px" height="146px" viewBox="0 0 133 146" version="1.1" xmlns="http://www.w3.org/2000/svg" xmlns:xlink="http://www.w3.org/1999/xlink">
    <!-- Generator: Sketch 56.2 (81672) - https://sketch.com -->
    <title>Productivity champ</title>
    <desc>Created with Sketch.</desc>
    <defs>
        <path d="M40.0225773,102.999372 L94.0019133,102.999372 L94.0019133,78.0276302 C94.0019133,76.6474467 95.1207731,75.5285869 96.5009567,75.5285869 C97.8811402,75.5285869 99,76.6474467 99,78.0276302 L99,105.033565 C99,105.263797 98.968866,105.486758 98.9105784,105.698466 C98.809274,106.98642 97.7320294,108 96.4180506,108 L37.5084808,108 C36.1275954,108 35.0081667,106.880571 35.0081667,105.499686 C35.0081667,105.390825 35.0151237,105.283589 35.0286175,105.178398 C35.0258787,105.130469 35.0244906,105.082179 35.0244906,105.033565 L35.0244906,46.0236092 C35.0244906,45.9752542 35.025864,45.9272199 35.0285738,45.8795432 C35.0097573,45.7558779 35,45.6292355 35,45.5003141 C35,44.1194288 36.1194288,43 37.5003141,43 L80.4323367,43 C81.8132221,43 82.9326509,44.1194288 82.9326509,45.5003141 C82.9326509,46.8811995 81.8132221,48.0006283 80.4323367,48.0006283 L40.0225773,48.0006283 L40.0225773,102.999372 Z M68.08361,86.6045497 C67.6242555,87.0646075 67.0810187,87.3566442 66.5058269,87.5566693 C64.9799709,88.2367548 63.1385582,87.9767221 61.8883149,86.7245648 L51.1484272,75.9672132 C49.5267058,74.3430091 48.7402235,72.8447911 50.3619449,71.2245876 C51.9836662,69.6003835 53.3992209,70.4665221 55.0169478,72.0907262 L64.9639933,82.0479772 L90.8925835,56.0807146 C92.5023217,54.4685121 93.803094,53.8611563 95.4128321,55.4733589 C97.0225703,57.0855615 96.3348929,58.3089946 94.7251547,59.9211972 L68.08361,86.6045497 Z" id="path-1"></path>
        <filter x="-10.9%" y="-7.7%" width="121.9%" height="121.5%" filterUnits="objectBoundingBox" id="filter-2">
            <feOffset dx="0" dy="2" in="SourceAlpha" result="shadowOffsetOuter1"></feOffset>
            <feGaussianBlur stdDeviation="2" in="shadowOffsetOuter1" result="shadowBlurOuter1"></feGaussianBlur>
            <feColorMatrix values="0 0 0 0 0   0 0 0 0 0   0 0 0 0 0  0 0 0 0.258413462 0" type="matrix" in="shadowBlurOuter1"></feColorMatrix>
        </filter>
    </defs>
    <g id="Page-1" stroke="none" stroke-width="1" fill="none" fill-rule="evenodd">
        <g id="Achievement-badges" transform="translate(-622.000000, -201.000000)">
            <g id="Productivity-champ" transform="translate(622.000000, 198.000000)">
                <path d="M9.87572191,33.1240786 L56.2123288,5.92554153 C62.4476094,2.26557329 70.1727778,2.25581633 76.4172836,5.90002247 L123.080677,33.1321251 C129.223193,36.7168113 133,43.293808 133,50.4058033 L133,102.329267 C133,109.465828 129.197275,116.061667 123.021207,119.637514 L77.0534938,146.252108 C70.9049339,149.812029 63.3293198,149.842805 57.1520388,146.332958 L10.1197518,119.609853 C3.86433837,116.055612 5.14910739e-15,109.415394 0,102.220756 L0,50.3722377 C1.33420951e-14,43.2782773 3.75783405,36.7151399 9.87572191,33.1240786 Z" id="Rectangle-Copy" fill="#18D06B"></path>
                <g id="Combined-Shape" fill-rule="nonzero">
                    <use fill="black" fill-opacity="1" filter="url(#filter-2)" xlink:href="#path-1"></use>
                    <use fill="#FFFFFF" xlink:href="#path-1"></use>
                </g>
            </g>
        </g>
    </g>
</svg>