<svg id="Layer_1" data-name="Layer 1" xmlns="http://www.w3.org/2000/svg" viewBox="0 0 114.21 114.21"><defs><style>.cls-1{fill:#7749ff;}</style></defs><title>social-icon</title><g id="post-facebook"><path class="cls-1" d="M102.79,0H11.42A11.45,11.45,0,0,0,0,11.42v91.36a11.45,11.45,0,0,0,11.42,11.42h91.36a11.45,11.45,0,0,0,11.42-11.42V11.42A11.45,11.45,0,0,0,102.79,0ZM97.07,11.42V28.55H85.65a5.39,5.39,0,0,0-5.71,5.71V45.68H97.07V62.81H79.94v40H62.81v-40H51.39V45.68H62.81V31.41a20.23,20.23,0,0,1,20-20Z"/></g></svg>