<svg id="Layer_1" data-name="Layer 1" xmlns="http://www.w3.org/2000/svg" viewBox="0 0 114.21 114.21"><defs><style>.cls-1{fill:#7749ff;}</style></defs><title>social-icon</title><g id="post-linkedin"><path class="cls-1" d="M102.79,0H11.42A11.45,11.45,0,0,0,0,11.42v91.36a11.45,11.45,0,0,0,11.42,11.42h91.36a11.45,11.45,0,0,0,11.42-11.42V11.42A11.45,11.45,0,0,0,102.79,0ZM34.26,97.07H17.13V45.68H34.26ZM25.7,36A10.28,10.28,0,1,1,36,25.7,10.24,10.24,0,0,1,25.7,36Zm71.38,61.1H79.94V66.81a8.57,8.57,0,0,0-17.13,0V97.07H45.68V45.68H62.81v6.85a18.45,18.45,0,0,1,14.28-8,20.23,20.23,0,0,1,20,20Z"/></g></svg>