<?xml version="1.0" encoding="UTF-8"?>
<svg width="148px" height="148px" viewBox="0 0 148 148" version="1.1" xmlns="http://www.w3.org/2000/svg" xmlns:xlink="http://www.w3.org/1999/xlink">
    <!-- Generator: Sketch 52.3 (67297) - http://www.bohemiancoding.com/sketch -->
    <title>Icon1</title>
    <desc>Created with Sketch.</desc>
    <g id="Marketing-Website-Ver1" stroke="none" stroke-width="1" fill="none" fill-rule="evenodd">
        <g id="Desktop-Accounting-Software-Wizard-000-Copy-2" transform="translate(-232.000000, -1167.000000)">
            <g id="Group-11" transform="translate(109.000000, 1068.000000)">
                <g id="Icon1" transform="translate(123.000000, 99.000000)">
                    <rect id="Rectangle" fill="#FFFFFF" fill-rule="nonzero" x="0" y="0" width="148" height="148"></rect>
                    <g id="Group-54" transform="translate(36.000000, 16.000000)">
                        <polygon id="Fill-2" fill="#FFFFFF" points="14.141 61 42.141 61 42.141 16 14.141 16"></polygon>
                        <g id="Group-53" transform="translate(0.000000, 0.939000)">
                            <path d="M43.3534,21.4516 C41.3344,20.8806 38.7704,21.3376 39.4094,24.1716 C39.6204,25.1096 40.3234,25.8486 41.0074,26.5236 C43.8104,29.2886 46.7974,31.8656 49.9424,34.2326 C51.9824,35.7686 54.2924,38.5576 52.5834,40.4556 C52.0384,41.0616 51.2074,41.3296 50.5964,41.8716 C49.4084,42.9256 49.3144,44.7166 49.3064,46.3056 C49.2744,53.3536 49.2434,60.4026 49.2104,67.4516 C49.1984,70.1616 48.9884,73.2846 46.8104,74.8966 C45.6624,75.7476 44.1834,75.9836 42.7634,76.1536 C38.6584,76.6446 34.5114,76.7946 30.3814,76.6006 C35.2434,81.6126 35.4854,89.3716 35.4324,96.3536 C35.3964,101.1696 33.4114,108.5566 37.5504,112.2636 C43.3004,117.4106 51.5164,117.4106 58.7454,116.6126 C66.1784,115.7936 72.8474,115.5366 73.3624,106.5676 C73.6684,101.2216 73.6374,95.8616 73.6004,90.5096 C73.5134,77.9336 73.3504,65.1956 70.0404,53.0626 C68.3324,46.8006 65.6384,39.2566 61.6304,34.0776 C57.6434,28.9246 50.0424,24.9166 44.4074,21.8726 C44.0914,21.7026 43.7324,21.5586 43.3534,21.4516" id="Fill-3" fill="#BDB8FF"></path>
                            <path d="M7.0263,57.6557 C6.4943,57.1867 5.7983,56.9567 5.1243,56.7367 C4.4443,56.5147 3.6683,56.3017 3.0453,56.6527 C2.6643,56.8667 2.4153,57.2627 2.2773,57.6767 C1.9253,58.7417 2.2523,59.9467 2.9163,60.8487 C3.5813,61.7527 4.5443,62.3907 5.5443,62.8967 C5.8503,63.0517 6.2183,63.1967 6.5233,63.0377 C6.8563,62.8647 6.9293,62.4267 6.9523,62.0517 C7.0303,60.7207 6.9663,59.3837 6.7623,58.0667" id="Fill-5" fill="#BDB8FF"></path>
                            <path d="M3.0546,46.0385 C2.6596,46.0795 2.2556,46.1225 1.9046,46.3065 C1.5156,46.5095 1.2316,46.8635 0.9726,47.2185 C0.4306,47.9605 -0.0714,48.8795 0.2016,49.7565 C0.3216,50.1395 0.5766,50.4625 0.8376,50.7675 C1.8996,52.0095 3.1786,53.1365 4.7346,53.6365 C5.3626,53.8375 6.1826,53.8685 6.5446,53.3175 C6.7856,52.9515 6.7206,52.4735 6.6696,52.0375 C6.5066,50.6405 7.4256,48.2555 7.0356,47.0505 C6.5406,45.5195 4.4186,45.8995 3.0546,46.0385" id="Fill-7" fill="#BDB8FF"></path>
                            <path d="M3.5868,33.1684 C2.7998,33.3334 1.9968,33.6534 1.5118,34.2964 C1.0188,34.9514 0.9388,35.8524 1.1468,36.6454 C1.3558,37.4374 1.8198,38.1394 2.3378,38.7744 C3.2678,39.9174 4.3938,40.9014 5.6498,41.6724 C5.8508,41.7954 6.0818,41.9164 6.3098,41.8594 C6.6678,41.7694 6.7768,41.3214 6.8138,40.9534 C7.0988,37.9764 8.0748,32.2284 3.5868,33.1684" id="Fill-9" fill="#BDB8FF"></path>
                            <path d="M7.248,20.7084 C7.452,22.7714 7.656,24.8354 7.859,26.8984 C7.897,27.2824 7.913,27.7274 7.628,27.9854 C7.252,28.3274 6.652,28.0984 6.222,27.8274 C4.091,26.4854 2.433,24.4104 1.595,22.0374 C1.465,21.6694 1.36,21.2414 1.561,20.9084 C1.71,20.6634 1.987,20.5344 2.249,20.4184 C3.791,19.7374 5.991,19.2464 6.832,20.7074" id="Fill-11" fill="#BDB8FF"></path>
                            <path d="M30.7773,76.9623 C32.2683,79.6343 33.6753,82.2723 34.2033,85.2613 C35.6093,94.2293 34.9063,102.6693 34.8683,111.5303" id="Stroke-13" stroke="#000000" stroke-width="2" stroke-linecap="round" stroke-linejoin="round"></path>
                            <path d="M6.9345,33.7387 C4.8525,32.5117 0.5035,32.8657 0.1595,35.5017 C-0.2105,38.3227 4.9695,41.0637 7.1245,42.5497" id="Stroke-15" stroke="#000000" stroke-width="2" stroke-linecap="round" stroke-linejoin="round"></path>
                            <path d="M6.9745,20.8745 C5.1555,20.3035 1.2805,19.6075 1.4565,22.6185 C1.6095,25.2165 4.7575,27.3725 6.8405,28.4315" id="Stroke-17" stroke="#000000" stroke-width="2" stroke-linecap="round" stroke-linejoin="round"></path>
                            <path d="M49.205,33.7905 C49.203,42.4525 49.195,46.5615 49.188,52.7065 C49.178,61.0965 49.168,67.9945 49.172,68.8285 C49.203,75.8235 44.534,76.9615 40.402,76.9615 L18.18,76.9615 C8.889,76.9615 7.145,73.9315 7.145,67.6475 L7.145,9.9135 C7.145,4.8885 7.856,0.0615 16.132,0.0615 L41.164,0.0615 C47.306,0.0615 49.096,4.7715 49.176,7.1245 C49.196,7.7195 49.204,16.0635 49.205,24.1455" id="Stroke-19" stroke="#000000" stroke-width="2" stroke-linecap="round" stroke-linejoin="round"></path>
                            <path d="M7.1405,54.061 C5.2715,54.061 3.2375,53.652 1.7645,52.431 C0.1975,51.133 -0.9655,48.089 1.1495,46.661 C2.8315,45.525 5.4925,46.194 7.1575,47.042" id="Stroke-21" stroke="#000000" stroke-width="2" stroke-linecap="round" stroke-linejoin="round"></path>
                            <path d="M7.0751,57.6303 C5.7791,57.0893 3.6201,56.4103 2.3361,57.3143 C0.9961,58.2553 1.6161,60.1293 2.5031,61.1553 C3.5981,62.4243 5.1401,63.0613 7.1401,63.0613" id="Stroke-23" stroke="#000000" stroke-width="2" stroke-linecap="round" stroke-linejoin="round"></path>
                            <path d="M73.6425,113.7739 C73.4675,97.8269 74.9585,82.0029 73.4795,66.0869 C72.1525,51.8129 67.1375,36.7039 55.2305,27.8119 C51.9905,25.3929 48.3065,23.7949 44.6575,22.1049 C43.0445,21.3589 40.8755,20.0699 39.1465,21.1859 C38.1515,21.8279 38.2645,23.1919 38.7195,24.1179 C40.8295,28.4109 44.8735,30.7389 48.7125,33.2459 C50.8415,34.6359 55.5165,37.7529 53.4825,40.7669 C52.5755,42.1139 50.6205,42.5879 49.1565,41.8879" id="Stroke-25" stroke="#000000" stroke-width="2" stroke-linecap="round" stroke-linejoin="round"></path>
                            <polyline id="Stroke-27" stroke="#000000" stroke-width="2" stroke-linecap="round" stroke-linejoin="round" points="11.4853 10.3881 11.4853 5.7341 16.1403 5.7341"></polyline>
                            <polyline id="Stroke-29" stroke="#000000" stroke-width="2" stroke-linecap="round" stroke-linejoin="round" points="11.1142 67.0473 11.1142 71.0743 16.1402 71.0743"></polyline>
                            <polyline id="Stroke-31" stroke="#000000" stroke-width="2" stroke-linecap="round" stroke-linejoin="round" points="40.1142 5.7338 45.1402 5.7338 45.1402 10.3878"></polyline>
                            <polyline id="Stroke-33" stroke="#000000" stroke-width="2" stroke-linecap="round" stroke-linejoin="round" points="45.1405 66.7202 45.1405 71.3742 40.4855 71.3742"></polyline>
                            <polyline id="Stroke-35" stroke="#000000" stroke-width="2" stroke-linecap="round" stroke-linejoin="round" points="13.9794 15.8266 13.9794 59.8626 42.1014 59.8626 42.1014 29.3466"></polyline>
                            <polyline id="Stroke-37" stroke="#000000" stroke-width="2" stroke-linecap="round" stroke-linejoin="round" points="42.2538 20.4389 42.2538 15.3549 14.4428 15.3549"></polyline>
                            <path d="M18.0634,21.853 L27.8034,21.853" id="Stroke-39" stroke="#000000" stroke-width="2" stroke-linecap="round" stroke-linejoin="round"></path>
                            <path d="M18.2206,26.4086 L22.1756,26.4086" id="Stroke-41" stroke="#000000" stroke-width="2" stroke-linecap="round" stroke-linejoin="round"></path>
                            <path d="M18.3778,33.3198 L37.2588,33.3198" id="Stroke-43" stroke="#000000" stroke-width="2" stroke-linecap="round" stroke-linejoin="round"></path>
                            <path d="M18.2206,37.9741 L30.4166,37.9741" id="Stroke-45" stroke="#000000" stroke-width="2" stroke-linecap="round" stroke-linejoin="round"></path>
                            <path d="M18.3778,42.687 L35.6818,42.687" id="Stroke-47" stroke="#000000" stroke-width="2" stroke-linecap="round" stroke-linejoin="round"></path>
                            <path d="M18.2206,53.9389 L24.1356,53.9389" id="Stroke-49" stroke="#000000" stroke-width="2" stroke-linecap="round" stroke-linejoin="round"></path>
                            <path d="M33.1425,53.6245 L37.8665,53.6245" id="Stroke-51" stroke="#000000" stroke-width="2" stroke-linecap="round" stroke-linejoin="round"></path>
                        </g>
                    </g>
                </g>
            </g>
        </g>
    </g>
</svg>