<?xml version="1.0" encoding="UTF-8"?>
<svg width="95px" height="35px" viewBox="0 0 95 35" version="1.1" xmlns="http://www.w3.org/2000/svg" xmlns:xlink="http://www.w3.org/1999/xlink">
    <!-- Generator: Sketch 53.2 (72643) - https://sketchapp.com -->
    <title>Group 19</title>
    <desc>Created with Sketch.</desc>
    <defs>
        <polygon id="path-1" points="-0.00033943736 0.000304347826 6.11416058 0.000304347826 6.11416058 3.80434783 -0.00033943736 3.80434783"></polygon>
        <polygon id="path-3" points="0.381800193 0 6.4962744 0 6.4962744 3.80404348 0.381800193 3.80404348"></polygon>
    </defs>
    <g id="Marketing-Website-Ver1" stroke="none" stroke-width="1" fill="none" fill-rule="evenodd">
        <g id="Desktop-Accounting-Software-Wizard-000-Copy-11" transform="translate(-40.000000, -32.000000)">
            <g id="Group-19" transform="translate(40.000000, 32.000000)">
                <g id="Group-3" transform="translate(81.243902, 31.195652)">
                    <mask id="mask-2" fill="white">
                        <use xlink:href="#path-1"></use>
                    </mask>
                    <g id="Clip-2"></g>
                    <path d="M2.10162602,3.44171739 C2.62894309,3.92563043 3.48487805,3.92563043 4.01219512,3.44171739 L5.76839024,1.834 C6.50739837,1.15682609 5.98313821,0.000304347826 4.93920325,0.000304347826 L1.17461789,0.000304347826 C0.130682927,0.000304347826 -0.393577236,1.15682609 0.345430894,1.834 L2.10162602,3.44171739 Z" id="Fill-1" fill="#FFFFFF" mask="url(#mask-2)"></path>
                </g>
                <g id="Group-6" transform="translate(64.430894, 0.000000)">
                    <mask id="mask-4" fill="white">
                        <use xlink:href="#path-3"></use>
                    </mask>
                    <g id="Clip-5"></g>
                    <path d="M4.39430894,0.362630435 C3.86699187,-0.121282609 3.01105691,-0.121282609 2.48373984,0.362630435 L0.727544715,1.97034783 C-0.0114634146,2.64752174 0.512796748,3.80404348 1.55749593,3.80404348 L5.32131707,3.80404348 C6.36525203,3.80404348 6.8895122,2.64752174 6.15050407,1.97034783 L4.39430894,0.362630435 Z" id="Fill-4" fill="#FFFFFF" mask="url(#mask-4)"></path>
                </g>
                <path d="M14.902439,28.1521739 C13.8470407,28.1521739 12.9918699,27.3007609 12.9918699,26.25 L12.9918699,15.2173913 C12.9918699,12.6996739 10.9353333,10.6521739 8.40650407,10.6521739 C5.8776748,10.6521739 3.82113821,12.6996739 3.82113821,15.2173913 L3.82113821,26.25 C3.82113821,27.3007609 2.96596748,28.1521739 1.91056911,28.1521739 C0.855170732,28.1521739 0,27.3007609 0,26.25 L0,15.2173913 C0,10.6027174 3.77146341,6.84782609 8.40650407,6.84782609 C13.0415447,6.84782609 16.8130081,10.6027174 16.8130081,15.2173913 L16.8130081,26.25 C16.8130081,27.3007609 15.9578374,28.1521739 14.902439,28.1521739" id="Fill-7" fill="#FFFFFF"></path>
                <path d="M27.8943089,28.1521739 C26.8389106,28.1521739 25.9837398,27.3007609 25.9837398,26.25 L25.9837398,15.2173913 C25.9837398,12.6996739 23.9272033,10.6521739 21.398374,10.6521739 C18.8695447,10.6521739 16.8130081,12.6996739 16.8130081,15.2173913 L16.8130081,26.25 C16.8130081,27.3007609 15.9578374,28.1521739 14.902439,28.1521739 C13.8470407,28.1521739 12.9918699,27.3007609 12.9918699,26.25 L12.9918699,15.2173913 C12.9918699,10.6027174 16.7633333,6.84782609 21.398374,6.84782609 C26.0334146,6.84782609 29.804878,10.6027174 29.804878,15.2173913 L29.804878,26.25 C29.804878,27.3007609 28.9497073,28.1521739 27.8943089,28.1521739" id="Fill-9" fill="#FFFFFF"></path>
                <path d="M37.6937789,15.2173913 L50.7697138,15.2173913 C49.9917301,12.4546739 47.4972911,10.6521739 44.1790146,10.6521739 C41.1901203,10.6521739 38.6398927,12.5604348 37.6937789,15.2173913 M44.1790146,28.1521739 C38.2791772,28.1521739 33.4798276,23.373913 33.4798276,17.5 C33.4798276,11.626087 38.2791772,6.84782609 44.1790146,6.84782609 C50.259974,6.84782609 54.8453398,11.263913 54.8453398,17.1195652 C54.8453398,18.1703261 53.9901691,19.0217391 52.9347707,19.0217391 L37.4721528,19.0217391 C38.1691285,22.0675 40.9111772,24.3478261 44.1790146,24.3478261 C46.0162179,24.3478261 47.7433724,23.6348913 49.0425593,22.3421739 C49.7892098,21.5995652 50.9982179,21.5995652 51.7441041,22.3421739 C52.4907545,23.0855435 52.4907545,24.2892391 51.7441041,25.0318478 C49.7242504,27.0443478 47.0364618,28.1521739 44.1790146,28.1521739" id="Fill-11" fill="#FFFFFF"></path>
                <path d="M60.2276423,28.1521739 C59.1722439,28.1521739 58.3170732,27.3007609 58.3170732,26.25 L58.3170732,1.90217391 C58.3170732,0.851413043 59.1722439,0 60.2276423,0 C61.2830407,0 62.1382114,0.851413043 62.1382114,1.90217391 L62.1382114,26.25 C62.1382114,27.3007609 61.2830407,28.1521739 60.2276423,28.1521739" id="Fill-13" fill="#FFFFFF"></path>
                <path d="M67.8699187,28.1521739 C66.8145203,28.1521739 65.9593496,27.3007609 65.9593496,26.25 L65.9593496,8.75 C65.9593496,7.69923913 66.8145203,6.84782609 67.8699187,6.84782609 C68.9253171,6.84782609 69.7804878,7.69923913 69.7804878,8.75 L69.7804878,26.25 C69.7804878,27.3007609 68.9253171,28.1521739 67.8699187,28.1521739" id="Fill-15" fill="#FFFFFF"></path>
                <path d="M83.9186992,10.6521739 C80.1258374,10.6521739 77.0406504,13.7238043 77.0406504,17.5 C77.0406504,21.2761957 80.1258374,24.3478261 83.9186992,24.3478261 C87.711561,24.3478261 90.796748,21.2761957 90.796748,17.5 C90.796748,13.7238043 87.711561,10.6521739 83.9186992,10.6521739 M83.9186992,28.1521739 C78.0188618,28.1521739 73.2195122,23.373913 73.2195122,17.5 C73.2195122,11.626087 78.0188618,6.84782609 83.9186992,6.84782609 C89.8185366,6.84782609 94.6178862,11.626087 94.6178862,17.5 C94.6178862,23.373913 89.8185366,28.1521739 83.9186992,28.1521739" id="Fill-17" fill="#FFFFFF"></path>
            </g>
        </g>
    </g>
</svg>