<svg xmlns="http://www.w3.org/2000/svg" viewBox="0 0 624.33 490"><defs><style>.cls-1{fill:#85e8c7;}.cls-2{fill:#fff;}.cls-3{fill:#00d28f;}</style></defs><g id="Layer_2" data-name="Layer 2"><g id="Layer_1-2" data-name="Layer 1"><path class="cls-1" d="M42.57,265.53c-5.68,0-14.11-.59-21.36-6.28C6.52,247.48,6.91,226.47,7.11,211c0-3.93.19-7.65,0-10.79-1.18-18.06-2.36-38.08-3.53-57.51-1-19.43-2.16-39.45-3.53-57.51-1-14.91,11.76-28.06,28.41-29.44l20.77-1.57c42.12-3.14,85.61-6.28,128.32-9.22,28.41-2,54.08-3.73,78.18-5.3,2.35-.2,5.09-.39,8-.79a181.35,181.35,0,0,1,18.41-1.17c14.7,0,32.33,4.31,33.9,24.33,2.35,33,4.7,68.5,7.05,103.24l3.53,52c1,13.35-8.23,24.34-23.9,28.66a72.74,72.74,0,0,1-14.5,2.35c-3.14.2-6.08.39-8,.39H279c-22.33.79-46.43,2-76,4.12-31.15,2.36-61.32,4.72-94.82,7.27l-10.38.78-37,2.95-5.29.58A70,70,0,0,1,42.57,265.53Z"/><path class="cls-2" d="M19.06,92.62c-.59-6.28-.59-13.74,4.5-17.47,2.55-1.76,5.68-2.16,8.82-2.35q114.9-11.19,230.4-17.47c6.86-.39,14.69-.39,19.39,4.51,3.73,3.93,4.51,9.82,5.1,15.12,4.7,41.61,7.25,83.61,8,125.61.2,12.17,4.31,19.62-6.07,23.94-5.88,2.36-14.89,1.77-21.16,2.16-42.32,3.73-84.64,5.89-127,8.64-4.89.39-10,.59-14.89,1-13.91,1.18-27.82,2.16-41.92,3.33-18.61,1.58-36.64,5.5-54.86,6.68,1.37-9.23,0-18.45-.2-27.68-.19-5.88-.58-13.34-1-19.62C25.13,165.44,22,126,19.06,92.62Z"/><rect class="cls-1" x="18.66" y="98.12" width="284.09" height="31.4" transform="matrix(1, -0.07, 0.07, 1, -7.69, 11.72)"/><path d="M292.56,232a3,3,0,0,1-2.94-2.75,2.75,2.75,0,0,1,2.55-3.14,33.27,33.27,0,0,0,7.44-1.37c7.05-2,6.86-4.71,6.86-5.69-1.57-21.79-3.72-45.14-5.68-67.72s-4.12-45.73-5.68-67.51A2.94,2.94,0,1,1,301,83.4c1.57,21.78,3.73,44.94,5.68,67.32,2,22.57,4.12,45.92,5.69,67.71.19,3.92-1.38,9.22-11.17,11.77a44.6,44.6,0,0,1-8.43,1.38C292.75,232,292.75,232,292.56,232Z"/><path d="M45.7,248.46c-20.18,0-20.77-9.62-21.55-23.75a49.83,49.83,0,0,0-.39-5.1L14.16,83.79C13.77,77.7,19.06,72.41,25.91,72l81.7-5.89c45.06-3.33,91.89-6.67,137.73-9.81a3,3,0,0,1,.39,5.89C199.89,65.34,153.06,68.68,108,72L26.31,77.9c-3.53.2-6.47,2.75-6.27,5.5l9.6,135.81c.19,1.77.19,3.54.39,5.11.78,14.72,1,18.64,17,18.25,16.66-.39,33.7-2,50.16-3.53,7.83-.79,15.87-1.57,23.9-2.16,52.9-4.32,100.51-7.85,148.51-9.82A3,3,0,0,1,270,233c-47.81,1.77-95.41,5.5-148.31,9.82-7.84.58-15.87,1.37-23.71,2.15-16.65,1.57-33.7,3.34-50.54,3.73A6.28,6.28,0,0,0,45.7,248.46Z"/><ellipse class="cls-1" cx="263.95" cy="191.15" rx="18.02" ry="18.06"/><path d="M241.82,211.36a18.67,18.67,0,1,1,18.61-20h0a18.8,18.8,0,0,1-17.24,20Zm0-31.4h-1a12.69,12.69,0,1,0,13.51,11.78A12.35,12.35,0,0,0,241.82,180Z"/><path d="M56.48,198.21a2.94,2.94,0,0,1-2.94-2.55,2.9,2.9,0,0,1,2.55-3.34c19.39-2.74,40.75-4.9,61.32-5.88a2.95,2.95,0,0,1,.39,5.88c-20.57,1-41.54,3-60.73,5.7A.75.75,0,0,1,56.48,198.21Z"/><path d="M57.85,218a2.85,2.85,0,0,1-2.94-2.75,3.17,3.17,0,0,1,2.74-3.14c15.28-.79,31-2.16,46-3.54,15.87-1.37,32.33-2.94,48.79-3.53a3,3,0,0,1,3.13,2.75,3.17,3.17,0,0,1-2.74,3.14c-16.26.59-32.72,2.16-48.39,3.53-15.28,1.57-31,2.95-46.63,3.54Z"/><path d="M18.86,112.25a3,3,0,0,1-2.94-2.75,3,3,0,0,1,2.75-3.14L298,86.34a3,3,0,0,1,.4,5.89l-279.38,20Z"/><path d="M22.39,144a3,3,0,0,1-2.94-2.75,3,3,0,0,1,2.74-3.14l271.35-20a2.95,2.95,0,0,1,.39,5.88L22.58,144Z"/><path d="M40.41,268.28a47.69,47.69,0,0,1-27-8.24,3,3,0,0,1,3.33-4.91A43.24,43.24,0,0,0,51,261a2.93,2.93,0,1,1,1.37,5.69A50,50,0,0,1,40.41,268.28Z"/><path d="M32,283a43.58,43.58,0,0,1-11.17-1.37,2.93,2.93,0,0,1,1.37-5.7,40.43,40.43,0,0,0,14.5,1,3,3,0,1,1,.78,5.88C35.71,282.8,34,283,32,283Z"/><path d="M305.29,44.14a4.48,4.48,0,0,1-1.56-.39,42.72,42.72,0,0,0-22.34-6.28,2.95,2.95,0,0,1,0-5.89h0a50,50,0,0,1,25.27,7.07,3,3,0,0,1,1,4.12A2.72,2.72,0,0,1,305.29,44.14Z"/><path d="M307.06,31.78a3.78,3.78,0,0,1-1.38-.39l-6.46-3.34c-.78-.2-1.57-.2-2.35-.39a2.89,2.89,0,0,1-2.74-3.14,2.68,2.68,0,0,1,2.74-2.75,3.1,3.1,0,0,1,2.94-.2l1.56.79A21.79,21.79,0,0,1,309,26.28a3,3,0,0,1,.58,3.93A2.67,2.67,0,0,1,307.06,31.78Z"/><path class="cls-3" d="M256.71,41.59C259.06,65.93,289,84.18,314.5,70.44c20.18-10.79,24.1-37.29,10.58-55.54C313.91,0,290.4-4.34,274.73,4.69,261.8,12.35,255.33,26.48,256.71,41.59Z"/><path class="cls-2" d="M289,54.54a2.27,2.27,0,0,1-2-.78,52.15,52.15,0,0,1-8.62-11,3,3,0,0,1,5.1-3.14A48.67,48.67,0,0,0,289,47.09l18.22-22.77a2.93,2.93,0,1,1,4.51,3.73L291.38,53.56a3.24,3.24,0,0,1-2.35,1Z"/><path class="cls-1" d="M255.13,325.79c-4.57-.2-9.75-.1-13,3-2.79,2.7-3.42,7.16-2.07,10.78a16,16,0,0,0,7.78,8.3c-5.08,3.63-4.46,12.65,1,15.55-11.3,9.44-22.18,19.29-30.89,31.11s-15,25.51-16.18,40.13c-.73,9.33.62,19.39-4.25,27.37-1.25,2.18-3,4.46-2.49,6.84.62,2.91,3.94,4.05,6.84,4.77,13.69,3.53,27.48,7,41.17,10.48,14.83,3.73,30.17,7.57,45.21,5.08,15.45-2.49,29.75-11.3,45.41-10.79,3,.11,6.12.52,9.13-.1s5.91-2.8,6.43-5.81a11.06,11.06,0,0,0-.94-5.39,65.47,65.47,0,0,1-2-32.25c.73-3.94,1.87-7.88.73-11.71-.94-3.32-3.42-6-5.29-8.92s-3-6.95-1-9.85a3.42,3.42,0,0,1,1.87-1.56c2.28-.72,4.35,1.87,4.35,4.26s-1.24,4.45-2,6.74c-1.24,3.83-.93,8.29,1.66,11.4s7.47,4.25,10.79,1.87,3.83-7.16,3.42-11.3A42.64,42.64,0,0,0,354.77,397c-4.25-6.64-10.37-11.82-16.69-16.59-5.5-4.25-11.2-8.3-17.84-10.47-8.6-2.91-17.83-2.29-26.85-3.12-4.25-.41-9.75-2.69-9-6.94a13.72,13.72,0,0,1,.93-2.7c1.45-4.87-4.25-10.26-9-8.5,3.63-3.32,9.85-3.11,12.75-7.16s.31-10.16-3.94-12.65C277.32,323.93,263.94,326.11,255.13,325.79Z"/><path class="cls-2" d="M226.3,402.63c-6,9.43-10.47,19.91-11.51,30.79s-2.8,22.3-8.4,32A18.79,18.79,0,0,1,217,467.12c11.82,5.6,27.27,9.85,40.23,13.38,11,3,12.44-7.57,2.7-11.41-5.09-2-10.48-3.42-15.35-5.91-11.92-5.91-11-13-11.41-25a75.25,75.25,0,0,1,16.7-49.46c5.91-7.26,4.77-17.31-4.56-8.5A115.64,115.64,0,0,0,226.3,402.63Z"/><path class="cls-2" d="M253.57,341c0,2.07,2,3.63,3,5.39,1.76,3,.93,6.95-.21,10.26s-2.7,6.74-2.18,10.16c1.45,1.15,3.74.63,5.08-.72a11.46,11.46,0,0,0,2.7-4.77c1.35-3.63,2.8-7.26,2.8-11.1,0-3-1.66-8.71-4.36-10.57C258.55,338.24,253.57,335.85,253.57,341Z"/><path d="M274.52,485.16h-2.29c-14.72-.62-28.82-5.49-42.51-10.26l-3.63-1.25c-.52-.2-1.34-.51-2.38-.93-14.31-5.49-17.63-5.29-18.35-4.77a1.54,1.54,0,1,1-2.08-2.28h0c6.74-6.22,6.84-15.86,6.95-25.3a81.34,81.34,0,0,1,.83-12.55c.41-2.28.93-4.66,1.45-6.94a85.7,85.7,0,0,1,18.35-35.05c2.49-2.8,5.39-5.6,8.19-8.3,7.68-7.25,15.56-14.72,16.8-25.3.31-2.48-2.9-6-5.6-9.22-3.63-4.15-7.36-8.4-4.56-11.72,2.18-2.59,5.91-2.59,8.71-1.56.73.32,1.35.63,2.07.94,1.46.72,2.8,1.45,4,1.14a5.09,5.09,0,0,0,1.86-.83,9.11,9.11,0,0,1,2.7-1,10.11,10.11,0,0,1,5.6.93l.93.32a14.37,14.37,0,0,0,6.85.83,4.66,4.66,0,0,0,1.14-.21,10.43,10.43,0,0,1,3.63-.21c2,.21,4.25,1.56,4.45,3.94a4.79,4.79,0,0,1-2.9,4.77,12.27,12.27,0,0,1-3.21.93c-.31.11-.73.11-1,.21-4.36,1-6.53,3.42-6.74,7.36-.31,5.39,4.77,10,9.75,13.59,1.34.93,3.52,2.8,5.8,4.77s4.36,3.73,5.6,4.66a1.55,1.55,0,0,1-1.86,2.49c-1.35-.93-3.53-2.8-5.81-4.77s-4.36-3.73-5.6-4.67c-5.7-4.14-11.41-9.43-11-16.27.31-5.29,3.52-8.82,9.12-10.17a4.63,4.63,0,0,1,1.14-.2,8.55,8.55,0,0,0,2.49-.73c.73-.41,1.35-1,1.25-1.66a1.87,1.87,0,0,0-1.77-1.24,7.85,7.85,0,0,0-2.69.21c-.42.1-.83.1-1.25.2a19.07,19.07,0,0,1-8.29-.93,4.13,4.13,0,0,1-1-.42,8,8,0,0,0-3.83-.83,6.64,6.64,0,0,0-1.77.73,9.82,9.82,0,0,1-2.8,1.14c-2.28.42-4.25-.62-5.91-1.45-.62-.31-1.24-.62-1.76-.83-1.66-.62-3.94-.73-5.18.62-1,1.25,2.07,4.77,4.56,7.57,3.42,3.84,6.84,7.88,6.43,11.72-1.45,11.72-9.75,19.6-17.84,27.16a97.78,97.78,0,0,0-8,8.09,82.31,82.31,0,0,0-17.63,33.7c-.52,2.18-1,4.46-1.45,6.64a74.43,74.43,0,0,0-.73,12c-.1,8.6-.2,17.52-5.08,24.36,3.84.42,9.54,2.28,16.7,5.08a15.06,15.06,0,0,0,2.28.83l3.63,1.25c13.48,4.66,27.37,9.54,41.68,10,12.44.52,23.64-3.21,35.67-7.15,3.94-1.24,8-2.59,12.13-3.73.1,0,11.1-2.8,17.63-2.39-2.18-5.29-1.35-10.68-.62-15.86.31-1.87.51-3.73.72-5.7,2.08-26.86-4.77-44.07-23.12-57.55l-6.53-4.77a1.55,1.55,0,0,1,1.86-2.49l6.54,4.77c19.28,14.2,26.64,32.25,24.36,60.35-.21,2.07-.41,4-.72,5.91-.94,6.22-1.66,11.61,1.86,17h0a1.57,1.57,0,1,1-2.59,1.76h0c-1.55-1.24-13.69.63-18.56,2-4,1.14-8.09,2.49-11.92,3.74C298,481.43,286.65,485.16,274.52,485.16Z"/><path d="M258.34,367a1.57,1.57,0,0,1-1.14-.42,1.5,1.5,0,0,1,0-2.17,17.3,17.3,0,0,0,5-12.76,1.56,1.56,0,1,1,3.11-.2,20.73,20.73,0,0,1-5.91,15.13A1.5,1.5,0,0,1,258.34,367Z"/><path d="M351.76,418.39a1.26,1.26,0,0,1-.62-.11,1.58,1.58,0,0,1-.72-2.07c3.73-7.78-.63-17-6.54-21.88-7.05-5.8-16.59-7.46-24.05-8.19l-7.26-.62c-6.43-.52-13.07-1-19.49-2.8-10.37-2.9-18.15-9.13-21.16-17a19.14,19.14,0,0,1-.93-3.21,44.76,44.76,0,0,1-12.86-.41c-4.66-.94-7.57-2.8-8.71-5.71a6,6,0,0,1,2.18-6.53,4.06,4.06,0,0,1,5.08-.1,1.55,1.55,0,1,1-1.87,2.48c-.1-.1-.51-.41-1.34.21a3,3,0,0,0-1.14,2.91c.72,1.86,2.8,3.11,6.32,3.73a39.86,39.86,0,0,0,12.13.41,7.88,7.88,0,0,1,1-3.52,7.37,7.37,0,0,1,5.08-3.63,5.52,5.52,0,0,1,4.77,1.14,4.06,4.06,0,0,1,1,5.39,4.77,4.77,0,0,1-2.49,1.66,39.41,39.41,0,0,1-6.22,1.66,25.83,25.83,0,0,0,.72,2.49c2.7,6.94,9.75,12.44,19.08,15.14,6.12,1.65,12.55,2.17,18.87,2.69l7.36.62c7.26.73,17.84,2.49,25.72,8.92,6.84,5.6,11.72,16.49,7.36,25.61A1.61,1.61,0,0,1,351.76,418.39Zm-73.62-63.25a1.37,1.37,0,0,0-.62.1,4.08,4.08,0,0,0-2.9,2.08,4.44,4.44,0,0,0-.52,1.55,48.54,48.54,0,0,0,5.19-1.45,3.12,3.12,0,0,0,1-.52,1,1,0,0,0-.52-1.14A2.21,2.21,0,0,0,278.14,355.14Z"/><path d="M206.7,465.15a1.56,1.56,0,0,1-1.14-.41,1.51,1.51,0,0,1,0-2.18,45.52,45.52,0,0,0,11.93-21.46,1.54,1.54,0,1,1,3,.72,47.9,47.9,0,0,1-12.75,22.92A1.62,1.62,0,0,1,206.7,465.15Z"/><path d="M271.61,343c-1.14,0-2.28-.11-3.32-.21a2.45,2.45,0,0,1-2.07-1.45c0-.11,0-.11-.1-.21a4.11,4.11,0,0,0-2.18.62c-.21.11-.31.21-.52.31a5.54,5.54,0,0,1-2.8.94c-2,0-3-1.14-3-3.32v-.42a6,6,0,0,0-2.8-.31c-.51,0-1,.11-1.65.11a14.83,14.83,0,0,1-4.26,0c-2.38-.42-4.87-2.39-4.87-5.19a4.39,4.39,0,0,1,1.87-3.63c2.17-1.55,5.49-1.24,7.26-.72a1.54,1.54,0,0,1-1,2.9,6,6,0,0,0-4.46.31,1.22,1.22,0,0,0-.52,1.14c0,.94,1.14,1.87,2.28,2.08a13,13,0,0,0,3.42,0,9.62,9.62,0,0,1,1.77-.11c2.9-.1,4.87.52,5.7,1.87a3.2,3.2,0,0,1,.42,1.86v.21c.31,0,.62-.31,1-.52l.62-.31a8.53,8.53,0,0,1,3.94-.93,2.68,2.68,0,0,1,2.7,1.76,22.8,22.8,0,0,0,8.81-.72,1.51,1.51,0,1,1,.83,2.9A22.15,22.15,0,0,1,271.61,343Z"/><path class="cls-2" d="M284,422.64v.52c-.1,4.15,4.67,6.43,5.29,10.57.73,5.08-5.91,10.17-9,13.38-1.45,1.45-1.45,3.94-2.7,5.6-3.52,4.87-7-.62-8.91-3.32-.94-1.35-2.49-2-3.94-2.8-3.53-2.18-6.12-7.15-6.43-11.2-.21-2.9,2.69-4.35,3.83-6.63,1.87-3.42-.1-5.08-1.66-8.4a10.84,10.84,0,0,1-1.24-3.63,8.43,8.43,0,0,1,1-4.77,32.37,32.37,0,0,1,6.22-9c1.45-1.66.83-4.15,2.59-5.6,2.7-2.39,5.6-.73,6.84,1.66,1.66,3.42,0,3.94,4.05,6,3,1.56,5.7,3,6.94,6.33C288.62,416.21,284.26,418.39,284,422.64Z"/><path d="M272.75,443.58a13.21,13.21,0,0,1-2.07-.2,11,11,0,0,1-8.09-7.78,1.55,1.55,0,0,1,1.14-1.87,1.56,1.56,0,0,1,1.87,1.14,7.84,7.84,0,0,0,5.7,5.5,9.21,9.21,0,0,0,7.67-2.28,4.71,4.71,0,0,0,1.46-4.56c-.63-2.8-3.84-5.91-8.92-8.61-4.87-2.59-7.47-6-7.36-9.75.2-5.28,4.87-7.67,9.12-7.67h.21c4.77.1,9.75,3.11,9.85,8.71a1.56,1.56,0,1,1-3.11,0c-.11-3.84-3.53-5.6-6.74-5.6h-.1c-2.91,0-5.92,1.45-6,4.77s3.53,5.6,5.7,6.84c4.26,2.29,9.44,5.91,10.48,10.68a8,8,0,0,1-2.39,7.37A12.6,12.6,0,0,1,272.75,443.58Z"/><path d="M271.4,410.51a1.6,1.6,0,0,1-1.55-1.56l-.1-5.29a1.52,1.52,0,0,1,1.55-1.55h0a1.59,1.59,0,0,1,1.56,1.55L273,409a1.6,1.6,0,0,1-1.56,1.56Z"/><path d="M273.58,448.67a1.58,1.58,0,0,1-1.55-1.46l-.52-5.28a1.56,1.56,0,1,1,3.11-.21l.52,5.29a1.47,1.47,0,0,1-1.45,1.66Z"/><path d="M352.49,421.4a2.54,2.54,0,0,1-.83-.21,1.64,1.64,0,0,1-.52-2.18,6.66,6.66,0,0,0,1-3.42,4,4,0,0,0-.73,1.24,1.54,1.54,0,1,1-2.9-1,7.26,7.26,0,0,1,2.49-3.32,2.8,2.8,0,0,1,2.07-.62c1.35.2,2.18,1.34,2.28,3.11a11,11,0,0,1-1.55,5.7A1.79,1.79,0,0,1,352.49,421.4Z"/><path d="M355.29,413.31a1.27,1.27,0,0,1-1.25-.73,3.22,3.22,0,0,0-.72-.83,1.53,1.53,0,0,1-3,.11,2.68,2.68,0,0,1,.73-2.39,3.16,3.16,0,0,1,2.8-.83,4.82,4.82,0,0,1,2.8,2.28,1.53,1.53,0,0,1-.42,2.18A3.12,3.12,0,0,1,355.29,413.31Z"/><path d="M333.72,409.06h-.31a1.55,1.55,0,0,1-1.14-1.87c1.45-6.33,1.24-12.34-.62-17.32a18.17,18.17,0,0,0-5-7.46,1.51,1.51,0,0,1-.1-2.18,1.49,1.49,0,0,1,2.17-.1,20.36,20.36,0,0,1,5.81,8.71c2.08,5.6,2.28,12.23.73,19.08A1.69,1.69,0,0,1,333.72,409.06Z"/><path d="M305.41,375.88h-.1l-3.94-.32c-5.91-.41-11.51-.82-16.28-2.28-3.11-.93-6.53-2.28-9-4.77-2.9-3-3.73-7.36-2.07-10.57a1.53,1.53,0,1,1,2.69,1.45c-1.24,2.28-.1,5.18,1.56,6.95,2,2.07,4.87,3.11,7.67,4,4.46,1.35,9.85,1.76,15.55,2.18l4,.31a1.51,1.51,0,1,1-.11,3Z"/><path d="M310.91,484.23a1.55,1.55,0,0,1-1.45-1,1.5,1.5,0,0,1,.93-2,157.9,157.9,0,0,1,19.39-5.28,1.59,1.59,0,1,1,.62,3.11,149.52,149.52,0,0,0-19,5.18Z"/><path d="M327,485.79a1.56,1.56,0,0,1-1.55-1.25,1.52,1.52,0,0,1,1.24-1.76l6.74-1.14a1.52,1.52,0,0,1,1.76,1.24,1.54,1.54,0,0,1-1.24,1.77l-6.74,1.14Z"/><path d="M358.5,390.39a1.76,1.76,0,0,1-1.34-.72,12.43,12.43,0,0,0-3.84-4.15,1.56,1.56,0,0,1,1.87-2.49,16.86,16.86,0,0,1,4.66,5.08,1.65,1.65,0,0,1-.52,2.18C359,390.29,358.71,390.39,358.5,390.39Z"/><path class="cls-3" d="M302.51,360.74c1.25,12.85,17.11,22.5,30.59,15.24,10.68-5.7,12.75-19.7,5.6-29.34-5.91-7.88-18.35-10.17-26.65-5.4C305.21,345.29,301.79,352.75,302.51,360.74Z"/><path class="cls-2" d="M319.62,367.58a1.22,1.22,0,0,1-1-.41,27.91,27.91,0,0,1-4.56-5.81,1.58,1.58,0,1,1,2.7-1.66,25.39,25.39,0,0,0,2.9,3.94l9.64-12a1.55,1.55,0,0,1,2.39,2l-10.79,13.48a1.71,1.71,0,0,1-1.24.52Z"/><path class="cls-1" d="M466.05,362.8c-12.42,0-23.71-6.92-34.59-13.55-3.67-2.26-7.34-4.52-11-6.5-2.4-1.27-4.8-2.4-7.48-3.67-3.81-1.83-10.45-4.09-15.11-7.91a33.55,33.55,0,0,1-12.85-27c.15-8.19.29-17.65,1-24.14,1.13-11.16,5.93-32.9,1.84-43.35a17.81,17.81,0,0,1-.43-9c1.13-5.23,6.08-15.68,12.85-15,3.11.28,8.19,5.08,10.87,6.92,4.8,3.25,8.19,6.77,14.4,6.07,14-1.55,26.55-8.75,39-14.83C484.69,201,506.43,193,524.65,179.4c13.27-9.88,27.81-3,40.52,3.81,11.72,6.36,23.43,12.71,35.15,18.92,4.52,2.4,9.18,4.94,13.7,7.34,1.41.85,3.39,1.84,4.66,3.53a13.35,13.35,0,0,1,2,6.07c2.54,19.35,3.81,15,3.67,34.45,0,4.66-.28,11-.42,16.52a26.18,26.18,0,0,1-10.73,20.19c-3.67,2.68-7.48,5.37-9.46,6.78C567,322.28,526.62,339.79,486,357.29c-4.66,2-9.46,4.1-14.82,4.95A22.62,22.62,0,0,1,466.05,362.8Z"/><path class="cls-1" d="M395.32,295.31c1.13,10,3.53,20.62,11,27.39,5.51,5.09,13,7.2,19.49,10.73,7.9,4.38,14.68,10.87,23.29,14,8.33,3.11,17.65,2.54,26.12.14s16.38-6.49,24.29-10.59C534,319,568.56,301.1,603,283c2-1,4.1-2.12,5.37-4.09,1.41-2.26,1.41-4.95,1.41-7.63-.14-15-.28-29.93-.28-44.9q-64,31.77-127.92,63.68c-4.94,2.54-10,4.94-15.53,5.79-12.84,1.83-25.13-5.79-35.86-13.13-5.5-3.81-11-7.49-16.66-11.3-3.1-2.11-13.27-11.72-16.94-11.43C390.94,260.58,394.76,290.23,395.32,295.31Z"/><path class="cls-2" d="M402.94,244.91c.15.14,5.51,6.92,5.65,7.06-3.39.85-10.45,4.38-10.45,4.38s3.39,5.08,6.22,6.49c18.35,9.6,36.85,19.2,55.2,28.8a13.1,13.1,0,0,0,4.94,1.84c2.54.28,4.94-.85,7.2-2Q537.36,259.31,603,227c1.56-.85,3.53-2,3.25-3.81-.14-1.41-1.69-2.4-3-3.11-14.12-7.06-28.38-14.12-42.5-21.32-5.79-3-14-9.17-20.33-10.16s-10.45,3.39-16,6.49c-24.15,14.26-50.27,24.43-76.24,34.87-5.79,2.4-15.54,8.76-21.89,7.49-3.95-.85-8.19-4.24-11.86-6.07-4.09-2.12-8.33-4.1-12.71-6.07-1.41-.71-3.24-1.28-4.51-.29-1.56,1.13-1.13,3.53-.57,5.37C398.71,237.29,399.13,239.26,402.94,244.91Z"/><path class="cls-3" d="M476.5,245.9c.28,1.55,1.7,2.68,3,3.39,7.76,4.8,17.22,6.07,26.26,5.08s17.65-4.24,25.83-7.91c9-4.09,5.09-11.86-1.27-16.23C519,222.32,472.27,224,476.5,245.9Z"/><path class="cls-2" d="M511.94,256.35c4.8,3,9.88,6.21,12.42,11.29,2.55,4.8,2.4,10.45,2.4,15.81-.42,19.63-.56,17.93-1,37.7,0,1.13,1.41,8.47,1.41,8.47L554,316.91s.85-11.29.57-18.07c-.57-13.13-.14-6.63-1.56-19.76-.84-7.34.43-16.52-3.24-23-5.93-10.3-19.63-13.55-29.79-18.77s-38-25-38-25l-24.57,10.44C457.3,222.89,496.27,246.6,511.94,256.35Z"/><path d="M460,225.85a2,2,0,0,1-1.41-.56l-2.12-1.84a1.85,1.85,0,0,1-.7-1.84,2.78,2.78,0,0,1,1.13-1.69c2.26-1.13,6.35-2.82,10.87-4.8,4.23-1.84,8.61-3.67,11.29-4.94a4.16,4.16,0,0,1,4.24.42,9.44,9.44,0,0,0,2.26,1.41c7.06-2.26,14.12-5.78,20.89-9.17l.57-.29c6.35-3.1,21.88-13,28.24-17.08a9.92,9.92,0,0,1,10.44,0l1.41.85c3.68,2.4,7.91,5.08,12.43,7.76a2.06,2.06,0,1,1-2.12,3.53c-4.66-2.68-8.89-5.36-12.71-7.9l-1.41-.85a5.37,5.37,0,0,0-5.79,0c-8,5.08-22.3,14.12-28.66,17.22l-.56.29a117.32,117.32,0,0,1-22.17,10.16,2,2,0,0,1-1.55-.14,20.36,20.36,0,0,1-3.67-2.26c-2.68,1.27-7.06,3.11-11.44,4.94-2.82,1.27-5.64,2.4-7.76,3.39a2,2,0,0,1-.14,2.54A1.78,1.78,0,0,1,460,225.85Z"/><path d="M550.06,258.32a2.07,2.07,0,0,1-.85-3.95c4.24-2.12,8.62-4.38,12.85-6.5,14.4-7.34,29.37-15,43.91-22a1.86,1.86,0,0,0,1.13-1.55,2.13,2.13,0,1,1,4.23.56,6.19,6.19,0,0,1-3.53,4.8c-14.54,7.2-29.5,14.69-43.9,22-4.24,2.11-8.62,4.37-12.85,6.49C550.77,258.18,550.34,258.32,550.06,258.32Z"/><path d="M426.52,240.25a2.25,2.25,0,0,1-2.12-1.69,2.09,2.09,0,0,1,1.7-2.4c9.32-1.7,16.09-5.09,23.29-8.62,3-1.55,6.22-3.1,9.46-4.51a2.15,2.15,0,1,1,1.7,3.95c-3.25,1.41-6.36,3-9.32,4.38-7.06,3.53-14.54,7.2-24.43,9C426.8,240.25,426.66,240.25,426.52,240.25Z"/><path d="M553.31,267.5a2.07,2.07,0,0,1-.85-3.95l6.92-3.53c16.09-8.19,30.07-15.25,46.73-23a2.24,2.24,0,0,1,2.82,1,2.12,2.12,0,0,1-1,2.83c-16.66,7.76-30.5,14.82-46.6,23l-6.91,3.53C553.87,267.36,553.59,267.5,553.31,267.5Z"/><path d="M463.37,308.87c-8.19,0-15.25-4.66-22-9.32-2-1.27-4-2.68-6.07-3.95-5.51-3.39-11-6.78-16.24-10.17-7.06-4.52-14.4-9-21.6-13.41a2.16,2.16,0,1,1,2.26-3.67c7.34,4.37,14.68,9,21.74,13.41,5.22,3.39,10.73,6.78,16.24,10.16,2.11,1.28,4.23,2.69,6.21,4.1,9.18,6.21,17.08,11.44,27.67,6.78,8.47-3.67,16.8-8.05,24.85-12.29,9.6-5.08,19.62-10.3,29.93-14.54a2.15,2.15,0,1,1,1.69,3.95c-10.16,4.1-20,9.32-29.64,14.26-8.19,4.24-16.52,8.62-25.14,12.43A23.1,23.1,0,0,1,463.37,308.87Z"/><path d="M556.27,275.83a2.11,2.11,0,0,1-2-1.27,2.17,2.17,0,0,1,1.12-2.82,313.19,313.19,0,0,0,29.37-14.41c6.78-3.67,14-7.34,21-10.73a2.3,2.3,0,0,1,2.82,1,2.12,2.12,0,0,1-1,2.83c-7.06,3.24-14.12,7.06-20.89,10.59-9.6,5.08-19.49,10.3-29.79,14.54C556.84,275.83,556.55,275.83,556.27,275.83Z"/><path d="M463,319.74a20.53,20.53,0,0,1-11.86-3.95c-8.47-5.79-16.94-10.88-25.13-15.68a288.55,288.55,0,0,1-28.8-18.35,2.12,2.12,0,1,1,2.54-3.39c9.17,6.78,18.49,12.28,28.38,18.07,8.33,4.8,16.94,9.89,25.41,15.82,9.18,6.35,16.8,2.25,26.26-3,1.69-1,3.53-2,5.36-2.82,11.44-5.79,25.14-12.57,39-19.63a2.12,2.12,0,1,1,1.84,3.81c-14,7.06-27.53,13.84-39,19.63-1.84.85-3.53,1.83-5.22,2.82C475.8,316.35,469.58,319.74,463,319.74Z"/><path d="M554.58,287.83a2.12,2.12,0,0,1-2-1.41,2,2,0,0,1,1.27-2.68c8.61-3.39,16.66-7.77,25.13-12.29s17.37-9.46,27.11-13.27a2.06,2.06,0,1,1,1.55,3.81c-9.46,3.67-18.21,8.47-26.68,13.13s-16.66,9-25.56,12.57C555.14,287.69,554.86,287.83,554.58,287.83Z"/><path d="M462.38,331.88a13,13,0,0,1-7.06-2c-7.76-5.08-15.81-9.88-23.43-14.68-12.14-7.48-23.44-14.4-34.73-22.17a2.13,2.13,0,1,1,2.4-3.53c11.15,7.63,22.59,14.69,34.59,22,7.62,4.66,15.67,9.6,23.57,14.68,6.08,3.81,15.53-1.83,22.59-5.93a48.6,48.6,0,0,1,5.09-2.82c2.68-1.41,5.36-2.82,8.19-4.24,10.3-5.36,22-11.29,32-16.09a2.16,2.16,0,0,1,2.83,1,2.11,2.11,0,0,1-1,2.82c-9.88,4.66-21.6,10.73-31.91,16-2.82,1.42-5.65,2.83-8.19,4.24-1.41.71-3.1,1.69-4.8,2.68C476.64,327.5,469.16,331.88,462.38,331.88Z"/><path d="M555.28,298.56a2.12,2.12,0,0,1-2-1.27,2.16,2.16,0,0,1,1.13-2.82c8.61-3.67,16.94-8.19,25-12.57,9.46-5.08,19.2-10.31,29.5-14.4a2.06,2.06,0,1,1,1.56,3.81c-10,3.95-19.63,9.18-29,14.12-8.18,4.38-16.66,8.9-25.41,12.71A1.21,1.21,0,0,1,555.28,298.56Z"/><path d="M515.19,318a2.12,2.12,0,0,1-2-1.27,2.24,2.24,0,0,1,1-2.82c1.13-.56,2.82-1.41,4.66-2.26,2.54-1.27,5.08-2.54,6.63-3.11a2.15,2.15,0,0,1,1.7,4c-1.41.56-4,1.83-6.5,3.1-1.83,1-3.67,1.84-4.8,2.4Z"/><path d="M462.38,342.05a24,24,0,0,1-12.56-3.53C434,328.77,419,318.89,404.5,309.29l-7.2-4.8a2.13,2.13,0,1,1,2.4-3.53l7.2,4.8c14.54,9.6,29.51,19.48,45.18,29.09,12.14,7.34,24.56-.43,36.56-7.91l2.4-1.41a2.16,2.16,0,1,1,2.26,3.67l-2.4,1.41C482,336.12,472.27,342.05,462.38,342.05Z"/><path d="M536.79,246.89a2.44,2.44,0,0,1-1.84-1,2.27,2.27,0,0,1,.71-3c2.4-1.41,3.81-2.82,4.38-4.51,1.55-3.82-2.12-8.33-6.22-10.17-9.6-4.38-20.75-5.08-33-2.12a2.1,2.1,0,1,1-1-4.09c13.27-3.25,25.27-2.54,35.72,2.4,6.07,2.82,10.73,9.32,8.33,15.53-1,2.54-3,4.66-6.21,6.63C537.64,246.75,537.21,246.89,536.79,246.89Z"/><path d="M493.87,257.33a96.87,96.87,0,0,1-11-.7c-3.11-.43-6.5-1-9.46-2.83a11,11,0,0,1-5.65-9.17c0-5.23,4.38-8.76,7.62-10.87a2.13,2.13,0,1,1,2.4,3.53c-3.95,2.68-5.79,5.08-5.79,7.48,0,2,1.42,4.09,3.53,5.51s5.09,1.83,7.77,2.25a86.81,86.81,0,0,0,23.44-.28,2.08,2.08,0,1,1,.7,4.1A110.25,110.25,0,0,1,493.87,257.33Z"/><path d="M526.48,329.62a2.68,2.68,0,0,1-1.13-.28,2.43,2.43,0,0,1-1-1.84c.15-9.31.15-12.42.15-15.81s.14-6.49.14-15.25c0-2.4.14-4.94.28-7.34.7-10.59,1.27-20.47-8.19-26.4-3.81-2.4-7.77-4.8-11.58-7.2-2.68-1.7-5.36-3.39-8.19-5.08-6.21-3.82-12.42-7.77-18.49-11.58-6.64-4.1-13.27-8.19-19.91-12.43a2.16,2.16,0,0,1,2.26-3.67c6.64,4.1,13.27,8.33,19.91,12.43,6.21,3.81,12.42,7.62,18.49,11.58,2.69,1.69,5.51,3.38,8.19,5.08,3.81,2.4,7.63,4.8,11.58,7.2,11.72,7.2,10.87,19.48,10.31,30.21-.15,2.4-.29,4.8-.29,7.2-.14,8.62-.14,12-.14,15.25,0,3,0,5.79-.14,12.43l22.59-10.73c.28-4.66,1.27-21,.85-31.49a26.35,26.35,0,0,0-.14-3.25c-.14-6.35-.29-16.09-3.39-20.61-5.65-8.33-16.38-13.84-26.83-19.2-4.37-2.26-8.61-4.38-12.28-6.78l-25.7-15.95a2.16,2.16,0,0,1,2.26-3.67l25.84,16.09a117.53,117.53,0,0,0,12,6.5c10.87,5.5,22,11.29,28.38,20.47,3.81,5.51,3.95,15.53,4.09,22.87a24.18,24.18,0,0,0,.14,3.25c.43,12.42-1,32.89-1,33.18a2.38,2.38,0,0,1-1.27,1.83l-26.83,12.71A3.61,3.61,0,0,1,526.48,329.62Z"/><path d="M552.74,243.92a2.39,2.39,0,0,1-1.83-1,2.24,2.24,0,0,1,.7-3c5.93-3.53,12-6.92,18.22-9.88a9.86,9.86,0,0,1,1.55-7.63,7.51,7.51,0,0,1,2.12-2.12c-3.82-1.83-7.35-4-10.87-6.07a97.34,97.34,0,0,0-16.1-8.33c-.56-.14-1.55-.42-2.4-.56-.85.28-2.82.7-4,1.13a17,17,0,0,1-10.59.14c-.28-.14-.57-.14-.71-.28a4.27,4.27,0,0,0-2.12-.43,4.66,4.66,0,0,0-2,.85l-18.5,10a2.08,2.08,0,1,1-2-3.67l18.49-10a8.66,8.66,0,0,1,3.53-1.27,8.42,8.42,0,0,1,3.81.7c.29.15.43.15.71.29a12.7,12.7,0,0,0,7.9-.14c1.56-.57,4.66-1.28,4.66-1.28.29,0,.57-.14.85,0a20.27,20.27,0,0,1,3.53.85A105.05,105.05,0,0,1,564.6,211a100.36,100.36,0,0,0,15.81,8.33,2.13,2.13,0,0,1,1.28,2.54,2.21,2.21,0,0,1-2.4,1.55,5.11,5.11,0,0,0-4.81,2,5,5,0,0,0-.42,5.22,2.06,2.06,0,0,1,.14,1.55,2,2,0,0,1-1.13,1.27c-6.63,3.25-13.27,6.78-19.62,10.59C553.45,243.78,553.17,243.92,552.74,243.92Z"/><path d="M464.08,353.48a21.53,21.53,0,0,1-10.31-2.82c-4.8-2.68-9.46-5.65-13.55-8.19a2.16,2.16,0,1,1,2.26-3.67c3.95,2.54,8.61,5.5,13.41,8.19,5.93,3.39,11.58,3.1,19.48-1.13,12.14-6.5,24.71-12.71,36.85-18.78,4.38-2.12,8.76-4.38,13.13-6.64a2.05,2.05,0,0,1,2.83,1,2,2,0,0,1-1,2.83c-4.38,2.26-8.76,4.37-13.13,6.63-12.14,6.07-24.57,12.29-36.71,18.78C473.4,351.65,468.88,353.48,464.08,353.48Z"/><path d="M421.72,333.43a2.69,2.69,0,0,1-1-.28,22.54,22.54,0,0,0-3.24-1.55c-11.16-5.65-23.86-11.86-23.86-26.12,0-11.15-.14-17.08-.29-23.44s-.42-13-.42-25.27a2.12,2.12,0,0,1,4.24,0c0,12.14.14,18.78.42,25.13s.28,12.43.28,23.58c0,11.58,11,16.94,21.46,22.31,1.13.56,2.12,1.13,3.25,1.69a2.3,2.3,0,0,1,1,2.82A1.89,1.89,0,0,1,421.72,333.43Z"/><path d="M591.85,292.49a2.13,2.13,0,0,1-2-1.27A2.17,2.17,0,0,1,591,288.4l1.42-.57c6.63-2.82,15.81-6.78,15.81-13.27,0-9.6-.43-15.53-.85-20.9a155.11,155.11,0,0,1,.14-29.36,2.12,2.12,0,0,1,4.24.28,148.87,148.87,0,0,0-.14,28.8c.42,5.37.84,11.44.84,21.18,0,9.32-10.59,13.84-18.35,17.22l-1.41.57A1.82,1.82,0,0,1,591.85,292.49Z"/><path d="M553.73,310.7a2.13,2.13,0,0,1-2-1.41,2.09,2.09,0,0,1,1.13-2.68c4.66-1.84,9.46-4,14.55-6.36a2.12,2.12,0,0,1,1.83,3.82c-5.22,2.4-10,4.51-14.82,6.35C554.3,310.7,554,310.7,553.73,310.7Z"/><path d="M479.18,286.56a13.87,13.87,0,0,1-2.4-.14,19.09,19.09,0,0,1-8.47-3.39,2,2,0,0,1-.84-.28q-7-3.81-13.56-7.2c-15.39-8.33-28.66-15.53-44.19-22.31-5.5-2.4-12.85-8.89-15.11-14.82a19.37,19.37,0,0,1,2.12-17.94,2.24,2.24,0,0,1,3-.56,450.65,450.65,0,0,0,64.1,34.45,2,2,0,0,1,1.12,2.54,22.09,22.09,0,0,0,.43,15.95,16.1,16.1,0,0,0,11.86,9.32c2.82.43,5.93-.28,8.75-.84,11-2.69,20.47-7.2,30.36-12,2.11-1,4.09-2,6.21-3a2.11,2.11,0,0,1,2.82,1,2.15,2.15,0,0,1-1,2.82c-2.11,1-4.23,2-6.21,3-10.16,4.94-19.76,9.6-31.2,12.28A34,34,0,0,1,479.18,286.56Zm-79.91-62a15.52,15.52,0,0,0-.56,12.28c1.83,4.8,8.33,10.45,12.85,12.43,15.81,6.91,29.08,14.12,44.61,22.45l5.51,3h0a26.44,26.44,0,0,1-1.13-17.22A426.58,426.58,0,0,1,399.27,224.58Z"/><path d="M463,298.42a14.68,14.68,0,0,1-6.36-1.55c-10.3-5.51-28.23-15.39-32.61-18.22-3-2-6.07-3.81-9.18-5.5-7.34-4.24-15-8.62-21-15a2.2,2.2,0,0,1-.57-1.83,2.06,2.06,0,0,1,1.27-1.56c4.52-2,9-3.95,13.7-5.64a2.1,2.1,0,1,1,1.41,3.95c-3.53,1.41-7.06,2.82-10.59,4.38,5.23,4.8,11.44,8.33,17.93,12.14,3.11,1.83,6.36,3.67,9.32,5.64,4.52,3,24.14,13.56,32.33,18.08a9.29,9.29,0,0,0,8.61,0c2.12-1.13,7.06-3.53,12.71-6.22,8.33-4.09,18.78-9.17,21.46-10.73a2.16,2.16,0,1,1,2.26,3.68c-2.82,1.69-12.85,6.63-21.74,10.87-5.37,2.68-10.45,5.08-12.57,6.21A16.92,16.92,0,0,1,463,298.42Z"/><path d="M435,245.19a2.24,2.24,0,0,1-2.11-1.69,2.19,2.19,0,0,1,1.69-2.54,55.43,55.43,0,0,0,14-4.94,2.08,2.08,0,1,1,2,3.67,64.24,64.24,0,0,1-15.1,5.36C435.28,245.05,435.13,245.19,435,245.19Z"/><path d="M480.46,277.1a13.25,13.25,0,0,1-6.92-1.69,2.11,2.11,0,0,1-.85-2.83,2.09,2.09,0,0,1,2.82-.84c3.11,1.69,7.06,1.12,10.31.42a62.58,62.58,0,0,0,22.45-9.74,2.13,2.13,0,0,1,2.4,3.53,68.32,68.32,0,0,1-24,10.3A28.38,28.38,0,0,1,480.46,277.1Z"/><path d="M456.31,285.15a2.69,2.69,0,0,1-1-.28c-14.4-7.06-28.66-14.83-42.49-23.16a1.89,1.89,0,0,1-1-2,2,2,0,0,1,1.27-1.83,4.74,4.74,0,0,0,1.27-.57,7.67,7.67,0,0,0,2.68-1.41h0v-.28a2.11,2.11,0,0,1,4.1-1c.7,2.83-.71,4.38-2.54,5.37,12.28,7.34,25,14.12,37.83,20.47,2.55-.85,8.05-2.54,12.43-2a2.14,2.14,0,0,1-.57,4.24c-3.1-.43-7.76.84-11.15,2.12A1,1,0,0,1,456.31,285.15Z"/><path class="cls-3" d="M567.14,195.92c1.7,17.51,23.3,30.64,41.65,20.75,14.55-7.76,17.37-26.82,7.63-39.95-8-10.73-25-13.84-36.29-7.34C570.81,174.88,566.15,185.05,567.14,195.92Z"/><path class="cls-2" d="M590.44,205.24a1.61,1.61,0,0,1-1.41-.57,37.76,37.76,0,0,1-6.22-7.9,2.16,2.16,0,0,1,3.68-2.26,35.16,35.16,0,0,0,4,5.36l13.13-16.38a2.06,2.06,0,0,1,3-.28,2.08,2.08,0,0,1,.29,3l-14.69,18.35a2.35,2.35,0,0,1-1.69.71Z"/></g></g></svg>