<svg xmlns="http://www.w3.org/2000/svg" viewBox="0 0 726.76 555.06"><defs><style>.cls-1{fill:#85e8c7;}.cls-2{fill:#fff;}</style></defs><g id="Layer_2" data-name="Layer 2"><g id="Layer_3" data-name="Layer 3"><path class="cls-1" d="M72.8,417.69c-9.72,0-24.13-1-36.52-10.74-25.13-20.14-24.46-56.06-24.13-82.58,0-6.71.34-13.09,0-18.46-2-30.88-4-65.11-6-98.34-1.67-33.23-3.68-67.47-6-98.35-1.67-25.51,20.1-48,48.58-50.35l35.52-2.68c72-5.37,146.42-10.74,219.46-15.78,48.58-3.36,92.48-6.38,133.69-9.06,4-.34,8.71-.67,13.74-1.34a309.49,309.49,0,0,1,31.49-2c25.13,0,55.29,7.39,58,41.62,4,56.39,8,117.15,12.06,176.56l6,89c1.68,22.82-14.07,41.62-40.88,49a123.54,123.54,0,0,1-24.79,4c-5.36.33-10.39.67-13.74.67h-2c-38.2,1.34-79.41,3.36-130,7.05-53.27,4-104.87,8.05-162.17,12.42l-17.76,1.34-63.32,5-9,1A120.67,120.67,0,0,1,72.8,417.69Z"/><path class="cls-2" d="M32.59,122c-1-10.74-1-23.49,7.71-29.87,4.35-3,9.71-3.69,15.07-4q196.52-19.12,394-29.87c11.73-.67,25.13-.67,33.17,7.72,6.37,6.71,7.71,16.78,8.71,25.85,8,71.15,12.4,143,13.74,214.81.34,20.82,7.37,33.57-10.39,40.95-10.05,4-25.46,3-36.18,3.7C386.08,357.6,313.7,361.3,241.33,366c-8.38.67-17.09,1-25.46,1.67-23.79,2-47.58,3.7-71.71,5.71-31.83,2.69-62.65,9.4-93.81,11.41,2.34-15.77,0-31.55-.34-47.33-.33-10.06-1-22.82-1.67-33.56C43,246.5,37.62,179,32.59,122Z"/><rect class="cls-1" x="31.91" y="131.37" width="485.85" height="53.71" transform="translate(-10.56 19.96) rotate(-4.08)"/><path d="M500.33,360.29a5.1,5.1,0,0,1-5-4.7c-.33-2.69,1.68-5.37,4.36-5.37a57.68,57.68,0,0,0,12.73-2.35c12.06-3.36,11.73-8.06,11.73-9.73-2.68-37.26-6.37-77.2-9.72-115.8s-7-78.21-9.71-115.47c-.34-2.68,2-5,4.69-5.37s5,2,5.36,4.7c2.68,37.26,6.36,76.86,9.71,115.13,3.35,38.6,7,78.54,9.72,115.8.34,6.71-2.34,15.77-19.1,20.14a76,76,0,0,1-14.41,2.35C500.66,360.29,500.66,360.29,500.33,360.29Z"/><path d="M78.16,388.48c-34.51,0-35.52-16.44-36.86-40.61a81.43,81.43,0,0,0-.67-8.73L24.21,106.87c-.67-10.4,8.38-19.47,20.11-20.14L184,76.66C261.1,71,341.18,65.25,419.58,59.88c2.68-.34,5,2,5.36,4.7s-2,5-4.69,5.37C341.85,75.32,261.77,81,184.71,86.73L45,96.8c-6,.34-11.06,4.7-10.72,9.4L50.68,338.47c.34,3,.34,6,.67,8.73,1.34,25.17,1.68,31.89,29.15,31.21,28.48-.67,57.63-3.35,85.78-6,13.4-1.34,27.14-2.68,40.88-3.69,90.46-7.38,171.88-13.43,254-16.78A5,5,0,0,1,461.8,362c-81.76,3-163.17,9.4-253.64,16.78-13.4,1-27.14,2.35-40.54,3.69-28.48,2.69-57.63,5.71-86.45,6.38A10.17,10.17,0,0,0,78.16,388.48Z"/><ellipse class="cls-1" cx="451.41" cy="290.47" rx="30.83" ry="30.88"/><path d="M413.55,325.05a31.93,31.93,0,1,1,31.83-34.24h0a32.16,32.16,0,0,1-29.48,34.24Zm0-53.71h-1.67c-12.07,1-21.11,11.41-20.11,23.16,1,12.08,11.39,21.15,23.12,20.14,12.06-1,21.11-11.41,20.1-23.16C434.66,280.07,424.94,271.34,413.55,271.34Z"/><path d="M96.59,302.56a5,5,0,0,1-5-4.37,5,5,0,0,1,4.36-5.7c33.17-4.7,69.69-8.39,104.87-10.07a5,5,0,0,1,.67,10.07c-35.18,1.68-71,5-103.87,9.73A1.21,1.21,0,0,1,96.59,302.56Z"/><path d="M98.93,336.46a4.87,4.87,0,0,1-5-4.7,5.41,5.41,0,0,1,4.69-5.37c26.13-1.34,52.94-3.69,78.74-6,27.14-2.35,55.28-5,83.42-6.05a5.2,5.2,0,0,1,5.37,4.7,5.41,5.41,0,0,1-4.7,5.37c-27.81,1-56,3.7-82.75,6.05-26.14,2.68-52.94,5-79.75,6Z"/><path d="M32.26,155.54a5.1,5.1,0,0,1-5-4.7c-.33-2.68,2-5,4.69-5.37l477.79-34.24c2.68-.33,5,2,5.36,4.7s-2,5-4.69,5.37L32.59,155.54Z"/><path d="M38.29,209.92a5.11,5.11,0,0,1-5-4.7c-.33-2.69,2-5,4.69-5.37L502,165.61c2.68-.34,5,2,5.36,4.7s-2,5-4.69,5.37L38.62,209.92Z"/><path d="M69.11,422.39a81.54,81.54,0,0,1-46.24-14.1,5.07,5.07,0,0,1,5.7-8.39A74,74,0,0,0,87.21,410a5,5,0,0,1,2.34,9.73A85.37,85.37,0,0,1,69.11,422.39Z"/><path d="M54.7,447.56a74.26,74.26,0,0,1-19.09-2.35A5,5,0,0,1,38,435.48a68.9,68.9,0,0,0,24.8,1.67,5.08,5.08,0,0,1,1.34,10.07C61.07,447.22,58.06,447.56,54.7,447.56Z"/><path d="M522.11,39.07a7.94,7.94,0,0,1-2.68-.67,73,73,0,0,0-38.2-10.74,5.15,5.15,0,0,1-5-5,5.15,5.15,0,0,1,5-5h0a85.63,85.63,0,0,1,43.22,12.08c2.35,1.34,3,4.36,1.68,7A4.66,4.66,0,0,1,522.11,39.07Z"/><path d="M525.12,17.92a6.1,6.1,0,0,1-2.34-.67l-11.06-5.71c-1.34-.33-2.68-.33-4-.67A5,5,0,0,1,503,5.5,4.59,4.59,0,0,1,507.7.8a5.33,5.33,0,0,1,5-.33l2.68,1.34a37.11,37.11,0,0,1,13.06,6.71,5.15,5.15,0,0,1,1,6.72A4.6,4.6,0,0,1,525.12,17.92Z"/><path class="cls-1" d="M589.74,545.37c10.42,3.61,20.71,7.48,31.4,8.55a204,204,0,0,0,47.83-.53c16.43-2.14,52.51-4.68,40.62-30.73a15.59,15.59,0,0,0,13.22-10.56,16,16,0,0,0-4.27-16.43c5.88-2.54,9.08-9.49,8-15.77-1.21-6.81-6.95-7.88-9.36-12.83s.4-11.49-2.54-17.23c-4.14-7.75-13.49-10.16-18.83-10.82a46.75,46.75,0,0,0-7.75-.4c-4.55.13-9,.66-13.23,1.2l-2.94.4c-1.07.13-2,.13-2.94.27a16.81,16.81,0,0,1-8-1.61,4.89,4.89,0,0,1,.54-1.2,41.63,41.63,0,0,0,1.6-4.28,66.22,66.22,0,0,0,2.14-17.23c0-2.27-.8-22.71-12.16-32.2a18.66,18.66,0,0,0-12.16-4.41,19.8,19.8,0,0,0-3.87.4,13.92,13.92,0,0,0-10.16,7.48,17.77,17.77,0,0,0-1.47,8.42V396c.54,20.85-7.21,36.48-14.7,44.1a27.71,27.71,0,0,1-18.57,8.81c-12.42-.93-25.52-1.07-37.94-1.87-2.94-.26-6.15-.26-8.42,1.61-1.87,1.6-2.67,4.27-3.21,6.81-2.8,12.16-5.61,24.32-6.14,36.74-.54,13.36,1.73,30.87,8.68,42.49,5.48,9.35,8.55,4.41,18.31,4.28C572.23,539.09,581.19,542.43,589.74,545.37Z"/><path class="cls-2" d="M629.42,450.77c11-11.35,16.84-28.19,16.3-43.95-.13-3.61-1.34-14.57-5.48-16.3-4.41-1.74-7.08,3.07-7.35,7.34-.4,8.29.94,12.3-2.67,20.45a177,177,0,0,1-8.82,17.37c-3.6,6.41-8.68,12.29-15.09,16-14.57,8.42-30.87,6-47.17,8.55,1.34,1.6,3.61,2.27,5.75,2.67C585.2,466.81,613.79,466.94,629.42,450.77Z"/><path d="M551.12,542.43a2.18,2.18,0,0,1-1.47-.67c-9.21-9.35-12.29-21.91-13.36-30.73-1.73-14.29-3.2-35.27,2.94-51.7a2,2,0,1,1,3.74,1.33c-5.87,15.63-4.41,35.81-2.67,49.84.94,8.28,3.88,19.77,12.29,28.32a1.93,1.93,0,0,1,0,2.81A1.54,1.54,0,0,1,551.12,542.43Z"/><path class="cls-2" d="M695.69,492.46c3.34.13,7.22-.8,10.56.27,5.74,1.87,2.94,4.27-1.61,4.81s-8.95,1.2-13.49,1.74c-5.08.53-15.37,2.67-19.64-.81C661.49,490.72,690.61,492.19,695.69,492.46Z"/><path class="cls-2" d="M695.69,471.08c3.34.14,7.22-.8,10.56.27,5.74,1.87,2.94,4.28-1.61,4.81s-8.95,1.2-13.49,1.74c-5.08.53-15.37,2.67-19.64-.8C661.49,469.35,690.61,470.82,695.69,471.08Z"/><path class="cls-2" d="M688.88,514.77c4.54,0,9.62.67,12.16,4.41-1.87-2.8-23.52,5.61-27.66,1.61C666.83,514.37,685.67,514.77,688.88,514.77Z"/><path class="cls-2" d="M686.21,469.35c4.54,0,9.62.66,12.15,4.41-1.87-2.81-23.51,5.61-27.65,1.6C664.16,469,683,469.35,686.21,469.35Z"/><path d="M642,544.57c-4.14,0-8.42-.13-12.69-.4-12.56-.8-22.58-5.08-33.41-10.16-10.15-4.67-20.17-5.87-34.6-4a2,2,0,0,1-.54-4c15-2,26.06-.67,36.75,4.41s20,9,31.93,9.75c19,1.34,37.55-.67,51.71-2.54a15.1,15.1,0,0,1,2.54-.27c6-.66,13-1.47,15.76-6.54a7.9,7.9,0,0,0,.4-6.95,8.61,8.61,0,0,0-5.47-5.08c-.27-.13-.54-.13-.67-.26-3.48.13-7,0-10-.14s-5.62-.13-7.49-.13h-.13a1.94,1.94,0,0,1-2-1.87,2.16,2.16,0,0,1,1.87-2.14h0a36.17,36.17,0,0,0,3.74-.27c4.81-.4,9.89-.8,14.56.4,9.22-.26,18.31-1.73,18.84-8.28a7.2,7.2,0,0,0-2.14-6.28c-2.94-2.94-8.68-4.68-16.83-5.08h-4.54q-6,0-12,.4c-.53,0-1.2.14-1.74.14s-.66.13-.93.13h-.27a2,2,0,0,1-2-1.87,2,2,0,0,1,1.73-2.14,20.55,20.55,0,0,1,2.81-.27,115.88,115.88,0,0,1,16.7-.53,102.48,102.48,0,0,0,12.83-.93c7.48-1.21,11-4.41,10-9.62-1.2-7.62-7.08-8.16-15.1-8l-8.82.13c-6.28.14-12.56.27-18.84.27h0a2.05,2.05,0,0,1-2-2,2,2,0,0,1,2-2L685,468c4.81-.13,9.76-.4,14.57-.4a8,8,0,0,0,8-7.08c.67-4.14-1.33-9.22-6.14-10.82-6.68-2.14-14.17-1.47-21.38-.81l-5.08.4c-.93,0-2.14.27-3.74.41-6.68.93-15.9,2.13-18.84-2.28-2.54-3.74-.67-10,.8-14.56.27-.93.54-1.74.67-2.27a56.2,56.2,0,0,0,1.87-14.43c-.13-7.08-2.54-19.37-8.68-24.32a9.44,9.44,0,0,0-8-1.87,5,5,0,0,0-3.34,2,9.18,9.18,0,0,0-.4,3.47c.4,15.9-4.14,37.81-18.31,51.84a39.16,39.16,0,0,1-30.59,11.89c-3.74-.13-8.69,0-13.36,0-3.21,0-6.15.14-8.69.14a2,2,0,0,1,0-4h0c2.41,0,5.48,0,8.69-.14,4.81-.13,9.88-.13,13.62,0a35.65,35.65,0,0,0,27.66-10.82c11-10.82,17.64-29.93,17.1-48.77a11.42,11.42,0,0,1,.81-5.48,8.14,8.14,0,0,1,6-4.14,12.89,12.89,0,0,1,11.22,2.68c7.75,6.14,10,20.57,10.16,27.39a54.34,54.34,0,0,1-2,15.49c-.13.67-.4,1.61-.67,2.54-1.06,3.34-2.8,8.95-1.33,11.09,1.6,2.41,10.69,1.21,15.1.54,1.6-.27,2.94-.4,4-.54l4.95-.4c7.61-.67,15.5-1.47,23,.94,7,2.27,9.75,9.35,9,15.23a13,13,0,0,1-3.34,7.08c5.61.53,11.36,2.94,12.69,11.22,1.21,7.35-3.2,12.3-12.42,14a15.41,15.41,0,0,1,5.34,3.48,11.13,11.13,0,0,1,3.21,9.48c-.8,7.62-7.88,10.42-16.3,11.49a13.23,13.23,0,0,1,2.8,4.28,12.11,12.11,0,0,1-.66,10.29c-3.74,6.94-12.16,7.88-18.84,8.68-.8.14-1.61.14-2.41.27A243.38,243.38,0,0,1,642,544.57Z"/><path d="M615.66,401.47a2.13,2.13,0,0,1-1.2-.4,1.94,1.94,0,0,1-.4-2.8,18.9,18.9,0,0,0,2.8-15.37,2,2,0,1,1,3.88-.94,22.2,22.2,0,0,1-3.48,18.71A2.1,2.1,0,0,1,615.66,401.47Z"/><path d="M607.37,393.32a2,2,0,0,1-1.47-.53,2,2,0,0,1,0-2.81,7.24,7.24,0,0,0,2-6.28,2,2,0,1,1,3.87-.67,11.32,11.32,0,0,1-3.07,9.89A3.22,3.22,0,0,1,607.37,393.32Z"/><path d="M566.36,471.35a116.63,116.63,0,0,1-18-1.47,2,2,0,1,1,.53-4,112.18,112.18,0,0,0,41.16-1.2,2,2,0,0,1,2.4,1.6,2,2,0,0,1-1.6,2.41A116.9,116.9,0,0,1,566.36,471.35Z"/></g></g></svg>