<svg id="Layer_1" data-name="Layer 1" xmlns="http://www.w3.org/2000/svg" viewBox="0 0 57.65 69.1"><defs><style>.cls-1{fill:#7749ff;}</style></defs><title>5e78c4c0e58e25193b3f7ab</title><path class="cls-1" d="M28.39,33.28a16.1,16.1,0,0,0,11.77-4.88A16.1,16.1,0,0,0,45,16.64,16.11,16.11,0,0,0,40.15,4.87,16.11,16.11,0,0,0,28.39,0,16.1,16.1,0,0,0,16.62,4.88a16.1,16.1,0,0,0-4.88,11.77,16.1,16.1,0,0,0,4.88,11.77A16.11,16.11,0,0,0,28.39,33.28Z"/><path class="cls-1" d="M57.51,53.13a41.11,41.11,0,0,0-.56-4.37,34.4,34.4,0,0,0-1.07-4.39,21.68,21.68,0,0,0-1.8-4.09,15.45,15.45,0,0,0-2.72-3.55,12,12,0,0,0-3.91-2.46,13.51,13.51,0,0,0-5-.9,5.07,5.07,0,0,0-2.7,1.15l-2.82,1.82a16.15,16.15,0,0,1-3.65,1.61,14.16,14.16,0,0,1-8.92,0,16.11,16.11,0,0,1-3.64-1.61L17.9,34.52a5.06,5.06,0,0,0-2.7-1.15,13.49,13.49,0,0,0-5,.9A12,12,0,0,0,6.3,36.74a15.45,15.45,0,0,0-2.72,3.55,21.72,21.72,0,0,0-1.8,4.09A34.48,34.48,0,0,0,.7,48.77a41,41,0,0,0-.56,4.37C0,54.46,0,55.83,0,57.21a11.47,11.47,0,0,0,3.41,8.68,12.27,12.27,0,0,0,8.78,3.2H45.46a12.26,12.26,0,0,0,8.78-3.2,11.47,11.47,0,0,0,3.41-8.68C57.65,55.82,57.6,54.45,57.51,53.13Z"/></svg>