<?xml version="1.0" encoding="utf-8"?>
<!-- Generator: Adobe Illustrator 22.1.0, SVG Export Plug-In . SVG Version: 6.00 Build 0)  -->
<svg version="1.1" id="Layer_1" xmlns="http://www.w3.org/2000/svg" xmlns:xlink="http://www.w3.org/1999/xlink" x="0px" y="0px"
	 width="180px" height="180px" viewBox="0 0 180 180" style="enable-background:new 0 0 180 180;" xml:space="preserve">
<style type="text/css">
	.st0{fill:#BDB8FF;}
	.st1{fill:#FFFFFF;}
	.st2{fill:#7849FF;}
	.st3{fill:#85E8C7;}
	.st4{fill:#00D28F;}
	.st5{fill:none;stroke:#000000;stroke-width:3;stroke-linecap:round;stroke-linejoin:round;stroke-miterlimit:10;}
</style>
<g>
	<path class="st3" d="M33.8,18.7c-4.1,1.3-7.1,3.9-7.8,9c-2.2,17-1.2,34.6-0.1,51.7c1.6,25.3,0.4,54-7.4,78.1
		c-0.8,2.6-1.7,5.6,0,7.7c0.9,1.2,2.4,2.1,3.9,2.2c22.8,1.8,45.7,2.4,68.5,2.2c11.7-0.1,23.5-0.5,35.2-1.1
		c5.8-0.3,11.6-0.6,17.4-1.1c6.7-0.5,6.7,0.2,9-5.1c3.4-7.9,1.7-21.4,1.6-29.9c-0.1-11.1-0.9-22.1-2-33.1c-2-21-5.1-41.8-7.1-62.8
		c-1.8-19.2-25.4-19.5-39.9-18.8c-16.4,0.8-32.8-0.1-49.2,0.4C49.8,18.1,40.4,16.6,33.8,18.7z"/>
</g>
<g>
	<path class="st1" d="M41.4,24.7c-2.1,0.1-4.3,0.2-5.8,1.7c-1.3,1.2-1.7,3.1-2,4.9c-2.8,16.5-1,33.4-0.8,50.2
		c0.3,24.6-2.7,49.2-7.1,73.4c-0.2,1-0.3,2.2,0.4,3c0.6,0.7,1.6,0.8,2.5,0.9c32.4,2.7,65.4,5.1,97.7,1.5c0.6-0.1,3.7-5.9,6-6
		c5.3-0.3,11,1.8,12,1c2.2-1.6,1.5-5.3,2-8c3.1-17.4-1.3-38.4-3-56c-0.6-6-1.9-12-2-18c-0.2-17.8,4.2-45.5-22.2-49.3
		c-10.1-1.5-21.5,0.1-31.6,0C71.9,23.9,56.6,24.1,41.4,24.7z"/>
</g>
<g>
	<g>
		<path d="M82.7,93.7c-0.8,0-1.5-0.1-2.3-0.2c-4.1-0.9-7.5-4.2-8.5-8.2c-0.2-0.8,0.3-1.6,1.1-1.8c0.8-0.2,1.6,0.3,1.8,1.1
			c0.8,3,3.3,5.4,6.3,6.1c2.8,0.6,6.3-0.5,8.4-2.6c1-1,2.2-2.7,1.7-5c-0.6-3-4.2-6.4-9.7-9.4c-5.2-2.8-8-6.4-7.8-10.3
			c0.3-5.7,5.3-8.2,9.9-8.1c5.1,0.1,10.3,3.3,10.4,9.2c0,0.8-0.6,1.5-1.5,1.5c-0.8,0-1.5-0.6-1.5-1.5c-0.1-4.2-3.9-6.2-7.5-6.2
			c-3.3,0-6.7,1.6-6.8,5.3c-0.2,3.6,3.8,6.2,6.2,7.5c4.5,2.4,10.2,6.3,11.2,11.4c0.6,2.8-0.3,5.6-2.5,7.8
			C89.4,92.4,85.9,93.7,82.7,93.7z"/>
	</g>
	<g>
		<path d="M81.3,58c-0.8,0-1.5-0.7-1.5-1.5l-0.1-5.8c0-0.8,0.6-1.5,1.5-1.5c0,0,0,0,0,0c0.8,0,1.5,0.7,1.5,1.5l0.1,5.8
			C82.8,57.3,82.2,58,81.3,58C81.3,58,81.3,58,81.3,58z"/>
	</g>
	<g>
		<path d="M83.6,99.2c-0.8,0-1.4-0.6-1.5-1.4l-0.5-5.7c-0.1-0.8,0.5-1.6,1.4-1.6c0.8-0.1,1.6,0.5,1.6,1.4l0.5,5.7
			c0.1,0.8-0.5,1.6-1.4,1.6C83.7,99.2,83.7,99.2,83.6,99.2z"/>
	</g>
</g>
<g>
	<path d="M125.9,161.7l-68.5,0c-0.8,0-1.5-0.7-1.5-1.5c0-0.8,0.7-1.5,1.5-1.5l68.5,0c1.7,0,3.2-1.2,3.6-2.9
		c2.1-10.1,7.1-36.6,7.1-64c0-11.4-0.1-23.6-0.3-36.4c0-0.8,0.6-1.5,1.5-1.5c0,0,0,0,0,0c0.8,0,1.5,0.7,1.5,1.5
		c0.2,12.8,0.3,25.1,0.3,36.5c0,27.7-5,54.4-7.1,64.6C131.8,159.5,129,161.7,125.9,161.7z"/>
</g>
<g>
	<path d="M28.4,161.8c-1.3,0-2.5-0.6-3.3-1.5c-0.8-1-1.1-2.3-0.9-3.5c3.6-19.3,7.4-41.7,7.4-64c0-20.7-0.6-49.7-0.9-61.2
		c0-2.1,0.7-4,2.2-5.5c1.5-1.5,3.4-2.3,5.5-2.3h70.2c0.8,0,1.5,0.7,1.5,1.5s-0.7,1.5-1.5,1.5H38.4c-1.3,0-2.5,0.5-3.3,1.4
		c-0.9,0.9-1.4,2.1-1.3,3.4C34,43,34.5,72,34.5,92.7c0,22.5-3.8,45.1-7.4,64.5c-0.1,0.5,0.1,0.9,0.3,1s0.5,0.5,1,0.5l11.7,0
		c0.8,0,1.5,0.7,1.5,1.5c0,0.8-0.7,1.5-1.5,1.5L28.4,161.8z"/>
</g>
<g>
	<path d="M82.8,127.1H41.5c-0.8,0-1.5-0.7-1.5-1.5s0.7-1.5,1.5-1.5h41.3c0.8,0,1.5,0.7,1.5,1.5S83.7,127.1,82.8,127.1z"/>
</g>
<g>
	<path d="M65.5,139.2C65.5,139.2,65.5,139.2,65.5,139.2l-26.4-0.2c-0.8,0-1.5-0.7-1.5-1.5c0-0.8,0.6-1.5,1.5-1.5l26.4,0.2
		c0.8,0,1.5,0.7,1.5,1.5C67,138.6,66.4,139.2,65.5,139.2z"/>
</g>
<g>
	<path d="M121.5,127.2h-15c-0.8,0-1.5-0.7-1.5-1.5s0.7-1.5,1.5-1.5h15c0.8,0,1.5,0.7,1.5,1.5S122.4,127.2,121.5,127.2z"/>
</g>
<g>
	<path d="M119.5,140h-15c-0.8,0-1.5-0.7-1.5-1.5s0.7-1.5,1.5-1.5h15c0.8,0,1.5,0.7,1.5,1.5S120.4,140,119.5,140z"/>
</g>
<g>
	<g>
		<path class="st4" d="M119.1,30.4c1.2,12.4,16.5,21.7,29.5,14.7c10.3-5.5,12.3-19,5.4-28.3c-5.7-7.6-17.7-9.8-25.7-5.2
			C121.7,15.5,118.4,22.7,119.1,30.4z"/>
	</g>
	<g>
		<path class="st1" d="M135.6,37c-0.4,0-0.8-0.1-1-0.4c-1.7-1.7-3.2-3.5-4.4-5.6c-0.4-0.7-0.2-1.6,0.5-2.1c0.7-0.4,1.6-0.2,2.1,0.5
			c0.8,1.3,1.7,2.6,2.8,3.8l9.3-11.6c0.5-0.6,1.5-0.8,2.1-0.2c0.6,0.5,0.8,1.5,0.2,2.1l-10.4,13C136.5,36.8,136.1,37,135.6,37
			C135.7,37,135.6,37,135.6,37z"/>
	</g>
</g>
<g>
	<path d="M131.7,157.3c-0.8,0-1.5-0.7-1.5-1.5c0-0.8,0.6-1.5,1.5-1.5c1.8,0,3.3-0.1,4.9-0.1c1.5,0,3.1-0.1,4.9-0.1
		c0.9,0,1.7-0.1,2.2-0.4c0.7-0.5,0.9-1.8,1-3c1.9-25-1.3-47.9-4.7-72.1l-3.3-23.7c-0.1-0.8,0.5-1.6,1.3-1.7c0.8-0.1,1.6,0.5,1.7,1.3
		l3.3,23.7c3.4,24.4,6.6,47.4,4.7,72.8c-0.1,1.3-0.3,3.9-2.2,5.3c-1.3,0.9-2.7,0.9-3.8,0.9c-1.8,0-3.3,0.1-4.9,0.1
		C135.1,157.2,133.5,157.2,131.7,157.3C131.7,157.3,131.7,157.3,131.7,157.3z"/>
</g>
</svg>
