<?xml version="1.0" encoding="utf-8"?>
<!-- Generator: Adobe Illustrator 22.1.0, SVG Export Plug-In . SVG Version: 6.00 Build 0)  -->
<svg version="1.1" id="Layer_1" xmlns="http://www.w3.org/2000/svg" xmlns:xlink="http://www.w3.org/1999/xlink" x="0px" y="0px"
	 width="180px" height="180px" viewBox="0 0 180 180" style="enable-background:new 0 0 180 180;" xml:space="preserve">
<style type="text/css">
	.st0{fill:#BDB8FF;}
	.st1{fill:#FFFFFF;}
	.st2{fill:#7849FF;}
	.st3{fill:#85E8C7;}
	.st4{fill:#00D28F;}
	.st5{fill:none;stroke:#000000;stroke-width:3;stroke-linecap:round;stroke-linejoin:round;stroke-miterlimit:10;}
</style>
<g>
	<path class="st0" d="M118,171.6c-5.5-1.6-8.5-7.5-12.5-16.4c-0.7-1.6-1.6-3.5-2-4.2c-2.4-3.9-4-10-7.9-12.7c-4.2-3-9.2,8.6-10.3,12
		c-0.9,2.8,1.3,8.4-2.2,10.1c-2.2,2.1-5.5,3-8.4,3.5c-6.2,1-12.9,0.6-19-0.8c-4.5-1.1-8.9-2.4-13.4-3.6c-4.6-1.2-9.2-3.1-9.8-8.4
		c-0.1-0.7-0.2-1.4-0.2-2.1l0-0.1c-0.5-4.8-1-9.2-2.7-12.7l-6.9-13.8c-1.4-2.7-2.9-5.8-3.8-9.4c-0.8-3.1-1-6-1.1-8.9l-1.3-22.4
		c-0.1-2.2-0.3-5.4,1.1-8.7c1.8-4,5.8-6.7,10-6.7c1,0,1.9,0.1,2.8,0.4c0.4,0.1,0.7,0.2,1.1,0.4l0.9-11c0.1-1,0.1-2.7,0.1-4.3
		c0-3.2,0-6.8,0.5-10.4c0.9-6.1,3.2-10.3,7-12.8c1.9-1.2,4.6-1.8,6.9-2c0.1-0.2,0.2-0.4,0.3-0.5c2.2-3.3,5.6-5.5,9.4-5.9
		c0.5-0.1,1-0.1,1.4-0.1c3.6,0,7.1,1.6,9.6,4.3c0.6,0.6,1.2,1.4,1.6,2.1c4.4,1,8.2,4.2,10,8.5c0.6,1.5,1,3.1,1.2,4.9
		c1.7-2.9,4.6-5.3,8.2-5.8c-0.1-1.3,0-3,0.8-4.9c1.5-3.6,5.2-5.9,9.4-5.9c1.1,0,2.2,0.2,3.3,0.5c3.2,1,5.4,3.3,6.9,5.1
		c0.1,0.2,0.3,0.3,0.4,0.5c2.2-1.4,4.2-1.8,5.7-1.8c6.5,0,10.8,6.2,12.6,12c3.2,10.1,6.8,20.2,10.7,30.1c0.6-1.5,1.3-3.1,2.2-4.5
		c1.8-2.7,5.3-5.6,9.7-5.6c2.2,0,4.2,0.7,5.9,2.1c2.9,2.4,3.5,5.7,3.7,7.2c1.3,7.9,2.6,16,2.1,24.5c-0.5,7.1-2.2,13.7-3.9,20.2
		c-0.8,3.1-1.6,6.2-2.2,9.3c-0.8,3.8-1.1,7.7-0.8,11.5c0,0.6,0.6,2.5,0.8,3.5c1,3.8,2.1,7.8,1.1,11.3c-1,3.6-18.4,6.7-29,11.8
		C120.3,164.9,118.5,171.7,118,171.6z"/>
</g>
<g>
	<path class="st1" d="M63.5,139.1c-0.3,0.7-0.6,1.4-0.5,2.1c0.1,0.6,0.6,1.2,1,1.6c3.7,3.6,9.9,4.1,14.6,1.7c4.7-2.3,7.9-7,9.4-11.9
		c1.5-5,1.5-10.3,1-15.5c-0.2-2.3-0.8-4.9-2.7-6.2C76.3,104.4,66.1,133.3,63.5,139.1z"/>
</g>
<g>
	<path class="st1" d="M103.3,94.6c0.3,1.8,0.6,3.7-0.1,5.2c-0.7,1.6-2.9,2.5-4,1.2c-1-4.6-1.9-9.2-2.9-13.7c-0.5-2.5-1.1-5-1.6-7.4
		c-0.6-2.9-1.2-5.8-1.9-8.7c-1.2-5.3-6.6-15.4-5.1-20.8c2.9-10.5,8.5,15.5,9.4,18.8C99.3,77.6,101.8,86.1,103.3,94.6z"/>
</g>
<g>
	<path class="st1" d="M113.3,83.6c0.3,1.8,0.6,3.7-0.1,5.2c-0.7,1.6-2.9,2.5-4,1.2c-1-4.6-1.9-9.2-2.9-13.7c-0.5-2.5-1.1-5-1.6-7.4
		c-0.6-2.9-1.2-5.8-1.9-8.7c-1.2-5.3-6.6-15.4-5.1-20.8c2.9-10.5,8.5,15.5,9.4,18.8C109.3,66.6,111.8,75.1,113.3,83.6z"/>
</g>
<g>
	<path class="st1" d="M125.4,79.2c0.2,1.3,0.4,2.7-0.4,3.9c-0.8,1.1-3,1.7-4.1,0.6c-0.8-3.5-1.5-6.9-2.3-10.4
		c-0.4-1.9-0.8-3.7-1.2-5.6c-0.5-2.2-1-4.4-1.5-6.6c-1-4-5.9-11.9-4.1-15.7c3.4-7.6,7.8,12,8.5,14.6
		C122.2,66.3,124.3,72.7,125.4,79.2z"/>
</g>
<g>
	<path class="st1" d="M41,41.2c0.6-3.8,3-6,5.2-2.3c2,3.3-0.1,13.3-0.6,16.9c-0.6,4.2-2.1,7.5-2,12.1c0,1.9,2.3,28.6-2.4,27
		c-1.6-0.6-2.6-2.5-2.8-4.5c-0.7-8.2,0.9-17,1.3-25.3C40.2,57.7,39.7,48.9,41,41.2z"/>
</g>
<g>
	<path class="st1" d="M86.5,83.9c5.4,24.4,21.6,44.8,31.7,67.6c0.8,1.9,0.6,5.2-1.4,4.7c-0.7-0.2-1.2-0.9-1.6-1.5
		c-4.2-6.8-8.4-13.7-12.6-20.5c-2-3.3-4-6.6-5.7-10c-1.9-4-3.3-8.2-4.7-12.3c-2.7-7.9-5.3-15.8-8-23.7c-1.4-4-5.3-11.6-1.3-15.2
		C85.3,75.6,85.7,80.4,86.5,83.9z"/>
</g>
<g>
	<path class="st1" d="M28.4,76.1c0.4,0.7,0.3,1.7,0.2,2.5c-1.1,8.2,0.8,16.6,4.6,24c2.6,5,6,9.5,9.1,14.1c4.7,7.1,8.9,15.4,7.6,23.8
		c-0.1,0.9-0.3,1.8-0.9,2.4c-1.1,1.3-3.3,1.2-4.8,0.3c-1.4-1-2.3-2.6-3.2-4.1c-6.2-11.5-12.4-23.2-15.6-36
		c-1.5-6.3-1.8-12.4-1.9-18.8C23.6,82.8,25.1,70,28.4,76.1z"/>
</g>
<g>
	<path d="M41.1,154.2c-0.1,0-0.1,0-0.2,0c-0.8-0.1-1.4-0.9-1.3-1.7c1.6-12-3.3-20.7-9-30.7c-0.4-0.8-0.9-1.6-1.3-2.4
		c-2-3.5-4.4-8.3-5.7-13.3c-2-7.7-1.7-16.6-1.5-24.5c0-1,0.1-2,0.1-3c0-1.2,0.1-2.8,1-4.2c1.4-2.1,4.4-2.9,6.9-1.6
		c4.3,2.1,7,11.1,7.4,14.3c0.2,1.4-0.1,2.7-0.3,4c-0.3,1.6-0.5,3.1,0,4.3c0.2,0.4,0.6,0.9,1,1.3c1.8,1.9,4.1,3.1,6.6,4.4
		c2,1,4.1,2.1,6,3.6c4.9,4,8.9,9.1,11.5,14.7c0.3,0.8,0,1.6-0.7,2c-0.8,0.3-1.6,0-2-0.7c-2.4-5.2-6.1-9.9-10.6-13.6
		c-1.6-1.3-3.5-2.3-5.5-3.3c-2.6-1.3-5.3-2.7-7.4-5c-0.5-0.6-1.1-1.2-1.5-2.1c-0.9-2-0.6-4.2-0.3-6.1c0.2-1.2,0.4-2.3,0.3-3.2
		c-0.4-3.4-3-10.6-5.7-11.9c-1-0.5-2.5-0.2-3,0.6c-0.4,0.6-0.4,1.5-0.5,2.6c0,1,0,2-0.1,3c-0.2,7.7-0.4,16.4,1.5,23.7
		c1.2,4.8,3.5,9.2,5.4,12.6c0.4,0.8,0.9,1.6,1.3,2.4c5.7,10.1,11.1,19.6,9.3,32.6C42.5,153.7,41.8,154.2,41.1,154.2z"/>
</g>
<g>
	<path d="M39.2,99.7c-0.6,0-1.2-0.4-1.4-1.1c-0.9-2.8-0.9-5.7-0.9-8.3c0-7.9,0.7-15.7,1.4-23.2c0.5-5.5,1-11.1,1.2-16.7l0-0.7
		c0.2-6.8,0.9-13.4,4.4-16.2c1.3-1,2.9-1.4,4.6-1.1c6.6,1.2,6.1,10.1,5.8,14.4l0,0.1c-0.2,3.7-0.9,7.3-4.4,9.3
		c-0.7,0.4-1.6,0.2-2-0.6c-0.4-0.7-0.2-1.6,0.6-2c1.8-1,2.6-3,2.9-6.9l0-0.1c0.3-5.5,0.2-10.6-3.4-11.2c-0.9-0.2-1.6,0-2.2,0.5
		c-2.9,2.3-3.2,10.8-3.3,14l0,0.7c-0.2,5.7-0.7,11.3-1.2,16.8c-0.7,7.5-1.4,15.2-1.4,22.9c0,2.5,0,5.1,0.7,7.5
		c0.2,0.8-0.2,1.6-1,1.9C39.5,99.7,39.3,99.7,39.2,99.7z"/>
</g>
<g>
	<path d="M65,81.5c-0.2,0-0.4,0-0.6-0.1c-0.3-0.1-0.6-0.2-0.9-0.3c-0.9-0.3-2.2-0.7-2.6-2.7c-0.9-4-0.7-8.2-0.4-12.2
		c0.1-1.5,0.2-3,0.2-4.4c0.1-7,0.3-13.9,0.6-20.7c0-0.9,0.2-1.9,0.3-3c0.5-3.4,1.1-7.6-1.3-9c-1.4-0.9-3.5,0-4.6,1.3
		c-1.3,1.7-1.8,4.1-2.2,6.2c-0.2,0.8-0.9,1.3-1.8,1.2c-0.8-0.2-1.3-1-1.2-1.8c0.5-2.3,1-5.2,2.9-7.5c1.9-2.4,5.6-3.8,8.5-2
		c4,2.5,3.3,8,2.7,12c-0.1,1-0.3,2-0.3,2.7c-0.4,6.8-0.5,13.6-0.6,20.6c0,1.5-0.1,3-0.2,4.5c-0.2,3.8-0.5,7.8,0.4,11.4
		c0.1,0.2,0.1,0.3,0.1,0.3c0.1,0,0.3,0.1,0.6,0.2c0.3,0.1,0.8,0.3,1.2,0.5c0.7,0.4,1.1,1.3,0.7,2C66.1,81.2,65.6,81.5,65,81.5z"/>
</g>
<g>
	<path d="M74.4,82.2c-0.3,0-0.6-0.1-0.9-0.3c-1.2-0.9-2.1-2.6-2.4-3.8c-0.8-3.4-0.8-6.9-0.7-10.4c0-1.3,0-2.6,0-3.8
		c-0.2-7.2-0.3-15.5,0.8-23.7c0.1-1,0.4-4.4-1.7-5.8c-0.6-0.4-1.4-0.2-1.8-0.1c-1,0.3-2,1-2.4,1.8c-0.4,0.7-1.3,1-2,0.7
		c-0.7-0.4-1-1.3-0.7-2c0.8-1.5,2.4-2.8,4.3-3.3c1.6-0.4,3-0.2,4.2,0.5c2.5,1.6,3.6,4.8,3.1,8.7c-1.1,8-0.9,16.2-0.7,23.2
		c0,1.3,0,2.6,0,3.9c0,3.3-0.1,6.6,0.6,9.7c0.2,0.7,0.8,1.7,1.2,2c0.7,0.5,0.8,1.4,0.3,2.1C75.3,82,74.8,82.2,74.4,82.2z"/>
</g>
<g>
	<path d="M99.7,99.4c-0.7,0-1.3-0.4-1.4-1.1c-0.7-2.4-1.9-6.9-3.2-11.3c-1.2-4.4-2.5-8.8-3.1-11.2c-2.1-7.4-4.2-15-6.8-22.3l0-0.1
		c-0.7-2.1-1.6-4.6-1.3-7.1c0.3-2.7,2.3-5.8,5.5-6c3-0.2,5.5,1.9,7.5,6.4c5.6,12.5,10.4,25.6,14.3,38.7c0.2,0.8-0.2,1.6-1,1.9
		c-0.8,0.2-1.6-0.2-1.9-1c-3.9-13-8.6-26-14.2-38.4c-1-2.2-2.6-4.8-4.6-4.7c-1.5,0.1-2.6,1.8-2.7,3.3c-0.2,1.9,0.5,3.9,1.2,5.8
		l0,0.1c2.6,7.4,4.7,15.1,6.8,22.5c0.7,2.4,1.9,6.8,3.1,11.2c1.2,4.4,2.5,8.9,3.2,11.3c0.2,0.8-0.2,1.6-1,1.9
		C99.9,99.4,99.8,99.4,99.7,99.4z"/>
</g>
<g>
	<path d="M109.6,87.2c-0.7,0-1.3-0.5-1.5-1.2c-2.1-9.4-6.8-24.5-10.3-35.6c-1.4-4.5-2.6-8.4-3.4-10.9c-1.4-4.8-0.7-8.3,1.9-9.9
		c2.1-1.3,5-0.9,7.2,0.8c1.8,1.4,2.8,3.4,3.7,5.3c6.1,13.1,9.8,27.2,13.4,40.9l1,3.7c0.2,0.8-0.3,1.6-1.1,1.8
		c-0.8,0.2-1.6-0.3-1.8-1.1l-1-3.7c-3.5-13.5-7.2-27.6-13.2-40.4c-0.8-1.7-1.6-3.3-2.9-4.3c-1-0.8-2.6-1.3-3.7-0.6
		c-2,1.2-1.1,5-0.7,6.5c0.7,2.5,1.9,6.4,3.3,10.8c3.5,11.1,8.2,26.3,10.4,35.8c0.2,0.8-0.3,1.6-1.1,1.8
		C109.9,87.1,109.8,87.2,109.6,87.2z"/>
</g>
<g>
	<path d="M150,150c-0.6,0-1.1-0.3-1.4-0.9c-6-13.6-2-25.8,1.8-37.5c0.2-0.7,0.5-1.5,0.7-2.2c2.5-7.5,4.8-14.7,2.7-22.4
		c-1.5-5.5-2-11.4-1.4-17.1c0.1-0.5,0.1-1,0-1.2c-0.1-0.3-0.7-0.6-1.1-0.5c-0.6,0-1.3,0.4-2,1.1c-2.4,2.1-3.4,5.1-3.8,7.3
		c-0.2,1.3-0.1,2.9,0,4.6c0.2,3.6,0.5,7.6-3,10.4c-0.3,0.2-0.6,0.3-0.9,0.3c0,0,0,0,0,0c-3,0-4.4-3.4-4.9-4.5
		c-4.4-10.4-7.8-21.4-11.1-32l-0.9-3c-0.2-0.6-0.4-1.4-0.7-2.4c-1-3.9-3.4-13.1-6.7-14.4c-0.4-0.2-1.1-0.3-2.2,0.4
		c-3.3,2.1-2,6.7-0.2,12.2c0.4,1.1,0.7,2.1,1,3c1.9,7,3.2,14.3,4.5,21.3c0.4,2.2,0.8,4.4,1.2,6.6c0.2,0.8-0.4,1.6-1.2,1.8
		c-0.8,0.2-1.6-0.4-1.8-1.2c-0.4-2.2-0.8-4.4-1.2-6.6c-1.3-7-2.6-14.2-4.5-21.1c-0.2-0.8-0.5-1.8-0.9-2.8
		c-1.7-4.8-4.2-12.1,1.4-15.7c2.1-1.3,3.8-1.1,4.9-0.6c4.4,1.7,6.7,9.4,8.5,16.5c0.2,0.9,0.4,1.7,0.6,2.2l0.9,3
		c3.3,10.6,6.7,21.5,11,31.8c0.6,1.4,1.2,2.2,1.7,2.5c1.7-1.8,1.6-4.4,1.3-7.4c-0.1-1.8-0.2-3.6,0.1-5.3c0.5-2.7,1.7-6.4,4.8-9
		c1.2-1.1,2.5-1.7,3.8-1.8c1.8-0.1,3.6,0.9,4.2,2.5c0.3,0.9,0.2,1.8,0.2,2.5c-0.6,5.4-0.1,10.9,1.3,16c2.4,8.6-0.1,16.2-2.7,24.2
		c-0.2,0.7-0.5,1.4-0.7,2.2c-3.8,11.8-7.4,22.9-1.9,35.4c0.3,0.8,0,1.6-0.8,2C150.4,149.9,150.2,150,150,150z"/>
</g>
<g>
	<path d="M69.3,149.5c-0.7,0-1.3-0.5-1.5-1.2c-0.2-0.8,0.3-1.6,1.1-1.8c8.7-1.9,15-4.9,17.4-13.6c1.8-6.5,1.4-13.6,1-20.4
		c-0.1-1.1-0.1-2.2-0.2-3.3c0-0.8,0.6-1.5,1.4-1.6c0.9-0.1,1.5,0.6,1.6,1.4c0.1,1.1,0.1,2.2,0.2,3.3c0.4,7.1,0.8,14.4-1.1,21.4
		c-3,10.7-11.2,13.9-19.7,15.7C69.5,149.5,69.4,149.5,69.3,149.5z"/>
</g>
<g>
	<path d="M78.1,158.8c-0.7,0-1.4-0.5-1.5-1.3c-0.7-4.2-0.6-8.6,0.4-12.8c0.2-0.8,1-1.3,1.8-1.1c0.8,0.2,1.3,1,1.1,1.8
		c-0.9,3.8-1,7.8-0.3,11.6c0.1,0.8-0.4,1.6-1.2,1.7C78.3,158.8,78.2,158.8,78.1,158.8z"/>
</g>
<g>
	<path d="M52.5,84.8c-0.1,0-0.1,0-0.2,0c-2.5-0.3-3.9-2.8-3.8-6.6c0.2-8.6,0.7-17.4,1.5-26c0.1-0.8,0.8-1.4,1.6-1.4
		c0.8,0.1,1.4,0.8,1.4,1.6c-0.8,8.5-1.3,17.2-1.5,25.8c0,1.7,0.4,3.5,1.2,3.6c0.8,0.1,1.4,0.9,1.3,1.7
		C53.9,84.3,53.3,84.8,52.5,84.8z"/>
</g>
<g>
	<path d="M69.1,125.9c-0.7,0-1.3-0.5-1.5-1.2c-0.2-0.8,0.3-1.6,1.1-1.8c1.8-0.4,2.9-2.6,3.8-4.5l3-6.7c0.3-0.8,1.2-1.1,2-0.7
		c0.8,0.3,1.1,1.2,0.7,2l-3,6.7c-0.9,1.9-2.5,5.4-5.8,6.2C69.4,125.9,69.3,125.9,69.1,125.9z"/>
</g>
<g>
	<path d="M76.7,103.2c0,0-0.1,0-0.1,0c-7.6-0.6-14.9-4.3-20-10c-0.6-0.6-0.5-1.6,0.1-2.1c0.6-0.6,1.6-0.5,2.1,0.1
		c4.6,5.1,11.2,8.4,18,9c0.8,0.1,1.4,0.8,1.4,1.6C78.2,102.6,77.5,103.2,76.7,103.2z"/>
</g>
<g>
	<path d="M81,63.5c-0.8,0-1.5-0.7-1.5-1.5c0-1.9-0.1-2.9-0.2-3.8c0-0.7-0.1-1.3-0.1-2c0-1.5-0.1-3.1-0.6-4.3c-0.4-1-1.3-2-2.4-2.1
		c-1.2-0.1-2.1,0.1-2.5,0.5c-0.1,0.1-0.4,0.4-0.4,1.1c0,0.8-0.7,1.5-1.5,1.5s-1.5-0.7-1.5-1.5c0-1.7,0.7-2.8,1.3-3.3
		c1.3-1.3,3.3-1.4,4.7-1.3c2.1,0.1,4,1.7,4.9,3.9c0.7,1.8,0.8,3.7,0.8,5.4c0,0.7,0,1.2,0.1,1.8c0.1,0.9,0.1,2,0.2,4
		C82.5,62.8,81.9,63.5,81,63.5C81,63.5,81,63.5,81,63.5z"/>
</g>
<g>
	<path d="M103.3,139c-0.5,0-1-0.2-1.2-0.7c-1.3-2-2.9-4.3-4.3-6.6c-2.4-3.8-4.3-7.9-6.1-11.9c-2.2-4.9-3.2-10.1-4.3-15.2
		c-0.2-1-0.4-2.1-0.6-3.1c-1-4.9-2.8-9.5-4.7-14.3c-0.4-1-0.8-2-1.2-3c-0.1-0.1-5-14.1-1.2-18.1c0.6-0.6,1.9-1.5,4.2-0.7
		c3.8,1.3,6.7,7.4,9.5,14.2c0.4,1,0.8,1.9,1.1,2.5c1.1,2.3,2.1,4.7,3.1,7c1.1,2.7,2.3,5.5,3.6,8.1c0.4,0.7,0.1,1.6-0.7,2
		c-0.7,0.4-1.6,0.1-2-0.7c-1.3-2.7-2.5-5.5-3.7-8.2c-1-2.3-2-4.7-3-6.9c-0.3-0.7-0.7-1.6-1.2-2.6c-1.6-3.7-4.9-11.5-7.7-12.5
		c-0.5-0.2-0.9-0.2-1.1,0c-1.6,1.6,0.3,10.9,1.9,14.9c0.4,1,0.8,2,1.2,3c1.8,4.7,3.8,9.6,4.8,14.7c0.2,1.1,0.4,2.1,0.6,3.2
		c1,4.9,2,9.9,4.1,14.5c1.8,3.9,3.6,7.9,5.9,11.6c1.4,2.3,3,4.5,4.3,6.5c0.5,0.7,0.3,1.6-0.4,2.1C103.9,138.9,103.6,139,103.3,139z"
		/>
</g>
<g>
	<path d="M117.3,163.4c-0.6,0-1.2-0.4-1.4-1c-1.8-4.7-4.2-9.4-8-15.4c-0.4-0.7-0.2-1.6,0.5-2.1c0.7-0.4,1.6-0.2,2.1,0.5
		c3.9,6.2,6.5,11.1,8.3,16c0.3,0.8-0.1,1.6-0.9,1.9C117.6,163.4,117.4,163.4,117.3,163.4z"/>
</g>
<g>
	<path d="M145.2,93.4c-3.7,0-7.3-2.3-8.7-5.8c-0.3-0.8,0-1.6,0.8-2c0.8-0.3,1.6,0,2,0.8c1,2.4,3.5,4,6.1,3.9c0.8,0,1.5,0.6,1.5,1.4
		c0,0.8-0.6,1.5-1.4,1.5C145.4,93.4,145.3,93.4,145.2,93.4z"/>
</g>
<g>
	<path d="M51.4,148.4c-0.1,0-0.2,0-0.3,0c-2.7-0.6-6-1.3-8.4-3.6c-1.3-1.3-2.2-2.8-2.9-4.2c-0.5-0.9-0.8-1.8-1-2.7
		c-0.2-0.7-0.4-1.4-0.8-2.1c-0.4-0.7-0.1-1.6,0.6-2c0.7-0.4,1.6-0.1,2,0.6c0.5,0.9,0.8,1.8,1,2.7c0.2,0.7,0.4,1.4,0.8,2.1
		c0.7,1.3,1.4,2.6,2.4,3.5c1.7,1.6,4,2.2,7,2.8c0.8,0.2,1.3,1,1.1,1.8C52.7,147.9,52.1,148.4,51.4,148.4z"/>
</g>
<g>
	<path d="M119.2,172.8c-0.1,0-0.1,0-0.2,0c-0.8-0.1-1.4-0.9-1.3-1.7c1.4-10.3,19.5-16.5,28.8-18.3c0.8-0.2,1.6,0.4,1.8,1.2
		c0.2,0.8-0.4,1.6-1.2,1.8c-9.6,1.9-25.3,7.8-26.4,15.7C120.5,172.3,119.9,172.8,119.2,172.8z"/>
</g>
<g>
	<path d="M65.8,165.7c-5.5,0-11-1-16.1-3.1c-0.8-0.3-1.1-1.2-0.8-1.9c0.3-0.8,1.2-1.1,1.9-0.8c8.1,3.2,17.3,3.7,25.7,1.4
		c3.1-0.9,4.9-2.2,5.4-3.8c0.2-0.8,1-1.3,1.8-1.1c0.8,0.2,1.3,1,1.1,1.8c-0.7,2.8-3.2,4.8-7.5,6C73.6,165.2,69.7,165.7,65.8,165.7z"
		/>
</g>
<g>
	<path d="M80.5,29.5c-0.7,0-1.3-0.5-1.5-1.2l-0.8-4.6c-0.1-0.8,0.4-1.6,1.2-1.7c0.8-0.1,1.6,0.4,1.7,1.2l0.8,4.6
		c0.1,0.8-0.4,1.6-1.2,1.7C80.7,29.5,80.6,29.5,80.5,29.5z"/>
</g>
<g>
	<path d="M66.2,24.1c-0.6,0-1.1-0.3-1.4-0.9c-0.6-1.3-1.9-4.4-3.2-7.5c-1.3-3.1-2.6-6.2-3.2-7.6c-0.3-0.8,0-1.6,0.8-2
		c0.8-0.3,1.6,0,2,0.8c0.6,1.3,1.9,4.4,3.2,7.5c1.3,3.1,2.6,6.2,3.2,7.6c0.3,0.8,0,1.6-0.8,2C66.6,24,66.4,24.1,66.2,24.1z"/>
</g>
<g>
	<path d="M91.5,22.1c-0.2,0-0.3,0-0.5-0.1c-0.8-0.3-1.2-1.1-0.9-1.9c1.1-3,3.3-8.7,5.5-12.4C96.1,7,97,6.8,97.7,7.2
		c0.7,0.4,0.9,1.4,0.5,2.1c-2.1,3.5-4.2,8.9-5.3,11.8C92.7,21.7,92.1,22.1,91.5,22.1z"/>
</g>
<g>
	<path d="M114.2,22.9c-0.4,0-0.7-0.1-1-0.4c-0.6-0.6-0.6-1.5,0-2.1l3.3-3.4c0.6-0.6,1.5-0.6,2.1,0c0.6,0.6,0.6,1.5,0,2.1l-3.3,3.4
		C114.9,22.7,114.5,22.9,114.2,22.9z"/>
</g>
<g>
	<path d="M73.4,92.2c-0.4,0-0.8,0-1.2-0.1c-0.7-0.1-1.3-0.7-1.3-1.5c0-0.7,0.5-1.4,1.3-1.5l4.4-0.7c0.7-0.1,1.4,0.3,1.6,0.9
		c0,0,0,0,0,0c0.3,0.8,0,1.6-0.8,2C76.1,92,74.7,92.2,73.4,92.2z"/>
</g>
<g>
	<path d="M53.4,24.8c-0.5,0-1.1-0.3-1.3-0.8L50.6,21c-0.1-0.2-0.2-0.4-0.2-0.7c0-0.5,0.3-1.1,0.8-1.3c0.7-0.4,1.6-0.1,2,0.7l1.5,2.9
		c0.1,0.2,0.2,0.4,0.2,0.7c0,0.5-0.3,1.1-0.8,1.3C53.9,24.8,53.6,24.8,53.4,24.8z"/>
</g>
</svg>
