<svg id="Layer_1" data-name="Layer 1" xmlns="http://www.w3.org/2000/svg" viewBox="0 0 80.79 79.24"><defs><style>.cls-1{fill:#9898e2;}.cls-2{fill:#fff;}</style></defs><title>check</title><g id="Layer_2" data-name="Layer 2"><g id="Layer_2-2" data-name="Layer 2-2"><path class="cls-1" d="M.19,43.83c2.48,25.67,34.14,44.91,61,30.43C82.55,62.87,86.69,35,72.41,15.69,60.62,0,35.78-4.59,19.23,5,5.57,13-1.26,27.9.19,43.83Z"/><path class="cls-2" d="M34.33,57.49a2.39,2.39,0,0,1-2.07-.83,54.91,54.91,0,0,1-9.1-11.58,3.16,3.16,0,1,1,5.38-3.32h0a51.78,51.78,0,0,0,5.79,7.87l19.25-24a3.09,3.09,0,0,1,4.76,3.93L36.82,56.46a3.43,3.43,0,0,1-2.49,1Z"/></g></g></svg>