<svg version="1.1" id="Layer_1" xmlns="http://www.w3.org/2000/svg" x="0" y="0" viewBox="0 0 437.2 592.3" xml:space="preserve"><style>.st33{fill:none;stroke:#fff;stroke-width:2;stroke-miterlimit:10}.st36{fill:#fff}.st42{fill:#d02100}.st45{fill:#1f2ca7}</style><linearGradient id="SVGID_1_" gradientUnits="userSpaceOnUse" x1="212.479" y1="490.358" x2="154.333" y2="230.115"><stop offset="0" stop-color="#138b00"/><stop offset=".135" stop-color="#128400"/><stop offset=".323" stop-color="#107200"/><stop offset=".543" stop-color="#0c5400"/><stop offset=".785" stop-color="#062b00"/><stop offset="1"/></linearGradient><path d="M289.2 371.8c-.4 1.4 5.5 68.8 30.8 96.8 23.9 26.3 16 40.9 5.1 40.9-19.1 0-45.5-19.1-45.5-19.1s8.8 30.2-15.1 25.2-48.5-24.5-48.5-24.5-31.7 30.9-43.7 23.7c-13.1-7.9-11.3-22.9-11.3-22.9s-28 22.6-47.3 24.9c-12.3 1.4-26.2-6.4-16.4-22.5 9.4-15.6 16.8-21.8 27.1-53.5 7.1-21.9 17.2-72.9 17.2-72.9l51.3-9.7 40.3-.5 56 14.1z" fill="url(#SVGID_1_)"/><linearGradient id="SVGID_2_" gradientUnits="userSpaceOnUse" x1="222.579" y1="377.957" x2="258.152" y2="116.364"><stop offset="0" stop-color="#138b00"/><stop offset=".135" stop-color="#128400"/><stop offset=".323" stop-color="#107200"/><stop offset=".543" stop-color="#0c5400"/><stop offset=".785" stop-color="#062b00"/><stop offset="1"/></linearGradient><path d="M154.4 279.5c-.8 1.8-6.3 44-29.1 84.5-8.5 15.2-12.1 24.9-6.2 29.3 6.9 5.1 37.7-21.4 37.7-21.4s-16.3 31.9-5.6 36.5c10.8 4.6 33.4-14.8 44.2-31.4.4-2.3 9.7 14.3 33.9 21.3 11.7 1.4 22.2.5 14.3-21.3 0-.3 20.6 23.8 36.9 21.3 8.9-2.2 2.1-21 2.1-21s21.3 11.3 37 9.2c16.9-2.3 3.4-19.1-9.2-33.7-11.9-13.8-23.6-44.7-29.1-73.1-6.2-13.4-28.2-22.4-42.9-24.3s-84 24.1-84 24.1z" fill="url(#SVGID_2_)"/><linearGradient id="SVGID_3_" gradientUnits="userSpaceOnUse" x1="215.437" y1="286.074" x2="201.625" y2="21.983"><stop offset="0" stop-color="#138b00"/><stop offset=".135" stop-color="#128400"/><stop offset=".323" stop-color="#107200"/><stop offset=".543" stop-color="#0c5400"/><stop offset=".785" stop-color="#062b00"/><stop offset="1"/></linearGradient><path d="M289.6 264.3c-4.9-3.8-9.5-8.3-13.3-13.5-4.7-6.3-10.2-15.2-14.1-25.9-8-22.3-35.9-82.4-41-87.9-5.1-5.5-15.6-1.7-18.5 6.3-4.2 11.5-25.7 69.4-29.4 79.9-3.6 10.5-14.9 32.4-24.3 44.6-9.4 12.2-18.5 16.4-11.6 18.9s35.2 0 43.9-12.2c.4.6 18.7 21.4 32.6 15.1 3.5-2.3 2.8-6.7-.9-14.7.3 0 23.5 19.6 37.5 16 2.9-1.6 5.5-3.4.2-22.6.1.3 16.2 11.2 28.8 10.8 10.8-.4 22.5-5.2 10.1-14.8z" fill="url(#SVGID_3_)"/><path class="st33" d="M180.3 204s37 27.2 86.8 31.7M176 215.4c.9.3 63.2 4.9 79-9.3M264.6 230.5s-44.5 33.2-114.7 35M146.6 313.9s89.2 35.4 157.3 28.9M295.9 328.1c-17.5 17.5-145.7 31-166.6 30.7M110.7 438.6s110.1 42.1 219 22.1M314.5 429.7C231 456 168.6 453 106.7 450.8"/><linearGradient id="SVGID_4_" gradientUnits="userSpaceOnUse" x1="93.619" y1="320.407" x2="251.092" y2="343.598"><stop offset="0" stop-color="#138b00"/><stop offset=".135" stop-color="#128400"/><stop offset=".323" stop-color="#107200"/><stop offset=".543" stop-color="#0c5400"/><stop offset=".785" stop-color="#062b00"/><stop offset="1"/></linearGradient><path d="M219.6 144.7c-4.2 1.4-13.5 16.2-15.4 20.1-4.7 9.8-5 17.3-3.4 28.1 1.7 11.6 6.8 23.6 1.8 34.8-4.4 9.8-13.1 15.1-20.2 21.9-8.1 7.9-12.5 19.6-11.9 31.9 0 0 4.6-1 7.1-3-.7.6-2.1 6.5-2.7 8-1.5 3.5-3.6 6.8-6.2 9.4-1 1.1-2.1 2.1-2.9 3.4-1.7 2.7-.9 5.9.4 8.6 3.3 6.9 7.7 16.3 3.8 24.1-1.8 3.6-4.8 6.1-6.6 9.7-2.7 5.3-3.4 11.2-3 17.3.6 8.4-2.6 8.7-2.6 8.7l-.3 15.6c0 .9 0 1.9-.3 2.8-.4 1.7-1.8 2.5-2.9 3.6-1.1 1-2.2 2-3.2 3.2-1.8 2.1-5.8 6.7-4 9.4 1.5 2.2.1 4.2 3.9 6.1 2.6 1.3 6.1.5 7.1.4 0 0-4.8 11.4-12 18.6-7.3 7.2 2.4 19.9 2.1 34.5-.2 14.6-15.2 52.4-39.4 54.6s-6.8-29.8-6.8-29.8 18.2-23.3 27.2-61.8l9-38.5s-3.8 2.4-8.1 4.6c-3.3 1.7-6.7 3.3-9.6 2.9-.7-.1-1.3-.5-1.9-.9-2-1.2-4.4-5.7-.2-15.5 5.8-13.4 24.1-28.4 25.2-35.8 1.7-10.7 5.1-35.1 5.1-35.1l3.7-19.5s-6.3.7-10.4.5-9.3-2.2-5.4-6.2c3.9-4 14.6-14.8 21.4-27.2 6.8-12.4 11.2-19.5 15.7-32.2s15.9-43.7 15.9-43.7 7.2-19.1 8.7-22.5c1.7-3.3 21.3-11.1 21.3-11.1z" opacity=".57" fill="url(#SVGID_4_)"/><linearGradient id="SVGID_5_" gradientUnits="userSpaceOnUse" x1="122.626" y1="353.734" x2="245.656" y2="433.254"><stop offset=".008" stop-color="#d02100"/><stop offset=".11" stop-color="#c92000"/><stop offset=".254" stop-color="#b71d00"/><stop offset=".422" stop-color="#991800"/><stop offset=".608" stop-color="#6f1200"/><stop offset=".807" stop-color="#3a0900"/><stop offset="1"/></linearGradient><path d="M176.5 336c-10.7-10.7-27.8-11.5-39.4-1.9-12.6-10.2-31-8.4-41.3 4.2-9.3 11.4-8.7 28 1.5 38.8.1.2.2.3.4.5l37.3 37.3c1.1 1.1 3 1.1 4.1 0l36.7-36.7c.3-.2.5-.5.7-.7 11.4-11.4 11.4-30 0-41.5z" fill="url(#SVGID_5_)"/><path class="st36" d="M102.1 383.1l-2-2.9.1-.1 68.9-49.4 1.1-.8 2.1 2.8-69.6 50zM109.4 390.3l-2-2.8.1-.1 70.1-50.2 2.1 2.7-69.7 50zM117.3 397.3l-2.5-2.5L183 346l.7 1.7.6 1.8z"/><path d="M229.3 102.2l16.7.5c4.7.2 7.2 5.7 4.2 9.3l-10.6 13c-1.2 1.5-1.6 3.4-1.1 5.2l4.6 16.1c1.3 4.6-3.2 8.6-7.6 6.9l-15.6-6.1c-1.8-.7-3.7-.5-5.3.6l-13.8 9.4c-3.9 2.7-9.2-.3-8.9-5.1l1-16.7c.1-1.9-.7-3.7-2.2-4.8l-13.2-10.3c-3.7-2.9-2.5-8.8 2.1-10l16.2-4.2c1.8-.5 3.3-1.8 3.9-3.6l5.7-15.7c1.6-4.5 7.6-5.1 10.2-1.1l9 14.1c1.1 1.5 2.8 2.5 4.7 2.5z" fill="#f5c200"/><path d="M220 147.1c-1.8-.7-3.7-.5-5.3.6l-13.8 9.4c-3.9 2.7-9.2-.3-8.9-5.1l1-16.7c.1-1.9-.7-3.7-2.2-4.8l-13.2-10.3c-3.7-2.9-2.5-8.8 2.1-10l16.2-4.2c1.8-.5 3.3-1.8 3.9-3.6l5.7-15.7c.6-1.5 1.7-.4 2.7 6.7 2.5 17.8-18.5 14-8.8 30.8 6.3 11.1-2.7 17.3.3 22.2 1.9 3.2 6.5.6 9.8-.7 7.6-3.3 10.5 1.4 10.5 1.4z" fill="#f5af00"/><linearGradient id="SVGID_6_" gradientUnits="userSpaceOnUse" x1="-137.639" y1="348.526" x2="155.415" y2="488.42"><stop offset="0" stop-color="#1c48e4"/><stop offset="1" stop-color="#3c7df6"/></linearGradient><path fill="url(#SVGID_6_)" d="M72.4 432.4h123.2V524H72.4z"/><linearGradient id="SVGID_7_" gradientUnits="userSpaceOnUse" x1="130.982" y1="461.975" x2="144.205" y2="364.643"><stop offset=".001" stop-opacity="0"/><stop offset="1"/></linearGradient><path d="M72.4 432.4c.4-1.6 123.3 13.7 123.3 13.7l-.1-18.2-123.2 4.5z" fill="url(#SVGID_7_)"/><linearGradient id="SVGID_8_" gradientUnits="userSpaceOnUse" x1="-116.267" y1="303.754" x2="176.787" y2="443.648"><stop offset="0" stop-color="#1c48e4"/><stop offset="1" stop-color="#3c7df6"/></linearGradient><path fill="url(#SVGID_8_)" d="M202.4 432.4H66.2v-18.1h136.2z"/><path class="st36" d="M72.4 465.4h123.2v11.2H72.4z"/><path class="st42" d="M72.4 476.6h123.2v5.6H72.4z"/><path fill="#f49650" d="M280.1 384.5h93.8v139.3h-93.8z"/><path d="M253.9 386.4l19.4-1.5c3.9-.3 7.9-.5 11.8-.5h82.7c4.3 0 8.6.2 12.9.6l16.7 1.4s-.5-3.7-18.6-5.5c-7-.7-16.3-1.8-26.4-2-16.9-.4-41.8-.6-58 .1-9.3.4-17.2 1.1-27.4 2.7-4 .7-9.6 2.8-13.1 4.7z"/><path d="M291.1 381.7L318 279.8l52 31.9 29-8.7-31.6 34.3-21.7-14 10.7 57.9z"/><path d="M343.9 344.8h-21.7l.5 10.6-3.5.1.2 7.6 3.7-.1.5 10.1 23.1-1-2.8-27.3zm-14.7 21l-.1-3.1 2.1-.1-.2-7.3h-2.2l-.1-3.2h10.4l1.3 13.2-11.2.5z" fill="#ffe100"/><path class="st45" d="M322.4 347.6l-22.4.3-6.2 24 29.6-.8-.4-8.1-3.7.1-.2-7.6 3.6-.1zM344.1 346.7l5.9-.2 4.2 23.4-7.7.3z"/><path class="st36" d="M318.1 384.5h12.5v139.3h-12.5z"/><path class="st42" d="M330.8 384.5h5.7v139.3h-5.7z"/><linearGradient id="SVGID_9_" gradientUnits="userSpaceOnUse" x1="323.827" y1="412.102" x2="334.432" y2="334.032"><stop offset=".001" stop-opacity="0"/><stop offset="1"/></linearGradient><path d="M279.3 384.8c.4-1.8 94.3 16.7 94.3 16.7l.4-17-94.7.3z" fill="url(#SVGID_9_)"/><circle cx="208.3" cy="330.7" r="11.2" fill="#17c0ff"/><circle class="st42" cx="258.8" cy="224.6" r="11.2"/><circle cx="255" cy="443.2" r="11.2" fill="#ff0"/><circle cx="161.4" cy="246.6" r="7.3" fill="#5cff71"/><path fill="#5fb386" d="M177 474h109.2v50H177z"/><linearGradient id="SVGID_10_" gradientUnits="userSpaceOnUse" x1="228.575" y1="507.217" x2="237.902" y2="438.564"><stop offset=".001" stop-opacity="0"/><stop offset="1"/></linearGradient><path d="M176 484.8c.3-1.5 110.2 7.4 110.2 7.4l-.1-7.4H176z" fill="url(#SVGID_10_)"/></svg>