<?xml version="1.0" encoding="UTF-8"?>
<svg version="1.1" viewBox="30 0 211 170" xmlns="http://www.w3.org/2000/svg" xmlns:xlink="http://www.w3.org/1999/xlink">
<title>Group 71</title>
<desc>Created with Sketch.</desc>
<defs>
<path id="l" d="m24.29 4.297c3.86 2.718 16.928 4.427 19.063 3.682 0 0-1.544 0.623-3.225 0.515-1.679-0.108-39.764-3.261-39.764-3.261s5.254-0.52 9.541-3.004"/>
<linearGradient id="z" x1=".00036893%" x2="99.999%" y1="49.999%" y2="49.999%">
<stop stop-color="#231F1F" offset="0"/>
<stop stop-color="#fff" offset="1"/>
</linearGradient>
<path id="c" d="m19.899 44.133 0.0023004 0.023255c0.1055 1.2047-0.04737 2.0912-0.073582 2.2306l-0.0037189 0.014168 0.075-2.268zm-19.148-43.389 20.169 12.335-1.021 31.054-0.013724-0.14296c-0.17108-1.625-0.82154-3.7691-2.8333-5.45-4.4482-3.718-4.8036-11.092-4.8221-11.571l-8.687e-4 -0.024589s0.764-5.734-5.871-7.882c-8.898-2.883-5.607-18.318-5.607-18.318z"/>
<path id="b" d="m8.338 0.854v0.024269c-0.0012423 0.43302-0.081588 6.5572-3.607 10.026-2.4371 2.3989-3.9964 6.819-4.6973 9.1877l-0.021672 0.072282 0.022656-0.1058c1.019-4.9192 3.4783-18.991 3.4783-18.991"/>
<path id="a" d="m1.701 0.146s25.487 1.956 28.703 2.212c3.0211 0.23861 4.1052 1.605 4.2255 1.7697l0.011512 0.016256c-0.868-0.919-2.757-1.072-4.543-0.715-1.787 0.357-2.757 0.919-7.759-0.408-5.003-1.327-7.248 0.868-13.322 0.969-6.075 0.103-8.61-3.739-8.61-3.739l1.294-0.105z"/>
<path id="k" d="m122.33 0.4-38.64 12.905 66.705-10.949s23.292 0.439 29.397 0c6.105-0.44-60.643 22.644-60.643 22.644h-119.15l68.685-23.236 53.649-1.364z"/>
<linearGradient id="ad" x1="63.688%" x2="75.574%" y1="51.731%" y2="46.088%">
<stop stop-color="#fff" offset="0"/>
<stop stop-color="#231F1F" offset="1"/>
</linearGradient>
<polygon id="j" points="0.87767 0.43811 17.785 0.43811 17.785 29.663 0.87767 29.663"/>
<path id="i" d="m7.888 5.07c5.562 1.571 6.986 8.112 7.548 12.93 0.322 2.757 5.635 10.145 8.407 10.409-0.727 0.119-3.732-0.758-6.7-4.929-1.7553-2.4677-16.201-22.2-16.505-22.615"/>
<linearGradient id="ac" x1="101.12%" x2="-16.043%" y1="-248.77%" y2="435.9%">
<stop stop-color="#231F1F" offset="0"/>
<stop stop-color="#fff" offset="1"/>
</linearGradient>
<path id="h" d="m11.063 1.753c1.877-0.814 4.178-0.95 4.495-0.776 0 0-5 0.879-4.028 4.091 0.297 0.982 0.936 2.103 0.927 3.814-0.024 4.128-5.691 4.235-4.833 8.682 1.993 10.329-3.432 9.211-2.815 14.713l-4.218-1.404c1.744-2.209 3.459-4.769 4.032-6.08 0.58-1.326 0.343-2.523 0.456-3.58 0.24-2.271-0.386-3.982-1.343-8.562-0.957-4.581 0.903-7.153 0.903-7.153 1.072-1.617 3.284-1.686 3.908-1.984"/>
<path id="g" d="m0.992 0.48 2.005 0.756c2.706 0.364 2.761 1.799 2.761 1.799l1.411 7.63-4.999-6.673"/>
<linearGradient id="ab" x1="158.18%" x2="29.881%" y1="-238.65%" y2="103.69%">
<stop stop-color="#231F1F" offset="0"/>
<stop stop-color="#fff" offset="1"/>
</linearGradient>
<path id="f" d="m0.341 6.726c-1.48 6.024 2.979 9.835 2.979 9.835 3.571-0.623 5.494-3.706 6.076-5.274 0.534-1.438 1.818-4.411 0.826-7.551-1.02-3.234-3.171-3.528-3.171-3.528s-5.302 0.786-6.71 6.518"/>
<linearGradient id="aa" x1="-52.895%" x2="54.671%" y1="-100.48%" y2="55.618%">
<stop stop-color="#231F1F" offset="0"/>
<stop stop-color="#fff" offset="1"/>
</linearGradient>
<path id="e" d="m44.557 0.254c7.946 1.342 10.887 4.114 10.887 4.114s-7.783 2.957-13.854 4.982c-6.07 2.023-9.34 8.25-7.16 17.901 2.179 9.652-0.934 19.458-13.699 23.973-0.77 0.272-1.519 0.595-2.249 0.961 0 0-18.441 1.227-18.36 0.889 0.48127-2.008 1.4653-3.163 1.4653-3.163l11.128-21.736s7.571-16.001 14.874-21.209"/>
<path id="d" d="m0.861 0.949c-0.075-0.187 5.935 3.193 5.935 3.193l-1.991 1.465"/>
<linearGradient id="y" x1="22.005%" x2="57.431%" y1="175.66%" y2="4.4106%">
<stop stop-color="#231F1F" offset="0"/>
<stop stop-color="#fff" offset="1"/>
</linearGradient>
</defs>
<g fill="none" fill-rule="evenodd">
<g transform="translate(-664 -393)">
<g transform="translate(664 392)">
<g transform="translate(0 .09)">
<path d="m72.841 129.21 4.804 6.998-1.078 5.418 6.426 5.479-13.308-0.338-5.259-15.458 6.215-2.727c0.789-0.346 1.713-0.082 2.2 0.628" fill="#000"/>
<path d="m151.11 139.88-0.71 7.477h29.396c-0.359 0-17.245-9.486-17.603-9.486-0.359 0-11.083 2.009-11.083 2.009" fill="#000"/>
<g transform="translate(80 137)">
<mask id="t" fill="white">
<use xlink:href="#l"/>
</mask>
<path d="m0.364 5.233s5.254-0.52 9.541-3.004c5.03-2.914 10.524-0.649 14.385 2.068 3.86 2.718 16.928 4.427 19.063 3.682 0 0-1.544 0.623-3.225 0.515-1.679-0.108-39.764-3.261-39.764-3.261" fill="url(#z)" mask="url(#t)"/>
</g>
<path d="m155.93 113.14-3.49 26.485c-0.132 0.936 0.59 1.775 1.535 1.783l5.953 0.046 8.397-27.406-12.395-0.908z" fill="#FFD9C8"/>
<path d="m109.09 132.78c-0.305 0.07-29.545-2.687-37.05-3.396-0.935-0.088-1.74 0.648-1.74 1.587v0.975c0 2.613 1.827 4.871 4.383 5.416l30.944 6.598 3.463-11.18z" fill="#FFD9C8"/>
<path d="m144.86 84.444-1.988-3.118-38.815-3.944s-9.009 7.126-4.525 22.932l11.164 30.533-29.747-2.664-0.586 14.05s33.853 2.719 39.202 3.205 9.434-2.236 9.434-9.141 1.167-40.067 1.167-40.067l-0.098-2.042 14.792-9.744z" fill="#0137D0"/>
<g transform="translate(109 90)">
<mask id="o" fill="white">
<use xlink:href="#c"/>
</mask>
<path d="m20.92 13.079-1.096 33.327s0.974-4.736-2.772-7.866c-4.599-3.844-4.823-11.596-4.823-11.596s0.764-5.734-5.871-7.882c-8.898-2.883-5.607-18.318-5.607-18.318l20.169 12.335z" fill="#012DA8" mask="url(#o)"/>
</g>
<path d="m104.56 82.955c-0.108 2.439 0.282 5.793 1.866 10.21 3.778 10.537 18.679 10.064 18.679 10.064l32.407-1.163-5.695 30.211 12.976 0.961 10.279-36.204s5.242-12.98-6.366-13.729c-4.777-0.309-16.364-1.018-28.007-2.16l-36.139 1.81z" fill="#0137D0"/>
<g transform="translate(154 101)">
<mask id="n" fill="white">
<use xlink:href="#b"/>
</mask>
<path d="m3.513 1.067 4.825-0.213s0.048967 6.453-3.607 10.05c-3.437 3.383-5.128 10.786-5.128 10.786 0.111 1.114 3.91-20.623 3.91-20.623" fill="#012DA8" mask="url(#n)"/>
</g>
<g transform="translate(139 81)">
<mask id="m" fill="white">
<use xlink:href="#a"/>
</mask>
<path d="m0.407 0.251s2.535 3.842 8.61 3.739c6.074-0.101 8.319-2.296 13.322-0.969 5.002 1.327 5.972 0.765 7.759 0.408 1.786-0.357 3.675-0.204 4.543 0.715 0 0-1.021-1.532-4.237-1.786-3.216-0.256-28.703-2.212-28.703-2.212l-1.294 0.105z" fill="#012DA8" mask="url(#m)"/>
</g>
<g transform="translate(0 145)">
<mask id="x" fill="white">
<use xlink:href="#k"/>
</mask>
<path d="m68.685 1.764-68.685 23.236h119.15s66.748-23.084 60.643-22.644c-6.105 0.439-29.397 0-29.397 0l-66.705 10.949 38.64-12.905-53.649 1.364z" fill="url(#ad)" mask="url(#x)" opacity=".35491"/>
</g>
<path d="m200.09 39.16c-0.872-0.063-1.297 2.552-1.297 2.552-0.468 0.387-1.166-0.322-1.809 0.03-0.185 0.101-2.447 1.377-2.447 1.377-0.206 0.08-0.47 7.51-1.417 8.676-0.946 1.167-5.144 4.314-5.144 4.314l3.802 4.668s6.25-5.205 8.112-6.583c2.877-2.128 7.233-3.856 7.28-4.529 0.059-0.859-0.995-5.231-1.412-7.63-0.134-0.77-0.732-1.367-1.501-1.502-2.019-0.354-4.167-1.373-4.167-1.373" fill="#FFD9C8"/>
<g transform="translate(193 14)">
<mask id="w" fill="white">
<use xlink:href="#j"/>
</mask>
<path d="m5.6181 21.489-0.618 3.917-0.467 3.794c0.145 0.199 1.629 0.823 2.529 0.178l0.431-3.843 0.627-3.973s8.269 0.186 9.569-11.381c1.361-12.112-12.037-12.633-15.568-3.222-2.608 6.952-0.958 12.974 3.497 14.53" fill="#000" mask="url(#w)"/>
</g>
<path d="m202.76 33.152c1.84-0.794 4.967-3.019 5.643-8.753 1.134-9.605-8.826-10.034-11.612-2.543-1.62 4.356-1.031 8.967 1.061 10.797 0.444 0.389 2.471 1.549 4.908 0.499" fill="#fff"/>
<path d="m143.55 35.436c2.16-1.905 5.686-6.189 8.073-10.643 2.421-4.517-2.289-11.608 4.319-18.756 3.759-4.066 17.611-4.035 19.566 4.46 0.551 2.395 1.023 6.236-0.396 9.478-0.515 1.174-0.645 6.699-0.632 6.997 0.021 0.5-1.638-0.062-2.213 0.217s-2.9 5.674-4.01 6.532c-1.111 0.859-5.312-0.815-5.987-0.523s-3.519 4.062-4.941 6.913l-13.779-4.675z" fill="#FFD9C8"/>
<path d="m151.62 24.793c0.391 0.301 2.819 1.876 5.275 2.261 2.571 0.403 3.695 0.667 4.819 0.519 1.124-0.146 3.418-2.706 4.201-3.904 0 0-0.734-2.861 0.832-3.863 1.51-0.966 2.415 0.37 2.123 1.949l0.946 0.308s0.403-1.436 0.959-2.518c0.649-1.263 2.116-0.628 3.27-1.219 1.155-0.59 0.613-2.718 1.289-3.597 0.657-0.855 3.426-0.989 4.252-5.277 0.059-0.308 0.06-1.647-0.027-1.971-0.227-0.844-1.044-2.011-2.482-2.302-3.288-0.667-3.527-0.88-6.227-2.023-2.7-1.142-10.709-4.494-15.203 0.326-0.438 0.47-3.233-0.164-4.561 3.091-1.194 2.929-0.736 4.772 0.73 10.995 0.819 3.48-0.196 7.225-0.196 7.225" fill="#AB5605"/>
<path d="m140.7 81.146c5.604-8.249 9.561-13.968 19.568-26.843 4.993-6.423 7.924-11.699 5.526-13.658-1.687-1.379-4.59-3.412-4.59-3.412s-8.674-5.892-16.703-6.964c-3.312-0.442-12.894 3.192-17.928 7.395-1.855 1.548-5.02 3.889-12.603 18.289-8.57 16.275-13.852 27.094-13.852 27.094l40.582-1.901z" fill="#FFC300"/>
<path d="m171.84 50.627c-2.148-5.801-4.493-10.502-9.124-11.318-6.225-1.099-14.542 9.717-6.429 19.952 0 0 12.921 17.772 13.523 18.389 0.601 0.617 6.051 6.12 11.769 0.41 4.95-4.945 16.369-20.244 16.369-20.244l-6.382-7.449-14.695 13.503-5.031-13.243z" fill="#FFC300"/>
<g transform="translate(151 52)">
<mask id="v" fill="white">
<use xlink:href="#i"/>
</mask>
<path d="m0.633 0.858s2.458 2.859 7.255 4.212c5.562 1.571 6.986 8.112 7.548 12.93 0.322 2.757 5.635 10.145 8.407 10.409-0.727 0.119-3.732-0.758-6.7-4.929-1.774-2.494-16.51-22.622-16.51-22.622" fill="url(#ac)" mask="url(#v)"/>
</g>
<g transform="translate(147)">
<mask id="u" fill="white">
<use xlink:href="#h"/>
</mask>
<path d="m4.639 5.498s-1.86 2.572-0.903 7.153c0.957 4.58 1.583 6.291 1.343 8.562-0.113 1.057 0.124 2.254-0.456 3.58-0.573 1.311-2.288 3.871-4.032 6.08l4.218 1.404c-0.617-5.502 4.808-4.384 2.815-14.713-0.858-4.447 4.809-4.554 4.833-8.682 9e-3 -1.711-0.63-2.832-0.927-3.814-0.972-3.212 4.028-4.091 4.028-4.091-0.317-0.174-2.618-0.038-4.495 0.776-1.272 0.552-2.17 1.595-2.516 1.761-0.624 0.298-2.836 0.367-3.908 1.984" fill="#964B03" mask="url(#u)"/>
</g>
<g transform="translate(200 39)">
<mask id="s" fill="white">
<use xlink:href="#g"/>
</mask>
<path d="m2.997 1.236-2.005-0.756 1.178 3.512 4.999 6.673-1.411-7.63s-0.055-1.435-2.761-1.799" fill="url(#ab)" mask="url(#s)"/>
</g>
</g>
<g transform="translate(198 17.09)">
<mask id="r" fill="white">
<use xlink:href="#f"/>
</mask>
<path d="m0.341 6.726c-1.48 6.024 2.979 9.835 2.979 9.835 3.571-0.623 5.494-3.706 6.076-5.274 0.534-1.438 1.818-4.411 0.826-7.551-1.02-3.234-3.171-3.528-3.171-3.528s-5.302 0.786-6.71 6.518" fill="url(#aa)" mask="url(#r)"/>
</g>
<g transform="translate(100 3.09)">
<path d="m77.689 1.9347c0.662 0.243 1.072 0.54 1.513 0.936 0.417 0.389 0.759 0.859 0.991 1.368 0.471 1.037 0.493 2.114 0.31 3.096-0.186 0.996-0.621 1.889-1.153 2.671-0.538 0.783-1.168 1.474-1.844 2.104 1.083-1.472 1.986-3.178 1.982-4.879-1e-3 -0.838-0.206-1.675-0.624-2.26-0.208-0.298-0.471-0.543-0.768-0.732-0.273-0.184-0.684-0.342-0.901-0.367l0.494-1.937z" fill="#AB5605"/>
<path d="m73.779 2.8498c0.446 1.452 0.262 3.15-0.631 4.513-0.448 0.674-1.083 1.22-1.788 1.578-0.696 0.385-1.486 0.521-2.243 0.53 0.654-0.412 1.291-0.734 1.824-1.187 0.532-0.439 1.018-0.908 1.376-1.477 0.379-0.554 0.656-1.179 0.889-1.841 0.233-0.665 0.381-1.371 0.573-2.116" fill="#B9722E"/>
<path d="m74.384 2.6486c0.515 0.366 0.851 0.944 1.041 1.551 0.198 0.611 0.219 1.27 0.139 1.903-0.103 0.633-0.321 1.234-0.637 1.772-0.314 0.537-0.723 1.008-1.22 1.381 0.065-0.311 0.165-0.59 0.256-0.869l0.25-0.825c0.145-0.545 0.292-1.071 0.363-1.606 0.155-1.068 0.134-2.122-0.192-3.307" fill="#B9722E"/>
<path d="m57.085 1.0529c-1.001-0.095-1.977-0.03-2.893 0.16-0.911 0.202-1.758 0.566-2.427 1.151-0.184 0.126-0.339 0.287-0.482 0.461-0.15 0.167-0.308 0.327-0.42 0.528-0.124 0.191-0.262 0.375-0.379 0.574-0.094 0.213-0.196 0.422-0.304 0.633-0.22 0.418-0.328 0.892-0.517 1.344-0.135 0.468-0.247 0.949-0.417 1.434-0.052-0.5-0.069-1.01-0.066-1.522 0.081-0.501 0.091-1.03 0.267-1.524 0.246-1.018 0.857-1.972 1.675-2.693 0.84-0.708 1.915-1.1 2.965-1.156 1.049-0.062 2.103 0.115 2.998 0.61" fill="#994300"/>
<g transform="translate(0 27)">
<mask id="q" fill="white">
<use xlink:href="#e"/>
</mask>
<path d="m20.731 51.224c12.765-4.515 15.878-14.321 13.699-23.973-2.18-9.651 1.09-15.878 7.16-17.901 6.071-2.025 13.854-4.982 13.854-4.982s-2.941-2.772-10.887-4.114c-3.168 0.054-9.666 1.503-16.968 6.712-7.303 5.208-14.874 21.209-14.874 21.209l-11.128 21.736s-0.984 1.155-1.4653 3.163c-0.080734 0.338 18.36-0.889 18.36-0.889 0.73-0.366 1.479-0.689 2.249-0.961" fill="#E2AE03" mask="url(#q)"/>
</g>
<g transform="translate(92 48)">
<mask id="p" fill="white">
<use xlink:href="#d"/>
</mask>
<path d="m4.805 5.607 1.991-1.465s-6.01-3.38-5.935-3.193c0.075 0.188 3.944 4.658 3.944 4.658" fill="url(#y)" mask="url(#p)"/>
</g>
</g>
</g>
</g>
</g>
</svg>
