<svg height="80" viewBox="0 0 72 80" width="72" xmlns="http://www.w3.org/2000/svg" xmlns:xlink="http://www.w3.org/1999/xlink"><linearGradient id="a"><stop offset="0" stop-color="#ffc600"/><stop offset=".2732" stop-color="#ffbf00"/><stop offset=".6556" stop-color="#fead00"/><stop offset="1" stop-color="#fd9700"/></linearGradient><linearGradient id="b" x1="49.875%" x2="49.875%" xlink:href="#a" y1="-1.7995%" y2="74.052%"/><linearGradient id="c" x1="49.921631%" x2="49.921631%" xlink:href="#a" y1="-1.725887%" y2="73.902128%"/><linearGradient id="d" x1="55.567147%" x2="4.42173%" xlink:href="#a" y1="50.01186%" y2="50.01186%"/><linearGradient id="e" x1="47.542626%" x2="52.92569%" y1="2.265126%" y2="102.15032%"><stop offset=".001601562" stop-color="#11d829"/><stop offset="1" stop-color="#00a613"/></linearGradient><g fill="none"><circle cx="36.183486" cy="7.33945" fill="url(#b)" r="7.33945"/><circle cx="36.183486" cy="69.211009" fill="url(#c)" r="10.348624"/><path d="m67.8165138 61.2844037c-3.0825688 0-5.5045872-2.4954129-5.5045872-5.5779817v-19.0091743c0-11.3761468-7.266055-21.4311927-18.1284404-24.8807339l-1.6146789-.5137615s-2.7889908-.880734-5.7247706-.880734c-3.6697248 0-6.8990826.880734-6.8990826.880734l-1.6146789.5137615c-11.0091743 3.5229357-18.2752293 13.5045871-18.2752293 24.8807339v19.0091743c0 3.0825688-2.49541287 5.5779817-5.50458718 5.5779817-2.20183487 0-3.96330276 1.7614679-3.96330276 3.9633027 0 2.2018349 1.76146789 3.9633028 3.96330276 3.9633028h63.33944958c2.2018348 0 3.9633027-1.7614679 3.9633027-3.9633028 0-2.2018348-1.8348624-3.9633027-4.0366972-3.9633027z" fill="url(#d)"/><path d="m26.2018349 71.853211h19.9633027c.2201835-.8073394.3669725-1.6880734.3669725-2.5688073h-20.6972477c0 .8807339.146789 1.6880734.3669725 2.5688073z" fill="#ed8a32"/><circle cx="58.201835" cy="20.697248" fill="url(#e)" r="13.211009"/><path d="m4.7706422 10.7431193-3.74311926-4.47706425c-.51376147-.66055046-.44036698-1.54128441.14678899-2.05504588.58715596-.51376146 1.5412844-.44036697 2.05504587.146789l2.71559633 3.30275229 8.32110087-6.70642202c.6605505-.51376147 1.5412844-.44036697 2.0550459.14678899.5137615.66055046.440367 1.5412844-.146789 2.05504587l-9.34862383 7.6605505c-.66055046.5871559-1.4678899.6605504-2.05504587-.0733945z" fill="#fff" transform="translate(49.174312 15.412844)"/></g></svg>