<?xml version="1.0" encoding="utf-8"?>
<!-- Generator: Adobe Illustrator 16.0.0, SVG Export Plug-In . SVG Version: 6.00 Build 0)  -->
<!DOCTYPE svg PUBLIC "-//W3C//DTD SVG 1.1//EN" "http://www.w3.org/Graphics/SVG/1.1/DTD/svg11.dtd">
<svg version="1.1" id="illustration_1_" xmlns="http://www.w3.org/2000/svg" xmlns:xlink="http://www.w3.org/1999/xlink" x="0px"
	 y="0px" width="69.003px" height="84px" viewBox="0 0 69.003 84" enable-background="new 0 0 69.003 84" xml:space="preserve">
<g id="Ellipse_34">
	<g>
		<path fill-rule="evenodd" clip-rule="evenodd" fill="#DBE3E9" d="M12.142,66.781c-5.389,0-9.295,3.815-9.295,8.938
			c0,2.762,1.573,3.724,1.563,4.625c0.063-5.344,2.406-9.563,8.594-9.563c3.047,0,6.144,1.838,8,4
			C20.017,70.739,16.785,66.781,12.142,66.781z M46.663,66.294c0.002-0.002,0.003-0.003,0.004-0.005
			C46.629,66.29,46.585,66.294,46.663,66.294z M62.003,78.656c0.069,0.016,0.033-0.019-0.02-0.032
			C61.993,78.635,62.003,78.647,62.003,78.656z M53.707,67.875c-0.66,0-1.214,0.041-1.767,0.15
			c-0.298-1.668-1.688-2.932-3.364-2.932c-1.021,0-1.283,0.45-1.909,1.195c0.033-0.002,0.063-0.002-0.004,0.005
			c2.55,0,3.075,2.269,2.842,4.86c0.908-0.495,1.687-0.873,4.343-0.873c4.494,0,7.949,3.442,7.949,8.14
			c0,0.034,0.068,0.088,0.127,0.139c0.338-0.683,0.455-1.93,0.455-2.466C62.378,70.92,58.657,67.875,53.707,67.875z M61.878,78.656
			c0.024-0.043,0.068-0.042,0.105-0.032c-0.014-0.02-0.033-0.041-0.061-0.064C61.909,78.591,61.895,78.627,61.878,78.656z"/>
	</g>
</g>
<g>
	<polygon fill-rule="evenodd" clip-rule="evenodd" fill="#F8BD1E" points="35.265,70.662 34.685,70.186 31.482,69.591 31.482,61.5 
		38.482,61.5 38.482,72.763 36.468,73.724 	"/>
	<path fill="#000F50" d="M37.982,62v9v1.447l-1.245,0.594l-0.959-2.44l-0.095-0.242l-0.2-0.165l-0.38-0.313l-0.199-0.164
		L34.65,69.67l-2.668-0.495V62H37.982 M38.982,61h-8v9.007l3.485,0.646l0.38,0.313l1.352,3.44l2.783-1.328V71V61L38.982,61z"/>
</g>
<polygon fill-rule="evenodd" clip-rule="evenodd" fill="#FFD863" points="37.003,62 33.003,62 33.003,70 37.003,73 "/>
<g>
	<path fill-rule="evenodd" clip-rule="evenodd" fill="#A8BCD2" d="M22.503,61.5c0-1.687,1.122-3,2.5-3s2.5,1.313,2.5,2.929V61.5
		H22.503z"/>
	<path fill="#000F50" d="M25.003,59c0.982,0,1.802,0.864,1.969,2h-3.938C23.202,59.864,24.021,59,25.003,59 M25.003,58
		c-1.657,0-3,1.535-3,3.429c0,0.315,0.224,0.571,0.5,0.571h5c0.276,0,0.5-0.256,0.5-0.571C28.003,59.535,26.66,58,25.003,58
		L25.003,58z"/>
</g>
<g>
	<path fill-rule="evenodd" clip-rule="evenodd" fill="#A8BCD2" d="M42.503,61.5c0-1.687,1.121-3,2.5-3s2.5,1.313,2.5,2.929V61.5
		H42.503z"/>
	<path fill="#000F50" d="M45.003,59c0.982,0,1.802,0.864,1.969,2h-3.938C43.202,59.864,44.021,59,45.003,59 M45.003,58
		c-1.657,0-3,1.535-3,3.429c0,0.315,0.224,0.571,0.5,0.571h5c0.276,0,0.5-0.256,0.5-0.571C48.003,59.535,46.661,58,45.003,58
		L45.003,58z"/>
</g>
<g>
	<path fill-rule="evenodd" clip-rule="evenodd" fill="#A8BCD2" d="M30.477,61.5c0.026-1.687,1.077-3,2.368-3h4.316
		c1.291,0,2.342,1.313,2.342,2.929L39.53,61.5H30.477z"/>
	<path fill="#000F50" d="M37.162,59c0.888,0,1.653,0.88,1.812,2h-7.939c0.159-1.12,0.924-2,1.812-2H37.162 M37.162,58h-4.316
		c-1.569,0-2.842,1.535-2.842,3.429c0,0.315,0.212,0.571,0.474,0.571h9.053c0.262,0,0.474-0.256,0.474-0.571
		C40.003,59.535,38.731,58,37.162,58L37.162,58z"/>
</g>
<g>
	<path fill-rule="evenodd" clip-rule="evenodd" fill="#FF5050" d="M27.503,55.5v-44c0-4.952,3.461-11,7.5-11s7.5,6.048,7.5,11v44
		H27.503z"/>
	<path fill="#000F50" d="M35.003,1c3.77,0,7,5.773,7,10.5V55h-14V11.5C28.003,6.773,31.233,1,35.003,1 M35.003,0
		c-4.545,0-8,6.529-8,11.5V56h16V11.5C43.003,6.529,39.548,0,35.003,0L35.003,0z"/>
</g>
<path fill-rule="evenodd" clip-rule="evenodd" fill="#E23737" d="M31.003,10.697v40.295h-3V11.259
	c0-4.369,2.932-10.074,6.816-10.251C32.503,3.366,31.003,7.369,31.003,10.697z"/>
<g>
	<path fill-rule="evenodd" clip-rule="evenodd" fill="#FFFFFF" d="M23.016,58.5c-0.274,0-0.497-0.225-0.497-0.5V14
		c0-0.139,0.011-0.225,0.022-0.276c0.152,0.022,0.39,0.109,0.62,0.193c0.508,0.186,1.14,0.417,1.851,0.417
		c0.71,0,1.343-0.231,1.85-0.417c0.234-0.085,0.475-0.173,0.62-0.194c0.011,0.051,0.022,0.138,0.022,0.278v44
		c0,0.275-0.223,0.5-0.497,0.5H23.016z"/>
	<path fill="#000F50" d="M23.019,14.397c0.513,0.188,1.208,0.436,1.992,0.436c0.784,0,1.479-0.249,1.992-0.436L27.006,58h-3.987
		V14.397 M27.537,13.218c-0.531,0-1.464,0.616-2.526,0.616s-1.995-0.616-2.526-0.616c-0.295,0-0.466,0.19-0.466,0.782v44
		c0,0.552,0.446,1,0.997,1h3.99c0.551,0,0.997-0.448,0.997-1V14C28.003,13.408,27.833,13.218,27.537,13.218L27.537,13.218z"/>
</g>
<g>
	<path fill-rule="evenodd" clip-rule="evenodd" fill="#FFFFFF" d="M43,58.5c-0.274,0-0.497-0.225-0.497-0.5V14
		c0-0.118,0.008-0.197,0.017-0.248c0.145,0.031,0.371,0.121,0.576,0.202c0.52,0.207,1.166,0.463,1.899,0.463s1.38-0.256,1.899-0.463
		c0.206-0.082,0.434-0.172,0.576-0.202c0.009,0.051,0.017,0.13,0.017,0.248v44c0,0.275-0.223,0.5-0.497,0.5H43z"/>
	<path fill="#000F50" d="M46.988,14.456L46.991,58h-3.987V14.456c0.521,0.205,1.21,0.461,1.992,0.461S46.467,14.661,46.988,14.456
		 M47.552,13.241c-0.525,0-1.474,0.676-2.557,0.676s-2.031-0.676-2.557-0.676c-0.276,0-0.436,0.188-0.436,0.759v44
		c0,0.552,0.446,1,0.997,1h3.99c0.551,0,0.997-0.448,0.997-1V14C47.988,13.429,47.829,13.241,47.552,13.241L47.552,13.241z"/>
</g>
<g>
	<path fill-rule="evenodd" clip-rule="evenodd" fill="#FFD863" d="M42.503,16.5V14c0-1.378,1.118-2.5,2.492-2.5
		s2.492,1.122,2.492,2.5v2.5H42.503z"/>
	<path fill="#000F50" d="M44.996,12c1.099,0,1.992,0.897,1.992,2v2h-3.984v-2C43.003,12.897,43.897,12,44.996,12 M44.996,11
		c-1.652,0-2.992,1.343-2.992,3v3h5.984v-3C47.988,12.343,46.648,11,44.996,11L44.996,11z"/>
</g>
<g>
	<path fill-rule="evenodd" clip-rule="evenodd" fill="#FFD863" d="M22.511,16.5V14c0-1.378,1.118-2.5,2.492-2.5
		s2.492,1.122,2.492,2.5v2.5H22.511z"/>
	<path fill="#000F50" d="M25.003,12c1.099,0,1.992,0.897,1.992,2v2h-3.984v-2C23.011,12.897,23.905,12,25.003,12 M25.003,11
		c-1.652,0-2.992,1.343-2.992,3v3h5.984v-3C27.996,12.343,26.656,11,25.003,11L25.003,11z"/>
</g>
<path fill-rule="evenodd" clip-rule="evenodd" fill="#F8BD1E" d="M43.003,14c0-1.104,0.896-2,2-2v4h-2V14z"/>
<path fill-rule="evenodd" clip-rule="evenodd" fill="#F8BD1E" d="M23.003,14c0-1.104,0.896-2,2-2v4h-2V14z"/>
<rect x="23.003" y="17" fill-rule="evenodd" clip-rule="evenodd" fill="#D7E1EA" width="2" height="25"/>
<rect x="43.003" y="17" fill-rule="evenodd" clip-rule="evenodd" fill="#D7E1EA" width="2" height="25"/>
<rect x="23.003" y="56" fill-rule="evenodd" clip-rule="evenodd" fill="#D7E1EA" width="2" height="2"/>
<rect x="43.003" y="56" fill-rule="evenodd" clip-rule="evenodd" fill="#D7E1EA" width="2" height="2"/>
<rect x="23.003" y="17" fill-rule="evenodd" clip-rule="evenodd" fill="#A8BCD2" width="4" height="1"/>
<rect x="23.003" y="28" fill-rule="evenodd" clip-rule="evenodd" fill="#A8BCD2" width="4" height="1"/>
<rect x="43.003" y="17" fill-rule="evenodd" clip-rule="evenodd" fill="#A8BCD2" width="4" height="1"/>
<rect x="43.003" y="28" fill-rule="evenodd" clip-rule="evenodd" fill="#A8BCD2" width="4" height="1"/>
<rect x="23.003" y="17" fill-rule="evenodd" clip-rule="evenodd" fill="#7992AE" width="2" height="1"/>
<rect x="23.003" y="28" fill-rule="evenodd" clip-rule="evenodd" fill="#7992AE" width="2" height="1"/>
<rect x="43.003" y="17" fill-rule="evenodd" clip-rule="evenodd" fill="#7992AE" width="2" height="1"/>
<rect x="43.003" y="28" fill-rule="evenodd" clip-rule="evenodd" fill="#7992AE" width="2" height="1"/>
<rect x="42.003" y="16" fill-rule="evenodd" clip-rule="evenodd" fill="#000F50" width="6" height="1"/>
<rect x="42.003" y="18" fill-rule="evenodd" clip-rule="evenodd" fill="#000F50" width="6" height="1"/>
<rect x="42.003" y="27" fill-rule="evenodd" clip-rule="evenodd" fill="#000F50" width="6" height="1"/>
<rect x="42.003" y="29" fill-rule="evenodd" clip-rule="evenodd" fill="#000F50" width="6" height="1"/>
<rect x="22.003" y="16" fill-rule="evenodd" clip-rule="evenodd" fill="#000F50" width="6" height="1"/>
<rect x="22.003" y="18" fill-rule="evenodd" clip-rule="evenodd" fill="#000F50" width="6" height="1"/>
<rect x="22.003" y="27" fill-rule="evenodd" clip-rule="evenodd" fill="#000F50" width="6" height="1"/>
<rect x="22.003" y="29" fill-rule="evenodd" clip-rule="evenodd" fill="#000F50" width="6" height="1"/>
<g>
	<path fill-rule="evenodd" clip-rule="evenodd" fill="#FFFFFF" d="M17.966,55.5c-0.255,0-0.463-0.225-0.463-0.5v-4.25
		c0-4.664,3.193-6.984,6.28-9.227c0.883-0.642,1.717-1.248,2.457-1.898c1.595-1.402,2.62-2.883,3.263-4.079V55.5H17.966z"/>
	<path fill="#000F50" d="M29.003,37.298V55H18.929h-0.926v-3v-0.719V50.75c0-4.409,3.088-6.652,6.074-8.822
		c0.893-0.648,1.736-1.261,2.493-1.927C27.591,39.104,28.387,38.173,29.003,37.298 M30.003,33c0,0-0.757,3.317-4.093,6.25
		c-3.284,2.887-8.907,5.194-8.907,11.5v0.533c0,0,0-0.001,0-0.002V52v3c0,0.552,0.431,1,0.963,1h0.963h11.074V33L30.003,33z"/>
</g>
<path fill-rule="evenodd" clip-rule="evenodd" fill="#D7E1EA" d="M28.997,37.313V53h-2V39.615
	C27.896,38.641,28.41,38.139,28.997,37.313z"/>
<g>
	<path fill-rule="evenodd" clip-rule="evenodd" fill="#FFFFFF" d="M40.503,55.5V35.546c0.643,1.196,1.668,2.677,3.263,4.079
		c0.739,0.65,1.574,1.257,2.458,1.898c3.087,2.243,6.279,4.562,6.279,9.226V55c0,0.275-0.208,0.5-0.463,0.5H40.503z"/>
	<path fill="#000F50" d="M41.003,37.298c0.616,0.875,1.412,1.806,2.433,2.703c0.757,0.666,1.601,1.279,2.494,1.928
		c2.985,2.169,6.073,4.412,6.073,8.821v0.531V52l0.037,3h-0.963H41.003V37.298 M40.003,33v23h11.074h0.963
		c0.531,0,0.963-0.448,0.963-1v-3v-0.719c0,0.001,0,0.002,0,0.002s0-0.001,0-0.002c0-0.031,0-0.531,0-0.531
		c0-6.306-5.624-8.613-8.907-11.5C40.76,36.317,40.003,33,40.003,33L40.003,33z"/>
</g>
<rect x="18.003" y="53" fill-rule="evenodd" clip-rule="evenodd" fill="#000F50" width="11" height="1"/>
<rect x="41.003" y="53" fill-rule="evenodd" clip-rule="evenodd" fill="#000F50" width="11.031" height="1"/>
<rect x="18.003" y="54" fill-rule="evenodd" clip-rule="evenodd" fill="#A8BCD2" width="11" height="1"/>
<rect x="41.003" y="54" fill-rule="evenodd" clip-rule="evenodd" fill="#A8BCD2" width="11.031" height="1"/>
<rect x="27.003" y="54" fill-rule="evenodd" clip-rule="evenodd" fill="#7992AE" width="2" height="1"/>
<g>
	<path fill-rule="evenodd" clip-rule="evenodd" fill="#FFFFFF" d="M29.892,58.5c-0.21,0-0.389-0.229-0.389-0.5V22.202
		c0-3.931,2.718-10.702,5.5-10.702s5.5,6.771,5.5,10.702V58c0,0.271-0.178,0.5-0.389,0.5H29.892z"/>
	<path fill="#000F50" d="M35.003,12c2.43,0,5,6.634,5,10.202V56.5L39.995,58h-9.991v-1.5V22.202C30.003,18.634,32.574,12,35.003,12
		 M35.003,11c-3.313,0-6,7.441-6,11.202V56.5V58c0,0.552,0.397,1,0.889,1h10.223c0.49,0,0.889-0.448,0.889-1v-1.5V22.202
		C41.003,18.441,38.317,11,35.003,11L35.003,11z"/>
</g>
<path fill-rule="evenodd" clip-rule="evenodd" fill="#D7E1EA" d="M32.003,21.166v34.297v1.5v1h-2v-1v-2.344V22.218
	c0-3.56,2.489-10.218,4.979-10.218C33.203,14.483,32.003,18.657,32.003,21.166z"/>
<path fill-rule="evenodd" clip-rule="evenodd" fill="#000F50" d="M38.123,21.763C37.724,21.075,36.51,20,35.003,20
	c-1.476,0-2.665,1.024-3.119,1.763L31.003,20c0.525-0.654,1.921-2,4-2c1.985,0,3.474,1.346,4,2L38.123,21.763z"/>
<rect x="30.003" y="26" fill-rule="evenodd" clip-rule="evenodd" fill="#DFE7EE" width="10" height="1"/>
<rect x="30.003" y="32" fill-rule="evenodd" clip-rule="evenodd" fill="#DFE7EE" width="10" height="1"/>
<rect x="30.003" y="38" fill-rule="evenodd" clip-rule="evenodd" fill="#DFE7EE" width="10" height="1"/>
<rect x="30.003" y="26" fill-rule="evenodd" clip-rule="evenodd" fill="#B2C1CF" width="2" height="1"/>
<rect x="30.003" y="32" fill-rule="evenodd" clip-rule="evenodd" fill="#B2C1CF" width="2" height="1"/>
<rect x="30.003" y="38" fill-rule="evenodd" clip-rule="evenodd" fill="#B2C1CF" width="2" height="1"/>
<path fill-rule="evenodd" clip-rule="evenodd" fill="#000F50" d="M35.003,46c-0.553,0-1,0.56-1,1.25v10.5c0,0.69,0.447,1.25,1,1.25
	c0.552,0,1-0.56,1-1.25v-10.5C36.003,46.56,35.555,46,35.003,46z"/>
<path fill-rule="evenodd" clip-rule="evenodd" fill="#000F50" d="M29.742,71.707l-0.006-0.003c-0.08,0.165-0.252,0.28-0.451,0.28
	c-0.276,0-0.5-0.218-0.5-0.487c0-0.076,0.02-0.147,0.051-0.211c0.106-0.271,0.168-0.564,0.168-0.872c0-1.347-1.119-2.438-2.5-2.438
	c-0.173,0-0.5-0.232-0.5-0.731v-0.205c0.163-0.023,0.329-0.039,0.5-0.039c1.933,0,3.5,1.528,3.5,3.414
	C30.003,70.872,29.91,71.309,29.742,71.707z"/>
<path fill-rule="evenodd" clip-rule="evenodd" fill="#000F50" d="M24.932,69.485c0.039,0.077,0.063,0.164,0.063,0.259
	c0,0.298-0.222,0.539-0.495,0.539c-0.174,0-0.326-0.099-0.415-0.247c-0.047-0.055-0.101-0.125-0.161-0.215
	c-0.008-0.013-0.02-0.021-0.029-0.032c-0.961-0.997-2.493-0.986-3.442,0.032c-0.219,0.235-0.385,0.505-0.504,0.791
	c-0.023,0.073-0.061,0.142-0.114,0.199c-0.191,0.206-0.503,0.206-0.694,0c-0.139-0.148-0.176-0.364-0.113-0.55l-0.007-0.003
	c0.168-0.43,0.413-0.833,0.738-1.184c1.343-1.441,3.519-1.441,4.861,0c0.08,0.087,0.147,0.182,0.218,0.275
	c0.028,0.029,0.054,0.061,0.075,0.096C24.929,69.47,24.932,69.485,24.932,69.485z"/>
<path fill-rule="evenodd" clip-rule="evenodd" fill="#000F50" d="M4.758,80.267c0.069,0.039,0.13,0.093,0.173,0.164
	c0.136,0.223,0.055,0.508-0.18,0.637c-0.15,0.082-0.326,0.08-0.47,0.011c-0.066-0.019-0.144-0.047-0.237-0.086
	c-0.013-0.005-0.026-0.006-0.04-0.009c-1.281-0.295-2.595,0.436-2.946,1.646c-0.081,0.278-0.102,0.559-0.072,0.829
	c0.013,0.065,0.012,0.135-0.009,0.203c-0.07,0.245-0.338,0.392-0.597,0.327c-0.188-0.046-0.317-0.189-0.349-0.358l-0.007,0.001
	c-0.052-0.4-0.024-0.818,0.096-1.233c0.498-1.712,2.37-2.737,4.182-2.29c0.109,0.026,0.21,0.065,0.313,0.103
	c0.038,0.009,0.075,0.021,0.109,0.036C4.75,80.257,4.758,80.267,4.758,80.267z"/>
<path fill-rule="evenodd" clip-rule="evenodd" fill="#000F50" d="M33.932,78.485c0.039,0.077,0.063,0.164,0.063,0.259
	c0,0.298-0.222,0.539-0.495,0.539c-0.174,0-0.326-0.099-0.415-0.247c-0.047-0.055-0.101-0.125-0.161-0.215
	c-0.008-0.013-0.02-0.021-0.029-0.032c-0.961-0.997-2.493-0.986-3.442,0.032c-0.219,0.235-0.385,0.505-0.504,0.791
	c-0.023,0.073-0.061,0.142-0.114,0.199c-0.191,0.206-0.503,0.206-0.694,0c-0.139-0.148-0.176-0.364-0.114-0.55l-0.006-0.003
	c0.167-0.43,0.412-0.833,0.738-1.184c1.343-1.441,3.519-1.441,4.861,0c0.08,0.087,0.147,0.182,0.218,0.275
	c0.028,0.029,0.054,0.061,0.075,0.096C33.929,78.471,33.932,78.485,33.932,78.485z"/>
<path fill-rule="evenodd" clip-rule="evenodd" fill="#000F50" d="M52.002,67.58c-0.002,0.069-0.022,0.14-0.068,0.204
	c-0.146,0.204-0.467,0.273-0.719,0.156c-0.16-0.075-0.216-0.099-0.224-0.238c-0.018-0.058-0.069-0.238-0.081-0.326
	c-0.001-0.012-0.008-0.022-0.012-0.034c-0.398-1.096-1.814-1.748-3.185-1.459c-0.316,0.066-0.601,0.18-0.85,0.324
	c-0.057,0.039-0.125,0.07-0.202,0.087c-0.277,0.058-0.563-0.075-0.64-0.299c-0.055-0.162,0.016-0.325,0.164-0.426l-0.005-0.004
	c0.364-0.222,0.786-0.393,1.257-0.491c1.938-0.408,3.942,0.528,4.475,2.091c0.032,0.094,0.048,0.188,0.066,0.282
	c0.013,0.031,0.021,0.064,0.023,0.098C52.007,67.568,52.002,67.58,52.002,67.58z"/>
<path fill-rule="evenodd" clip-rule="evenodd" fill="#000F50" d="M37.003,74.656c0,0.276-0.228,0.5-0.508,0.5
	s-0.508-0.224-0.508-0.5l0,0h-0.002c0-2.485-2.046-4.5-4.571-4.5c-0.708,0-1.377,0.163-1.975,0.446L29,69.702
	c0.731-0.347,1.548-0.546,2.414-0.546c3.076,0,5.571,2.448,5.586,5.473C37.001,74.639,37.003,74.646,37.003,74.656z"/>
<path fill-rule="evenodd" clip-rule="evenodd" fill="#000F50" d="M28.768,78.716c0.226,0.134,0.304,0.431,0.173,0.662
	c-0.13,0.232-0.419,0.312-0.645,0.178l0,0v0.001c-2.032-1.205-4.629-0.49-5.802,1.598c-0.329,0.585-0.506,1.217-0.553,1.849
	l-0.94-0.073c0.057-0.772,0.273-1.545,0.676-2.261c1.429-2.543,4.588-3.418,7.067-1.964C28.752,78.709,28.761,78.712,28.768,78.716z
	"/>
<path fill-rule="evenodd" clip-rule="evenodd" fill="#000F50" d="M53.513,81c-0.271,0-0.49-0.224-0.49-0.5l0,0h-0.002
	c0-2.485-1.976-4.5-4.413-4.5c-0.685,0-1.33,0.163-1.907,0.446L46.7,76.445c-0.059,0.025-0.123,0.039-0.19,0.039
	c-0.271,0-0.49-0.224-0.49-0.5c0-0.19,0.104-0.354,0.258-0.438l-0.001-0.001c0.004-0.002,0.008-0.004,0.012-0.005
	c0.017-0.009,0.034-0.018,0.052-0.024C47.03,75.189,47.795,75,48.607,75c2.971,0,5.379,2.448,5.394,5.473
	c0.001,0.01,0.003,0.018,0.003,0.027C54.003,80.776,53.784,81,53.513,81z"/>
<path fill-rule="evenodd" clip-rule="evenodd" fill="#000F50" d="M68.003,83.034c0-2.799-2.351-5.068-5.25-5.068
	c-0.256,0-0.505,0.023-0.75,0.057v-0.976C62.25,77.019,62.499,77,62.753,77c3.451,0,6.25,2.701,6.25,6.034
	c0,0.33-0.035,0.65-0.088,0.966h-0.162c0.054-0.269-0.75-0.399-0.75-0.725C68.003,83.108,68.003,83.081,68.003,83.034z"/>
<path fill-rule="evenodd" clip-rule="evenodd" fill="#000F50" d="M11.853,65.997c3.396,0,6.391,1.652,8.162,4.166l-0.93,0.573
	c-1.59-2.256-4.185-3.767-7.231-3.767c-4.884,0-8.843,3.806-8.843,8.502c0,1.855,0.62,3.571,1.67,4.969l-0.82,0.568
	C2.692,79.45,2,77.539,2,75.471C2,70.239,6.412,65.997,11.853,65.997z"/>
<path fill-rule="evenodd" clip-rule="evenodd" fill="#000F50" d="M62.722,78.684l-0.008-0.003c-0.069,0.182-0.243,0.312-0.45,0.312
	c-0.266,0-0.481-0.216-0.481-0.482c0-0.059,0.012-0.114,0.031-0.167l-0.004-0.002c0.147-0.621,0.229-1.268,0.229-1.934
	c0-4.663-3.779-8.442-8.442-8.442c-0.78,0-1.734,0.149-2.452,0.348l-0.233-0.937C51.732,67.142,52.7,67,53.596,67
	c5.195,0,9.407,4.212,9.407,9.407C63.003,77.192,62.905,77.955,62.722,78.684z"/>
<path fill-rule="evenodd" clip-rule="evenodd" fill="#000F50" d="M46.019,67.721c0,0.279-0.229,0.507-0.512,0.507
	c-0.052,0-0.102-0.011-0.149-0.024v0.001c-0.392-0.123-0.809-0.19-1.241-0.19c-2.259,0-4.091,1.815-4.091,4.054
	c0,0.448,0.076,0.879,0.212,1.282l-0.003,0.001c0.014,0.045,0.022,0.093,0.022,0.143c0,0.28-0.229,0.507-0.511,0.507
	c-0.22,0-0.405-0.138-0.478-0.33h-0.001c-0.003-0.009-0.005-0.018-0.007-0.025c-0.006-0.018-0.013-0.035-0.017-0.055
	c-0.153-0.48-0.241-0.99-0.241-1.522c0-2.799,2.289-5.067,5.113-5.067c0.541,0,1.062,0.084,1.551,0.238l-0.001,0.003
	C45.871,67.308,46.019,67.496,46.019,67.721z"/>
<path fill-rule="evenodd" clip-rule="evenodd" fill="#000F50" d="M39.814,73.405c-0.265-0.108-0.55-0.171-0.849-0.171
	c-1.104,0-2.034,0.808-2.338,1.916l-0.629-1.092c0.589-1.136,1.695-1.902,2.967-1.902c0.363,0,0.713,0.063,1.042,0.18L39.814,73.405
	z"/>
<polygon fill-rule="evenodd" clip-rule="evenodd" fill="#D7E1EA" points="30.003,53.75 34.003,47 34.003,58 30.003,58 "/>
<rect x="23.003" y="61" fill-rule="evenodd" clip-rule="evenodd" fill="#000F50" width="1" height="8.156"/>
<rect x="26.003" y="61" fill-rule="evenodd" clip-rule="evenodd" fill="#000F50" width="1" height="6.313"/>
<rect x="43.003" y="61" fill-rule="evenodd" clip-rule="evenodd" fill="#000F50" width="1" height="6.313"/>
<rect x="46.019" y="61" fill-rule="evenodd" clip-rule="evenodd" fill="#000F50" width="1" height="4.813"/>
</svg>
