<svg id="Layer_1" data-name="Layer 1" xmlns="http://www.w3.org/2000/svg" viewBox="0 0 114.21 114.21"><defs><style>.cls-1{fill:#7749ff;}</style></defs><title>social-icon</title><g id="post-twitter"><path class="cls-1" d="M102.79,0H11.42A11.45,11.45,0,0,0,0,11.42v91.36a11.45,11.45,0,0,0,11.42,11.42h91.36a11.45,11.45,0,0,0,11.42-11.42V11.42A11.45,11.45,0,0,0,102.79,0ZM89.65,41.69C89.08,68,72.52,86.23,47.4,87.37c-10.28.57-17.7-2.86-24.55-6.85C30.26,81.66,40,78.8,45.11,74.23c-7.42-.57-12-4.57-14.28-10.85,2.28.57,4.57,0,6.28,0C30.26,61.1,25.7,57.1,25.13,48a11.51,11.51,0,0,0,6.28,1.71c-5.14-2.86-8.57-13.7-4.57-20.56,7.42,8,16.56,14.85,31.41,16-4-16,17.7-24.55,26.27-13.7,4-.57,6.85-2.28,9.71-3.43-1.14,4-3.43,6.28-6.28,8.57a32.73,32.73,0,0,0,8-2.28C95.36,37.12,92.51,39.4,89.65,41.69Z"/></g></svg>