<svg xmlns="http://www.w3.org/2000/svg" width="230" height="319" viewBox="45 0 230 319"><ellipse fill="#DFE6ED" cx="160" cy="309" rx="90" ry="10"/><path fill="#DBEEFF" d="M160 78c-20.953 0-38-17.047-38-38s17.047-38 38-38 38 17.047 38 38-17.047 38-38 38zm0-68c-16.542 0-30 13.458-30 30s13.458 30 30 30 30-13.458 30-30-13.458-30-30-30z"/><path fill="#000F50" d="M160 4c19.852 0 36 16.149 36 36s-16.148 36-36 36c-19.851 0-36-16.149-36-36s16.149-36 36-36m0 68c17.645 0 32-14.355 32-32S177.645 8 160 8s-32 14.355-32 32 14.355 32 32 32m0-72c-22.092 0-40 17.908-40 40s17.908 40 40 40 40-17.908 40-40-17.908-40-40-40zm0 68c-15.464 0-28-12.536-28-28s12.536-28 28-28 28 12.536 28 28-12.536 28-28 28z"/><path fill="#64CAFF" d="M152 59h16v24h-16z"/><path fill="#000F50" d="M166 61v20h-12V61h12m4-4h-20v28h20V57z"/><path fill="#FFC148" d="M148 59c-1.103 0-2-.897-2-2V37c0-1.103.897-2 2-2h24c1.104 0 2 .897 2 2v20c0 1.103-.896 2-2 2h-24z"/><path fill="#000F50" d="M172 37v20h-24V37h24m0-4h-24a4 4 0 0 0-4 4v20a4 4 0 0 0 4 4h24a4 4 0 0 0 4-4V37a4 4 0 0 0-4-4z"/><path fill="#FFDB96" d="M148 37h12v20h-12z"/><path fill="#EC9B00" d="M156 41a2 2 0 0 1 2 2v8a2 2 0 0 1-4 0v-8a2 2 0 0 1 2-2zM164 41a2 2 0 0 1 2 2v8a2 2 0 0 1-4 0v-8a2 2 0 0 1 2-2z"/><g><path fill="#64CAFF" d="M253.658 112.659l-16.97 16.969-7.313-7.315 16.968-16.969z"/><path fill="#000F50" d="M246.343 108.171l4.485 4.486-14.143 14.142-4.484-4.486 14.142-14.142m0-5.656l-19.799 19.799 10.144 10.143 19.799-19.799-10.144-10.143z"/><path fill="#EA3131" d="M257.898 116.071a1.985 1.985 0 0 1-1.412-.585l-12.973-12.971a1.982 1.982 0 0 1-.586-1.414c0-.534.207-1.036.586-1.414l10.143-10.143a1.988 1.988 0 0 1 1.414-.586c.535 0 1.037.208 1.414.585l12.972 12.971c.378.378.586.88.586 1.414 0 .535-.208 1.037-.586 1.415l-10.144 10.142a1.98 1.98 0 0 1-1.414.586z"/><path fill="#000F50" d="M255.07 90.958l12.972 12.971-10.144 10.142-12.972-12.97 10.14-10.142.004-.001m0-4a3.99 3.99 0 0 0-2.828 1.172L242.1 98.273a4 4 0 0 0 0 5.656l12.97 12.971c.781.781 1.806 1.172 2.828 1.172s2.047-.391 2.828-1.172l10.144-10.142a3.999 3.999 0 0 0 0-5.657L257.898 88.13a3.98 3.98 0 0 0-2.828-1.172z"/><path fill="#DBEEFF" d="M62.323 116.071a1.99 1.99 0 0 1-1.414-.585l-10.143-10.142a1.987 1.987 0 0 1-.586-1.415c0-.534.208-1.036.585-1.414l12.971-12.971c.378-.378.88-.586 1.414-.586.535 0 1.037.208 1.415.586l10.142 10.143c.378.378.586.88.586 1.414a1.99 1.99 0 0 1-.585 1.414l-12.971 12.971a1.99 1.99 0 0 1-1.414.585z"/><path fill="#000F50" d="M65.151 90.958L75.293 101.1l-12.97 12.971-10.142-10.142 12.967-12.971h.003m0-4a3.988 3.988 0 0 0-2.828 1.172l-12.971 12.971a3.999 3.999 0 0 0 0 5.657L59.495 116.9a3.988 3.988 0 0 0 2.828 1.172 3.988 3.988 0 0 0 2.828-1.172l12.971-12.971a3.997 3.997 0 0 0 0-5.656L67.98 88.13a3.989 3.989 0 0 0-2.829-1.172z"/><path fill="#FFF" d="M65.147 90.978l-6.607 6.607 10.132 10.134 6.625-6.61z"/><path fill="#FF5959" d="M255.219 90.978l6.607 6.607-10.133 10.134-6.625-6.61z"/></g><g><path fill="#64CAFF" d="M66.565 112.971l7.419-7.425 17.176 17.187-7.42 7.425z"/><path fill="#000F50" d="M73.984 108.375l14.348 14.358-4.592 4.595-14.348-14.358 4.592-4.595m0-5.658l-10.247 10.254 20.003 20.017 10.247-10.254-20.003-20.017z"/></g><g><path fill="#64CAFF" d="M160 313c-62.309 0-113-51.589-113-115S97.691 83 160 83s113 51.589 113 115-50.691 115-113 115z"/><path fill="#000F50" d="M160 85c29.637 0 57.502 11.746 78.465 33.072C259.445 139.418 271 167.805 271 198s-11.555 58.582-32.535 79.928C217.502 299.255 189.637 311 160 311c-29.636 0-57.502-11.745-78.464-33.072C60.555 256.582 49 228.195 49 198s11.555-58.582 32.536-79.928C102.498 96.746 130.364 85 160 85m0-4C96.487 81 45 133.383 45 198s51.487 117 115 117c63.514 0 115-52.383 115-117S223.514 81 160 81z"/><path fill="#BFE9FF" d="M160 89C99.367 89 50.122 137.623 49.051 198c-.012-.668-.051-1.329-.051-2 0-61.304 49.696-111 111-111 61.305 0 111 49.696 111 111 0 .671-.039 1.332-.051 2C269.878 137.623 220.633 89 160 89z"/><path fill="#16A2EA" d="M160 307c-60.633 0-109.878-48.623-110.949-109-.012.668-.051 1.329-.051 2 0 61.305 49.696 111 111 111 61.305 0 111-49.695 111-111 0-.671-.039-1.332-.051-2-1.071 60.377-50.316 109-110.949 109z"/><path fill="#FFF" d="M160 294c-54.038 0-98-43.963-98-98 0-54.038 43.962-98 98-98 54.037 0 98 43.962 98 98 0 54.037-43.963 98-98 98z"/><path fill="#000F50" d="M160 100c52.936 0 96 43.065 96 96 0 52.936-43.064 96-96 96-52.935 0-96-43.064-96-96 0-52.935 43.065-96 96-96m0-4c-55.229 0-100 44.771-100 100s44.771 100 100 100 100-44.771 100-100S215.229 96 160 96z"/><path fill="#DBE2EF" d="M160 106c-52.013 0-94.335 41.372-95.924 93-.031-.999-.076-1.994-.076-3 0-53.02 42.98-96 96-96s96 42.98 96 96c0 1.006-.045 2.001-.076 3-1.588-51.628-43.91-93-95.924-93z"/><path fill="#000F50" d="M160 108a2 2 0 0 1 2 2v8a2 2 0 0 1-4 0v-8a2 2 0 0 1 2-2zM160 272a2 2 0 0 1 2 2v8a2 2 0 0 1-4 0v-8a2 2 0 0 1 2-2zM248 196a2 2 0 0 1-2 2h-8a2 2 0 0 1 0-4h8a2 2 0 0 1 2 2zM84 196a2 2 0 0 1-2 2h-8a2 2 0 0 1 0-4h8a2 2 0 0 1 2 2zM204 119.79a1.999 1.999 0 0 1 .732 2.731l-4 6.929a2 2 0 0 1-3.464-2l4-6.929a2 2 0 0 1 2.732-.731zM122 261.818a1.996 1.996 0 0 1 .732 2.729l-4 6.931a2 2 0 0 1-3.464-2l4-6.931a2.002 2.002 0 0 1 2.732-.729zM236.21 240a1.998 1.998 0 0 1-2.731.732l-6.929-4a2 2 0 0 1 2-3.464l6.929 4a1.998 1.998 0 0 1 .731 2.732zM94.182 158a1.999 1.999 0 0 1-2.731.732l-6.929-4a2 2 0 0 1 2-3.464l6.929 4a2.001 2.001 0 0 1 .731 2.732zM236.21 152c.554.956.226 2.18-.731 2.732l-6.929 4a2 2 0 1 1-2-3.464l6.929-4a1.998 1.998 0 0 1 2.731.732zM94.182 234a2 2 0 0 1-.731 2.732l-6.929 4a2 2 0 1 1-2-3.464l6.929-4a1.999 1.999 0 0 1 2.731.732zM204 272.21a1.998 1.998 0 0 1-2.732-.731l-4-6.929a2 2 0 1 1 3.464-2l4 6.929a1.998 1.998 0 0 1-.732 2.731zM122 130.182a2 2 0 0 1-2.732-.731l-4-6.929a2 2 0 1 1 3.464-2l4 6.929a1.999 1.999 0 0 1-.732 2.731zM182.775 110.998a2.001 2.001 0 0 1 1.414 2.45l-2.069 7.728a2.002 2.002 0 0 1-2.45 1.414 2.002 2.002 0 0 1-1.414-2.45l2.07-7.727a2 2 0 0 1 2.449-1.415zM140.33 269.41a2 2 0 0 1 1.414 2.449l-2.07 7.728a2.001 2.001 0 0 1-3.864-1.035l2.07-7.728a2.001 2.001 0 0 1 2.45-1.414zM245.001 218.775a2 2 0 0 1-2.449 1.414l-7.728-2.069a2 2 0 0 1 1.035-3.864l7.728 2.07a2 2 0 0 1 1.414 2.449zM86.59 176.33a2.001 2.001 0 0 1-2.449 1.414l-7.728-2.07a2 2 0 0 1 1.035-3.863l7.728 2.069a2.002 2.002 0 0 1 1.414 2.45zM137.224 111.998a2.002 2.002 0 0 1 2.45 1.415l2.07 7.727a2.001 2.001 0 0 1-3.864 1.036l-2.07-7.728a2 2 0 0 1 1.414-2.45zM179.67 270.41a2.002 2.002 0 0 1 2.45 1.414l2.069 7.728a2 2 0 0 1-3.863 1.035l-2.07-7.728a2 2 0 0 1 1.414-2.449zM245.001 174.225a2 2 0 0 1-1.414 2.449l-7.728 2.07a2 2 0 0 1-1.035-3.864l7.728-2.069a1.996 1.996 0 0 1 2.449 1.414zM86.59 216.67a2.002 2.002 0 0 1-1.414 2.45l-7.728 2.069a2 2 0 0 1-1.035-3.863l7.728-2.07a2.001 2.001 0 0 1 2.449 1.414zM222.227 133.774c.78.781.78 2.048 0 2.829l-5.658 5.656a2 2 0 0 1-2.826-2.828l5.654-5.657a2.002 2.002 0 0 1 2.83 0zM106.26 249.74a2 2 0 0 1 0 2.828l-5.657 5.656a2 2 0 1 1-2.828-2.828l5.657-5.656a2 2 0 0 1 2.828 0zM222.227 258.227c-.781.78-2.049.78-2.83 0l-5.654-5.658a1.997 1.997 0 0 1 0-2.826 1.997 1.997 0 0 1 2.826 0l5.658 5.656c.78.779.78 2.044 0 2.828zM106.26 142.26a2 2 0 0 1-2.828 0l-5.657-5.656a2 2 0 0 1 2.828-2.829l5.657 5.657a2 2 0 0 1 0 2.828z"/><circle fill="#DBE2EF" cx="160" cy="200" r="12"/><path fill="#DBE2EF" d="M132 200c0 3.312 2.687 6 6 6h104c3.312 0 6-2.688 6-6s-2.688-6-6-6H138c-3.313 0-6 2.688-6 6z"/><path fill="#FF5959" d="M138 200c-2.206 0-4-1.794-4-4s1.794-4 4-4h104c2.206 0 4 1.794 4 4s-1.794 4-4 4H138z"/><path fill="#000F50" d="M242 194a2 2 0 0 1 0 4H138c-1.103 0-2-.896-2-2s.897-2 2-2h104m0-4H138c-3.313 0-6 2.688-6 6s2.687 6 6 6h104c3.312 0 6-2.688 6-6s-2.688-6-6-6z"/><g><path fill="#3E7CE4" d="M160 206c-5.514 0-10-4.486-10-10s4.486-10 10-10 10 4.486 10 10-4.486 10-10 10z"/><path fill="#000F50" d="M160 188c4.411 0 8 3.589 8 8s-3.589 8-8 8-8-3.589-8-8 3.589-8 8-8m0-4c-6.627 0-12 5.373-12 12s5.373 12 12 12 12-5.373 12-12-5.373-12-12-12z"/></g><path fill="#7EAFFF" d="M160 192c-3.727 0-6.849 2.552-7.738 6a8.004 8.004 0 0 1-.262-2 8 8 0 0 1 16 0c0 .691-.098 1.359-.264 2-.886-3.448-4.009-6-7.736-6z"/></g><g><path fill="#162461" d="M114.502 200c-17.63 0-19-19.9-19-26 0-14.953 7.065-20 28-20 20.187 0 27 3.28 27 13 0 11.541-18.505 33-36 33z"/><path fill="#000F50" d="M123.502 156c21.133 0 25 3.705 25 11 0 4.962-4.362 12.881-10.608 19.257-7.311 7.464-15.837 11.743-23.392 11.743-5.832 0-10.092-2.329-13.025-7.12-2.563-4.188-3.975-10.182-3.975-16.88 0-13.794 6.075-18 26-18m0-4c-19.33 0-30 3.85-30 22 0 13.25 5.17 28 21 28 19.33 0 38-22.85 38-35 0-12.15-9.67-15-29-15z"/><path fill="#293983" d="M101.542 190.916c-2.922-4.527-4.04-10.736-4.04-16.436 0-15.247 7.248-18.48 25.424-18.48 2.914 0 5.557.081 7.952.263l-29.336 34.653z"/><path fill="#162461" d="M206.502 200c-17.495 0-36-21.459-36-33 0-9.72 6.812-13 27-13 20.936 0 28 5.047 28 20 0 6.1-1.37 26-19 26z"/><path fill="#000F50" d="M197.502 156c19.925 0 26 4.206 26 18 0 6.698-1.412 12.691-3.977 16.88-2.933 4.791-7.191 7.12-13.023 7.12-7.555 0-16.081-4.279-23.393-11.743-6.246-6.376-10.607-14.295-10.607-19.257 0-7.295 3.866-11 25-11m0-4c-19.33 0-29 2.85-29 15s18.67 35 38 35c15.83 0 21-14.75 21-28 0-18.15-10.67-22-30-22z"/><path fill="#293983" d="M187.281 190.062c-9-7.28-14.842-17.944-14.842-22.623 0-8.854 5.707-11.438 23.33-11.438 6.844 0 14.104.21 18.604 2.022l-27.092 32.039z"/><path fill="#000F50" d="M160.502 162c-4.418 0-8.328 3.582-8.328 8h-3.672c0-6.628 5.372-12 12-12 6.627 0 12 5.372 12 12h-3.672c0-4.418-3.91-8-8.328-8zM125.002 152h73v4h-73z"/></g><path fill="#000F50" d="M165.495 224.621a1.956 1.956 0 0 1-.901 1.181l.004.007c-4.374 2.44-9.682 3.254-14.927 1.849s-9.435-4.763-12.002-9.064l.005-.003a1.952 1.952 0 0 1-.19-1.473 1.982 1.982 0 0 1 3.528-.631l.006-.004c.025.043.056.082.082.127.012.019.025.035.036.055a15.959 15.959 0 0 0 9.557 7.184 15.96 15.96 0 0 0 11.87-1.443.468.468 0 0 1 .055-.027c.045-.023.093-.044.137-.068l.004.006a1.98 1.98 0 0 1 1.326-.111 1.973 1.973 0 0 1 1.41 2.415z"/><g><path fill="#FF327A" d="M217 286.766l-21.316 10.657L202.669 259h28.662l6.985 38.423z"/><path fill="#000F50" d="M229.662 261l5.972 32.846-16.845-8.423-1.789-.894-1.789.894-16.845 8.423L204.338 261h25.324m3.338-4h-32l-8 44 24-11.999L241 301l-8-44z"/><path fill="#D31A61" d="M217 284.418l18.584 9.5-5.834-32.75H217z"/><path fill="#FCC711" d="M217 270c-14.337 0-26-11.663-26-26s11.663-26 26-26 26 11.663 26 26-11.663 26-26 26z"/><path fill="#000F50" d="M217 220c13.232 0 24 10.768 24 24s-10.768 24-24 24-24-10.768-24-24 10.768-24 24-24m0-4c-15.464 0-28 12.536-28 28s12.536 28 28 28 28-12.536 28-28-12.536-28-28-28z"/><path fill="#FCC711" d="M217 262c-9.925 0-18-8.075-18-18s8.075-18 18-18 18 8.075 18 18-8.075 18-18 18z"/><path fill="#000F50" d="M217 228c8.822 0 16 7.178 16 16s-7.178 16-16 16-16-7.178-16-16 7.178-16 16-16m0-4c-11.046 0-20 8.955-20 20s8.954 20 20 20 20-8.955 20-20-8.954-20-20-20z"/><path fill="#D39C00" d="M217.003 232l-.003.001-.003-.001c-8.156.002-14.873 6.111-15.858 14.001a16.093 16.093 0 0 1-.139-2c0-8.837 7.163-16.001 16-16.001s16 7.164 16 16.001c0 .679-.057 1.343-.139 2-.985-7.89-7.702-13.999-15.858-14.001z"/><g><path fill="#FCC711" d="M212.375 246.023l-3.837-4.619 5.562-1.466 2.85-4.975 2.946 4.912 5.586 1.348-3.718 4.668.8 5.92-5.442-2.258-5.612 2.27z"/><path fill="#000F50" d="M216.988 238.915l.764 1.271.861 1.438 1.63.395 1.72.414-1.23 1.545-1.065 1.338.229 1.693.221 1.622-1.471-.61-1.515-.627-1.519.614-1.609.651.217-1.453.264-1.77-1.143-1.377-1.263-1.52 1.722-.455 1.617-.428.831-1.45.739-1.291m-.077-7.905l-4.132 7.207-7.782 2.057 5.269 6.342-1.25 8.376 8.099-3.276 7.901 3.276-1.156-8.521 5.145-6.455-7.82-1.888-4.274-7.118z"/></g></g></svg>