<svg version="1.1" id="Layer_1" xmlns="http://www.w3.org/2000/svg" x="0" y="0" viewBox="0 0 437.2 592.3" xml:space="preserve"><style>.st9{fill:#bb9478}.st10{fill:#a97752}.st11{fill:#3c7df6}.st12{fill:#eb672c}.st17{fill:#565656}.st25{fill:none;stroke:#fff;stroke-width:2;stroke-miterlimit:10}.st28{fill:#fff}.st34{fill:#d02100}.st37{fill:#1f2ca7}.st44{fill:#231752}</style><linearGradient id="SVGID_1_" gradientUnits="userSpaceOnUse" x1="668" y1="238.525" x2="134.152" y2="560.279" gradientTransform="rotate(-8.419 -772.54 475.172)"><stop offset="0" stop-color="#fff"/><stop offset=".059" stop-color="#fbfbfb"/><stop offset=".115" stop-color="#f0f0f0"/><stop offset=".168" stop-color="#ddd"/><stop offset=".22" stop-color="#c3c3c3"/><stop offset=".271" stop-color="#a1a1a1"/><stop offset=".321" stop-color="#787878"/><stop offset=".321" stop-color="#787878"/><stop offset=".619" stop-color="#616161"/><stop offset="1"/></linearGradient><path fill="url(#SVGID_1_)" d="M151.6 421.9l88-80.7-3.8-3.5-88.7 82.3z"/><linearGradient id="SVGID_2_" gradientUnits="userSpaceOnUse" x1="753.461" y1="202.17" x2="121.629" y2="582.981" gradientTransform="rotate(-8.419 -772.54 475.172)"><stop offset="0" stop-color="#fff"/><stop offset=".059" stop-color="#fbfbfb"/><stop offset=".115" stop-color="#f0f0f0"/><stop offset=".168" stop-color="#ddd"/><stop offset=".22" stop-color="#c3c3c3"/><stop offset=".271" stop-color="#a1a1a1"/><stop offset=".321" stop-color="#787878"/><stop offset=".321" stop-color="#787878"/><stop offset=".619" stop-color="#616161"/><stop offset="1"/></linearGradient><path fill="url(#SVGID_2_)" d="M143.4 447.3l103.4-98.8-1.5-3.7-99.8 91.8z"/><linearGradient id="SVGID_3_" gradientUnits="userSpaceOnUse" x1="158.709" y1="399.186" x2="18.396" y2="563.343"><stop offset="0" stop-color="#fff"/><stop offset=".128" stop-color="#a3a3a3"/><stop offset=".194" stop-color="#787878"/><stop offset=".341" stop-color="#616161"/><stop offset="1"/></linearGradient><path d="M125.5 409.8c-1 1-67.1 73.6-71.7 77.1s-9.8 6.3-9.8 6.3L78.8 522s5.7-4.1 11.3-10.8c5.6-6.7 32.9-35.6 38.8-41.2 6-5.6 27.5-28.2 27.5-28.2s4.2-7.1 1.9-13.4c0-.1 0-.1-.1-.2-1.7-4.6-4.6-8.6-8.5-11.7L131.8 402c-1.1-.9-2.4-1.5-3.8-1.8-.9-.2-1.7-.2-2.3.2-.2.1 1 5.6 1 5.6s0 2.6-1.2 3.8z" fill="url(#SVGID_3_)"/><linearGradient id="SVGID_4_" gradientUnits="userSpaceOnUse" x1="156.375" y1="535.08" x2="124.311" y2="567.899" gradientTransform="rotate(-8.419 -772.54 475.172)"><stop offset="0" stop-color="#fff"/><stop offset=".059" stop-color="#fbfbfb"/><stop offset=".115" stop-color="#f0f0f0"/><stop offset=".168" stop-color="#ddd"/><stop offset=".22" stop-color="#c3c3c3"/><stop offset=".271" stop-color="#a1a1a1"/><stop offset=".321" stop-color="#787878"/><stop offset=".321" stop-color="#787878"/><stop offset=".619" stop-color="#616161"/><stop offset="1"/></linearGradient><path d="M148.9 413.7l-3.2 3.9-6-4.6 8-9.6c3.3 2.6 3.8 7.2 1.2 10.3z" fill="url(#SVGID_4_)"/><linearGradient id="SVGID_5_" gradientUnits="userSpaceOnUse" x1="136.783" y1="534.694" x2="149.595" y2="546.082" gradientTransform="rotate(-8.419 -772.54 475.172)"><stop offset="0" stop-color="#fff"/><stop offset=".059" stop-color="#fbfbfb"/><stop offset=".115" stop-color="#f0f0f0"/><stop offset=".168" stop-color="#ddd"/><stop offset=".22" stop-color="#c3c3c3"/><stop offset=".271" stop-color="#a1a1a1"/><stop offset=".321" stop-color="#787878"/><stop offset=".321" stop-color="#787878"/><stop offset=".619" stop-color="#616161"/><stop offset="1"/></linearGradient><path d="M147.7 403.4s-4.3-1.7-9.3 4l3.5 3 5.8-7z" fill="url(#SVGID_5_)"/><linearGradient id="SVGID_6_" gradientUnits="userSpaceOnUse" x1="19.815" y1="596.963" x2="36.791" y2="625.132" gradientTransform="rotate(-8.419 -772.54 475.172)"><stop offset="0" stop-color="#fff"/><stop offset=".059" stop-color="#fbfbfb"/><stop offset=".115" stop-color="#f0f0f0"/><stop offset=".168" stop-color="#ddd"/><stop offset=".22" stop-color="#c3c3c3"/><stop offset=".271" stop-color="#a1a1a1"/><stop offset=".321" stop-color="#787878"/><stop offset=".321" stop-color="#787878"/><stop offset=".619" stop-color="#616161"/><stop offset="1"/></linearGradient><path fill="url(#SVGID_6_)" d="M46.2 494.9l-3.8 9 3.7 3 7.1-6.1z"/><linearGradient id="SVGID_7_" gradientUnits="userSpaceOnUse" x1="37.33" y1="622.164" x2="62.072" y2="650.919" gradientTransform="rotate(-8.419 -772.54 475.172)"><stop offset="0" stop-color="#fff"/><stop offset=".059" stop-color="#fbfbfb"/><stop offset=".115" stop-color="#f0f0f0"/><stop offset=".168" stop-color="#ddd"/><stop offset=".22" stop-color="#c3c3c3"/><stop offset=".271" stop-color="#a1a1a1"/><stop offset=".321" stop-color="#787878"/><stop offset=".321" stop-color="#787878"/><stop offset=".619" stop-color="#616161"/><stop offset="1"/></linearGradient><path fill="url(#SVGID_7_)" d="M70.8 524.7l-1.7-6.1 1.7-3.4 6 5.1z"/><linearGradient id="SVGID_8_" gradientUnits="userSpaceOnUse" x1="94.483" y1="625.391" x2="52.572" y2="650.651" gradientTransform="rotate(-8.419 -772.54 475.172)"><stop offset="0" stop-color="#fff"/><stop offset=".059" stop-color="#fbfbfb"/><stop offset=".115" stop-color="#f0f0f0"/><stop offset=".168" stop-color="#ddd"/><stop offset=".22" stop-color="#c3c3c3"/><stop offset=".271" stop-color="#a1a1a1"/><stop offset=".321" stop-color="#787878"/><stop offset=".321" stop-color="#787878"/><stop offset=".619" stop-color="#616161"/><stop offset="1"/></linearGradient><ellipse cx="73.8" cy="524.3" rx="4.8" ry="4.7" fill="url(#SVGID_8_)"/><path class="st9" d="M254.9 306.9c-1.5 4.1-3 5.7-2.7 8.3.3 2.6.7 9.2.7 9.2s2.4.5 2.5-1.8c.1-2.4.4-5.6 1.8-6.3 0 0 1.7 4.3 1.2 6.6-.4 2.2-3 7.6-4.8 8.6-.3.1-.4.4-.3.7.1.4.4 1 1.7.8 2.1-.2 3-1.4 3-1.4s1.7.7 3-.4c.6-.6 3.6-3.1 5.1-6 1.5-2.9 3.1-13.3 2.7-17.3-.1-1-2.2-10.4-2.2-10.4l-2-10.4-10.8 2.2 1.6 10.9c-.1-.2.3 4.4-.5 6.7z"/><path class="st10" d="M257.6 325.1s-3 2.7-5.1 3.1c0 0-.3 1 .5 1.2.8.2 2.3 0 2.3 0l.7-1.1c.4-.5.7-1.1.9-1.7l.7-1.5z"/><path class="st11" d="M281.9 171.8c6 6.4 4.3 14.3 2.3 22.7-3.2 14.1-10.3 43.1-10.5 44-2.1 8.8-22.2 9-19.8-5 4.1-24.5 8.4-45.9 8.4-45.9.4-2.2.9-4.4 1.5-6.6.8-3 1.5-6.3 3.6-8.8 1.7-2 4.6-3.2 7.4-3.1 1.3.1 4.9.5 7.1 2.7z"/><path class="st11" d="M274 237.9c-.2 1-1.8 16.6-2.2 21.1-1.1 11.6-4 42.4-4 42.4l-16.6 2.4s.6-32.1 1.4-64.6c.5-14.2 22.9-15.6 21.4-1.3z"/><path class="st9" d="M250.9 304.2c-1.5 4.1-3 5.7-2.7 8.3.3 2.6.7 9.2.7 9.2s2.4.5 2.5-1.8c.1-2.4.3-5.6 1.7-6.3 0 0 1.7 4.3 1.2 6.6-.4 2.2-2.9 7.6-4.8 8.6-.3.1-.4.4-.3.7.1.4.4 1 1.7.8 2.1-.2 3-1.4 3-1.4s1.7.6 3-.5c.6-.6 3.6-3.1 5.1-6 1.5-2.9 3.1-13.3 2.6-17.3-.1-1-2.2-10.4-2.2-10.4l-2.1-10.4-10.7 2.2 1.6 10.9c.2-.1.6 4.5-.3 6.8z"/><path class="st10" d="M253.8 322.5s-3 2.7-5.1 3.1c0 0-.3 1 .5 1.2.8.2 2.3-.1 2.3-.1l.7-1.1c.4-.5.6-1.1.9-1.7l.7-1.4z"/><path class="st11" d="M277.4 169.1c6.1 6.4 4.3 14.2 2.4 22.7-3.2 14.1-10.1 43.1-10.4 44.1-2 8.8-22.1 9.1-19.9-4.9 4-24.5 8.2-45.9 8.2-46 .4-2.2.9-4.4 1.4-6.6.8-3 1.4-6.3 3.5-8.8 1.7-2.1 4.6-3.3 7.4-3.2 1.6.1 5.2.4 7.4 2.7z"/><path class="st11" d="M269.8 235.2c-.2 1-1.7 16.6-2.1 21.1-1.1 11.6-3.8 42.4-3.8 42.4l-16.6 2.5s.4-32.1 1.1-64.6c.4-14.3 22.8-15.8 21.4-1.4z"/><path class="st9" d="M178.1 486c-1.4 3.1-16.7 29.4-16.7 29.4l-13.3-2.4 14-34.8 16 7.8z"/><path d="M149.5 506.5c-2 3.2-6.5 10.6-6.5 10.6 1.4.6 43.8 18.6 43.8 18.6s-20.1-26.3-20.6-26.5c-.6-.2-16.7-2.7-16.7-2.7z"/><path class="st12" d="M292.6 401.7l-.1-.9-14.2-114c-3.2-14.2-22.4 6.6-22.6 6.7-12.8 5.1-20.3 18-17.4 33.6l19.9 77.6.1.1v.3c.7 9.3 8.9 16.4 18.4 15.9 9.5-.5 16.7-8.5 16-17.8 0-.4-.1-.8-.1-1.2-.1-.1 0-.2 0-.3z"/><path class="st9" d="M288.1 473.7c0 1.1 2.5 52.1 2.5 52.1l-13.9 1.3-7.7-48.8 19.1-4.6z"/><path d="M273.6 515.8l.6 12.7 49.3-2.1-32.3-14.6z"/><path class="st12" d="M292.5 400.1c-1.8-9.2-10.1-15.8-19.6-14.6-9.5 1.2-16.1 9.7-14.7 19 .1.5.2 1 .3 1.4l12.4 101.9 20.3-2.9 1.4-104.3s0-.3-.1-.5zM194.8 285.5s-1.1 15-1.2 18.1c-.5 11.3 6.7 13.1 17.2 16l38.3 4.4 25.3-11.8c3.1-1.2 5.1-4.2 4.9-7.5l-1.1-22.8-83.4 3.6z"/><path class="st12" d="M242.4 327.8c2.7-17.5-4.3-33-16.8-39.9-.3-.1-.5-.3-.8-.4-13.6-7.3-28.2 1.7-30.1 18.6-3.5 31.5-6 96.4-6 96.4l.1.1c-.2 9 6.6 16.8 16 17.9 9.5 1 18.1-5.2 20.1-14.2l.1-.1 17.4-78.4z"/><path class="st12" d="M223.3 409.1c3.2-9.1-2.2-18.9-11.5-22-9.4-3.1-19.6 1.9-23.2 11 0 .1-.1.3-.1.3L151.3 496l20.7 6.6 51.1-93c-.1 0 0-.2.2-.5z"/><path d="M275 92.2s4 9.4 1.7 16.2-6.4 7.6-6.4 7.6-5.6-12.8 4.7-23.8z"/><path d="M227 156.4s7-2.1 17.4-1.9 16.6 3 16.6 3-.7 3.4-2.6 4.4c-1.9 1-14.1 4.6-22.5 1.9-8.3-2.6-8.9-7.4-8.9-7.4z" fill="#1b46f4"/><path class="st9" d="M261.7 97.8c1.9.8 4.7.9 6.2 2.3 4.7 4.6 5 11.6 5.1 17.7.1 4.5-.9 13.8-1.1 14.9-.9 5.5-2.9 11.6-7.3 14.5-4.7 3.1-10.5 2.4-15.4 1.2-10-2.5-13.6-12.8-14.2-22.7 0 0-2.5-.4-2.5-4 0-3 2.7-3.4 2.7-3.4 1-7.6 3-15.2 9.8-19.1 5-2.9 11.4-3.4 16.7-1.4z"/><linearGradient id="SVGID_9_" gradientUnits="userSpaceOnUse" x1="397.144" y1="563.05" x2="209.562" y2="338.958" gradientTransform="rotate(4.85 2105.925 166.054) scale(.99998)"><stop offset="0" stop-color="#1c48e4"/><stop offset="1" stop-color="#3c7df6"/></linearGradient><path d="M247.3 158.1l-27.6 4.6c-6.2 1.3-15.3 3.8-17.5 5.3-2.6 1.8-3.6 5.6-3.6 6.9-1 14.3.4 31.8 1.1 49.5.3 9.8.5 19.6-.2 29.1-1.1 16.3-4.4 30.8-4.4 30.8s22.9 6.1 51 6.8c13.2.3 26.5-1.9 32.7-4.9-1.7-48.1-1.3-63.6-.7-67.9.9-6.6 9.7-38.2-1.9-49.9-2.7-2.7-18.8-9.6-28.9-10.3z" fill="url(#SVGID_9_)"/><path class="st9" d="M260.5 138.7c-.5 1.5-1.3 16.4-.7 23.1.6 5.9-30.9 5.1-30.1-.6 3.5-13.2 2.1-39.7 2-38.9l28.8 16.4z"/><path d="M241.8 117.9s1 6 1.9 8.4c.8 1.9 4.1 4.3 12.9 5.4 9.3 1.2 15.3.3 15.3.3s-.2 17.9-11.5 18.1c-9.2.1-20.7-3.6-22.1-12.5-1.2-8.1-.3-19.5-.3-19.5l3.8-.2zM270.6 91.9c1.8-.4 3.9-.2 5.6.8.8.5 1.6 1.2 2.1 2s.9 1.7 1.1 2.6c.5 1.8.4 3.7.2 5.5-.2 1.8-.7 3.6-1.3 5.3.1-.9.3-1.8.4-2.7.1-.4.1-.9.2-1.3s.1-.9.1-1.3c.1-1.8.1-3.6-.4-5.3-.4-1.7-1.3-3.3-2.8-4.3-.7-.5-1.6-.9-2.5-1.1-.9-.2-1.8-.2-2.7-.2zM236.3 92.6c.1-.1.1-.2 0-.3-.1-.1-.2-.1-.3-.1-.2 0-.5-.1-.8-.1-.5 0-1 .1-1.5.1-1 .2-2 .4-2.9.8-1.9.7-3.6 1.7-4.9 3.2-1.3 1.4-2 3.2-2.3 5.2-.3 1.9-.1 3.9.1 6-.8-1.9-1.3-3.9-1.2-6.1 0-1.1.3-2.1.6-3.1.4-1 1-2 1.7-2.8 1.5-1.7 3.5-2.7 5.6-3.3 1-.3 2.1-.4 3.2-.4.5 0 1.1 0 1.6.1.3.1.5.1.8.2.1.1.3.1.3.2.2.2.1.4 0 .4z"/><path class="st11" d="M252.6 168.4l-4.3-6.7s-16.9-2.5-21.3-5.3l-4.9 7.1s17.1 6.5 30.5 4.9zM252.9 168.1l2.1-6.9s4.2-.6 6-3.7c.2-.4 2.3 4.7 2.3 4.7s-2.8 4.6-10.4 5.9z"/><linearGradient id="SVGID_10_" gradientUnits="userSpaceOnUse" x1="258.585" y1="310.237" x2="262.926" y2="320.566" gradientTransform="rotate(4.85 2105.925 166.054) scale(.99998)"><stop offset="0"/><stop offset="1" stop-color="#fff"/></linearGradient><path d="M241.5 143c-.1.6 7.6 12.4 18 16l.1-9.8-18.1-6.2z" opacity=".09" fill="url(#SVGID_10_)"/><path d="M255.1 126.3c-3.2-.3-5.6-3.6-5.2-7.5.3-3.9 3.2-6.8 6.5-6.5 3.2.3 5.6 3.6 5.2 7.5-.4 3.8-3.3 6.8-6.5 6.5zm1.1-12.9c-2.6-.2-5 2.3-5.2 5.5-.3 3.3 1.6 6.1 4.2 6.3 2.6.2 5-2.3 5.2-5.5.3-3.3-1.6-6.1-4.2-6.3zM269.2 126.8c-2.8-.2-4.9-3.5-4.5-7.2.3-3.8 2.9-6.6 5.7-6.4 2.8.2 4.9 3.5 4.5 7.2-.4 3.8-2.9 6.7-5.7 6.4zm1.1-12.5c-2.2-.2-4.2 2.2-4.5 5.4-.3 3.2 1.3 5.9 3.5 6 2.2.2 4.2-2.2 4.5-5.4.2-3.1-1.3-5.8-3.5-6z"/><path d="M265.1 120.6l-4.4-.3.1-1.1 4.4.3z"/><linearGradient id="SVGID_11_" gradientUnits="userSpaceOnUse" x1="261.302" y1="266.743" x2="263.728" y2="283.362" gradientTransform="rotate(4.85 2105.925 166.054) scale(.99998)"><stop offset="0"/><stop offset="1" stop-color="#fff"/></linearGradient><path d="M246.4 117.5s12.7 2.6 26.5-7.6c-.1-.6-.7-6.9-1.9-8.5s-24.6 16.1-24.6 16.1z" opacity=".31" fill="url(#SVGID_11_)"/><path d="M275.2 91.8c.1 1.9-2.3 21.6-17.7 24.7-8.6 1.7-15.7 1.4-15.7 1.4l-.8 8.6-3-.5c.1-.6 0-7.9 0-7.9s-4.3-.5-4.5 2.9c-.3 3.7 1.9 4.1 1.9 4.1l-3.1 8.8s-.6-4.8-2.4-12.1c0 0-.4-3.4-3.5-8.6-3.3-5.5-3.8-19.6 6.3-20.8 0 0 6.2-7.3 18.1-3.7 11.6 3.5 24.4 3.1 24.4 3.1z"/><path class="st17" d="M263.7 93.5c.4 1.9.5 3.8.3 5.7-.2 1.9-.7 3.8-1.5 5.6-.9 1.8-2.1 3.4-3.6 4.7-1.5 1.3-3.4 2.1-5.3 2.5 1.7-.9 3.3-1.9 4.6-3.3.7-.7 1.3-1.3 1.8-2.1.5-.7 1-1.5 1.4-2.4.8-1.6 1.3-3.4 1.7-5.2.2-1.7.5-3.6.6-5.5zM259.7 94.3c.2 1.1.1 2.3-.3 3.4-.3 1.1-.9 2.2-1.7 3.1-.8.9-1.7 1.7-2.8 2.2-.5.3-1.1.5-1.7.7-.6.2-1.2.2-1.8.3l1.5-.9c.5-.3 1-.6 1.4-.9.9-.6 1.6-1.4 2.3-2.2.7-.8 1.3-1.7 1.8-2.7.5-.9.9-1.9 1.3-3z"/><linearGradient id="SVGID_12_" gradientUnits="userSpaceOnUse" x1="294.636" y1="393.148" x2="130.839" y2="337.026"><stop offset=".001" stop-opacity="0"/><stop offset="1"/></linearGradient><path d="M241.6 316c0 1.8 17.7 16.7 17.8 36.5.1 22.9-4.9 32 8.6 49.3 7.4 9.5-1.4 40.7-1.4 40.7l-9-42.2-20.7-79.9 4.7-4.4z" fill="url(#SVGID_12_)"/><linearGradient id="SVGID_13_" gradientUnits="userSpaceOnUse" x1="225.268" y1="328.563" x2="49.82" y2="249.625"><stop offset=".001" stop-opacity="0"/><stop offset="1"/></linearGradient><path d="M180.2 420.8l8.9-23.9s2.2-52.4 2.4-58.6c.2-6.2 2.9-38.6 2.9-38.6l1.1-16.3s4.7-29.8 4.8-35.3c.4-12.3-.8-45.6-3.7-57.7.2-1.8 7.9-2.5 9.9 5.8 2.1 8.3 16.2 3.1 17.4 11.6 2 15-13.1 36.1-8.3 54.2 4.7 18.1 9.3 37.4-1.6 57.9-15.2 28.3-6.3 46.9-5.1 53.6 1.6 8.6 2.7 23.6-14.3 35.3-13.4 9.2-19.7 26-19.5 25.4.1-.7 5.1-13.4 5.1-13.4z" fill="url(#SVGID_13_)"/><linearGradient id="SVGID_14_" gradientUnits="userSpaceOnUse" x1="-181.582" y1="397.915" x2="1252.017" y2="697.255"><stop offset=".001" stop-opacity="0"/><stop offset="1"/></linearGradient><path d="M135.7 405.5c4 4.8 10.2 21.6-8.7 33.6-16.7 10.7-36.2 28.4-43.3 46-7.1 17.6-15.4 27.3-15.4 27.3l-24.2-19.1L71 468.4l54.5-58.6s1.7-3.7 1.1-6.3c-.6-2.6-.8-3-.8-3s1.3-.9 4.5.6c.9.4 1.5.9 2.2 1.5 1.3 1 2.3 2 2.3 2l.9.9z" fill="url(#SVGID_14_)"/><linearGradient id="SVGID_15_" gradientUnits="userSpaceOnUse" x1="44.897" y1="507.962" x2="94.564" y2="599.889" gradientTransform="rotate(-8.419 -772.54 475.172)"><stop offset="0" stop-color="#fff"/><stop offset=".059" stop-color="#fbfbfb"/><stop offset=".115" stop-color="#f0f0f0"/><stop offset=".168" stop-color="#ddd"/><stop offset=".22" stop-color="#c3c3c3"/><stop offset=".271" stop-color="#a1a1a1"/><stop offset=".321" stop-color="#787878"/><stop offset=".321" stop-color="#787878"/><stop offset=".619" stop-color="#616161"/><stop offset="1"/></linearGradient><path d="M44.1 493.2l4.6-13.5 76.1-78.2 1-1 .8 3s.4 3.1.2 3.8c-1 3.8-4.2 7.4-5.3 8.8-7.5 9.4-57.8 61.2-57.8 61.2l-6.9 6.8-2.2 2.2c-3.5 3.3-5.4 4.6-9 6.2l-1.5.7z" fill="url(#SVGID_15_)"/><g><linearGradient id="SVGID_16_" gradientUnits="userSpaceOnUse" x1="840.716" y1="490.358" x2="782.571" y2="230.115"><stop offset="0" stop-color="#138b00"/><stop offset=".135" stop-color="#128400"/><stop offset=".323" stop-color="#107200"/><stop offset=".543" stop-color="#0c5400"/><stop offset=".785" stop-color="#062b00"/><stop offset="1"/></linearGradient><path d="M917.4 371.8c-.4 1.4 5.5 68.8 30.8 96.8 23.9 26.3 16 40.9 5.1 40.9-19.1 0-45.5-19.1-45.5-19.1s8.8 30.2-15.1 25.2-48.5-24.5-48.5-24.5-31.7 30.9-43.7 23.7c-13.1-7.9-11.3-22.9-11.3-22.9s-28 22.6-47.3 24.9c-12.3 1.4-26.2-6.4-16.4-22.5 9.4-15.6 16.8-21.8 27.1-53.5 7.1-21.9 17.2-72.9 17.2-72.9l51.3-9.7 40.3-.5 56 14.1z" fill="url(#SVGID_16_)"/><linearGradient id="SVGID_17_" gradientUnits="userSpaceOnUse" x1="850.817" y1="377.957" x2="886.389" y2="116.364"><stop offset="0" stop-color="#138b00"/><stop offset=".135" stop-color="#128400"/><stop offset=".323" stop-color="#107200"/><stop offset=".543" stop-color="#0c5400"/><stop offset=".785" stop-color="#062b00"/><stop offset="1"/></linearGradient><path d="M782.6 279.5c-.8 1.8-6.3 44-29.1 84.5-8.5 15.2-12.1 24.9-6.2 29.3 6.9 5.1 37.7-21.4 37.7-21.4s-16.3 31.9-5.6 36.5c10.8 4.6 33.4-14.8 44.2-31.4.4-2.3 9.7 14.3 33.9 21.3 11.7 1.4 22.2.5 14.3-21.3 0-.3 20.6 23.8 36.9 21.3 8.9-2.2 2.1-21 2.1-21s21.3 11.3 37 9.2c16.9-2.3 3.4-19.1-9.2-33.7-11.9-13.8-23.6-44.7-29.1-73.1-6.2-13.4-28.2-22.4-42.9-24.3s-84 24.1-84 24.1z" fill="url(#SVGID_17_)"/><linearGradient id="SVGID_18_" gradientUnits="userSpaceOnUse" x1="843.674" y1="286.074" x2="829.862" y2="21.983"><stop offset="0" stop-color="#138b00"/><stop offset=".135" stop-color="#128400"/><stop offset=".323" stop-color="#107200"/><stop offset=".543" stop-color="#0c5400"/><stop offset=".785" stop-color="#062b00"/><stop offset="1"/></linearGradient><path d="M917.9 264.3c-4.9-3.8-9.5-8.3-13.3-13.5-4.7-6.3-10.2-15.2-14.1-25.9-8-22.3-35.9-82.4-41-87.9-5.1-5.5-15.6-1.7-18.5 6.3-4.2 11.5-25.7 69.4-29.4 79.9-3.6 10.5-14.9 32.4-24.3 44.6-9.4 12.2-18.5 16.4-11.6 18.9s35.2 0 43.9-12.2c.4.6 18.7 21.4 32.6 15.1 3.5-2.3 2.8-6.7-.9-14.7.3 0 23.5 19.6 37.5 16 2.9-1.6 5.5-3.4.2-22.6.1.3 16.2 11.2 28.8 10.8 10.7-.4 22.5-5.2 10.1-14.8z" fill="url(#SVGID_18_)"/><path class="st25" d="M808.6 204s37 27.2 86.8 31.7M804.2 215.4c.9.3 63.2 4.9 79-9.3M892.9 230.5s-44.5 33.2-114.7 35M774.8 313.9s89.2 35.4 157.3 28.9M924.2 328.1c-17.5 17.5-145.7 31-166.6 30.7M738.9 438.6s110.1 42.1 219 22.1M942.8 429.7C859.2 456 796.8 453 735 450.8"/><linearGradient id="SVGID_19_" gradientUnits="userSpaceOnUse" x1="721.856" y1="320.407" x2="879.33" y2="343.598"><stop offset="0" stop-color="#138b00"/><stop offset=".135" stop-color="#128400"/><stop offset=".323" stop-color="#107200"/><stop offset=".543" stop-color="#0c5400"/><stop offset=".785" stop-color="#062b00"/><stop offset="1"/></linearGradient><path d="M847.8 144.7c-4.2 1.4-13.5 16.2-15.4 20.1-4.7 9.8-5 17.3-3.4 28.1 1.7 11.6 6.8 23.6 1.8 34.8-4.4 9.8-13.1 15.1-20.2 21.9-8.1 7.9-12.5 19.6-11.9 31.9 0 0 4.6-1 7.1-3-.7.6-2.1 6.5-2.7 8-1.5 3.5-3.6 6.8-6.2 9.4-1 1.1-2.1 2.1-2.9 3.4-1.7 2.7-.9 5.9.4 8.6 3.3 6.9 7.7 16.3 3.8 24.1-1.8 3.6-4.8 6.1-6.6 9.7-2.7 5.3-3.4 11.2-3 17.3.6 8.4-2.6 8.7-2.6 8.7l-.3 15.6c0 .9 0 1.9-.3 2.8-.4 1.7-1.8 2.5-2.9 3.6-1.1 1-2.2 2-3.2 3.2-1.8 2.1-5.8 6.7-4 9.4 1.5 2.2.1 4.2 3.9 6.1 2.6 1.3 6.1.5 7.1.4 0 0-4.8 11.4-12 18.6-7.3 7.2 2.4 19.9 2.1 34.5-.2 14.6-15.2 52.4-39.4 54.6-24.2 2.2-6.8-29.8-6.8-29.8s18.2-23.3 27.2-61.8l9-38.5s-3.8 2.4-8.1 4.6c-3.3 1.7-6.7 3.3-9.6 2.9-.7-.1-1.3-.5-1.9-.9-2-1.2-4.4-5.7-.2-15.5 5.8-13.4 24.1-28.4 25.2-35.8 1.7-10.7 5.1-35.1 5.1-35.1l3.7-19.5s-6.3.7-10.4.5-9.3-2.2-5.4-6.2c3.9-4 14.6-14.8 21.4-27.2 6.8-12.4 11.2-19.5 15.7-32.2 4.5-12.7 15.9-43.7 15.9-43.7s7.2-19.1 8.7-22.5c1.8-3.3 21.3-11.1 21.3-11.1z" opacity=".57" fill="url(#SVGID_19_)"/><linearGradient id="SVGID_20_" gradientUnits="userSpaceOnUse" x1="750.863" y1="353.734" x2="873.894" y2="433.254"><stop offset=".008" stop-color="#d02100"/><stop offset=".11" stop-color="#c92000"/><stop offset=".254" stop-color="#b71d00"/><stop offset=".422" stop-color="#991800"/><stop offset=".608" stop-color="#6f1200"/><stop offset=".807" stop-color="#3a0900"/><stop offset="1"/></linearGradient><path d="M804.7 336c-10.7-10.7-27.8-11.5-39.4-1.9-12.6-10.2-31-8.4-41.3 4.2-9.3 11.4-8.7 28 1.5 38.8.1.2.2.3.4.5l37.3 37.3c1.1 1.1 3 1.1 4.1 0l36.7-36.7c.3-.2.5-.5.7-.7 11.5-11.4 11.5-30 0-41.5z" fill="url(#SVGID_20_)"/><path class="st28" d="M730.4 383.1l-2.1-2.9.1-.1 69-49.4 1.1-.8 2 2.8-69.6 50zM737.6 390.3l-2-2.8.1-.1 70.1-50.2 2.2 2.7-69.8 50zM745.6 397.3l-2.5-2.5 68.2-48.8.7 1.7.5 1.8z"/><path d="M857.5 102.2l16.7.5c4.7.2 7.2 5.7 4.2 9.3l-10.6 13c-1.2 1.5-1.6 3.4-1.1 5.2l4.6 16.1c1.3 4.6-3.2 8.6-7.6 6.9l-15.6-6.1c-1.8-.7-3.7-.5-5.3.6l-13.8 9.4c-3.9 2.7-9.2-.3-8.9-5.1l1-16.7c.1-1.9-.7-3.7-2.2-4.8l-13.2-10.3c-3.7-2.9-2.5-8.8 2.1-10L824 106c1.8-.5 3.3-1.8 3.9-3.6l5.7-15.7c1.6-4.5 7.6-5.1 10.2-1.1l9 14.1c1.1 1.5 2.8 2.5 4.7 2.5z" fill="#f5c200"/><path d="M848.2 147.1c-1.8-.7-3.7-.5-5.3.6l-13.8 9.4c-3.9 2.7-9.2-.3-8.9-5.1l1-16.7c.1-1.9-.7-3.7-2.2-4.8l-13.2-10.3c-3.7-2.9-2.5-8.8 2.1-10l16.2-4.2c1.8-.5 3.3-1.8 3.9-3.6l5.7-15.7c.6-1.5 1.7-.4 2.7 6.7 2.5 17.8-18.5 14-8.8 30.8 6.3 11.1-2.7 17.3.3 22.2 1.9 3.2 6.5.6 9.8-.7 7.7-3.3 10.5 1.4 10.5 1.4z" fill="#f5af00"/><linearGradient id="SVGID_21_" gradientUnits="userSpaceOnUse" x1="490.598" y1="348.526" x2="783.652" y2="488.42"><stop offset="0" stop-color="#1c48e4"/><stop offset="1" stop-color="#3c7df6"/></linearGradient><path fill="url(#SVGID_21_)" d="M700.6 432.4h123.2V524H700.6z"/><linearGradient id="SVGID_22_" gradientUnits="userSpaceOnUse" x1="759.22" y1="461.975" x2="772.442" y2="364.643"><stop offset=".001" stop-opacity="0"/><stop offset="1"/></linearGradient><path d="M700.6 432.4c.4-1.6 123.3 13.7 123.3 13.7l-.1-18.2-123.2 4.5z" fill="url(#SVGID_22_)"/><linearGradient id="SVGID_23_" gradientUnits="userSpaceOnUse" x1="511.971" y1="303.754" x2="805.024" y2="443.648"><stop offset="0" stop-color="#1c48e4"/><stop offset="1" stop-color="#3c7df6"/></linearGradient><path fill="url(#SVGID_23_)" d="M830.6 432.4H694.4v-18.1h136.2z"/><path class="st28" d="M700.7 465.4h123.2v11.2H700.7z"/><path class="st34" d="M700.6 476.6h123.2v5.6H700.6z"/><path fill="#f49650" d="M908.3 384.5h93.8v139.3h-93.8z"/><path d="M882.1 386.4l19.4-1.5c3.9-.3 7.9-.5 11.8-.5H996c4.3 0 8.6.2 12.9.6l16.7 1.4s-.5-3.7-18.6-5.5c-7-.7-16.3-1.8-26.4-2-16.9-.4-41.8-.6-58 .1-9.3.4-17.2 1.1-27.4 2.7-3.9.7-9.6 2.8-13.1 4.7z"/><path d="M919.4 381.7l26.8-101.9 52 31.9 29.1-8.7-31.7 34.3-21.6-14 10.7 57.9z"/><path d="M972.1 344.8h-21.7l.5 10.6-3.5.1.2 7.6 3.7-.1.5 10.1 23.1-1-2.8-27.3zm-14.7 21l-.1-3.1 2.1-.1-.2-7.3H957l-.1-3.2h10.4l1.3 13.2-11.2.5z" fill="#ffe100"/><path class="st37" d="M950.6 347.6l-22.4.3-6.2 24 29.7-.8-.4-8.1-3.7.1-.2-7.6 3.5-.1zM972.3 346.7l5.9-.2 4.2 23.4-7.7.3z"/><path class="st28" d="M946.4 384.5h12.5v139.3h-12.5z"/><path class="st34" d="M959 384.5h5.7v139.3H959z"/><linearGradient id="SVGID_24_" gradientUnits="userSpaceOnUse" x1="952.064" y1="412.102" x2="962.67" y2="334.032"><stop offset=".001" stop-opacity="0"/><stop offset="1"/></linearGradient><path d="M907.5 384.8c.4-1.8 94.3 16.7 94.3 16.7l.4-17-94.7.3z" fill="url(#SVGID_24_)"/><circle cx="836.5" cy="330.7" r="11.2" fill="#17c0ff"/><circle class="st34" cx="887" cy="224.6" r="11.2"/><circle cx="883.2" cy="443.2" r="11.2" fill="#ff0"/><circle cx="789.6" cy="246.6" r="7.3" fill="#5cff71"/><path fill="#5fb386" d="M805.3 474h109.2v50H805.3z"/><linearGradient id="SVGID_25_" gradientUnits="userSpaceOnUse" x1="856.813" y1="507.217" x2="866.139" y2="438.564"><stop offset=".001" stop-opacity="0"/><stop offset="1"/></linearGradient><path d="M804.2 484.8c.3-1.5 110.2 7.4 110.2 7.4l-.1-7.4H804.2z" fill="url(#SVGID_25_)"/></g><g><path class="st44" d="M180 267.6l18.6-56.8 4.3 10.4-14.8 50.9z"/><path d="M220.4 364.3s1.3-2.2 2.4-5.7c4.1-12.8 13.3-42.9 16.5-49.2 4.1-8 6-5.6 6.4-4.4.5 1.6-9.3 38.8-12.5 50.5-.6 2.2-2.2 4-4.3 5l-8.5 3.8z" fill="#0f0118"/><path class="st44" d="M221 289.8c-9.7-3.8-18.6-9.1-26.8-15.4-5.1-4-11.5-7.8-14.9-8.9-6.4-2.2-11.2 2.2-14.2 10.4s-17.6 41.3-21.3 44.1c-1.3 2.7-3.9 9.4 1.8 12.4s41 24.1 44.6 25.9c3.6 1.9 12.1 8.8 21.2 9.5 9.1.7 11.2-6.9 12.2-11.2 1-4.3 11.9-34.6 13.1-38.2 1.2-3.6 5.3-13.7 8.1-14.8.2-.1-5.6-7.1-19.4-12.2-1.5-.5-3-1-4.4-1.6z"/><path d="M168.8 284.4s16 8.7 24.2 13c8.1 4.3 37.5 16.4 37.5 16.4" fill="none" stroke="#eb6788" stroke-width="2" stroke-miterlimit="10"/><path d="M242.6 301.9l-10.9-47.8c-1.8-7.8-3-15.8-3.7-23.7l-3.7-41.4c-.5-4.9-2.1-16.3-6-19.5-2.3-1.9-5.8-4.3-9.5-4.2-4.8.2-8 4.1-8 4.1s10 1.4 12.4 8.6c6.4 18.5 3.3 40.1 7.7 68.1 2 12.5 11.5 50.4 11.7 51.1.2.5 10 4.7 10 4.7z" fill="#0e0129"/></g><g><linearGradient id="SVGID_26_" gradientUnits="userSpaceOnUse" x1="199.999" y1="376.829" x2="244.984" y2="317.155"><stop offset="0" stop-color="#fff"/><stop offset=".137" stop-color="#fbfbfb"/><stop offset=".265" stop-color="#f0f0f0"/><stop offset=".388" stop-color="#ddd"/><stop offset=".508" stop-color="#c3c3c3"/><stop offset=".627" stop-color="#a1a1a1"/><stop offset=".745" stop-color="#777"/><stop offset=".861" stop-color="#464646"/><stop offset=".974" stop-color="#0e0e0e"/><stop offset="1"/></linearGradient><path d="M227.9 323.6c.1 1 .5 1.9 1.1 2.6l15 20.1s.8.7 1.3.1c.3-.4 1.9-10.6 2.2-12.5.1-.4 0-.8-.3-1.1l-18.5-23.2c-.6-.8-2.6 2.7-2.5 3.7l1.7 10.3z" fill="url(#SVGID_26_)"/><path class="st11" d="M218.1 187.7c-.2 10.8-3.1 45.3-4.8 60-.6 5.7-5.6 10-11.5 10.1-6.4.1-11.7-4.7-11.9-10.9l-1.6-45.4s-1.7-27.5 11.4-32.1c9.2-3.2 13.6 1 16.3 5.5 2.1 3.7 2.2 8.4 2.1 12.8z"/><linearGradient id="SVGID_27_" gradientUnits="userSpaceOnUse" x1="253.678" y1="303.108" x2="224.564" y2="348.968"><stop offset="0" stop-color="#fff"/><stop offset=".114" stop-color="#fbfbfb"/><stop offset=".22" stop-color="#f0f0f0"/><stop offset=".322" stop-color="#ddd"/><stop offset=".422" stop-color="#c3c3c3"/><stop offset=".519" stop-color="#a1a1a1"/><stop offset=".615" stop-color="#787878"/><stop offset=".616" stop-color="#787878"/><stop offset="1"/></linearGradient><path d="M227.5 326c.1 1 .5 1.9 1.1 2.6l15 20.1s.8.7 1.3.1c.3-.4 1.9-10.6 2.2-12.5.1-.4 0-.8-.3-1.1L228.4 312c-.6-.8-2.6 2.7-2.5 3.7l1.6 10.3z" fill="url(#SVGID_27_)"/><path class="st9" d="M215.5 303.6l9.2-5.7s2 3.9 4.8 7.1c2.8 3.1 8.4 7.1 8.3 9.6-.1 1.5-.1 4 0 5.8 0 1.5-.7 3-1.9 3.9l-.6.4s.5 5.8.6 6.4.7 6.9.4 7.3c-.2.5-1.5.5-2.2-.6-.7-1-1.5-3.3-1.6-3.7s-2.5.7-3.7-.8c-1.2-1.4-3.2-4.2-3.2-4.2s-2.4-.7-3.1-1.9-5.9-3.7-6.2-7.1c-.4-3.2-.8-16.5-.8-16.5z"/><linearGradient id="SVGID_28_" gradientUnits="userSpaceOnUse" x1="1589.348" y1="1184.742" x2="1566.727" y2="1171.134" gradientTransform="rotate(104.667 1223.454 230.387)"><stop offset="0"/><stop offset=".999" stop-opacity="0"/></linearGradient><path d="M216 318.5s11.2 4.8 13 6.7c1.8 1.9 3.4 9.1 3.4 9.1s-2.5.4-3.4-.5c-.3-.3-3.5-4.5-3.5-4.5s-1.3-.4-1.6-.6l-1.2-.8c-.3-.2-.5-.6-.7-.7-.2-.2-1.5-1.3-1.7-1.4s-2.1-1.7-2.1-1.7l-.5-.6c-1.1-1.3-1.7-3.1-1.7-5z" fill="url(#SVGID_28_)"/><path class="st11" d="M213.8 248.1l14.3 51.4-14.4 8.5s-19.6-45.7-21-50-3.3-12.9.9-16.7c.5-.5 1.2-.9 1.9-1.3 7.2-3.7 16.1.2 18.3 7.9v.2z"/><linearGradient id="SVGID_29_" gradientUnits="userSpaceOnUse" x1="97.857" y1="199.628" x2="615.078" y2="307.625"><stop offset=".001" stop-opacity="0"/><stop offset="1"/></linearGradient><path d="M206.7 168.6c-1.1 0-11.7 1.7-10.3 10.4 1.5 8.7 6.7 22.1 2.8 30.6s-8.3 16.4-4.2 27.3c4.1 10.9 4.9 25.7 3.6 29.5-1.3 3.8 1.3 8.5 1.3 8.5s-8.3-17.9-9.5-23.5c-1-4.7-2.1-46.7-2.1-46.7s-1.8-19.2 5.2-30.1c5.2-8 13.2-6 13.2-6z" fill="url(#SVGID_29_)"/></g></svg>