<svg xmlns="http://www.w3.org/2000/svg" viewBox="0 0 596.2 705.93"><defs><style>.cls-2{fill:#c89773}.cls-10,.cls-9{fill:none}.cls-9{stroke-linecap:round;stroke-linejoin:round}.cls-5{fill:#c0885f}.cls-6{opacity:.2;mix-blend-mode:multiply}.cls-7{fill:#177fff}.cls-8{fill:#e0a762}.cls-9{stroke:#f2b893}.cls-10{stroke:#000;stroke-width:1.5px}.cls-12{fill:#c0815d}.cls-14{fill:#565656}.cls-15{fill:#f5f3f7}.cls-16{fill:#ece8ef}.cls-18{fill:#dfd8e4}.cls-23{fill:#efebf2}.cls-24{fill:#f9f8fa}.cls-25{fill:#1f94ff}.cls-26{fill:#cec7d8}.cls-27{fill:#8dceff}.cls-28{fill:#e3dce8}</style></defs><g style="isolation:isolate"><g id="Layer_2" data-name="Layer 2"><g id="Layer_1-2" data-name="Layer 1"><path class="cls-2" d="M453.7 635.06s1.61 31.73 1.27 36.71 22.34 4.32 24-2 3.15-43.4 3.15-43.4zM524.73 626.18s5.82 27.23-.66 48.75c0 0 19.28 4 22.61 0 .68-.81 4.45-5.07 4.33-8.59-.23-6.48 1.63-43.22 1.63-43.22z"/><path d="M492.58 642.79c-47.81 12.19-46.61 2-46.61 2l-11.91-274.94-.46-73.85s123.95-22.3 125.5-16.67c6.25 22.71 4.18 59.26 4.18 98.21 0 48.6-2.31 93.52-2.31 103.24s.15 163.7.15 163.7c-38 11-45.15-.7-45.15-.7s-8-100.12-11.49-141.89S494.82 378.08 492 375.3c0 0-1 77.38.38 98.95s.2 168.54.2 168.54z" fill="#ff813d"/><path d="M526.81 285.12c1.36 0 6.63-1.08 11.77-1.89s7.84-2.16 11.9-2.84" stroke-linecap="round" stroke-linejoin="round" stroke="#0c93a1" fill="none"/><path class="cls-5" d="M527 647.77l.13 1.5s7.22 3.36 24.1 3.61l.36-6s-9.74 2.18-24.59.89zM454 647.77s9.76 1.6 27.34-2.63l-.4 4.88s-17 .93-26.51-1.59z"/><path d="M481.86 665.61l.11 24.16-64.5 6.5 28.5-22.5 8-9h11s-2 6 2 8a7 7 0 0 0 3.57.54c3.58-.26 7.12-1.95 8.76-5.07.1-.18.28-3.14.56-3.18a3.8 3.8 0 0 1 2 .55zM552.86 662.61l.11 24.16-64.5 6.5 28.5-22.5 8-9h11s-2 6 2 8a7 7 0 0 0 3.57.54c3.58-.26 7.12-1.95 8.76-5.07.1-.18.28-3.14.56-3.18a3.8 3.8 0 0 1 2 .55z"/><path class="cls-6" d="M518.75 316.39s-3.21-4.82-3.6-8.26c0 0 20.83-2.81 22.87-3.89s2.74 9.55.6 13.12-12.99 6.82-19.87-.97z"/><path class="cls-7" d="M425.55 148.26c1.23 14.08 2.34 31 4.81 53.85 3.77 34.93 2 82.84 1.16 88.44-1.19 7.87-.34 19.33 4.49 21.43 8.58 3.72 20.29 2.41 34.85 1.47 10.17-.18 42.38-4.76 55.61-6.66 2.65-.38 4.5-.76 5.31-.84 18-1.7 24.52-28.77 22.28-46.71-2.85-22.78-9.32-67.13-8.37-80.19 1.55-21.2 15.51-50 12.42-56.22-1-2-6.62-13-17.31-16.24-15.61-4.71-30.69-2.51-42.46-3.54-5.61-.5-19.23 1.29-24.33 3.66l-29.33 8.84"/><path class="cls-2" d="M461.91 78.51c.12.68 6 15.47 4.79 30.55 0 0 0 6 .72 6.61a18.48 18.48 0 0 0 10.86 4 48.42 48.42 0 0 0 21.64-3.24c3.42-1.45 7.12-3.3 9.34-6.49 1-1.4 2.25-3.78 2.05-5.56s-1.62-3.63-2.28-5.16a179.39 179.39 0 0 1-8.27-25c-2.19-8.26-4.11-16.63-5.47-25.06-2.19-13.5-38.85-3.4-33.38 29.35z"/><path class="cls-8" d="M463.72 86.08s1.79 9.48 1.91 11.39c0 0 24.45-5 31.22-27.8z"/><path class="cls-9" d="M475 57.46c1-.8 2.35-1.33 3.3.8M463.77 50.66a14.05 14.05 0 0 0 5.21-.34M451.21 54.66s-.13 2.38-1.45 3.2M465.37 74.25a6.75 6.75 0 0 0 6.2-2.4"/><path class="cls-8" d="M458.05 73.86s2.3 3.68-3.39 4a7.4 7.4 0 0 1-3-.77l-1.39-1.79s-2.88 0-2.57-.44 10.35-1 10.35-1z"/><path class="cls-2" d="M465 85.91c-.79.13-15.78-6-17.24-7.93s-11-23.75-11-23.75-8.1-18.69-2.76-26.91S450.66 9.56 460.6 8.5s29.13.66 35.78 16.7c3.44 8.28 1.38 18.93 1.38 18.93.12.84-2.58 3.73-2 6.46.85 3.78 1 15.28 2 19.57C499.54 77.82 465 85.91 465 85.91z"/><path d="M490.67 38.43s1-1.27 4.19-.24 1.11 9.4.15 12a17.66 17.66 0 0 0-1 3.88l1.32-1.91A28.47 28.47 0 0 0 499 41.28c1.19-10.79-.48-32.95-12.61-39.42 0 0-7.36-4.26-14.77.12 0 0-27.26-5.21-46 14.65-14.7 15.54-1.42 37.1 12.1 39.54l-2.57-7.39a26.11 26.11 0 0 1 .03-17.78 14.33 14.33 0 0 1 2.34-4.21c3.77-4.35 10.73-15.66 25.23-16.82s17.3 16 18.47 20.2l2.95 10.6 7.81.66z"/><path d="M484.17 40.73s4.09 7.34.32 15.14c0 0-4.68 7.76-15.78 12.64s-21 9.47-21 9.47 6.35 10.38 9.69 14.09c6.82 7.56 14.7 9.78 27.19 2.88C493.8 89.87 500.16 79 500.8 72.5c.69-7-8.82-31.11-8.82-31.11zM460.21 17.53c-.85-.05-4.78 11.11-12.47 20.19s-15.06 12.34-15.06 12.34-8-15.92-.28-24 13.69-15.65 22.91-17.32 17.88-6 24 1.53 8.1 21 8.1 21a20.92 20.92 0 0 1-6.14 2.24c-2.94.42-9.76-.15-11.44-5.74s-6.19-10.05-9.62-10.24z"/><ellipse class="cls-10" cx="466.84" cy="49.32" rx="6.42" ry="10.01" transform="rotate(-21.6 461.528 48.64)"/><ellipse class="cls-10" cx="448.6" cy="58.7" rx="6.01" ry="9.75" transform="rotate(-23.56 448.593 58.702)"/><path class="cls-10" d="M453.83 55.71a6.72 6.72 0 0 1 7.46-3.61M472.35 45.62l18.32-7.19"/><path stroke="#000" stroke-width="1.5" stroke-linecap="round" stroke-linejoin="round" fill="none" d="M442.54 60.33l-2.32 1.52"/><path class="cls-2" d="M461 82c-1.62-.39-1.64-2.37-.25-3.29A50.19 50.19 0 0 1 475 72c1.08-.31 2.12.42 1.72 1.47a11.93 11.93 0 0 1-6.81 7.46A14.17 14.17 0 0 1 461 82z"/><path class="cls-6" d="M561 480.77s1.41-61.68 1.78-79 .81-70.6.81-74.55-3.62-41.17-5.27-50.72-6.57-35.85-8.19-48c-1.78-13.43-6.63-80.6-6.63-80.6S526 175.42 530 195.84s14.79 46.77 8.56 71.13c-5.32 20.81-6.85 51.24 2.43 74.72 10.3 26 7.86 46.55 5.89 67.29s9.21 65.59 14.12 71.79z"/><path class="cls-7" d="M526 165.78c.38.78 24.68 36.26 30.34 48.27a6.39 6.39 0 0 1 .57 3.5c-1.6 13.33-17.5 82.71-19.54 86-2.22 3.58 17.6 12.16 29.66 10.89 0 0 26.86-91.44 27-92.59s6.19-13.94-2.64-30.79c-9.62-18.37-28.14-58.35-32.7-68.22a29.29 29.29 0 0 0-3.31-5.51C552 112.86 543.62 105.52 536 106c-10.83.58-24.88 29-10 59.78z"/><path class="cls-6" d="M492 375.3s-17.82 27.47-16.61 71.82 13.17 50.16 8.75 72.27c-8.81 44.05 8.63 59.69 8.63 59.69l.25-57.56z"/><path class="cls-7" d="M365.3 205.77l1.85 6.12a21.59 21.59 0 0 0 17.24 8.24 22.18 22.18 0 0 0 11.51-3.32c11.38-7.5 33.69-24 33.69-24s15.38-61.92 15.09-77.23c0 0-8.75 3.94-11.41 5.69-27.34 18.02-67.97 84.5-67.97 84.5z"/><path class="cls-6" d="M415.25 142.71c.52-.61 1.05-1.22 1.58-1.82s1.09-1.21 1.65-1.8a154.17 154.17 0 0 0-1.41 19.44c0 1.79 0 3.51-1 5.06s-2.12 2.73-3.05 4.19a9.75 9.75 0 0 0-1.79 5.16c0 2 .32 4 .32 6.06 0 1.5.23 3 .13 4.5a9.89 9.89 0 0 1-1.57 4.38A53.61 53.61 0 0 1 398.63 201a39.13 39.13 0 0 1-8.12 4.81l-.45.22c-4.07 2.2 1.25-32.05 1.25-32.05l9.69-12.62c4.68-6.18 9.21-12.69 14.25-18.65z"/><path class="cls-12" d="M452.79 75.86a4.92 4.92 0 0 0-2.52-1.55 35.41 35.41 0 0 0-4.49-.07l.56 1.16z"/><path class="cls-7" d="M424.21 108.45l-14 .31a10.31 10.31 0 0 0-8.93 5.59c-7.21 14.08-26.26 51.18-31.3 60.27-5.76 10.36-9.51 23.81-6.37 31.58a25.78 25.78 0 0 0 2.81 5.13 17.41 17.41 0 0 0 24.19.57c3-2.59 4.86-7.31 7-12.1 3.17-7 24-70.35 29.58-87.29a3.09 3.09 0 0 0-2.98-4.06z"/><path d="M403.6 111.42a3.68 3.68 0 0 0-.52 1c-.65 1.3-.22 5.56 5.45 5.87a28.42 28.42 0 0 0 14.29-2.76c2.66-1.24 4.24-2.14 4.4-3.07s.12-3.85-3.63-4.09-13.9.1-16.41.84a8.64 8.64 0 0 0-3.58 2.21z" fill="#0054ff"/><path class="cls-2" d="M444.48 96.15a2.5 2.5 0 0 0 .4 2.89c.54.4 3.93-2.68 5.48-5.76 1.22-2.44-4.51-6.75-7.17-7.92a32.1 32.1 0 0 0-6.26-1.61z"/><path class="cls-12" d="M443.8 89.15c.07-.55-2.95-6.54-2.48-6.26 1.78 1.08 6.17 6.17 6.77 7.51 1.05 2.35.72 4.8-3.62 5.92-.42.11-.66-.84-.6-1.33z"/><path class="cls-2" d="M425.71 108.27a1.28 1.28 0 0 0-1.36.81 22.15 22.15 0 0 0-2.05 6.74 18 18 0 0 1-5.33 1.83 32.78 32.78 0 0 1-4.46.65c-4.69.4-7.79.08-8.2-1.3 0-.11 11.32-14.1 12.46-15.71 1.8-2.56 11.64-17.29 13.62-19.29 0 0 8.82-5.8 9.92-6.31s8.3-.94 9.67-1a.89.89 0 0 1 .42.07c1.26.54 8.07 3.41 8.46 3.38.12 0 .06.21-.15.52a4.88 4.88 0 0 1-3.93 2.07 22.62 22.62 0 0 1-5.93-1.26s-6.87 1.2-8 2.28c0 0 5.73 6.68 6.59 8.33a4.1 4.1 0 0 1-1.19 5.52 1.75 1.75 0 0 1-1.95.06c-1.71-1.31-5.93-6.89-5.66-6.24.07.18 4.31 4.71 5.45 7.32.6 1.41-.7 3.55-2.22 4.19-.7.29-2.3-.5-2.3-.5.75 2.83-.23 3.83-.63 4.42-1 1.47-2 2.84-4.27 2.78a16.19 16.19 0 0 1-2.39-.16c-.52-.13-1.18-.61-1.12-1.15A2 2 0 0 1 432 105a3.73 3.73 0 0 1 1.44-.5 9.76 9.76 0 0 0 1.9-.47c.55-.28-2.14-2.28-2.29-2.41s-.49 3.62-2.76 5.23a7.74 7.74 0 0 1-4.58 1.42z"/><path class="cls-12" d="M431.38 100.35s2.8 2 3.33 2.5 1 .93.68 1.15a16 16 0 0 1-2.5.73 3.56 3.56 0 0 0-1.25.59 4.07 4.07 0 0 0 .66-1.88 5.56 5.56 0 0 0-.56-2.08 2 2 0 0 1-.36-1.01zM441.76 101c.21-.1-2.09-2.68-4-4.26a7.26 7.26 0 0 0-3.6-1.74s5.17 5.28 5.43 5.66a2.71 2.71 0 0 0 2.17.34zM445.28 96.07s-1.28.62-1.44.38c-1.88-2.73-5.14-6.73-5.27-7.06s2.34 1.32 3.16 2.08 3.32 2.22 3.55 4.6z"/><path class="cls-6" d="M433.17 265.41c0-1.79 1.14-4.1 1.52-5.88a56.52 56.52 0 0 0 1.6-10.95c.06-4-.38-8 .74-11.87 1-3.42 3.07-6.58 3.33-10.18.27-3.78-1.9-6.71-2.79-10.31a87.48 87.48 0 0 1-1.72-12.07c-1.05-9.82-3-19.77-7.94-28.32 1 1.71.6 5.86.8 7.86.25 2.47.45 5 .66 7.43.47 5.51 1.29 11 1.79 16.52 1.77 19.27 1.84 38.45 2.01 57.77z"/><path d="M422.69 20.69a53 53 0 0 0-2.78 10.7 24.91 24.91 0 0 0 .57 10.61 16 16 0 0 0 2.27 4.71 18.92 18.92 0 0 0 3.71 3.77 34.56 34.56 0 0 0 9.84 4.83 24.58 24.58 0 0 1-10.74-3.55 18.33 18.33 0 0 1-4.33-3.93 17 17 0 0 1-2.66-5.25 23 23 0 0 1-.19-11.5 32.25 32.25 0 0 1 4.31-10.39zM458 13.83a14.52 14.52 0 0 1 1.8 7.76 22.8 22.8 0 0 1-1.67 7.91 30.64 30.64 0 0 1-4 7c-.82 1.05-1.72 2-2.6 3s-1.93 1.82-2.95 2.66c.7-1.14 1.45-2.2 2.19-3.27l2.07-3.29c.57-1.15 1.33-2.19 1.83-3.37l.86-1.7c.25-.58.47-1.18.71-1.76a30.41 30.41 0 0 0 2-7.29 21.69 21.69 0 0 0-.24-7.65z"/><path class="cls-2" d="M535.16 312.08c-3.8 2.05-9.94.08-12.13 1.68s-12.13 5.49-13.45 7.68 3.65 2.58 4.36 2.48c4.26-.57 5.9-1.6 5.9-1.6a3.23 3.23 0 0 1 2.79 1.13 24.88 24.88 0 0 0 5.91 5.49c3.81 2.34 6.93 4.66 20.09 7.45 0 0 4.21-18.47 7-23a63 63 0 0 1-9-2.65 52.76 52.76 0 0 1-8-4.62z"/><path class="cls-14" d="M453.44 6.45a98.69 98.69 0 0 0-8.63 4.79 53.21 53.21 0 0 0-7.76 5.84 29.52 29.52 0 0 0-6 7.43 24 24 0 0 0-1.8 4.49 27.44 27.44 0 0 0-.81 4.85 17.7 17.7 0 0 1-.15-5 19.52 19.52 0 0 1 1.37-4.94 24.8 24.8 0 0 1 6-8.22 37.78 37.78 0 0 1 8.34-5.8 38.3 38.3 0 0 1 9.44-3.44zM450.72 15.86a40.57 40.57 0 0 1-1.84 6.62 55.93 55.93 0 0 1-2.74 6.31 39.67 39.67 0 0 1-3.66 5.87 15.78 15.78 0 0 1-5.09 4.7 32.84 32.84 0 0 0 3.8-5.57c1.09-1.94 2.17-3.9 3.17-5.91 2.08-3.99 4.03-8.05 6.36-12.02zM467.27 11.31a5.16 5.16 0 0 1 3.09-.06 10 10 0 0 1 2.86 1.34 16.3 16.3 0 0 1 4.23 4.54l.78 1.3a8.59 8.59 0 0 0 .77 1.07 10.61 10.61 0 0 0 2 1.84 21.5 21.5 0 0 0 5.19 2.58 12 12 0 0 1-6-1.29 9.36 9.36 0 0 1-2.6-1.89 8.06 8.06 0 0 1-1-1.3l-.79-1.22a24.75 24.75 0 0 0-3.55-4.37 8.76 8.76 0 0 0-4.98-2.54z"/><path class="cls-5" d="M538.34 306.65c0 .17 8.62 7.44 10.75 8.8s4.6 2.69 4.6 2.69l1.95-4.65s-7.69-2-11.42-4a43.36 43.36 0 0 1-5.56-3.37z"/><path class="cls-15" d="M159 659.54L4 686.61l-4-2V655a44 44 0 0 1 12.76-31l146.17-147.16z"/><path class="cls-16" d="M163 661.54L4 686.61V657a44 44 0 0 1 12.76-31l146.17-147.16zM282.8 641.72l116.83-18.09v-40a21.07 21.07 0 0 0-9.15-17.38l-110.67-76z"/><path fill="#e7e2eb" d="M4 670.61v16l395.63-62.98.09-11.96L4 670.61z"/><path class="cls-18" d="M162.93 700.27l-7.11-5.27a38.82 38.82 0 0 1-15.58-31.09v-190l22.69 5z"/><path d="M218.61 417.28s-69.11 1.28-78.37 56.6l22.69 5c7.45.33 55.68-61.6 55.68-61.6z" fill="#5fbaff"/><path class="cls-16" d="M90.45 691.57A11.56 11.56 0 0 1 78.89 680v-79.48a11.56 11.56 0 0 1 23.12 0V680a11.57 11.57 0 0 1-11.56 11.57z"/><path class="cls-18" d="M90.2 682.9c-9.82 0-17.77-4.85-17.77-10.82v-78.36c0-6 7.95-10.81 17.77-10.81s17.8 4.84 17.8 10.81v78.36c0 5.97-8 10.82-17.8 10.82z"/><path class="cls-16" d="M335.35 655.77A10.78 10.78 0 0 1 324.57 645v-74.15a10.79 10.79 0 0 1 21.57 0V645a10.78 10.78 0 0 1-10.79 10.77z"/><path class="cls-18" d="M335.12 647.69c-9.15 0-16.57-4.52-16.57-10.09v-73.09c0-5.57 7.42-10.08 16.57-10.08s16.57 4.51 16.57 10.08v73.09c0 5.57-7.42 10.09-16.57 10.09z"/><path d="M163.05 685l-.12 8.78s-18.23-9.82-20.46-20.93S163.05 685 163.05 685z" fill="#cec3d6"/><path d="M279.81 475.72L163 478.84a26 26 0 0 1-.08-3.12c0-32.27 25.93-58.43 57.44-58.43 23.28 0 59.45 26.16 59.45 58.43z" fill="#f8f6f9"/><path fill="#f3f0f5" d="M162.93 478.84v221.43l120.67-14.68-3.79-209.87-116.88 3.12z"/><path class="cls-18" d="M282.77 637.2l72.21 35.01v12.2l-71.78-21.03-.43-26.18z"/><path class="cls-23" d="M354.98 684.41l6.55-.76v-12.2l-6.55.76v12.2z"/><path class="cls-24" d="M361.53 671.45l-78.76-40.67v6.42l72.21 35.01 6.55-.76z"/><rect class="cls-25" x="346.88" y="614.47" width="21.08" height="57.85" rx="4.96" ry="4.96"/><path class="cls-26" d="M163.08 484.49c9.91 10.91 31.67 40.62 32.5 93 .07 3.82 2.74 6.44 6.54 6l23.22-2.75s5-61-34.26-102.09l-26.55.38c-.56 0-1.24-.58-1.6-.24-.76.78-1.12 4.3.15 5.7zM245.93 482.05c9.91 10.92 29.82 33.06 30.65 85.48.07 3.82 2.74 6.44 6.54 6l23.22-2.75s4.05-54.42-28.88-95.09l-31.7.87c-.76.73-1.09 4.1.17 5.49z"/><path class="cls-27" d="M222.26 581.24C225.18 658.38 198.77 696 198.77 696l-20.12 2.47c33.27-33.55 29.48-115.63 29.48-115.63z"/><path class="cls-18" d="M134.91 654.25l79.9 39.5v12.18l-55.47-18a35.36 35.36 0 0 1-24.43-33.63z"/><path class="cls-23" d="M214.81 705.93l6.55-.73v-12.22l-6.55.77v12.18z"/><path class="cls-24" d="M221.36 692.98l-76.23-39.91-10.22 1.18 79.9 39.5 6.55-.77z"/><rect class="cls-25" x="205.86" y="631.91" width="22.97" height="63.02" rx="4.96" ry="4.96"/><path class="cls-28" d="M245.76 476.57s37 25.08 35.52 97.51l27.21-2.39s6-57.86-31.1-96.21zM162.93 478.84s39.16 32.41 37.64 104.83l28.53-3.19s6.23-61.55-33-102.59z"/><path class="cls-27" d="M301.29 572c2.62 69.26-18.83 107.18-23.23 114.21l-19.81 2.33c32.12-34.22 28.92-115 28.92-115z"/><path class="cls-15" d="M107.71 591.55s-3.1-8.63-17.51-8.64-17.52 8.85-17.52 8.85 5.5 7.31 17.78 6.88 17.25-7.09 17.25-7.09z"/></g></g></g></svg>